<?xml version="1.0" encoding="utf-8"?>
<!-- Generator: Adobe Illustrator 26.3.1, SVG Export Plug-In . SVG Version: 6.00 Build 0)  -->
<svg version="1.1" id="Layer_1" xmlns="http://www.w3.org/2000/svg" xmlns:xlink="http://www.w3.org/1999/xlink" x="0px" y="0px"
	 viewBox="0 0 198 170" style="enable-background:new 0 0 198 170;" xml:space="preserve">
<path d="M75.9,0C65.8,0,56.2,4,49.1,11.1c-7.1,7.1-11.1,16.7-11.1,26.7s4,19.6,11.1,26.7s16.8,11.1,26.8,11.1
	c10.1,0,19.7-4,26.8-11.1c7.1-7.1,11.1-16.7,11.1-26.7s-4-19.6-11.1-26.7C95.6,4,86,0,75.9,0z M75.9,18.9c5,0,9.9,2,13.4,5.5
	c3.6,3.5,5.6,8.3,5.6,13.4c0,5-2,9.8-5.6,13.4c-3.6,3.5-8.4,5.5-13.4,5.5s-9.9-2-13.4-5.5c-3.6-3.5-5.6-8.3-5.6-13.4
	c0-5,2-9.8,5.6-13.4C66,20.9,70.9,18.9,75.9,18.9z M142.3,75.6c-1.5,0-2.3,0.8-2.3,2.3l-2.5,11.9c-2.1,1.7-5.1,3.2-7.4,4.7L118,89.7
	c-0.8,0-2.3,0-3,0.9l-9.1,16.6c-0.8,0.8-0.8,2.3,0.8,3l9.9,7.7v9.4l-9.9,7.7c-0.8,0.8-1.5,2.3-0.8,3l9.1,16.6c0.8,0.9,2.3,0.9,3,0.9
	l12.1-4.7c2.3,1.5,5.3,3,7.4,4.7l2.5,11.9c0,1.5,0.8,2.3,2.3,2.3h19c0.8,0,2.3-0.8,2.3-2.3l1.5-11.9c3-1.7,6.1-3.2,8.3-4.7l11.6,4.7
	c1.3,0,2.8,0,2.8-0.9l9.9-16.6c0.8-0.8,0-2.3-0.8-3l-9.9-7.7v-9.4l9.9-7.7c0.8-0.8,1.5-2.3,0.8-3l-9.9-16.6c0-0.9-1.5-0.9-2.8-0.9
	l-11.6,4.7c-2.3-1.5-5.3-3-8.3-4.7l-1.5-11.9c0-1.5-1.5-2.3-2.3-2.3H142.3z M75.9,85C50.6,85,0,97.6,0,122.8v28.3h91.7
	c-2.7-5.6-4.6-11.6-5.5-17.9H18v-10.4c0-6,29.7-19.8,57.9-19.8c4.1,0,8.3,0.4,12.3,0.9c1.9-6,4.5-11.7,7.8-16.9
	C88.6,85.8,81.6,85,75.9,85z M152.2,108.6c7.6,0,13.9,6.2,13.9,14.5c0,7.6-6.3,13.8-13.9,13.8c-8.3,0-14.6-6.2-14.6-13.8
	C137.5,114.8,143.8,108.6,152.2,108.6z"/>
</svg>
