<?xml version="1.0" encoding="utf-8"?>
<!-- Generator: Adobe Illustrator 26.3.1, SVG Export Plug-In . SVG Version: 6.00 Build 0)  -->
<svg version="1.1" id="Layer_1" xmlns="http://www.w3.org/2000/svg" xmlns:xlink="http://www.w3.org/1999/xlink" x="0px" y="0px"
	 viewBox="0 0 164 192" style="enable-background:new 0 0 164 192;" xml:space="preserve">
<path fill="black" d="M150.3,0.9h-82c-3.6,0-7.1,1.4-9.7,4c-2.6,2.6-4,6-4,9.6v20.4h13.7V14.5h82v163.3h-82v-20.4H54.7v20.4c0,3.6,1.4,7.1,4,9.6
	c2.6,2.6,6,4,9.7,4h82c3.6,0,7.1-1.4,9.7-4c2.6-2.6,4-6,4-9.6V14.5c0-3.6-1.4-7.1-4-9.6C157.4,2.3,154,0.9,150.3,0.9z"/>
<path fill="black"  d="M50.7,64.9L26.2,89.3H123v13.6H26.2l24.5,24.4l-9.7,9.6L0,96.1l41-40.8L50.7,64.9z"/>
</svg>
