<svg version="1.1" id="Layer_1" xmlns="http://www.w3.org/2000/svg" xmlns:xlink="http://www.w3.org/1999/xlink" x="0px" y="0px"
	 viewBox="0 0 159 159" style="enable-background:new 0 0 159 159;" xml:space="preserve">
<path fill="black" d="M159,79.4C159,35.6,123.4,0,79.5,0S0,35.6,0,79.4c0,24.1,11,45.9,28.1,60.5c0.2,0.2,0.3,0.2,0.3,0.3
	c1.4,1.1,2.9,2.2,4.5,3.3c0.8,0.5,1.4,1.1,2.2,1.7c13.1,8.9,28.6,13.7,44.5,13.7c15.9,0,31.4-4.8,44.5-13.7c0.8-0.5,1.4-1.1,2.2-1.6
	c1.4-1.1,3-2.2,4.5-3.3c0.2-0.2,0.3-0.2,0.3-0.3C148,125.3,159,103.6,159,79.4z M79.5,149c-14.9,0-28.6-4.8-39.9-12.7
	c0.2-1.3,0.5-2.5,0.8-3.8c0.9-3.4,2.3-6.8,4.1-9.8c1.7-3,3.8-5.7,6.4-8.1c2.4-2.4,5.2-4.6,8.1-6.3c3-1.7,6.2-3,9.7-4
	c3.5-1,7.2-1.4,10.8-1.4c10.8-0.1,21.3,4.1,29.1,11.6c3.7,3.7,6.5,7.9,8.6,12.9c1.1,2.9,1.9,5.9,2.4,9.1
	C107.8,144.5,93.8,149,79.5,149z M55.2,75.5c-1.4-3.2-2.1-6.7-2.1-10.2c0-3.5,0.6-7,2.1-10.2s3.3-6,5.7-8.4c2.4-2.4,5.2-4.3,8.4-5.7
	s6.7-2.1,10.2-2.1c3.7,0,7,0.6,10.2,2.1s6,3.3,8.4,5.7c2.4,2.4,4.3,5.2,5.7,8.4c1.4,3.2,2.1,6.7,2.1,10.2c0,3.7-0.6,7-2.1,10.2
	c-1.4,3.1-3.3,6-5.7,8.4c-2.4,2.4-5.3,4.3-8.4,5.7c-6.6,2.7-13.9,2.7-20.5,0c-3.1-1.4-6-3.3-8.4-5.7C58.3,81.5,56.4,78.6,55.2,75.5
	L55.2,75.5z M128.9,128.2c0-0.3-0.2-0.5-0.2-0.8c-1.6-5-3.9-9.7-6.8-14c-3-4.3-6.6-8.1-10.8-11.3c-3.2-2.4-6.7-4.4-10.3-6
	c1.7-1.1,3.2-2.4,4.6-3.8c2.4-2.3,4.5-5,6.2-7.8c3.5-5.8,5.3-12.4,5.2-19.2c0-5-0.9-10-2.9-14.6c-1.9-4.5-4.7-8.5-8.1-11.9
	c-3.4-3.4-7.5-6.1-11.9-8c-4.6-1.9-9.6-2.9-14.6-2.9c-5,0-10,0.9-14.6,2.9c-4.5,1.9-8.5,4.6-11.9,8.1c-3.4,3.4-6.1,7.5-7.9,11.9
	c-1.9,4.6-2.9,9.6-2.9,14.6c0,3.5,0.5,6.8,1.4,10c1,3.3,2.2,6.4,4,9.2c1.6,2.9,3.8,5.4,6.2,7.8c1.4,1.4,3,2.7,4.8,3.8
	c-3.7,1.7-7.1,3.7-10.3,6.2c-4.1,3.2-7.8,7-10.8,11.1c-3,4.3-5.3,9-6.8,14c-0.2,0.3-0.2,0.6-0.2,0.8C17.6,115.6,9.9,98.5,9.9,79.4
	c0-38.3,31.3-69.6,69.6-69.6s69.6,31.3,69.6,69.6C149.1,97.7,141.9,115.2,128.9,128.2z"/>
</svg>
