<svg width="104" height="90" viewBox="0 0 104 90" fill="none" xmlns="http://www.w3.org/2000/svg">
<path d="M94.2771 11.4081H81.4649V9.65886C81.4649 7.09717 80.474 4.6404 78.7101 2.82902C76.9462 1.01763 74.5539 0 72.0594 0H9.40549C6.911 0 4.51868 1.01763 2.75481 2.82902C0.990933 4.6404 0 7.09717 0 9.65886V51.1843C0 53.746 0.990933 56.2028 2.75481 58.0142C4.51868 59.8256 6.911 60.8432 9.40549 60.8432H14.3674L14.8118 77.8413C14.8401 78.6123 15.0961 79.3563 15.5459 79.9743C15.9956 80.5924 16.6178 81.0554 17.3298 81.3017C17.7073 81.4537 18.1093 81.5311 18.5148 81.5299C19.0617 81.5262 19.6011 81.3981 20.0941 81.1548C20.5871 80.9115 21.0215 80.5591 21.366 80.1229L27.7721 72.2513H28.883H36.2889L52.9892 88.717C53.6757 89.3965 54.5909 89.7779 55.5443 89.7818C56.0406 89.7808 56.5317 89.6773 56.9884 89.4776C57.6577 89.1864 58.2288 88.6995 58.6304 88.0774C59.0321 87.4553 59.2466 86.7255 59.2472 85.9791V72.2513H94.2771C96.7716 72.2513 99.1639 71.2337 100.928 69.4223C102.692 67.6109 103.683 65.1541 103.683 62.5924V21.067C103.683 18.5053 102.692 16.0485 100.928 14.2371C99.1639 12.4257 96.7716 11.4081 94.2771 11.4081ZM21.6623 57.0405C21.6623 56.032 21.2721 55.0647 20.5777 54.3516C19.8833 53.6384 18.9414 53.2378 17.9593 53.2378H9.40549C8.87517 53.2378 8.36656 53.0215 7.99157 52.6364C7.61657 52.2513 7.4059 51.729 7.4059 51.1843V9.65886C7.4059 9.11425 7.61657 8.59194 7.99157 8.20684C8.36656 7.82175 8.87517 7.6054 9.40549 7.6054H72.0594C72.5897 7.6054 73.0983 7.82175 73.4733 8.20684C73.8483 8.59194 74.059 9.11425 74.059 9.65886V51.1843C74.059 51.729 73.8483 52.2513 73.4733 52.6364C73.0983 53.0215 72.5897 53.2378 72.0594 53.2378H32.4378C31.903 53.2378 31.3745 53.3567 30.8887 53.5865C30.4028 53.8162 29.9713 54.1514 29.6236 54.5688L21.8474 63.8474L21.6623 57.0405ZM96.2767 62.5924C96.2767 63.1371 96.066 63.6594 95.691 64.0445C95.316 64.4296 94.8074 64.6459 94.2771 64.6459H55.5443C54.5622 64.6459 53.6203 65.0465 52.9259 65.7597C52.2314 66.4728 51.8413 67.4401 51.8413 68.4486V77.0427L40.3622 65.6346C39.6757 64.9551 38.7605 64.5738 37.8071 64.5699H33.7709L36.7703 60.7672H72.0594C74.5411 60.7672 76.9223 59.7601 78.6841 57.9651C80.4458 56.1701 81.4454 53.7328 81.4649 51.1843V19.0135H94.2771C94.8074 19.0135 95.316 19.2298 95.691 19.6149C96.066 20 96.2767 20.5224 96.2767 21.067V62.5924Z" fill="#FA6334" fill-opacity="0.7"/>
<path d="M63.858 43.9858H61.872V19.5172C61.8735 19.26 61.7298 19.0097 61.4635 18.8054C61.1971 18.601 60.823 18.4542 60.3994 18.3876C59.9759 18.3211 59.5267 18.3387 59.122 18.4377C58.7173 18.5366 58.3797 18.7113 58.162 18.9346L51.5068 25.766L47.3877 23.3541C47.1704 23.2266 46.9057 23.1305 46.6143 23.0732C46.3229 23.0159 46.0128 22.9991 45.7085 23.0241C45.4041 23.049 45.1138 23.1151 44.8603 23.217C44.6069 23.319 44.3972 23.4541 44.2478 23.6116L35.4238 32.933L29.3008 30.2368C29.0681 30.1343 28.7997 30.063 28.5148 30.0281C28.2299 29.9932 27.9354 29.9954 27.6521 30.0346C27.3689 30.0739 27.1038 30.1492 26.8756 30.2552C26.6474 30.3612 26.4617 30.4953 26.3317 30.6481L18.179 40.2153V17.1869C18.179 16.8778 17.9698 16.5815 17.5973 16.363C17.2248 16.1445 16.7197 16.0217 16.193 16.0217C15.6662 16.0217 15.1611 16.1445 14.7886 16.363C14.4162 16.5815 14.2069 16.8778 14.2069 17.1869V45.151C14.2185 45.2057 14.2371 45.2598 14.2625 45.3129C14.2753 45.3973 14.3039 45.4805 14.3479 45.5611C14.3982 45.6277 14.4594 45.6914 14.5306 45.751C14.5913 45.8172 14.6632 45.8797 14.7451 45.9375C14.8455 45.9947 14.956 46.0455 15.0748 46.0889C15.1462 46.1273 15.2225 46.1624 15.3032 46.1938C15.329 46.2008 15.3548 46.2031 15.3807 46.2101C15.4065 46.2171 15.4541 46.2253 15.4919 46.2334C15.7151 46.2857 15.9527 46.3137 16.193 46.3161H63.858C64.3847 46.3161 64.8899 46.1934 65.2623 45.9749C65.6348 45.7564 65.844 45.46 65.844 45.151C65.844 44.8419 65.6348 44.5456 65.2623 44.3271C64.8899 44.1086 64.3847 43.9858 63.858 43.9858Z" fill="#FA6334" fill-opacity="0.7"/>
</svg>
