<svg width="87" height="91" viewBox="0 0 87 91" fill="none" xmlns="http://www.w3.org/2000/svg">
<path d="M76.5535 53.2211C81.5893 53.2211 85.6902 57.2432 85.6902 62.1966C85.6902 67.1498 81.5902 71.1721 76.5405 71.1721H10.1497C5.09637 71.1721 1 67.1556 1 62.1966C1 57.2445 5.09309 53.2211 10.1367 53.2211C10.5889 53.2211 10.9636 52.8527 10.9636 52.4023V32.821C10.9636 15.2421 25.4589 1 43.3451 1C61.2313 1 75.7267 15.2455 75.7267 32.821V52.4023C75.7267 52.8617 76.0926 53.2211 76.5535 53.2211ZM76.5535 58.1168C73.3418 58.1168 70.7449 55.566 70.7449 52.4023V32.821C70.7449 17.9493 58.4799 5.89573 43.3451 5.89573C28.2101 5.89573 15.9453 17.9462 15.9453 32.821V52.4023C15.9453 55.5559 13.341 58.1168 10.1367 58.1168C7.84473 58.1168 5.98178 59.9481 5.98178 62.1966C5.98178 64.4493 7.84521 66.2764 10.1497 66.2764H76.5405C78.8408 66.2764 80.7084 64.4441 80.7084 62.1966C80.7084 59.9492 78.8402 58.1168 76.5535 58.1168ZM29.2301 76.0678H34.2118C34.2118 81.0249 38.3009 85.0433 43.3451 85.0433C48.3893 85.0433 52.4784 81.0249 52.4784 76.0678H57.4601C57.4601 83.7287 51.1406 89.9391 43.3451 89.9391C35.5496 89.9391 29.2301 83.7287 29.2301 76.0678Z" fill="#FA6334" fill-opacity="0.7"/>
<path d="M29.2301 75.8178H28.9801V76.0678C28.9801 83.8708 35.4156 90.1891 43.3451 90.1891C51.2746 90.1891 57.7101 83.8708 57.7101 76.0678V75.8178H57.4601H52.4784H52.2284V76.0678C52.2284 80.8827 48.2553 84.7933 43.3451 84.7933C38.4349 84.7933 34.4618 80.8827 34.4618 76.0678V75.8178H34.2118H29.2301ZM85.9402 62.1966C85.9402 57.1008 81.7231 52.9711 76.5535 52.9711C76.2278 52.9711 75.9767 52.7207 75.9767 52.4023V32.821C75.9767 15.1034 61.3653 0.75 43.3451 0.75C25.325 0.75 10.7136 15.0999 10.7136 32.821V52.4023C10.7136 52.7118 10.4537 52.9711 10.1367 52.9711C4.95918 52.9711 0.75 57.1023 0.75 62.1966C0.75 67.2982 4.96288 71.4221 10.1497 71.4221H76.5405C81.7238 71.4221 85.9402 67.2923 85.9402 62.1966ZM70.4949 52.4023C70.4949 55.708 73.2077 58.3668 76.5535 58.3668C78.7065 58.3668 80.4584 60.0916 80.4584 62.1966C80.4584 64.3011 78.7076 66.0264 76.5405 66.0264H10.1497C7.97834 66.0264 6.23178 64.3063 6.23178 62.1966C6.23178 60.0903 7.97856 58.3668 10.1367 58.3668C13.4752 58.3668 16.1953 55.6978 16.1953 52.4023V32.821C16.1953 18.0883 28.344 6.14573 43.3451 6.14573C58.346 6.14573 70.4949 18.0915 70.4949 32.821V52.4023Z" stroke="#FA6334" stroke-opacity="0.7" stroke-width="0.5"/>
</svg>
