<svg width="92" height="97" viewBox="0 0 92 97" fill="none" xmlns="http://www.w3.org/2000/svg">
<path d="M49.115 45.9642H89.8409C90.4175 45.9642 90.9649 45.7084 91.3516 45.2601C91.7384 44.8118 91.9268 44.2165 91.871 43.6109C89.7139 19.9784 71.7908 1.64027 49.2547 0.00283367C48.6976 -0.0265637 48.1377 0.173339 47.723 0.576083C47.3111 0.983237 47.0752 1.55208 47.0752 2.14737V43.8167C47.0752 45.0029 47.9869 45.9642 49.115 45.9642ZM51.1549 4.50651C69.9143 6.88329 84.7448 22.0347 87.5358 41.6677H51.1549V4.50651Z" fill="#FA6334"/>
<path d="M91.9242 51.9583C91.9661 51.363 91.7706 50.7751 91.3866 50.3385C90.9999 49.899 90.4582 49.6506 89.8899 49.6506H47.1968C46.7779 49.6506 46.3702 49.7844 46.0282 50.0401L10.8732 75.9539C10.4068 76.2934 10.0983 76.827 10.0201 77.4223C9.94468 78.0132 10.1066 78.6144 10.4669 79.0759C19.2574 90.3351 32.2295 96.7908 46.0547 96.7908C69.994 96.7908 90.1426 77.0989 91.9242 51.9583ZM46.0547 92.4958C34.1926 92.4958 23.0187 87.2778 15.066 78.1058L47.8405 53.947H87.6337C84.9865 75.7452 67.1332 92.4958 46.0547 92.4958Z" fill="#FA6334"/>
<path d="M43.5713 46.2365V2.23153C43.5713 1.62301 43.327 1.04388 42.8984 0.638196C42.4697 0.229573 41.9001 0.0443682 41.3248 0.0943437C17.7667 2.63281 0 23.3624 0 48.3134C0 56.6446 2.07615 64.8965 6.00228 72.1841C6.28711 72.7073 6.7674 73.0851 7.33007 73.2159C7.47667 73.2527 7.62886 73.2703 7.77825 73.2703C8.19292 73.2703 8.60341 73.1365 8.94827 72.8808L42.7015 47.9959C43.246 47.5961 43.5713 46.9376 43.5713 46.2365ZM39.4902 45.1179L8.4945 67.9714C5.60017 61.8641 4.07971 55.113 4.07971 48.3134C4.07971 26.3741 19.1503 8.01547 39.4902 4.67299V45.1179Z" fill="#FA6334"/>
</svg>
