<svg width="92" height="97" viewBox="0 0 92 97" fill="none" xmlns="http://www.w3.org/2000/svg">
<path d="M49.0399 45.9646H89.7661C90.3428 45.9646 90.8901 45.7088 91.2768 45.2605C91.6636 44.8122 91.8521 44.2169 91.7962 43.6113C89.6391 19.9785 71.7158 1.64028 49.1795 0.0028337C48.6224 -0.026564 48.0625 0.173341 47.6478 0.576089C47.236 0.983246 47 1.55209 47 2.14739V43.8171C47 45.0033 47.9117 45.9646 49.0399 45.9646ZM51.0797 4.50656C69.8393 6.88336 84.6699 22.0349 87.461 41.6681H51.0797V4.50656Z" fill="black" fill-opacity="0.5"/>
<path d="M91.9325 51.9588C91.9744 51.3635 91.779 50.7756 91.395 50.339C91.0082 49.8995 90.4665 49.6511 89.8983 49.6511H47.2047C46.7859 49.6511 46.3782 49.7849 46.0361 50.0406L10.8807 75.9547C10.4144 76.2942 10.1058 76.8278 10.0276 77.4231C9.95225 78.014 10.1142 78.6152 10.4744 79.0767C19.265 90.336 32.2373 96.7917 46.0626 96.7917C70.0022 96.7917 90.151 77.0997 91.9325 51.9588ZM46.0626 92.4967C34.2004 92.4967 23.0264 87.2787 15.0736 78.1066L47.8484 53.9476H87.642C84.9947 75.746 67.1413 92.4967 46.0626 92.4967Z" fill="black" fill-opacity="0.5"/>
<path d="M43.5793 46.2369V2.23149C43.5793 1.62296 43.335 1.04383 42.9063 0.638141C42.4777 0.229513 41.9081 0.0443067 41.3328 0.0942828C17.7744 2.63277 0.00756836 23.3625 0.00756836 48.3138C0.00756836 56.6451 2.08374 64.897 6.00991 72.1847C6.29474 72.708 6.77503 73.0857 7.33771 73.2166C7.48431 73.2533 7.6365 73.271 7.78589 73.271C8.20057 73.271 8.61106 73.1372 8.95593 72.8814L42.7095 47.9963C43.254 47.5965 43.5793 46.938 43.5793 46.2369ZM39.4982 45.1183L8.50216 67.972C5.6078 61.8647 4.08732 55.1135 4.08732 48.3138C4.08732 26.3743 19.1581 8.01548 39.4982 4.67297V45.1183Z" fill="black" fill-opacity="0.5"/>
</svg>
