<svg width="122" height="119" viewBox="0 0 122 119" fill="none" xmlns="http://www.w3.org/2000/svg">
<mask id="path-1-inside-1_1350_140" fill="white">
<path d="M120.994 4.8909C119.215 1.73608 115.437 0 110.364 0H11.6462C6.57229 0 2.79446 1.73608 1.01025 4.88958C-0.773961 8.04308 -0.181111 11.937 2.67985 15.8561L39.9629 66.919C40.0379 67.0393 40.1667 67.4254 40.1766 67.5457L40.1299 92.143C40.1257 94.5495 41.6085 97.424 43.6969 99.0054L69.6479 116.849C71.5213 118.277 73.4173 119 75.2793 119C78.4996 119 81.7483 116.674 81.7483 111.478V67.5682C81.7596 67.4307 81.887 67.0446 81.9549 66.9349L119.313 15.8534C122.177 11.937 122.775 8.04572 120.994 4.8909ZM113.718 12.2782L76.3589 63.3556C75.5382 64.4716 74.9694 66.1984 74.9694 67.5523V111.478C74.9694 111.917 74.9199 112.266 74.8619 112.511C74.6157 112.394 74.2634 112.193 73.8007 111.841L47.8511 93.9981C47.4266 93.6768 46.9116 92.66 46.913 92.1523L46.9597 67.555C46.9625 66.1984 46.3937 64.4689 45.5759 63.3556L8.28151 12.2848C6.96705 10.4839 6.47891 8.78617 7.00526 7.85136C7.53444 6.91787 9.31299 6.33609 11.6462 6.33609H110.364C112.695 6.33609 114.471 6.91654 114.997 7.84871C115.524 8.78088 115.034 10.4773 113.718 12.2782Z"/>
</mask>
<path d="M120.994 4.8909C119.215 1.73608 115.437 0 110.364 0H11.6462C6.57229 0 2.79446 1.73608 1.01025 4.88958C-0.773961 8.04308 -0.181111 11.937 2.67985 15.8561L39.9629 66.919C40.0379 67.0393 40.1667 67.4254 40.1766 67.5457L40.1299 92.143C40.1257 94.5495 41.6085 97.424 43.6969 99.0054L69.6479 116.849C71.5213 118.277 73.4173 119 75.2793 119C78.4996 119 81.7483 116.674 81.7483 111.478V67.5682C81.7596 67.4307 81.887 67.0446 81.9549 66.9349L119.313 15.8534C122.177 11.937 122.775 8.04572 120.994 4.8909ZM113.718 12.2782L76.3589 63.3556C75.5382 64.4716 74.9694 66.1984 74.9694 67.5523V111.478C74.9694 111.917 74.9199 112.266 74.8619 112.511C74.6157 112.394 74.2634 112.193 73.8007 111.841L47.8511 93.9981C47.4266 93.6768 46.9116 92.66 46.913 92.1523L46.9597 67.555C46.9625 66.1984 46.3937 64.4689 45.5759 63.3556L8.28151 12.2848C6.96705 10.4839 6.47891 8.78617 7.00526 7.85136C7.53444 6.91787 9.31299 6.33609 11.6462 6.33609H110.364C112.695 6.33609 114.471 6.91654 114.997 7.84871C115.524 8.78088 115.034 10.4773 113.718 12.2782Z" stroke="black" stroke-opacity="0.35" stroke-width="8" mask="url(#path-1-inside-1_1350_140)"/>
</svg>
