<svg width="87" height="87" viewBox="0 0 87 87" fill="none" xmlns="http://www.w3.org/2000/svg">
<path d="M43.5 61.625C44.5271 61.625 45.3886 61.277 46.0846 60.581C46.7782 59.8874 47.125 59.0271 47.125 58C47.125 56.9729 46.7782 56.1114 46.0846 55.4154C45.3886 54.7218 44.5271 54.375 43.5 54.375C42.4729 54.375 41.6126 54.7218 40.919 55.4154C40.223 56.1114 39.875 56.9729 39.875 58C39.875 59.0271 40.223 59.8874 40.919 60.581C41.6126 61.277 42.4729 61.625 43.5 61.625ZM43.5 47.125C44.5271 47.125 45.3886 46.777 46.0846 46.081C46.7782 45.3874 47.125 44.5271 47.125 43.5V29C47.125 27.9729 46.7782 27.1114 46.0846 26.4154C45.3886 25.7218 44.5271 25.375 43.5 25.375C42.4729 25.375 41.6126 25.7218 40.919 26.4154C40.223 27.1114 39.875 27.9729 39.875 29V43.5C39.875 44.5271 40.223 45.3874 40.919 46.081C41.6126 46.777 42.4729 47.125 43.5 47.125ZM43.5 79.75C38.4854 79.75 33.7729 78.7978 29.3625 76.8935C24.9521 74.9916 21.1156 72.4094 17.8531 69.1469C14.5906 65.8844 12.0084 62.0479 10.1065 57.6375C8.20217 53.2271 7.25 48.5146 7.25 43.5C7.25 38.4854 8.20217 33.7729 10.1065 29.3625C12.0084 24.9521 14.5906 21.1156 17.8531 17.8531C21.1156 14.5906 24.9521 12.0072 29.3625 10.1029C33.7729 8.20096 38.4854 7.25 43.5 7.25C48.5146 7.25 53.2271 8.20096 57.6375 10.1029C62.0479 12.0072 65.8844 14.5906 69.1469 17.8531C72.4094 21.1156 74.9916 24.9521 76.8935 29.3625C78.7978 33.7729 79.75 38.4854 79.75 43.5C79.75 48.5146 78.7978 53.2271 76.8935 57.6375C74.9916 62.0479 72.4094 65.8844 69.1469 69.1469C65.8844 72.4094 62.0479 74.9916 57.6375 76.8935C53.2271 78.7978 48.5146 79.75 43.5 79.75ZM43.5 72.5C51.5958 72.5 58.4531 69.6906 64.0719 64.0719C69.6906 58.4531 72.5 51.5958 72.5 43.5C72.5 35.4042 69.6906 28.5469 64.0719 22.9281C58.4531 17.3094 51.5958 14.5 43.5 14.5C35.4042 14.5 28.5469 17.3094 22.9281 22.9281C17.3094 28.5469 14.5 35.4042 14.5 43.5C14.5 51.5958 17.3094 58.4531 22.9281 64.0719C28.5469 69.6906 35.4042 72.5 43.5 72.5Z" fill="#ED2939"/>
</svg>
