<svg width="65" height="62" viewBox="0 0 65 62" fill="none" xmlns="http://www.w3.org/2000/svg">
<path d="M62.4195 27.9836L5.75287 1.31698C5.18231 1.04703 4.54679 0.944803 3.92036 1.0222C3.29393 1.09961 2.7024 1.35345 2.21471 1.75415C1.72702 2.15485 1.36326 2.68591 1.16581 3.28543C0.968374 3.88495 0.945387 4.52823 1.09953 5.14031L7.56287 31.0003L1.09953 56.8603C0.943945 57.4726 0.965926 58.1166 1.16291 58.7168C1.35989 59.3171 1.72373 59.8489 2.21186 60.2499C2.69999 60.651 3.29223 60.9048 3.91931 60.9816C4.54639 61.0584 5.18237 60.9551 5.75287 60.6836L62.4195 34.017C62.9922 33.7478 63.4764 33.3212 63.8156 32.787C64.1547 32.2528 64.3348 31.6331 64.3348 31.0003C64.3348 30.3675 64.1547 29.7478 63.8156 29.2137C63.4764 28.6795 62.9922 28.2528 62.4195 27.9836V27.9836ZM9.26953 51.657L12.0662 40.467L30.9995 31.0003L12.0662 21.5336L9.26953 10.3436L53.1695 31.0003L9.26953 51.657Z" fill="#35A265"/>
</svg>
