<svg width="104" height="104" viewBox="0 0 104 104" fill="none" xmlns="http://www.w3.org/2000/svg">
<path d="M56.3333 27.0835C56.3333 28.2328 55.8768 29.335 55.0641 30.1476C54.2515 30.9603 53.1493 31.4168 52 31.4168C50.8507 31.4168 49.7485 30.9603 48.9359 30.1476C48.1232 29.335 47.6667 28.2328 47.6667 27.0835C47.6667 25.9342 48.1232 24.832 48.9359 24.0194C49.7485 23.2067 50.8507 22.7502 52 22.7502C53.1493 22.7502 54.2515 23.2067 55.0641 24.0194C55.8768 24.832 56.3333 25.9342 56.3333 27.0835ZM56.472 10.0752C55.1737 9.12711 53.6076 8.61621 52 8.61621C50.3924 8.61621 48.8263 9.12711 47.528 10.0752L15.3703 33.5402C11.1323 36.6298 13.3207 43.3335 18.5597 43.3335H19.5V68.4668C17.5432 69.4654 15.9006 70.9854 14.7535 72.8589C13.6064 74.7325 12.9996 76.8867 13 79.0835V85.5835C13 87.3732 14.456 88.8335 16.25 88.8335H48.386C47.8104 86.7175 47.5764 84.5232 47.6927 82.3335H19.5V79.0835C19.5 76.0892 21.9267 73.6668 24.9167 73.6668H50.1193C51.4804 71.1426 53.3515 68.929 55.614 67.1668H55.25V43.3335H62.8333V63.5485C64.599 63.0695 66.4205 62.8276 68.25 62.8292H69.3333V43.3335H78V62.8335H83.4167C83.7807 62.8335 84.1403 62.8422 84.5 62.8638V43.3335H85.4403C90.6837 43.3335 92.8677 36.6342 88.6297 33.5402L56.472 10.0752ZM51.3587 15.3228C51.5442 15.1872 51.768 15.1142 51.9978 15.1142C52.2276 15.1142 52.4515 15.1872 52.637 15.3228L82.1167 36.8335H21.8833L51.363 15.3228H51.3587ZM48.75 43.3335V67.1668H41.1667V43.3335H48.75ZM26 67.1668V43.3335H34.6667V67.1668H26ZM99.6667 83.4168C99.6667 79.1071 97.9546 74.9738 94.9071 71.9263C91.8597 68.8789 87.7264 67.1668 83.4167 67.1668L82.9747 67.1972C82.1589 67.3094 81.4162 67.7271 80.8965 68.3659C80.3769 69.0046 80.1191 69.8168 80.1752 70.6383C80.2313 71.4599 80.5972 72.2294 81.1989 72.7916C81.8006 73.3538 82.5932 73.6666 83.4167 73.6668L84.084 73.6928C86.5979 73.8764 88.943 75.0265 90.6274 76.9018C92.3117 78.777 93.2043 81.2317 93.118 83.7508C93.0317 86.27 91.9731 88.6578 90.1644 90.4133C88.3556 92.1689 85.9373 93.1557 83.4167 93.1668L83.4037 93.1885L82.9617 93.2188C82.1435 93.3312 81.3989 93.7508 80.8789 94.3924C80.359 95.034 80.1028 95.8494 80.1624 96.6731C80.222 97.4967 80.5929 98.2668 81.1997 98.8269C81.8066 99.387 82.6039 99.695 83.4297 99.6885V99.6668L84.2963 99.6452C88.4481 99.4201 92.3556 97.6121 95.2148 94.5934C98.074 91.5746 99.6672 87.5747 99.6667 83.4168V83.4168ZM71.5 70.4168C71.5 69.5549 71.1576 68.7282 70.5481 68.1187C69.9386 67.5092 69.1119 67.1668 68.25 67.1668L67.3833 67.1885C63.1494 67.4072 59.1686 69.272 56.2903 72.3849C53.4121 75.4977 51.8644 79.6122 51.9775 83.8503C52.0906 88.0884 53.8555 92.1145 56.8957 95.0694C59.9358 98.0244 64.0104 99.6742 68.25 99.6668L68.692 99.6408C69.5147 99.5365 70.2665 99.1215 70.7932 98.481C71.32 97.8404 71.582 97.0227 71.5255 96.1953C71.469 95.3679 71.0983 94.5933 70.4894 94.0303C69.8804 93.4673 69.0793 93.1584 68.25 93.1668L67.5827 93.1452C65.0571 92.9766 62.6961 91.8324 60.9989 89.9547C59.3016 88.0769 58.4011 85.6126 58.4878 83.083C58.5744 80.5533 59.6415 78.1565 61.4633 76.3992C63.2851 74.642 65.7188 73.6622 68.25 73.6668L68.692 73.6408C69.4708 73.5339 70.1845 73.1483 70.7008 72.5556C71.2171 71.9628 71.501 71.2029 71.5 70.4168ZM86.6667 83.4168C86.6667 82.5549 86.3243 81.7282 85.7148 81.1187C85.1053 80.5092 84.2786 80.1668 83.4167 80.1668H68.25L67.808 80.1972C66.9922 80.3094 66.2495 80.7271 65.7299 81.3659C65.2102 82.0046 64.9524 82.8168 65.0086 83.6383C65.0647 84.4599 65.4305 85.2294 66.0322 85.7916C66.6339 86.3538 67.4266 86.6666 68.25 86.6668H83.4167L83.8587 86.6408C84.6375 86.5339 85.3511 86.1483 85.8674 85.5556C86.3837 84.9628 86.6677 84.2029 86.6667 83.4168V83.4168Z" fill="black"/>
</svg>
