<svg width="471" height="378" viewBox="0 0 471 378" fill="none" xmlns="http://www.w3.org/2000/svg">
<path d="M434.351 169.025C440.923 154.541 434.509 137.472 420.026 130.9C405.542 124.328 388.472 130.741 381.9 145.225C375.328 159.709 381.741 176.778 396.225 183.35C410.709 189.923 427.778 183.509 434.351 169.025Z" stroke="#2C7CDB" stroke-width="2" stroke-linecap="round" stroke-linejoin="round" stroke-dasharray="3.01 3.01"/>
<path d="M410.42 172.26H406.62V167.46C403.42 167.06 400.62 165.86 398.32 163.86L400.42 159.66C402.02 160.86 403.52 161.76 404.92 162.36C406.32 162.86 407.52 163.16 408.62 163.16C410.92 163.16 412.02 162.36 412.02 160.86C412.02 160.06 411.62 159.36 410.82 158.86C410.02 158.36 408.82 157.96 407.22 157.56C404.92 156.86 403.32 156.26 402.52 155.76C400.62 154.66 399.72 152.96 399.72 150.66C399.72 148.66 400.32 147.06 401.62 145.96C402.92 144.86 404.52 144.16 406.62 143.86V139.36H410.42V143.76C413.12 144.06 415.52 144.86 417.42 146.16L415.42 150.46C412.62 148.86 410.22 148.06 408.22 148.06C406.32 148.06 405.32 148.66 405.32 149.96C405.32 150.66 405.72 151.26 406.42 151.76C407.12 152.26 408.32 152.66 410.02 153.16L411.42 153.56C411.72 153.66 412.32 153.86 413.22 154.26C414.62 154.76 415.62 155.56 416.42 156.56C417.22 157.46 417.62 158.76 417.62 160.36C417.62 162.36 417.02 163.96 415.72 165.06C414.42 166.26 412.72 166.96 410.52 167.26V172.26H410.42Z" fill="#2C7CDB"/>
<g clip-path="url(#clip0_2743_941)">
<path d="M141.911 359.929C148.629 345.512 142.389 328.378 127.972 321.66C113.555 314.941 96.4208 321.182 89.7022 335.599C82.9836 350.016 89.2244 367.15 103.641 373.868C118.058 380.587 135.192 374.346 141.911 359.929Z" stroke="#2C7CDB" stroke-width="2" stroke-linecap="round" stroke-linejoin="round" stroke-dasharray="3.01 3.01"/>
<path d="M119.1 329H119V344.3H134.4C134.4 335.9 127.5 329 119.1 329Z" fill="#2C7CDB"/>
<path d="M115.7 347.699V332.399C107.3 332.499 100.5 339.299 100.5 347.699C100.5 356.199 107.4 362.999 115.8 362.999C124.2 362.999 131.1 356.099 131.1 347.699H115.7Z" stroke="#2C7CDB" stroke-width="2" stroke-miterlimit="10"/>
</g>
<circle opacity="0.1" cx="154" cy="120" r="120" fill="#2C7CDB"/>
<circle opacity="0.1" cx="154" cy="120" r="110.638" fill="#52A1FF"/>
<path d="M140.132 220.377C195.334 227.8 246.101 189.069 253.525 133.867C260.949 78.6657 222.217 27.8978 167.016 20.4741C111.814 13.0504 61.0463 51.7819 53.6226 106.983C46.1988 162.185 84.9304 212.953 140.132 220.377Z" fill="#0F31AD"/>
<path d="M140.132 220.377C195.334 227.8 246.101 189.069 253.525 133.867C260.949 78.6657 222.217 27.8978 167.016 20.4741C111.814 13.0504 61.0463 51.7819 53.6226 106.983C46.1988 162.185 84.9304 212.953 140.132 220.377Z" fill="#152368"/>
<path d="M140.132 220.377C195.334 227.8 246.101 189.069 253.525 133.867C260.949 78.6657 222.217 27.8978 167.016 20.4741C111.814 13.0504 61.0463 51.7819 53.6226 106.983C46.1988 162.185 84.9304 212.953 140.132 220.377Z" fill="#152368"/>
<path d="M163.081 108.479L163.885 108.244C164.51 108.07 164.769 107.418 164.584 106.878L164.349 106.073C164.175 105.449 163.523 105.19 162.983 105.375L162.178 105.61C161.554 105.783 161.295 106.436 161.479 106.976L161.715 107.78C161.815 108.309 162.456 108.653 163.081 108.479Z" fill="#2C7CDB"/>
<path d="M84.4394 179.224L81.756 174.913C81.756 174.913 87.0239 171.5 86.9957 166.601C87.0129 161.365 83.1338 155.09 83.1451 155.006L87.4561 152.323C87.6751 152.61 92.0929 159.988 92.0629 166.596C92.0428 174.408 84.7151 179.09 84.4394 179.224Z" fill="#2C7CDB"/>
<path d="M98.3825 128.546L97.2385 125.558C97.1655 125.462 97.1769 125.378 97.0925 125.367C96.7013 123.167 94.8812 121.377 92.4968 121.228C89.6907 121.022 87.3487 123.112 87.1431 125.918L87.0913 126.941C87.0622 127.796 87.2245 128.505 87.4711 129.225L86.2051 134.808L90.3657 135.797L91.1909 132.216C91.3595 132.238 91.6126 132.272 91.7813 132.295C93.997 132.421 95.9725 131.141 96.7508 129.185L97.8586 129.248C98.196 129.293 98.5058 128.906 98.3825 128.546Z" fill="#DE6F76"/>
<path d="M97.6443 144.247C97.3069 144.201 96.8852 144.145 96.4634 144.088C89.255 142.775 86.5809 135.202 86.4462 134.926L89.6869 133.817C89.6755 133.901 91.806 139.769 97.0859 140.737C101.027 141.439 103.357 140.721 105.781 139.931L105.961 139.87L106.987 143.099L106.807 143.16C104.467 143.962 101.693 144.791 97.6443 144.247Z" fill="#45DB82"/>
<path d="M94.3125 126.882C94.6386 126.926 94.9385 126.697 94.9823 126.371C95.0262 126.045 94.7974 125.745 94.4713 125.701C94.1452 125.658 93.8453 125.886 93.8015 126.213C93.7576 126.539 93.9864 126.838 94.3125 126.882Z" fill="black"/>
<path d="M153.625 110.471C153.288 110.426 152.866 110.369 152.444 110.312C145.236 108.999 142.534 100.993 142.399 100.717L145.64 99.6076C145.629 99.6919 147.759 105.56 153.039 106.528C156.981 107.23 159.31 106.512 161.735 105.722L161.915 105.661L163.052 109.334L162.872 109.396C160.459 110.102 157.758 111.027 153.625 110.471Z" fill="#945D5F"/>
<path d="M93.925 130.255L93.6855 130.606L94.952 131.468L95.1914 131.117L93.925 130.255Z" fill="black"/>
<path d="M89.0633 128.237C88.3885 128.146 87.9732 127.404 87.9909 126.633C88.02 125.778 88.6282 125.087 89.303 125.178C89.6404 125.223 89.9551 125.437 90.1741 125.725L89.8027 125.932C89.6567 125.741 89.4993 125.634 89.2463 125.6C88.8245 125.543 88.4077 126.088 88.3283 126.678C88.2489 127.269 88.6026 127.832 89.0243 127.888C89.2774 127.922 89.4688 127.776 89.6601 127.63L89.9635 127.929C89.7721 128.075 89.485 128.294 89.0633 128.237Z" fill="black"/>
<path d="M96.3306 122.087C95.93 123.15 92.0097 123.567 92.0097 123.567L91.3611 125.198C91.22 125.608 90.7642 125.804 90.4382 125.675C90.0164 125.618 89.4374 125.454 89.1843 125.42C87.8688 124.986 87.3357 128.95 87.3357 128.95C87.3357 128.95 86.3965 128.909 86.1059 127.239C85.9436 126.53 86.2336 123.735 86.8028 122.695C90.4207 116.226 96.6127 121.267 96.3306 122.087Z" fill="black"/>
<path d="M103.363 170.692C103.312 170.427 102.674 163.042 97.7607 161.265C94.0785 159.911 89.0453 159.664 86.6155 159.852L86.2726 154.74C88.9554 154.585 94.7818 154.682 99.5264 156.436C107.627 159.415 108.425 170.084 108.38 170.422L103.363 170.692Z" fill="#2C7CDB"/>
<path d="M82.3577 158.937L91.0222 155.808C93.3449 155.777 94.5776 154.913 94.3565 151.448L92.7124 143.241C94.6518 139.036 93.2045 135.75 90.7096 133.869L86.5262 133.049C84.7209 133.064 82.0969 135.974 82.123 137.695L82.3577 158.937Z" fill="#35A265"/>
<path d="M82.6287 153.734C82.6188 152.531 82.5051 138.69 82.5959 138.015C82.4365 134.731 81.3025 132.947 78.6991 132.511C76.0957 132.075 73.6304 133.804 73.1944 136.407C72.8492 138.336 73.7188 140.171 75.3037 141.157C74.3616 143.692 73.4634 147.178 73.8822 149.81C74.0495 151.121 74.4194 152.201 74.8007 153.197C73.7368 154.084 72.9762 155.27 72.699 156.693C72.1837 159.887 74.2667 162.915 77.4606 163.43C80.6544 163.945 83.6825 161.862 84.1979 158.668C84.5318 156.824 83.9152 155.024 82.6287 153.734Z" fill="#91B4D8"/>
<path d="M82.6287 153.734C82.6188 152.531 82.5051 138.69 82.5959 138.015C82.4365 134.731 81.3025 132.947 78.6991 132.511C76.0957 132.075 73.6304 133.804 73.1944 136.407C72.8492 138.336 73.7188 140.171 75.3037 141.157C74.3616 143.692 73.4634 147.178 73.8822 149.81C74.0495 151.121 74.4194 152.201 74.8007 153.197C73.7368 154.084 72.9762 155.27 72.699 156.693C72.1837 159.887 74.2667 162.915 77.4606 163.43C80.6544 163.945 83.6825 161.862 84.1979 158.668C84.5318 156.824 83.9152 155.024 82.6287 153.734Z" fill="#1A64AD"/>
<path d="M110.829 123.719L106.49 146.803L107.745 147.039L112.084 123.954L110.829 123.719Z" fill="#DDDDDD"/>
<path d="M110.616 122.218L109.785 126.651L111.876 127.043L112.707 122.61L110.616 122.218Z" fill="#DDDDDD"/>
<path d="M196.54 125.946L194.574 123.964L196.449 122.155L193.354 118.991L191.479 120.8L190.19 122.087L189.987 122.317L188.985 123.384L191.558 125.963L192.154 125.356L192.761 125.953L192.164 126.56L195.647 130.034L196.244 129.427L196.401 129.534L196.604 129.304C197.415 128.382 197.439 126.926 196.54 125.946Z" fill="#937150"/>
<path d="M222.313 107.343L219.82 108.64L218.574 106.411L214.508 106.637L215.842 110.767L216.734 112.432L216.869 112.708L217.553 114.002L220.789 112.291L220.374 111.548L221.201 111.144L221.616 111.887L225.966 109.552L225.551 108.809L225.731 108.748L225.596 108.472C224.912 107.178 223.427 106.72 222.313 107.343Z" fill="#937150"/>
<path d="M98.4268 123.743C97.9577 120.847 95.5925 118.639 92.5333 118.4C89.5585 118.171 86.8061 120.12 85.9987 122.931L84.445 124.268L85.7215 124.353L92.1043 124.782L98.487 125.211L99.7636 125.297L98.4268 123.743Z" fill="#FAD94B"/>
<path d="M108.033 142.982L109.152 142.961C110.007 142.99 110.711 142.226 110.74 141.371L110.719 140.252C110.748 139.397 109.984 138.693 109.129 138.664L108.01 138.685C107.155 138.656 106.451 139.42 106.422 140.275L106.443 141.394C106.498 142.261 107.167 143.037 108.033 142.982Z" fill="#2C7CDB"/>
<path d="M107.35 121.251C105.916 121.058 104.471 120.949 103.099 120.937L102.815 123.045C104.345 123.165 105.874 123.285 107.477 123.501C113.466 124.306 119.268 125.859 122.775 127.876C120.68 124.933 114.688 122.238 107.35 121.251Z" fill="#2C7CDB"/>
<path d="M250.9 94.0128L211.043 118.365L199.848 131.372L138.924 150.829L107.09 181.928L81.6873 191.392C84.6365 194.365 87.7041 197.096 90.9631 199.681L113.114 191.411L144.745 160.543L206.113 140.973L218.226 126.887L253.305 105.5C252.719 101.557 251.941 97.7596 250.9 94.0128Z" fill="white"/>
<path d="M54.183 103.453L83.3851 96.3882L101.387 72.3603L153.477 66.2272L154.175 66.1493L167.359 40.2713L213.982 39.6716C200.636 29.719 184.728 22.8566 167.015 20.4745C113.033 13.2147 63.2416 50.1418 54.183 103.453Z" fill="#1A64AD"/>
<path d="M189.822 68.6248C189.738 68.6135 189.738 68.6135 189.654 68.6021C189.243 68.4611 188.844 68.2357 188.648 67.7799C188.44 67.4085 188.317 67.0484 188.373 66.6267C188.43 66.2049 188.633 65.9746 188.92 65.7556C189.196 65.6209 189.544 65.5819 189.955 65.723L189.814 66.1334C189.572 66.015 189.308 66.0653 189.212 66.1383C189.021 66.2843 188.914 66.4417 188.88 66.6947C188.846 66.9478 188.885 67.2965 189.104 67.5836C189.323 67.8706 189.542 68.1577 189.879 68.2031C190.048 68.2258 190.216 68.2485 190.396 68.1868C190.588 68.0408 190.695 67.8834 190.729 67.6304L191.151 67.6871C191.094 68.1089 190.88 68.4236 190.604 68.5582C190.255 68.5972 190.075 68.6589 189.822 68.6248Z" fill="black"/>
<path d="M193.562 59.3377C193.752 60.4796 192.552 62.3791 192.552 62.3791C192.552 62.3791 191.543 64.1327 191.548 64.7344C191.491 65.1562 190.81 65.7515 190.354 65.9479C189.898 66.1442 190.197 65.8408 189.932 65.8912C188.492 66.3844 189.972 70.7053 189.972 70.7053C189.972 70.7053 188.566 70.9456 187.352 69.7519C186.819 69.2508 185.438 66.7465 185.332 65.616C184.97 58.0963 193.422 58.4602 193.562 59.3377Z" fill="black"/>
<path d="M213.658 108.497C212.656 103.811 209.997 98.0433 208.591 98.2835C204.023 99.0432 200.648 99.8774 198.173 100.403C197.464 100.566 196.924 100.751 196.395 100.851L195.035 95.0007C195.564 94.9 196.104 94.7151 196.813 94.5528C199.384 93.9539 202.939 93.0581 207.675 92.3211C215.668 90.9916 218.921 104.482 219.497 107.221L213.658 108.497Z" fill="#A3A3A3"/>
<path d="M196.413 123.697L192.464 119.216C194.209 117.733 198.956 112.446 198.359 108.587C197.723 104.38 192.984 97.4739 191.232 95.1773L195.932 91.5158C196.662 92.4727 203.221 101.169 204.237 107.66C205.421 115.462 197.297 122.871 196.413 123.697Z" fill="#A3A3A3"/>
<path d="M199.479 77.9093C196.38 78.6088 193.765 78.2571 193.596 78.2344L194.134 74.8719C194.219 74.8832 200.365 75.7956 203.761 71.6152C206.239 68.5136 206.652 66.0789 207.161 63.5711L207.184 63.4024L210.535 64.0249L210.512 64.1936C209.981 66.87 209.477 69.9795 206.475 73.7835C204.436 76.1714 201.87 77.3721 199.479 77.9093Z" fill="#D1AB0F"/>
<path d="M195.884 50.5496L195.088 51.5479L213.457 66.1885L214.252 65.1902L195.884 50.5496Z" fill="#DDDDDD"/>
<path d="M210.947 62.8779L211.432 61.8267C211.798 61.0173 211.405 60.1058 210.596 59.7393L209.545 59.2544C208.735 58.888 207.824 59.2806 207.457 60.0901L206.973 61.1412C206.606 61.9506 206.999 62.8622 207.808 63.2286L208.859 63.7135C209.68 63.9956 210.665 63.6987 210.947 62.8779Z" fill="black"/>
<path d="M204.451 42.8551C200.857 43.4022 195.594 47.4174 191.347 53.4584C190.502 54.6329 189.741 55.8187 189.065 57.0158L190.785 58.2775C191.557 57.0074 192.508 55.6756 193.376 54.3324C193.911 53.5457 194.519 52.8546 195.055 52.0678L197.15 53.7237L198.485 52.0998L196.389 50.444C199.154 47.1234 201.925 44.4045 204.451 42.8551Z" fill="#2C7CDB"/>
<path d="M198.242 63.4882L195.651 61.68C195.578 61.5843 195.494 61.573 195.41 61.5616C193.82 59.9739 191.301 59.5492 189.252 60.7336C186.832 62.1256 186.075 65.201 187.467 67.6209L187.956 68.4595C188.371 69.2023 188.905 69.7034 189.619 70.1429L191.733 75.4937L195.716 73.9685L194.365 70.6094C194.545 70.5478 194.736 70.4018 194.916 70.3401C196.03 69.7171 196.768 68.7 197.084 67.6262C196.359 67.2711 195.534 66.3872 195.534 66.3872L197.373 66.1193C197.418 65.7819 197.306 65.3375 197.267 64.9887L198.286 64.4387C198.584 64.1354 198.557 63.7023 198.242 63.4882Z" fill="#F19F8D"/>
<path d="M192.272 100.212C192.268 98.3219 188.764 79.0445 188.686 78.3471C187.998 75.1631 186.588 73.5137 184.012 73.5108C181.352 73.4965 179.179 75.6087 179.176 78.1845C179.129 79.8097 179.96 81.2954 181.219 82.1517C181.134 82.1403 180.966 82.1176 180.87 82.1907C178.935 82.5315 177.735 84.4311 178.087 86.2818L179.155 91.7495C179.496 93.6845 181.395 94.8846 183.246 94.5324C183.246 94.5324 183.246 94.5324 183.331 94.5437C182.424 95.5381 181.809 96.9153 181.87 98.3833C181.776 101.634 184.433 104.224 187.599 104.306C190.681 104.377 192.19 103.378 192.272 100.212Z" fill="#A3A3A3"/>
<path d="M193.652 64.4165C193.978 64.4604 194.278 64.2316 194.322 63.9055C194.366 63.5794 194.137 63.2795 193.811 63.2357C193.485 63.1918 193.185 63.4206 193.141 63.7467C193.097 64.0728 193.326 64.3727 193.652 64.4165Z" fill="black"/>
<path d="M144.325 143.226L140.589 139.718C140.589 139.718 144.812 135.134 143.654 130.341C142.36 125.272 137.13 120.103 137.057 120.008L140.638 116.367C140.857 116.654 147.009 122.634 148.627 129.12C150.542 136.591 144.624 142.923 144.325 143.226Z" fill="#937150"/>
<path d="M195.682 59.5366C193.643 57.459 190.449 56.9436 187.849 58.3973C185.249 59.851 184.132 63.0498 184.961 65.8233L184.436 67.8136L185.55 67.1906L191.049 63.9799L196.547 60.7692L197.661 60.1462L195.682 59.5366Z" fill="#EC5328"/>
<path d="M200.871 81.6171C200.463 74.4348 196.893 73.5253 193.952 73.0439L193.542 72.9029L188.059 57.4813C188.059 57.4813 186.477 58.385 185.999 58.75C183.584 60.7438 180.188 64.9242 183.91 71.0923C185.178 73.1521 187.719 74.696 189.012 75.2992C188.454 76.2546 188.053 77.3171 188.216 78.0259L191.746 99.0243L199.81 94.6129C202.01 94.2218 200.871 81.6171 200.871 81.6171Z" fill="#FAD94B"/>
<path d="M148.191 90.8485L147.004 91.3758C146.632 91.5834 146.149 91.3467 146.026 90.9866L145.818 90.6152C145.61 90.2438 145.847 89.7604 146.207 89.6371L147.394 89.1098C147.766 88.9021 148.249 89.1388 148.373 89.4989L148.58 89.8703C148.788 90.2417 148.551 90.7251 148.191 90.8485Z" fill="black"/>
<path d="M144.653 146.533L143.535 145.266C142.917 144.754 143.272 144.029 143.486 143.714L144.106 142.938C144.201 142.865 144.128 142.77 144.055 142.674L140.881 140.1C140.808 140.005 140.712 140.078 140.616 140.151L139.068 142.089L137.924 143.567L137.4 144.269L144.851 150.166C144.924 150.262 145.02 150.189 145.115 150.116C145.949 149.026 145.743 147.366 144.653 146.533Z" fill="#FAD94B"/>
<path d="M145.031 150.105C145.555 149.402 145.68 148.475 145.445 147.67L143.033 147.088C143.033 147.088 139.796 144.334 138.161 143.084L137.851 143.472L137.328 144.174L144.778 150.071C144.851 150.166 144.936 150.178 145.031 150.105Z" fill="#937150"/>
<path d="M163.158 139.834L161.488 140.124C160.683 140.359 160.257 139.701 160.133 139.341L159.825 138.441C159.752 138.345 159.668 138.334 159.583 138.322L155.398 138.79C155.303 138.863 155.611 139.763 155.6 139.848L156.413 142.104L157.041 143.82L157.36 144.636L166.289 141.457C166.385 141.384 166.396 141.3 166.408 141.215C165.953 140.124 164.503 139.413 163.158 139.834Z" fill="#FAD94B"/>
<path d="M166.469 141.395C166.149 140.579 165.458 139.971 164.626 139.773L162.847 141.509C162.847 141.509 158.802 142.854 156.906 143.544L157.102 144L157.422 144.815L166.351 141.637C166.435 141.648 166.458 141.479 166.469 141.395Z" fill="#937150"/>
<path d="M149.721 90.9677C148.839 90.5056 147.979 89.8747 147.664 89.6606C146.548 87.1061 143.518 86.0116 141.048 87.1392C138.493 88.2555 137.399 91.2856 138.526 93.7558L138.919 94.6673C139.25 95.3988 139.761 96.0687 140.39 96.4968L141.88 102.021L145.975 100.94L145.068 97.4694C145.248 97.4077 145.428 97.3461 145.608 97.2844C147.431 96.4991 148.536 94.6726 148.617 92.7943L149.624 92.3286C150.175 92.0593 150.362 91.3115 149.721 90.9677Z" fill="#F19F8D"/>
<path d="M147.552 94.9701C147.214 94.9247 146.804 94.7836 146.439 94.3052L146.822 94.0131C147.321 94.7673 148.042 94.5207 148.042 94.5207L148.165 94.8808C148.154 94.9651 147.889 95.0154 147.552 94.9701Z" fill="black"/>
<path d="M146.982 90.2565L146.572 90.1154C146.572 90.1154 146.876 89.126 148.08 89.1161L148.108 89.5491C147.157 89.5931 146.982 90.2565 146.982 90.2565Z" fill="black"/>
<path d="M155.405 138.104C155.416 138.019 155.469 131.243 151.024 127.897C148.445 126.004 145.533 124.668 142.446 123.995L143.549 118.991C147.383 119.85 150.947 121.446 154.144 123.851C160.781 128.78 160.591 137.857 160.63 138.205L155.405 138.104Z" fill="#937150"/>
<path d="M138.881 122.4L145.95 122.835C148.273 122.804 150.542 120.619 150.321 117.154L148.987 113.025C150.571 109.545 149.644 103.667 147.791 100.842C147.292 100.088 146.421 99.5411 145.493 99.4163L140.685 98.7697C138.88 98.7845 137.988 101.584 138.003 103.39L138.881 122.4Z" fill="#D1AB0F"/>
<path d="M137.7 122.24C138.449 116.674 136.508 111.947 133.219 111.505C131.026 111.21 128.813 112.973 127.393 115.874C125.89 117.475 124.672 120.145 124.252 123.266C123.503 128.833 125.444 133.559 128.733 134.001C130.926 134.296 133.139 132.533 134.559 129.632C136.063 128.031 137.269 125.446 137.7 122.24ZM133.049 112.77C135.495 113.099 137.07 117.347 136.435 122.07C136.344 122.745 136.169 123.409 135.994 124.072C136.444 118.808 134.52 114.599 131.399 114.18C130.893 114.112 130.46 114.139 129.931 114.24C130.922 113.257 131.952 112.623 133.049 112.77ZM130.712 130.146C128.266 129.817 126.69 125.569 127.325 120.845C127.53 119.327 127.987 117.843 128.494 116.623C129.39 115.713 130.301 115.32 131.229 115.445C133.675 115.774 135.251 120.022 134.615 124.745C134.411 126.264 133.954 127.748 133.446 128.968C132.551 129.878 131.64 130.27 130.712 130.146ZM128.892 132.82C126.446 132.492 124.871 128.244 125.506 123.52C125.597 122.845 125.772 122.182 125.947 121.519C125.497 126.782 127.421 130.991 130.542 131.411C131.048 131.479 131.481 131.451 132.01 131.351C131.007 132.418 129.989 132.968 128.892 132.82Z" fill="#937150"/>
<path d="M139.666 140.195L144.245 143.816C144.56 144.03 144.993 144.003 145.291 143.699C145.505 143.385 145.478 142.951 145.174 142.653L140.595 139.032C140.28 138.818 139.847 138.845 139.549 139.149C139.323 139.548 139.351 139.981 139.666 140.195Z" fill="#A3A3A3"/>
<path d="M138.072 102.884C137.912 99.5992 135.956 98.8209 133.779 99.0434C131.169 99.2935 128.964 100.371 128.275 102.94C126.665 109.164 128.844 112.119 129.262 114.752C129.43 116.062 129.8 117.143 130.181 118.138C129.117 119.026 128.356 120.212 128.079 121.634C127.564 124.828 129.647 127.856 132.841 128.371C136.035 128.887 139.063 126.804 139.578 123.61C139.912 121.766 137.981 103.559 138.072 102.884Z" fill="#35A265"/>
<path d="M168.305 142.415L165.021 102.987C165.212 102.841 165.426 102.526 165.376 102.262L164.533 91.9298C164.494 91.581 164.348 91.3897 164.022 91.2599L163.705 87.8683L162.839 87.9236L163.155 91.3152C162.964 91.4612 162.75 91.7759 162.8 92.0403L163.643 102.373C163.682 102.721 163.828 102.913 164.154 103.042L167.439 142.47L168.305 142.415Z" fill="#937150"/>
<path d="M141.736 94.789C141.23 94.721 140.831 94.4956 140.708 94.1355C140.5 93.7641 140.461 93.4153 140.506 93.0779C140.552 92.7406 140.755 92.5102 141.126 92.3025C141.402 92.1679 141.823 92.2246 142.149 92.3543L141.924 92.7534C141.682 92.635 141.514 92.6123 141.249 92.6626C141.069 92.7243 140.962 92.8816 140.928 93.1347C140.894 93.3877 140.944 93.6521 141.079 93.9278C141.214 94.2035 141.455 94.3219 141.793 94.3673C142.13 94.4127 142.49 94.2893 142.682 94.1433L142.985 94.4418C142.698 94.6608 142.242 94.8571 141.736 94.789Z" fill="black"/>
<path d="M144.805 86.0135C144.911 87.1441 141.834 92.1403 141.834 92.1403L140.563 92.6563C140.59 93.0894 140.96 94.1696 141.095 94.4453C142.508 97.9844 142.434 99.1766 141.561 99.918C140.796 100.502 140.436 100.625 139.665 100.608C138.293 100.595 136.207 100.143 135.9 97.9544C135.342 94.4444 136.245 91.5604 136.319 90.3682C136.631 82.9392 144.739 85.2317 144.805 86.0135Z" fill="black"/>
<path d="M147.572 87.1585C146.011 84.7159 142.908 83.5258 140.112 84.5237C137.231 85.5102 135.558 88.3766 135.858 91.2508L135.007 93.1113L136.183 92.6684L142.22 90.5606L148.257 88.4528L149.433 88.0098L147.572 87.1585Z" fill="#EC5328"/>
<path d="M155.223 139.453L160.955 138.335C161.304 138.296 161.614 137.908 161.502 137.464C161.463 137.115 161.075 136.805 160.63 136.917L154.898 138.036C154.55 138.075 154.24 138.462 154.352 138.907C154.475 139.267 154.779 139.565 155.223 139.453Z" fill="#A3A3A3"/>
<path d="M147.088 91.3865L145.9 91.9139C145.529 92.1215 145.046 91.8848 144.922 91.5247L144.715 91.1533C144.507 90.7819 144.744 90.2985 145.104 90.1751L146.291 89.6478C146.662 89.4402 147.146 89.6769 147.269 90.037L147.477 90.4084C147.684 90.7798 147.543 91.1902 147.088 91.3865Z" fill="black"/>
<path d="M145.067 90.6154L140.924 91.5859L141.021 92.0002L145.164 91.0297L145.067 90.6154Z" fill="black"/>
<path d="M79.1598 163.573C79.9524 158.957 80.3297 153.597 78.0473 152.689C76.7432 152.171 75.478 152 74.3588 152.022C74.4707 152.466 74.6671 152.922 74.7904 153.282C73.7264 154.169 72.9659 155.355 72.6887 156.778C72.1733 159.971 74.2564 163 77.4502 163.515C78.0406 163.594 78.6424 163.589 79.1598 163.573Z" fill="#EC5328"/>
<path d="M136.382 99.4789C135.669 99.0394 134.741 98.9146 133.779 99.0429C131.169 99.293 128.963 100.37 128.274 102.94C127.399 106.257 127.672 108.698 128.097 110.644C130.515 110.54 133.239 109.447 133.058 105.043C132.904 102.36 134.598 100.613 136.382 99.4789Z" fill="#45DB82"/>
<path d="M185.017 81.3746C184.615 79.2596 182.665 77.7951 180.55 78.1976L179.143 78.4379C179.181 80.0745 179.938 81.4645 181.209 82.2364C181.124 82.2251 180.956 82.2024 180.86 82.2754C178.925 82.6163 177.725 84.5158 178.077 86.3665L179.145 91.8342C179.486 93.7693 181.385 94.9693 183.236 94.6171C183.236 94.6171 183.236 94.6171 183.32 94.6285C182.414 95.6229 181.799 97.0001 181.86 98.468C181.819 99.4072 182.054 100.212 182.374 101.027L185.678 98.8098C186.995 97.9564 187.632 96.4105 187.415 94.8356L185.017 81.3746Z" fill="#EC5328"/>
<path d="M188.119 92.7831L186.353 82.9278L187.23 82.7882L189.008 92.5591L188.119 92.7831Z" fill="black"/>
<path d="M78.6991 132.511C76.0957 132.075 73.6304 133.804 73.1944 136.407C72.8492 138.336 73.7188 140.171 75.3037 141.157C74.7281 142.882 74.1071 144.946 73.8462 146.886C76.5063 146.9 78.8355 146.183 79.1871 143.568C79.7089 139.688 80.534 136.106 81.116 133.694C80.5937 133.109 79.7842 132.742 78.6991 132.511Z" fill="#EC5328"/>
<path d="M63.4595 166.013L63.0165 164.837C63.7367 164.59 106.89 148.925 108.702 148.224L160.016 117.857L239.77 68.2138L240.488 69.2551L160.639 118.971L109.145 149.4C108.785 149.524 64.2753 165.693 63.4595 166.013Z" fill="#A3A3A3"/>
<path d="M63.4595 166.013L63.0165 164.837C63.7367 164.59 106.89 148.925 108.702 148.224L160.016 117.857L239.77 68.2138L240.488 69.2551L160.639 118.971L109.145 149.4C108.785 149.524 64.2753 165.693 63.4595 166.013Z" fill="#D6D6D6"/>
<path d="M107.01 147.396L109.456 147.725C110.215 147.827 110.844 148.255 111.175 148.987C111.445 149.538 111.089 150.263 110.476 150.353L107.652 150.918C107.124 151.018 106.618 150.95 106.219 150.725L103.959 149.648L104.197 147.877L105.457 147.445C105.986 147.344 106.504 147.328 107.01 147.396Z" fill="#2C7CDB"/>
<path d="M213.552 82.4642L216.303 81.8037C217.085 81.7371 218.175 82.5707 218.613 83.1448L218.753 84.0223C219.202 84.5121 218.122 84.8821 217.486 85.1401L214.847 86.245C214.392 86.4413 213.942 85.9515 213.447 85.7991L211.035 85.2171L210.925 83.4848L212.039 82.8618C212.591 82.5925 213.035 82.4805 213.552 82.4642Z" fill="black"/>
<path d="M201.888 86.8202C200.876 86.6841 199.959 86.4749 198.97 86.1701C193.527 84.4937 191.389 80.5994 190.211 77.8648C189.746 76.8576 190.337 75.6491 191.406 75.3635C192.295 75.1396 193.262 75.6131 193.582 76.4289C194.49 78.612 196.006 81.392 200.048 82.6226C203.764 83.7235 208.551 83.2509 211.279 82.759C211.976 82.6811 212.606 83.1092 212.695 83.7223L212.969 84.8756C213.131 85.5844 212.608 86.2868 211.91 86.3647C209.339 86.9636 205.515 87.308 201.888 86.8202Z" fill="#D1AB0F"/>
<path d="M98.5874 150.643C96.4787 150.359 94.2354 149.8 92.3018 148.853C87.6252 146.593 85.696 141.782 85.0354 139.031C84.7385 138.047 85.4764 137.029 86.5226 136.912C87.3887 136.857 88.1755 137.392 88.3264 138.186C88.909 140.239 90.2882 144.031 93.7563 145.7C97.5505 147.498 102.966 147.454 105.12 147.4L105.269 150.769C103.609 150.975 101.118 150.983 98.5874 150.643Z" fill="#45DB82"/>
<path d="M164.943 108.043L166.023 107.673C166.828 107.437 167.374 106.566 167.066 105.666L166.696 104.586C166.461 103.781 165.59 103.235 164.689 103.543L163.609 103.913C162.805 104.148 162.258 105.019 162.566 105.92L162.936 107C163.256 107.816 164.138 108.278 164.943 108.043Z" fill="#2C7CDB"/>
<path d="M152.756 123.32C152.756 123.32 152.201 121.7 151.442 121.598L149.356 121.146C149.272 121.134 149.176 121.207 149.092 121.196L148.378 120.757C148.04 120.711 146.138 122.087 146.138 122.087L146.941 123.14C146.896 123.477 146.935 123.826 147.154 124.113L147.85 125.323C148.203 125.885 148.917 126.325 149.902 126.028L152.068 124.602C152.755 124.608 153.11 123.883 152.756 123.32Z" fill="#2C7CDB"/>
<path d="M146.249 122.532L150.127 119.876C148.223 118.074 145.611 115.147 144.478 112.075C143.161 108.462 143.827 106.062 144.943 104.151C145.382 103.437 145.142 102.031 144.44 101.507C143.58 100.876 141.74 101.144 141.267 102.111C139.914 104.505 138.593 109.222 140.342 114.095C141.537 117.347 144.053 120.347 146.249 122.532Z" fill="#945D5F"/>
<path d="M139.578 123.61C139.832 122.356 139.032 114.262 138.504 108.609C136.473 109.023 134.699 111.361 134.719 113.768C134.724 114.37 134.802 115.067 134.806 115.669C134.771 117.21 133.954 118.817 134.52 120.353C134.778 120.989 135.159 121.985 135.609 122.475C136.676 123.477 138.003 123.827 139.403 124.273C139.521 124.031 139.544 123.863 139.578 123.61Z" fill="#45DB82"/>
<path d="M154.766 174.772C156.07 174.947 157.269 174.032 157.445 172.727C157.62 171.423 156.705 170.223 155.401 170.048C154.096 169.873 152.897 170.788 152.721 172.092C152.546 173.397 153.461 174.596 154.766 174.772Z" fill="#2C7CDB"/>
<path d="M225.572 134.831C226.877 135.006 228.076 134.091 228.252 132.787C228.427 131.483 227.512 130.283 226.207 130.108C224.903 129.932 223.704 130.847 223.528 132.152C223.353 133.456 224.268 134.656 225.572 134.831Z" fill="#2C7CDB"/>
<path d="M171.627 165.618C172.931 165.794 174.131 164.878 174.306 163.574C174.482 162.27 173.566 161.07 172.262 160.895C170.958 160.719 169.758 161.635 169.583 162.939C169.407 164.243 170.323 165.443 171.627 165.618Z" fill="#2C7CDB"/>
<path d="M168.893 175.727C169.732 175.84 170.503 175.251 170.616 174.413C170.728 173.574 170.14 172.803 169.301 172.691C168.463 172.578 167.692 173.166 167.579 174.005C167.466 174.843 168.055 175.614 168.893 175.727Z" fill="#2C7CDB"/>
<path d="M155.601 188.366C156.067 188.428 156.495 188.102 156.558 187.636C156.621 187.17 156.294 186.742 155.828 186.679C155.362 186.616 154.934 186.943 154.871 187.409C154.808 187.875 155.135 188.303 155.601 188.366Z" fill="#2C7CDB"/>
<path d="M229.353 143.755C229.819 143.818 230.247 143.491 230.31 143.025C230.372 142.56 230.046 142.131 229.58 142.069C229.114 142.006 228.686 142.333 228.623 142.799C228.56 143.264 228.887 143.693 229.353 143.755Z" fill="#2C7CDB"/>
<path d="M116.408 198.209C116.873 198.271 117.302 197.944 117.365 197.479C117.427 197.013 117.1 196.584 116.634 196.522C116.169 196.459 115.74 196.786 115.678 197.252C115.615 197.718 115.942 198.146 116.408 198.209Z" fill="#2C7CDB"/>
<path d="M205.968 148.424C206.434 148.487 206.862 148.16 206.925 147.694C206.988 147.229 206.661 146.8 206.195 146.737C205.729 146.675 205.301 147.002 205.238 147.467C205.175 147.933 205.502 148.362 205.968 148.424Z" fill="#2C7CDB"/>
<path d="M142.948 182.199C143.786 182.311 144.557 181.723 144.67 180.885C144.783 180.046 144.195 179.275 143.356 179.162C142.518 179.049 141.746 179.638 141.634 180.476C141.521 181.315 142.109 182.086 142.948 182.199Z" fill="#2C7CDB"/>
<path d="M105.637 202.943C106.476 203.056 107.247 202.467 107.36 201.629C107.472 200.79 106.884 200.019 106.046 199.906C105.207 199.794 104.436 200.382 104.323 201.22C104.21 202.059 104.799 202.83 105.637 202.943Z" fill="#2C7CDB"/>
<path d="M124.411 202.547C125.249 202.66 126.02 202.072 126.133 201.233C126.246 200.395 125.658 199.624 124.819 199.511C123.981 199.398 123.209 199.986 123.097 200.825C122.984 201.663 123.572 202.435 124.411 202.547Z" fill="#2C7CDB"/>
<path d="M216.686 144.713C217.525 144.826 218.296 144.238 218.408 143.399C218.521 142.561 217.933 141.79 217.094 141.677C216.256 141.564 215.485 142.152 215.372 142.991C215.259 143.829 215.848 144.601 216.686 144.713Z" fill="#2C7CDB"/>
<path d="M156.174 163.025C157.013 163.138 157.784 162.549 157.897 161.711C158.01 160.872 157.421 160.101 156.583 159.988C155.744 159.876 154.973 160.464 154.86 161.302C154.748 162.141 155.336 162.912 156.174 163.025Z" fill="#2C7CDB"/>
<path d="M187.974 57.47C187.974 57.47 186.764 58.166 186.106 58.5927L191.814 73.6152L193.952 73.044L193.541 72.9029L187.974 57.47Z" fill="#D1AB0F"/>
<path d="M82.4649 183.683L80.9885 181.251L83.2284 179.921L80.9943 176.1L78.7545 177.43L77.1618 178.418L76.4189 178.833L81.398 187.146L81.6737 187.011C82.7993 186.304 83.1722 184.808 82.4649 183.683Z" fill="#2C7CDB"/>
<path d="M81.6861 186.927C81.8775 186.781 82.0688 186.635 82.2602 186.489L79.1289 180.4C79.1289 180.4 79.5797 179.602 79.7499 178.337C79.8406 177.662 79.7173 177.302 79.4983 177.015L78.7555 177.43L77.1628 178.418L76.4199 178.834L81.399 187.146L81.6861 186.927Z" fill="white"/>
<path d="M111.577 172.828L108.764 173.308L108.334 170.76L104.02 171.554L104.45 174.102L104.802 175.953L104.942 176.83L114.448 175.103L114.409 174.754C114.146 173.517 112.899 172.576 111.577 172.828Z" fill="#2C7CDB"/>
<path d="M114.408 174.754C114.358 174.489 114.296 174.309 114.161 174.034L107.344 174.92C107.344 174.92 106.76 174.155 105.636 173.574C105.079 173.242 104.646 173.269 104.298 173.308L104.448 174.101L104.801 175.952L104.94 176.83L114.447 175.102L114.408 174.754Z" fill="white"/>
<path d="M109.482 169.594L102.211 170.433L102.377 171.87L109.648 171.031L109.482 169.594Z" fill="#91B4D8"/>
<path d="M85.222 180.43L81.4707 174.146L80.2284 174.887L83.9796 181.172L85.222 180.43Z" fill="#91B4D8"/>
<path d="M190.393 121.763L189.756 122.327L196.183 129.595L196.821 129.031L190.393 121.763Z" fill="#A3A3A3"/>
<path d="M224.918 107.711L216.604 112.012L216.995 112.768L225.309 108.467L224.918 107.711Z" fill="#A3A3A3"/>
<rect y="244" width="14" height="6" fill="#35A265"/>
<line x1="7" y1="244" x2="7" y2="219" stroke="#FFFEFE"/>
<line x1="7" y1="275" x2="7" y2="250" stroke="#FFFEFE"/>
<rect x="20" y="241" width="14" height="3" fill="#35A265"/>
<line x1="27" y1="241" x2="27" y2="221" stroke="#FFFEFE"/>
<line x1="27" y1="269" x2="27" y2="244" stroke="#FFFEFE"/>
<rect x="40" y="186" width="14" height="48" fill="#35A265"/>
<line x1="47" y1="186" x2="47" y2="176" stroke="#FFFEFE"/>
<line x1="47" y1="244" x2="47" y2="234" stroke="#FFFEFE"/>
<rect x="343" y="269.2" width="14" height="20.8" fill="#F4452D"/>
<line x1="350" y1="269.2" x2="350" y2="225" stroke="#FFFEFE"/>
<line x1="350" y1="303" x2="350" y2="290" stroke="#FFFEFE"/>
<rect x="438" y="271" width="14" height="13" fill="#35A265"/>
<line x1="445" y1="271" x2="445" y2="254" stroke="#FFFEFE"/>
<line x1="445" y1="288" x2="445" y2="284" stroke="#FFFEFE"/>
<rect x="457" y="285" width="14" height="16" fill="#35A265"/>
<line x1="464" y1="285" x2="464" y2="245" stroke="#FFFEFE"/>
<line x1="464" y1="305" x2="464" y2="301" stroke="#FFFEFE"/>
<rect x="381" y="253" width="14" height="30" fill="#35A265"/>
<line x1="388" y1="253" x2="388" y2="243" stroke="#FFFEFE"/>
<line x1="388" y1="293" x2="388" y2="283" stroke="#FFFEFE"/>
<rect x="400" y="275.357" width="14" height="54.2857" fill="#F4452D"/>
<line x1="407" y1="275.357" x2="407" y2="255" stroke="#FFFEFE"/>
<line x1="407" y1="350" x2="407" y2="329.643" stroke="#FFFEFE"/>
<rect x="267" y="53" width="14" height="24" fill="#35A265"/>
<line x1="274" y1="53" x2="274" y2="43" stroke="#FFFEFE"/>
<line x1="274" y1="95" x2="274" y2="77" stroke="#FFFEFE"/>
<rect x="286" y="56" width="14" height="4" fill="#F4452D"/>
<line x1="293" y1="56" x2="293" y2="40" stroke="#FFFEFE"/>
<line x1="293" y1="67" x2="293" y2="60" stroke="#FFFEFE"/>
<rect x="305" y="66.7354" width="14" height="66.3529" fill="#F4452D"/>
<line x1="312" y1="66.7354" x2="312" y2="46.0001" stroke="#FFFEFE"/>
<line x1="312" y1="140" x2="312" y2="133.088" stroke="#FFFEFE"/>
<rect x="324" y="142.394" width="14" height="76.2879" fill="#F4452D"/>
<line x1="331" y1="142.394" x2="331" y2="128" stroke="#FFFEFE"/>
<line x1="331" y1="223" x2="331" y2="218.682" stroke="#FFFEFE"/>
<rect x="362" y="276" width="14" height="5" fill="#F4452D"/>
<line x1="369" y1="276" x2="369" y2="273" stroke="#FFFEFE"/>
<line x1="369" y1="301" x2="369" y2="281" stroke="#FFFEFE"/>
<rect x="419" y="310" width="14" height="12" fill="#35A265"/>
<line x1="426" y1="310.25" x2="426" y2="294" stroke="#FFFEFE"/>
<line x1="426" y1="343" x2="426" y2="321.875" stroke="#FFFEFE"/>
<defs>
<clipPath id="clip0_2743_941">
<rect width="59.6" height="59.6" fill="white" transform="translate(86 318)"/>
</clipPath>
</defs>
</svg>
