<svg width="441" height="349" viewBox="0 0 441 349" fill="none" xmlns="http://www.w3.org/2000/svg">
<g clip-path="url(#clip0_2743_943)">
<path d="M378.8 347.6C394.706 347.6 407.6 334.706 407.6 318.8C407.6 302.894 394.706 290 378.8 290C362.894 290 350 302.894 350 318.8C350 334.706 362.894 347.6 378.8 347.6Z" stroke="#2C7CDB" stroke-width="2" stroke-linecap="round" stroke-linejoin="round" stroke-dasharray="3.01 3.01"/>
<path d="M370.199 317.2V327.8H364.199L374.499 338.4L384.799 327.8H378.799V314.2" stroke="#2C7CDB" stroke-width="2" stroke-miterlimit="10"/>
<path d="M387.399 320.3V309.7H393.399L383.099 299.2L372.799 309.7H378.799V323.3" stroke="#2C7CDB" stroke-width="2" stroke-miterlimit="10"/>
</g>
<circle opacity="0.1" cx="201" cy="217" r="120" fill="#2C7CDB"/>
<circle opacity="0.1" cx="201" cy="217" r="110.638" fill="#2C7CDB"/>
<path d="M200.574 317.426C256.272 317.426 301.425 272.273 301.425 216.575C301.425 160.876 256.272 115.724 200.574 115.724C144.875 115.724 99.7227 160.876 99.7227 216.575C99.7227 272.273 144.875 317.426 200.574 317.426Z" fill="#2C7CDB"/>
<path d="M288.489 167.128H257V193H298.702C296.489 183.894 293 175.213 288.489 167.128Z" fill="#1A64AD"/>
<path d="M99.7227 216.575C99.7227 272.235 144.914 317.426 200.574 317.426C256.233 317.426 301.425 272.235 301.425 216.575C301.425 208.49 300.489 200.66 298.701 193.171H102.446C100.659 200.66 99.7227 208.49 99.7227 216.575Z" fill="#0F31AD"/>
<path d="M178.702 227.298L176.234 225.256L174.362 220.319L170.787 221.936L172.745 228.319L171.638 233L180.319 232.575L178.702 227.298Z" fill="#E88992"/>
<path d="M212.148 255.469C211.637 255.469 211.126 255.299 210.701 255.043L203.977 249.426C203.297 248.916 202.871 248.15 202.871 247.299V236.575C202.871 235.128 203.977 234.022 205.424 234.022C206.871 234.022 208.403 233.767 208.403 235.128L208.829 244.235L213.68 250.788C214.786 252.49 215.126 253.171 214.36 254.362C213.765 255.128 212.999 255.469 212.148 255.469Z" fill="black"/>
<path d="M184.405 252.83C184.915 252.83 185.426 252.66 185.851 252.405L194.107 248.32C194.788 247.809 195.213 247.043 195.213 246.192V235.554C195.213 234.107 194.107 233 192.66 233C191.213 233 189.681 232.745 189.681 234.107L189.256 243.213L183.128 248.32C181.681 249.681 181.426 250.532 182.192 251.724C182.788 252.49 183.639 252.83 184.405 252.83Z" fill="black"/>
<path d="M160.744 291.894C157.85 290.362 154.105 288.405 151.893 287.213C150.871 286.703 150.276 285.511 150.446 284.32L150.786 282.277L145.169 281.341L143.297 292.49L147.978 293.256C148.063 292.575 148.148 292.405 148.148 292.405L151.978 293.937L161.595 295.554L161.85 294.192C162.105 293.256 161.595 292.32 160.744 291.894Z" fill="black"/>
<path d="M179.297 278.277C176.148 277.256 172.233 275.724 169.935 274.958C168.829 274.532 168.148 273.511 168.148 272.319L168.233 270.192L162.531 270.021L162.275 281.341L167.041 281.426C167.041 280.745 167.041 280.575 167.041 280.575L171.126 281.511L180.829 281.766V280.319C180.829 279.468 180.233 278.617 179.297 278.277Z" fill="black"/>
<path d="M180.83 280.404C180.83 280.149 180.745 279.808 180.659 279.553L162.277 278.872L162.191 281.425L166.957 281.51C166.957 280.83 166.957 280.659 166.957 280.659L171.042 281.595L180.745 281.851L180.83 280.404Z" fill="#2C7CDB"/>
<path d="M151.807 283.979L143.637 281.681C143.722 281.341 152.573 249 147.807 221.085L156.232 219.639C161.254 249.511 152.232 282.532 151.807 283.979Z" fill="#FAD94B"/>
<path d="M170.787 225.937C169.851 223.809 169.085 221.596 168.319 219.383C167.638 217.341 166.957 215.383 166.191 213.341C162.957 204.149 159.808 195.468 159.553 187.894L166.361 187.639C166.617 194.107 169.51 202.362 172.574 211.043C173.255 213.085 174.021 215.128 174.702 217.171C175.383 219.213 176.148 221.256 177 223.298L170.787 225.937Z" fill="#382325"/>
<path d="M169.851 271.383L161.34 270.532C161.34 270.192 164.404 236.745 154.787 210.107L162.787 207.213C173.17 235.724 170.021 269.936 169.851 271.383Z" fill="#FAD94B"/>
<path d="M170.106 237.596H185.426C186.362 237.596 187.128 236.83 187.128 235.894V231.469C187.128 230.533 186.362 229.767 185.426 229.767H170.106C169.17 229.767 168.404 230.533 168.404 231.469V235.894C168.404 236.916 169.17 237.596 170.106 237.596Z" fill="white"/>
<path d="M168.149 187.809C166.446 183.383 163.212 180.745 158.531 181.681C156.489 182.107 153.085 182.192 151.978 182.532C149.255 183.383 148.149 184.32 146.957 185.341C145.68 186.447 144.234 193.596 144.234 195.213L142.957 221.426C142.957 221.426 142.957 225.937 146.787 225.851C148.914 225.766 166.787 222.958 166.787 222.958C166.787 222.958 170.361 222.277 170.361 219.043C170.361 216.915 169.255 193.511 168.914 190.873C168.744 189.766 168.489 188.745 168.149 187.809Z" fill="#945D5F"/>
<path d="M242.701 279.724H238.275V289.851H242.701V279.724Z" fill="#F19F8D"/>
<path d="M238.702 288.064C236.744 287.128 232.829 284.83 232.829 284.83C232.829 284.83 229.595 282.362 228.404 285.511C227.893 286.873 229.17 288.405 229.17 288.405L234.361 293.936L236.063 293.851L236.319 295.554L238.276 297.085H244.063L243.382 287.809L238.702 288.064Z" fill="#EC5328"/>
<path d="M168.83 169L164.83 159.639L151.979 159.043L152.83 167.468C152.319 166.788 151.553 166.447 150.617 166.532C149.341 166.703 148.404 167.894 148.575 169.171L148.83 171.043C149 172.32 150.192 173.256 151.468 173.086C152.234 173 152.915 172.49 153.256 171.894V172.234C153.256 172.575 153.341 172.83 153.426 173.086V181.851C153.426 183.809 154.958 185.341 156.915 185.341C158.873 185.341 160.404 183.809 160.404 181.851V176.915L163.809 178.107C165.426 178.362 166.958 177.086 166.787 175.383L166.192 170.788H167.553C168.575 170.788 169.17 169.851 168.83 169Z" fill="#E88992"/>
<path d="M143.637 208.064L169.764 205.596C169.594 201.596 169.339 200.064 169.169 197.256L144.147 199.639L143.637 208.064Z" fill="#7C4247"/>
<path d="M170.361 219.043C170.361 218.277 170.191 217.171 170.021 212.83L143.383 215.383L142.957 221.511C142.957 221.511 142.957 222.702 143.468 223.809L169.68 221.341C170.021 220.745 170.361 219.979 170.361 219.043Z" fill="#7C4247"/>
<path d="M182.361 210.532H175.893L175.807 209.766L182.361 209.511C182.701 209.511 183.041 209.17 183.041 208.83V208.745C183.041 208.404 182.701 208.064 182.361 208.064L175.637 208.319L175.552 207.894L180.829 206.617C181.169 206.532 181.424 206.192 181.339 205.766V205.681C181.254 205.341 180.914 205.085 180.488 205.17L174.02 206.702L172.488 206.787L174.786 205.085C175.127 204.83 175.212 204.319 175.041 203.979C174.786 203.638 174.361 203.553 174.02 203.809L169.51 207.298C168.914 207.724 168.488 208.404 168.488 209.17L168.573 211.979C168.573 213.17 169.084 213.596 170.276 213.511L176.318 213.766L181.339 214.021C181.68 214.021 182.02 213.766 182.105 213.341V213.255C182.105 212.915 181.85 212.575 181.424 212.489L176.148 212.149V211.809H182.446C182.786 211.809 183.127 211.468 183.127 211.128V211.043C183.041 210.872 182.701 210.532 182.361 210.532Z" fill="#E88992"/>
<path d="M155.126 168.575H153.339L149.254 167.213L148.828 160.83C148.913 158.703 150.36 156.915 152.403 156.234L156.743 155.554C156.743 155.554 158.7 154.192 160.232 153.426C161.254 152.915 168.232 151.043 168.232 157.937C168.232 160.745 165.594 161.086 165.594 161.086L156.232 161.766L156.828 164.49L155.126 165.937V168.575Z" fill="black"/>
<path d="M165.595 174.617C164.574 174.617 163.382 174.192 162.701 172.83L163.467 172.404C164.403 174.447 166.616 173.596 166.701 173.596L167.042 174.362C166.616 174.532 166.105 174.617 165.595 174.617Z" fill="black"/>
<path d="M160.574 167.724C161.232 167.724 161.766 167.19 161.766 166.532C161.766 165.874 161.232 165.341 160.574 165.341C159.916 165.341 159.383 165.874 159.383 166.532C159.383 167.19 159.916 167.724 160.574 167.724Z" fill="black"/>
<path d="M214.021 189.511V183.554H188.064V186.532C187.893 193.681 187.468 223.213 188.149 239.809L197.51 239.894C197.596 225.596 199.383 199.384 200.064 189.596H201.085C202.191 208.405 201.255 239.383 201.255 239.724L210.617 240.064C210.617 238.618 214.702 208.745 214.021 189.511Z" fill="#382325"/>
<path d="M226.36 172.659C226.36 172.659 224.063 176.83 222.36 178.106C220.743 179.383 223.382 180.404 223.382 180.404C223.382 180.404 222.701 185.511 223.382 185.936C224.063 186.362 228.318 185.936 228.318 185.936L230.02 193.681L242.701 188.064L242.275 169.17L228.828 168.489L226.36 172.659Z" fill="#F19F8D"/>
<path d="M217.084 289.852C215.552 293 207.893 294.532 207.893 294.532L201.34 295.639C201.34 295.639 200.148 296.235 199.723 297.596C199.297 298.958 200.489 299.128 200.489 299.128L213.34 299.724L216.063 297.681L217.34 299.724H223.638V289.852H217.084V289.852Z" fill="#EC5328"/>
<path d="M224.745 290.447L216.234 290.277C216.234 289.511 216.66 272.234 220.234 253.511C222.022 243.979 224.405 234.873 224.575 234.532L232.83 236.66C232.83 236.745 230.447 245.936 228.66 255.128C225.171 273.085 224.745 290.277 224.745 290.447Z" fill="#808080"/>
<path d="M235.979 285.086C234.702 268.49 237.511 238.447 237.596 237.171L246.106 237.937C246.106 238.277 243.298 268.575 244.489 284.49L235.979 285.086Z" fill="#808080"/>
<path d="M223.297 200.745L217.935 215.979C217.85 216.235 217.68 216.32 217.595 216.32C217.51 216.32 217.34 216.405 217.084 216.235L200.744 208.49C201.169 207.043 199.297 199.979 199.297 199.979C199.212 199.469 198.786 199.128 198.276 199.213C197.765 199.298 197.425 199.724 197.51 200.235L198.106 204.32L197.169 203.809L196.233 203.298L190.701 200.064C190.361 199.809 189.85 199.979 189.68 200.32C189.425 200.66 189.595 201.171 189.935 201.341L195.467 204.575L195.212 205L188.744 201.256C188.403 201 187.893 201.171 187.723 201.511C187.552 201.852 187.637 202.362 187.978 202.532L194.446 206.277L194.191 206.703L188.148 203.213C187.808 202.958 187.297 203.128 187.127 203.469C186.957 203.809 187.042 204.32 187.382 204.49L193.425 207.979L193.169 208.405L188.148 205.511C187.808 205.256 187.297 205.426 187.127 205.766C186.872 206.107 187.042 206.617 187.382 206.788L192.403 209.681L193.85 210.532L195.978 211.724C196.744 211.979 198.106 212.064 198.872 211.298L215.552 221.596C216.318 222.022 217.169 222.277 218.02 222.277C218.616 222.277 219.127 222.192 219.637 222.022C220.999 221.511 222.02 220.49 222.531 219.128L229.34 204.575L223.297 200.745Z" fill="#F19F8D"/>
<path d="M282.787 191.298C282.447 191.042 282.021 191.042 281.681 191.383L277.936 195.808L277.596 195.468L282.106 190.191C282.362 189.851 282.362 189.425 282.021 189.085C281.681 188.83 281.255 188.83 280.915 189.17L276.404 194.447L276.064 194.106L280.915 188.404C281.17 188.064 281.17 187.638 280.83 187.298C280.489 187.042 280.064 187.042 279.723 187.383L274.872 193.085L274.532 192.744L278.702 187.893C278.957 187.553 278.957 187.127 278.617 186.787C278.276 186.447 277.851 186.532 277.511 186.872L273.34 191.723L272.659 192.574L271.893 193.425L271.128 189.425C271.042 188.915 270.532 188.659 270.106 188.744C269.596 188.83 269.34 189.34 269.425 189.766C269.425 189.766 269.936 196.404 270.787 198.021L258.021 211.213C257.851 211.383 257.681 211.383 257.596 211.383C257.511 211.383 257.255 211.383 257.17 211.127L244.489 196.83L242.787 207.553L253.425 216.234C254.702 217.34 256.149 218.276 257.596 218.276C259.042 218.276 260.404 216.915 261.34 215.808L274.021 200.659C274.872 200.915 275.893 200.659 276.489 199.893L278.106 198.021L279.213 196.744L282.957 192.319C283.128 192.064 283.128 191.553 282.787 191.298Z" fill="#F19F8D"/>
<path d="M216.744 208.745L225.936 215.468C225.936 215.468 220.404 229.936 221.34 233.17C222.616 237.511 229.68 238.957 231.127 239.213C232.574 239.468 244.999 240.234 248.404 239.298C251.297 238.532 254.021 235.808 253.085 230.957C252.574 228.489 252.148 222.106 251.382 213.766C253.851 212.149 257.595 207.553 257.595 207.553C257.595 207.553 250.957 191.468 239.978 191.298C237.425 191.298 232.659 191.042 229.765 192.745C226.872 194.447 216.744 208.745 216.744 208.745Z" fill="#35A265"/>
<path d="M233.084 176.235L230.19 175.384L229.424 171.639L228.658 175.299L224.658 172.831C224.658 172.831 224.573 169.171 227.382 166.022C230.786 162.277 247.382 159.979 249.68 176.15C249.765 176.66 251.552 194.192 255.212 198.277C258.871 202.448 260.829 202.533 260.829 202.533C260.829 202.533 255.127 210.618 236.318 208.15C228.148 191.299 233.084 176.235 233.084 176.235Z" fill="black"/>
<path d="M227.469 177.851C228.033 177.851 228.49 177.394 228.49 176.83C228.49 176.266 228.033 175.809 227.469 175.809C226.905 175.809 226.447 176.266 226.447 176.83C226.447 177.394 226.905 177.851 227.469 177.851Z" fill="black"/>
<path d="M223.382 183.128C223.212 183.128 222.956 183.128 222.701 183.043L222.871 182.192C223.722 182.362 224.574 182.021 224.574 182.021L224.914 182.787C224.829 182.873 224.233 183.128 223.382 183.128Z" fill="black"/>
<path d="M192.063 151.043C192.233 149.596 193.339 148.915 193.765 148.149C197.509 147.554 207.041 147.043 209.594 147.469C212.063 147.894 211.807 148.575 212.914 150.532C213.85 152.235 215.041 183.894 215.041 183.894L187.467 183.469L192.063 151.043Z" fill="#FAD94B"/>
<path d="M206.275 134.277C205.935 134.277 205.68 134.362 205.424 134.618L205.339 129.852L194.36 130.107L191.467 134.022C191.467 134.022 192.318 141.681 195.382 145.256C195.807 145.766 196.828 146.022 197.68 146.022L197.765 149.852L199.722 153L206.105 147.724L205.594 138.447C205.85 138.618 206.19 138.703 206.531 138.703C207.552 138.703 208.318 137.681 208.318 136.405C208.148 135.213 207.297 134.192 206.275 134.277Z" fill="#945D5F"/>
<path d="M200.999 139.128C201.61 139.128 202.105 138.632 202.105 138.021C202.105 137.41 201.61 136.915 200.999 136.915C200.388 136.915 199.893 137.41 199.893 138.021C199.893 138.632 200.388 139.128 200.999 139.128Z" fill="black"/>
<path d="M201 140.83C200.234 140.83 199.553 140.575 199.042 140.064C198.532 139.553 198.191 138.872 198.191 138.107C198.191 136.575 199.383 135.298 200.915 135.213C202.532 135.213 203.723 136.404 203.808 137.936C203.894 139.468 202.617 140.83 201 140.83C201 140.83 201.085 140.83 201 140.83ZM201 135.894C199.808 135.894 198.872 136.915 198.872 138.107C198.872 138.702 199.128 139.213 199.553 139.638C199.979 140.064 200.489 140.234 201.085 140.234C202.277 140.234 203.213 139.213 203.128 138.021C203.128 136.83 202.191 135.894 201 135.894Z" fill="black"/>
<path d="M195.894 137.766L195.213 137.681C195.383 136.575 196.319 135.809 197.341 135.639C198.021 135.553 198.617 135.809 199.128 136.149L198.702 136.66C198.362 136.405 197.936 136.234 197.426 136.234C196.66 136.405 196.064 137 195.894 137.766Z" fill="black"/>
<path d="M194.446 140.83C195.057 140.83 195.553 140.335 195.553 139.724C195.553 139.113 195.057 138.617 194.446 138.617C193.835 138.617 193.34 139.113 193.34 139.724C193.34 140.335 193.835 140.83 194.446 140.83Z" fill="black"/>
<path d="M194.445 142.532C193.679 142.532 192.998 142.277 192.488 141.766C191.977 141.256 191.637 140.575 191.637 139.809C191.637 138.277 192.828 137 194.36 136.915C195.892 136.83 197.169 138.107 197.254 139.639C197.254 140.405 196.998 141.085 196.488 141.681C195.977 142.277 195.211 142.447 194.445 142.532ZM194.445 137.596C194.445 137.596 194.36 137.596 194.445 137.596C193.254 137.596 192.318 138.617 192.318 139.809C192.318 140.405 192.573 140.915 192.998 141.341C193.424 141.766 193.935 141.936 194.53 141.936C195.126 141.936 195.637 141.681 196.062 141.256C196.488 140.83 196.658 140.319 196.658 139.724C196.488 138.447 195.552 137.596 194.445 137.596Z" fill="black"/>
<path d="M194.021 156.319C193 158.958 187.468 162.873 187.128 165.256C186.787 167.468 195.383 168.405 195.383 168.405C195.383 168.405 195.638 171.043 194.787 173.256C194.532 173.766 177.936 173.766 178.277 168.83C178.447 165.511 182.106 156.745 189.255 151.043C191.383 149.341 193.851 148.234 193.851 148.234C193.851 148.234 192.064 151.043 194.021 156.319Z" fill="#D1AB0F"/>
<path d="M203.382 174.873L189.85 176.745L181.51 153.852L195.042 151.979L203.382 174.873Z" fill="black"/>
<path d="M188.233 151.894L187.977 151.213C188.573 150.958 188.828 150.277 188.488 149.511C188.148 148.66 187.296 147.979 186.445 148.149C185.679 148.234 185.254 149.085 185.594 149.937C185.85 150.702 186.531 151.213 187.296 151.298L187.552 151.979L185.254 152.32L186.02 154.362L191.296 153.596L190.53 151.554L188.233 151.894ZM186.275 149.766C186.105 149.256 186.275 148.745 186.786 148.745C187.211 148.66 187.807 149.085 187.977 149.596C188.148 150.107 187.977 150.617 187.467 150.617C186.956 150.702 186.445 150.277 186.275 149.766Z" fill="white"/>
<path opacity="0.76" d="M185.085 230.702H170.617V236.745H185.085V230.702Z" fill="#0F31AD"/>
<path d="M181.765 229.596C181.68 229.341 181.509 229.085 181.254 229L176.233 225.256C175.892 225.085 172.744 228.234 173.595 229.256C173.935 229.681 176.063 231.554 179.212 229.851L180.148 230.277L180.744 232.915C180.829 233.341 181.169 233.596 181.595 233.596C181.68 233.596 181.68 233.596 181.765 233.596C182.19 233.511 182.531 233.085 182.446 232.66L181.765 229.596Z" fill="#E88992"/>
<path d="M174.275 238.447C173.764 238.447 173.424 238.107 173.424 237.596V236.575C173.424 236.064 173.764 235.724 174.275 235.724C174.786 235.724 175.126 236.064 175.126 236.575V237.596C175.126 238.107 174.7 238.447 174.275 238.447Z" fill="#DE6F76"/>
<path d="M176.318 238.447C175.807 238.447 175.467 238.107 175.467 237.596V236.064C175.467 235.553 175.807 235.213 176.318 235.213C176.828 235.213 177.169 235.553 177.169 236.064V237.596C177.169 238.107 176.828 238.447 176.318 238.447Z" fill="#DE6F76"/>
<path d="M177.935 238.447C177.424 238.447 177.084 238.107 177.084 237.596V236.064C177.084 235.553 177.424 235.213 177.935 235.213C178.446 235.213 178.786 235.553 178.786 236.064V237.596C178.786 238.107 178.446 238.447 177.935 238.447Z" fill="#E88992"/>
<path d="M179.808 238.447C179.297 238.447 178.957 238.107 178.957 237.596V236.575C178.957 236.064 179.297 235.724 179.808 235.724C180.319 235.724 180.659 236.064 180.659 236.575V237.596C180.659 238.107 180.234 238.447 179.808 238.447Z" fill="#DE6F76"/>
<path d="M169.596 234.276C169.925 234.276 170.191 234.01 170.191 233.681C170.191 233.352 169.925 233.085 169.596 233.085C169.267 233.085 169 233.352 169 233.681C169 234.01 169.267 234.276 169.596 234.276Z" fill="#0F31AD"/>
<path d="M186.021 232.83C186.162 232.83 186.276 232.716 186.276 232.575C186.276 232.434 186.162 232.319 186.021 232.319C185.88 232.319 185.766 232.434 185.766 232.575C185.766 232.716 185.88 232.83 186.021 232.83Z" fill="#0F31AD"/>
<path d="M186.02 235.128C185.935 235.128 185.85 235.043 185.85 234.958V233.426C185.85 233.341 185.935 233.256 186.02 233.256C186.105 233.256 186.19 233.341 186.19 233.426V234.958C186.19 235.128 186.105 235.128 186.02 235.128Z" fill="#0F31AD"/>
<path d="M186.021 232.83C186.162 232.83 186.276 232.716 186.276 232.575C186.276 232.434 186.162 232.319 186.021 232.319C185.88 232.319 185.766 232.434 185.766 232.575C185.766 232.716 185.88 232.83 186.021 232.83Z" fill="#2C7CDB"/>
<path d="M186.02 235.128C185.935 235.128 185.85 235.043 185.85 234.958V233.426C185.85 233.341 185.935 233.256 186.02 233.256C186.105 233.256 186.19 233.341 186.19 233.426V234.958C186.19 235.128 186.105 235.128 186.02 235.128Z" fill="#2C7CDB"/>
<path d="M197.255 142.618C196.829 142.533 196.574 142.362 196.319 142.022C196.063 141.682 196.063 141.341 196.149 141.001L196.574 139.469L197.255 139.639L196.829 141.171C196.829 141.341 196.829 141.511 196.915 141.596C197 141.682 197.085 141.767 197.255 141.852L198.532 141.596L198.617 142.277L197.255 142.618Z" fill="black"/>
<path d="M198.191 144.234V143.553C199.213 143.553 200.234 142.787 200.234 142.787L200.659 143.383C200.659 143.383 199.468 144.234 198.191 144.234Z" fill="black"/>
<path d="M193.254 134.788C190.871 134.277 190.36 133.001 190.36 132.83C190.02 131.469 188.403 125.937 200.743 126.788C200.999 126.788 203.467 127.383 203.467 127.383C203.467 127.383 207.637 126.192 207.126 131.128C207.126 131.383 207.041 134.362 207.041 134.362C207.041 134.362 205.765 133.681 204.999 135.724C204.828 136.064 203.382 135.298 203.382 133.256C203.382 131.213 202.786 130.788 201.68 131.043C200.658 131.383 195.637 135.298 193.254 134.788Z" fill="black"/>
<path d="M208.49 171.554C208.319 171.468 201.426 169.341 201.426 169.341L202.107 171.213L199.468 171.383C198.788 171.468 198.362 172.234 198.788 172.83L200.745 175.639C201.085 176.064 201.596 176.405 202.192 176.32L207.213 176.149L208.49 171.554Z" fill="#945D5F"/>
<path d="M207.552 155.383H202.105V157H207.552V155.383Z" fill="#808080"/>
<path d="M209.679 157.001C209.679 157.001 214.615 161.511 215.721 164.745C216.402 166.873 206.189 170.192 206.189 170.192C206.189 170.192 207.041 173.937 207.211 176.745C207.211 177.341 222.275 172.32 222.955 166.192C223.296 162.703 220.317 156.49 214.104 149.852C211.892 147.469 209.509 147.469 209.509 147.469C208.828 148.745 208.743 154.277 209.679 157.001Z" fill="#D1AB0F"/>
<path d="M168.149 187.809C167.042 184.83 165.17 182.618 162.617 181.852C162.617 181.937 162.617 182.022 162.617 182.107C162.617 185.426 159.978 188.064 156.659 188.064C153.681 188.064 151.213 185.852 150.787 182.958C148.915 183.724 147.978 184.49 147.042 185.341C146.106 186.107 145.085 190.362 144.574 193.086L168.915 190.788C168.744 189.681 168.489 188.745 168.149 187.809Z" fill="#7C4247"/>
<path d="M168.403 207.213L155.637 210.277C154.956 210.532 153.169 210.532 152.999 208.915V188.915C152.999 187.043 151.467 185.511 149.594 185.511C147.722 185.511 146.19 187.043 146.19 188.915V209.596C146.105 212.149 147.211 214.362 149.169 215.724C150.786 216.83 152.743 217.17 154.531 217.17C155.892 217.17 157.594 217 158.531 216.66L169.084 214.021L168.403 207.213Z" fill="#382325"/>
<path d="M267.467 292.065C286.02 275.639 298.446 252.405 300.999 226.277H267.467V292.065Z" fill="#1A64AD"/>
<path d="M135.127 193.085L135.212 139.809C119.382 153.255 107.638 172.234 102.531 193.085H135.127Z" fill="#1A64AD"/>
<path d="M223.638 296.915L200.063 296.83C199.893 297.085 199.808 297.341 199.723 297.596C199.297 299.043 200.489 299.128 200.489 299.128L213.34 299.724L216.063 297.681L217.34 299.724H223.638V296.915Z" fill="white"/>
<path d="M237.765 295.043L229.255 286.702L229 284.404C228.744 284.66 228.574 285 228.404 285.426C227.893 286.787 229.17 288.319 229.17 288.319L234.361 293.851L236.063 293.766L236.319 295.468L238.276 297H244.063L243.893 294.957L239.808 295.383L237.765 295.043Z" fill="white"/>
<path d="M161.935 294.192C162.02 293.936 161.935 293.596 161.935 293.34L143.892 290.106L143.467 292.575L148.148 293.34C148.233 292.66 148.318 292.489 148.318 292.489L152.148 294.021L161.765 295.638L161.935 294.192Z" fill="#2C7CDB"/>
<path d="M230.787 147.213C230.787 141.572 235.36 137 241 137H264.83C270.47 137 275.042 141.572 275.042 147.213V147.213C275.042 152.853 270.47 157.426 264.83 157.426H241C235.36 157.426 230.787 152.853 230.787 147.213V147.213Z" fill="white"/>
<path d="M131.213 137C131.213 131.36 135.785 126.787 141.426 126.787H165.255C170.896 126.787 175.468 131.36 175.468 137V137C175.468 142.64 170.896 147.213 165.255 147.213H141.426C135.785 147.213 131.213 142.64 131.213 137V137Z" fill="white"/>
<path d="M243.758 148.819C243.758 149.381 243.53 149.831 243.074 150.168C242.625 150.505 242.013 150.682 241.239 150.701V151.197C241.239 151.353 241.199 151.472 241.118 151.553C241.036 151.634 240.921 151.675 240.771 151.675V150.692C240.028 150.648 239.442 150.476 239.011 150.177C238.581 149.877 238.365 149.494 238.365 149.025C238.365 148.514 238.712 148.258 239.404 148.258C239.423 148.676 239.548 149.007 239.779 149.25C240.016 149.487 240.347 149.631 240.771 149.681V147.762C240.203 147.624 239.754 147.468 239.423 147.294C239.092 147.119 238.852 146.91 238.702 146.666C238.559 146.423 238.487 146.123 238.487 145.768C238.487 145.431 238.581 145.131 238.768 144.869C238.961 144.607 239.23 144.401 239.573 144.251C239.916 144.095 240.316 144.008 240.771 143.989V143.474C240.771 143.324 240.812 143.209 240.893 143.128C240.974 143.046 241.089 143.006 241.239 143.006V143.989C241.682 144.008 242.076 144.082 242.419 144.214C242.762 144.345 243.03 144.522 243.224 144.747C243.417 144.966 243.514 145.218 243.514 145.505C243.514 145.967 243.18 146.208 242.512 146.226C242.481 145.827 242.363 145.527 242.157 145.328C241.951 145.128 241.645 145.016 241.239 144.991V146.779C241.863 146.922 242.356 147.084 242.718 147.265C243.08 147.44 243.343 147.652 243.505 147.902C243.673 148.152 243.758 148.457 243.758 148.819ZM239.713 145.768C239.713 145.992 239.788 146.17 239.938 146.301C240.094 146.432 240.372 146.554 240.771 146.666V144.991C240.428 145.016 240.166 145.097 239.985 145.234C239.804 145.365 239.713 145.543 239.713 145.768ZM241.239 149.699C241.651 149.687 241.969 149.606 242.194 149.456C242.419 149.3 242.531 149.091 242.531 148.829C242.531 148.585 242.438 148.395 242.25 148.258C242.069 148.12 241.732 147.993 241.239 147.874V149.699Z" fill="#050B2C"/>
<path d="M244.66 144.972C244.66 144.666 244.762 144.426 244.968 144.251C245.174 144.07 245.452 143.979 245.802 143.979L248.966 148.922L249.06 148.848L248.676 148.211V143.979C249.081 143.979 249.387 144.057 249.593 144.214C249.805 144.37 249.911 144.6 249.911 144.906V149.849C249.911 150.08 249.812 150.28 249.612 150.448C249.418 150.617 249.194 150.701 248.938 150.701L245.605 145.487L245.511 145.571L245.895 146.208V149.774C245.895 150.08 245.789 150.311 245.577 150.467C245.371 150.623 245.065 150.701 244.66 150.701V144.972Z" fill="#050B2C"/>
<path d="M253.566 150.701C253.266 150.701 253.063 150.564 252.957 150.289L250.57 144.101C250.632 144.07 250.717 144.042 250.823 144.017C250.929 143.992 251.022 143.979 251.104 143.979C251.597 143.979 251.915 144.179 252.058 144.579L253.5 148.614L253.275 149.213L253.378 149.25L255.064 144.579C255.213 144.179 255.532 143.979 256.018 143.979C256.1 143.979 256.193 143.992 256.299 144.017C256.405 144.042 256.493 144.07 256.561 144.101L254.174 150.289C254.124 150.42 254.046 150.523 253.94 150.598C253.84 150.667 253.715 150.701 253.566 150.701Z" fill="#050B2C"/>
<path d="M258.086 150.617C257.911 150.617 257.761 150.564 257.637 150.458C257.518 150.345 257.459 150.208 257.459 150.046V144.635C257.459 144.473 257.518 144.338 257.637 144.232C257.755 144.12 257.905 144.064 258.086 144.064H260.164C260.72 144.064 261.21 144.17 261.634 144.382C262.065 144.594 262.395 144.894 262.626 145.281C262.864 145.661 262.982 146.098 262.982 146.591V148.071C262.982 148.564 262.864 149.004 262.626 149.391C262.389 149.777 262.055 150.08 261.625 150.299C261.2 150.511 260.713 150.617 260.164 150.617H258.086ZM260.071 149.54C260.614 149.54 261.026 149.419 261.306 149.175C261.587 148.926 261.728 148.56 261.728 148.08V146.573C261.728 146.105 261.587 145.749 261.306 145.505C261.026 145.262 260.614 145.14 260.071 145.14H258.713V149.54H260.071Z" fill="#050B2C"/>
<path d="M264.258 150.701C263.99 150.67 263.777 150.576 263.621 150.42C263.471 150.264 263.397 150.068 263.397 149.831C263.397 149.65 263.44 149.462 263.528 149.269L265.671 144.391C265.79 144.117 265.996 143.979 266.289 143.979C266.576 143.979 266.779 144.117 266.898 144.391L269.042 149.269C269.129 149.475 269.173 149.662 269.173 149.831C269.173 150.068 269.095 150.264 268.939 150.42C268.789 150.576 268.577 150.67 268.302 150.701L267.516 148.922H265.054L264.258 150.701ZM267.132 147.855L266.102 145.29L265.99 145.337L266.214 145.917L265.428 147.855H267.132Z" fill="#050B2C"/>
<path d="M144.879 138.607C144.879 139.168 144.651 139.618 144.195 139.955C143.746 140.292 143.134 140.47 142.36 140.488V140.984C142.36 141.14 142.32 141.259 142.239 141.34C142.158 141.421 142.042 141.462 141.892 141.462V140.479C141.15 140.435 140.563 140.264 140.132 139.964C139.702 139.664 139.486 139.281 139.486 138.813C139.486 138.301 139.833 138.045 140.525 138.045C140.544 138.463 140.669 138.794 140.9 139.037C141.137 139.274 141.468 139.418 141.892 139.468V137.549C141.324 137.411 140.875 137.255 140.544 137.081C140.213 136.906 139.973 136.697 139.823 136.453C139.68 136.21 139.608 135.91 139.608 135.555C139.608 135.218 139.702 134.918 139.889 134.656C140.082 134.394 140.351 134.188 140.694 134.038C141.037 133.882 141.437 133.795 141.892 133.776V133.261C141.892 133.111 141.933 132.996 142.014 132.915C142.095 132.834 142.211 132.793 142.36 132.793V133.776C142.803 133.795 143.197 133.87 143.54 134.001C143.883 134.132 144.152 134.31 144.345 134.534C144.539 134.753 144.635 135.005 144.635 135.293C144.635 135.754 144.301 135.995 143.634 136.013C143.602 135.614 143.484 135.314 143.278 135.115C143.072 134.915 142.766 134.803 142.36 134.778V136.566C142.984 136.709 143.478 136.872 143.84 137.053C144.202 137.227 144.464 137.439 144.626 137.689C144.794 137.939 144.879 138.245 144.879 138.607ZM140.834 135.555C140.834 135.779 140.909 135.957 141.059 136.088C141.215 136.219 141.493 136.341 141.892 136.453V134.778C141.549 134.803 141.287 134.884 141.106 135.021C140.925 135.152 140.834 135.33 140.834 135.555ZM142.36 139.487C142.772 139.474 143.091 139.393 143.315 139.243C143.54 139.087 143.652 138.878 143.652 138.616C143.652 138.373 143.559 138.182 143.371 138.045C143.19 137.908 142.853 137.78 142.36 137.661V139.487Z" fill="#050B2C"/>
<path d="M146.445 140.488C146.177 140.457 145.965 140.363 145.809 140.207C145.659 140.051 145.584 139.855 145.584 139.618C145.584 139.437 145.628 139.249 145.715 139.056L147.859 134.179C147.977 133.904 148.183 133.767 148.477 133.767C148.764 133.767 148.967 133.904 149.085 134.179L151.229 139.056C151.316 139.262 151.36 139.449 151.36 139.618C151.36 139.855 151.282 140.051 151.126 140.207C150.976 140.363 150.764 140.457 150.49 140.488L149.703 138.71H147.241L146.445 140.488ZM149.319 137.642L148.29 135.077L148.177 135.124L148.402 135.704L147.616 137.642H149.319Z" fill="#050B2C"/>
<path d="M152.936 140.488C152.668 140.457 152.456 140.363 152.3 140.207C152.15 140.051 152.075 139.855 152.075 139.618C152.075 139.437 152.119 139.249 152.206 139.056L154.35 134.179C154.469 133.904 154.674 133.767 154.968 133.767C155.255 133.767 155.458 133.904 155.576 134.179L157.72 139.056C157.808 139.262 157.851 139.449 157.851 139.618C157.851 139.855 157.773 140.051 157.617 140.207C157.467 140.363 157.255 140.457 156.981 140.488L156.194 138.71H153.732L152.936 140.488ZM155.81 137.642L154.781 135.077L154.668 135.124L154.893 135.704L154.107 137.642H155.81Z" fill="#050B2C"/>
<path d="M158.763 134.422C158.763 134.26 158.822 134.125 158.941 134.019C159.059 133.907 159.209 133.851 159.39 133.851H161.992C162.442 133.851 162.838 133.941 163.181 134.122C163.531 134.297 163.799 134.55 163.986 134.881C164.18 135.205 164.277 135.583 164.277 136.013C164.277 136.45 164.183 136.834 163.996 137.165C163.809 137.489 163.543 137.742 163.2 137.923C162.857 138.098 162.454 138.185 161.992 138.185H160.017V139.561C160.017 139.861 159.908 140.092 159.689 140.254C159.477 140.41 159.168 140.488 158.763 140.488V134.422ZM161.992 137.099C162.323 137.099 162.579 137.003 162.76 136.809C162.941 136.616 163.032 136.347 163.032 136.004C163.032 135.667 162.938 135.405 162.751 135.218C162.57 135.03 162.317 134.937 161.992 134.937H160.017V137.099H161.992Z" fill="#050B2C"/>
<path d="M165.836 140.404C165.655 140.404 165.499 140.339 165.368 140.207C165.243 140.076 165.181 139.92 165.181 139.739V134.693C165.181 134.381 165.284 134.15 165.489 134.001C165.695 133.845 166.011 133.767 166.435 133.767V139.318H168.963C169.256 139.318 169.478 139.412 169.627 139.599C169.777 139.78 169.852 140.048 169.852 140.404H165.836Z" fill="#050B2C"/>
<path d="M245.682 163.383L248.235 155.298H258.448L245.682 163.383Z" fill="white"/>
<path d="M157.596 152.744L155.043 144.659H144.83L157.596 152.744Z" fill="white"/>
<rect x="294" y="64" width="14" height="59" fill="#35A265"/>
<line x1="301" y1="64.0293" x2="301" y2="52.9999" stroke="#FFFEFE"/>
<line x1="301" y1="128" x2="301" y2="123" stroke="#FFFEFE"/>
<rect x="38" y="176.248" width="14" height="22.3524" fill="#F4452D"/>
<line x1="45" y1="176.248" x2="45" y2="154.248" stroke="#FFFEFE"/>
<line x1="45" y1="207.999" x2="45" y2="197.999" stroke="#FFFEFE"/>
<rect x="57" y="195.089" width="14" height="17.3622" fill="#F4452D"/>
<line x1="64" y1="195.089" x2="64" y2="178" stroke="#FFFEFE"/>
<line x1="64" y1="219.751" x2="64" y2="211.983" stroke="#FFFEFE"/>
<rect x="408" y="25" width="14" height="16" fill="#F4452D"/>
<line x1="415" y1="25.2246" x2="415" y2="0.224609" stroke="#FFFEFE"/>
<line x1="415" y1="48.9014" x2="415" y2="40.9014" stroke="#FFFEFE"/>
<rect x="351" y="48" width="14" height="8" fill="#F4452D"/>
<line x1="358" y1="48" x2="358" y2="23" stroke="#FFFEFE"/>
<line x1="358" y1="75.9004" x2="358" y2="55.9004" stroke="#FFFEFE"/>
<rect x="370" y="58" width="14" height="30" fill="#F4452D"/>
<line x1="377" y1="58" x2="377" y2="52" stroke="#FFFEFE"/>
<line x1="377" y1="101" x2="377" y2="88" stroke="#FFFEFE"/>
<rect y="197" width="14" height="30" fill="#35A265"/>
<line x1="7" y1="197" x2="7" y2="187" stroke="#FFFEFE"/>
<line x1="7" y1="237" x2="7" y2="227" stroke="#FFFEFE"/>
<rect x="19" y="177" width="14" height="17" fill="#35A265"/>
<line x1="26" y1="177" x2="26" y2="159" stroke="#FFFEFE"/>
<line x1="26" y1="204" x2="26" y2="194" stroke="#FFFEFE"/>
<rect x="389" y="27.2549" width="14" height="63.6815" fill="#35A265"/>
<line x1="396" y1="27.2549" x2="396" y2="24.9996" stroke="#FFFEFE"/>
<line x1="396" y1="94.6533" x2="396" y2="90.8945" stroke="#FFFEFE"/>
<rect x="313" y="36" width="14" height="26" fill="#35A265"/>
<line x1="320" y1="36" x2="320" y2="34" stroke="#FFFEFE"/>
<line x1="320" y1="72.2041" x2="320" y2="62.2041" stroke="#FFFEFE"/>
<rect x="427" y="2" width="14" height="26" fill="#35A265"/>
<line x1="434" y1="2" x2="434" y2="2.15545e-08" stroke="#FFFEFE"/>
<line x1="434" y1="38.2041" x2="434" y2="28.2041" stroke="#FFFEFE"/>
<rect x="332" y="33" width="14" height="29.5866" fill="#F4452D"/>
<line x1="339" y1="33" x2="339" y2="31" stroke="#FFFEFE"/>
<line x1="339" y1="82.2041" x2="339" y2="62.2041" stroke="#FFFEFE"/>
<defs>
<clipPath id="clip0_2743_943">
<rect width="59.6" height="59.6" fill="white" transform="translate(349 289)"/>
</clipPath>
</defs>
</svg>
