<svg fill="none" height="360" viewBox="0 0 360 360" width="360" xmlns="http://www.w3.org/2000/svg"><path d="m0 132.02c0-46.6982 0-70.0474 9.2321-87.8199 7.7798-14.9767 19.9913-27.1882 34.968-34.968 17.7725-9.2321 41.1217-9.2321 87.8199-9.2321h95.96c46.698 0 70.047 0 87.82 9.2321 14.977 7.7798 27.188 19.9913 34.968 34.968 9.232 17.7725 9.232 41.1217 9.232 87.8199v95.96c0 46.698 0 70.047-9.232 87.82-7.78 14.977-19.991 27.188-34.968 34.968-17.773 9.232-41.122 9.232-87.82 9.232h-95.96c-46.6982 0-70.0474 0-87.8199-9.232-14.9767-7.78-27.1882-19.991-34.968-34.968-9.2321-17.773-9.2321-41.122-9.2321-87.82z" fill="#53c38e"/><g fill="#000"><path d="m163.211 257.162-1.939.794c-11.589 3.862-28.95 9.64-44.04 16.984-.794.377-1.537 1.531-1.537 1.531-.408.766-.822 1.559-1.148 2.331-1.616 3.856-4.245 9.663-5.039 12.348l-.737 1.971v.74l.329.411h.408l1.863-.766c4.324-1.973 9.694-5.041 15.141-7.726h.36c9.971-4.648 19.886-9.412 29.744-14.294 0 0 1.145-.765 1.942-1.916l5.396-10.846v-.765c0-.797-.411-1.152-.74-.797zm-43.268-16.979c.793-1.559 4.219-8.132 5.038-9.669v-.382c23.551-44.417 52.172-86.146 84.924-124.402l.822-1.165c.417-.397.417-.777 0-1.154-.408-.391-.822-.788-1.148-.391h-1.534c-21.691 3.104-43.683 6.963-65.292 12.362-2.353.78-3.501 1.948-3.912 2.302-16.216 19.335-31.303 39.804-45.6309 60.687.4679 1.151.4679 3.476.4679 3.476s3.4252 27.036 8.492 47.133c-12.3822 36.702-23.9649 85.367-23.9649 85.367v.794c0 .382.4111.382.7372.382h7.3437c.3857 0 .794-.38 1.2051-.765l.3289-1.56c7.3409-20.077 15.884-40.178 25.113-59.515 2.354-4.27 7.01-13.5 7.01-13.5z"/><path d="m221.167 113.851v-1.548c0-.397-.417-.797-.743-1.154-.408 0-.822 0-1.208.357l-.762 1.165c-38.698 44.437-70.716 93.881-96.155 146.824l-.822 1.143v1.18c.326.357.326.357.822.357h.326l1.154-.357c21.606-8.898 43.68-16.622 65.671-23.194 1.151-.386 2.354-1.151 3.096-2.3 9.695-18.543 32.041-54.871 32.041-54.871.822-1.165.468-2.325.468-2.325s-3.888-43.277-3.888-65.277z"/><path d="m270.625 51.2562c-5.37-4.6558-13.59-6.9695-25.907-7.3381-10.763-.397-23.968 2.3137-39.029 6.9411-2.303.7968-3.862 1.9451-5.802 3.4649-15.422 14.3104-30.075 29.772-44.014 45.2278l-1.202 1.1511c-.357.397-.357.766 0 1.163.38.388.791.757 1.202.388l1.537-.391c22.839-5.0217 45.568-8.5008 67.999-10.84 1.534 0 3.093.397 4.216 1.1625 1.236 1.1767 1.56 2.3421 1.56 3.8647-.324 22.4278.414 44.8278 2.305 66.4628v1.545c0 .377.465.774.788.774h.417c.408 0 .737 0 .737-.397l.794-1.154c12.731-18.141 26.267-35.548 40.944-52.132 1.531-1.942 1.945-3.108 2.353-4.667 4.576-28.2071-2.353-49.8158-8.898-55.2258z"/></g></svg>