<?xml version="1.0" encoding="utf-8"?>
<!-- Generator: Adobe Illustrator 26.3.1, SVG Export Plug-In . SVG Version: 6.00 Build 0)  -->
<svg version="1.1" id="Layer_1" xmlns="http://www.w3.org/2000/svg" xmlns:xlink="http://www.w3.org/1999/xlink" x="0px" y="0px"
	 width="254.8px" height="160.4px" viewBox="0 0 254.8 160.4" enable-background="new 0 0 254.8 160.4" xml:space="preserve">
<g>
	<path fill="#D0D0D0" d="M72,76.5h104V83H72V76.5z"/>
	<path fill="#62727A" d="M75.3,31h97.5v45.5H75.3V31z"/>
	<path fill="#D6EEF0" d="M81.8,35.9h22.8v40.6H81.8V35.9z"/>
	<path fill="#3E4347" d="M75.3,22.9h97.5v9.8H75.3V22.9z"/>
	<path fill="#11146F" d="M72,22.9c0,3.6,2.9,6.5,6.5,6.5s6.5-2.9,6.5-6.5H72z"/>
	<path fill="#35A265" d="M85,22.9c0,3.6,2.9,6.5,6.5,6.5s6.5-2.9,6.5-6.5H85z"/>
	<path fill="#11146F" d="M98,22.9c0,3.6,2.9,6.5,6.5,6.5s6.5-2.9,6.5-6.5H98z"/>
	<path fill="#11146F" fill-opacity="0.7" d="M98,8.3h13v14.6H98V8.3z"/>
	<path fill="#35A265" d="M111,22.9c0,3.6,2.9,6.5,6.5,6.5s6.5-2.9,6.5-6.5H111z"/>
	<path fill="#35A265" fill-opacity="0.7" d="M111,8.3h13v14.6h-13V8.3z"/>
	<path fill="#11146F" fill-opacity="0.7" d="M72,8.3h13v14.6H72V8.3z"/>
	<path fill="#35A265" fill-opacity="0.7" d="M85,8.3h13v14.6H85V8.3z"/>
	<path fill="#11146F" fill-opacity="0.7" d="M150,8.3h13v14.6h-13V8.3z"/>
	<path fill="#35A265" fill-opacity="0.7" d="M163,8.3h13v14.6h-13V8.3z"/>
	<path fill="#11146F" d="M124,22.9c0,3.6,2.9,6.5,6.5,6.5s6.5-2.9,6.5-6.5H124z"/>
	<path fill="#11146F" fill-opacity="0.7" d="M124,8.3h13v14.6h-13V8.3z"/>
	<path fill="#35A265" d="M137,22.9c0,3.6,2.9,6.5,6.5,6.5s6.5-2.9,6.5-6.5H137z"/>
	<path fill="#35A265" fill-opacity="0.7" d="M137,8.3h13v14.6h-13V8.3z"/>
	<path fill="#11146F" d="M150,22.9c0,3.6,2.9,6.5,6.5,6.5s6.5-2.9,6.5-6.5H150z"/>
	<path fill="#35A265" d="M163,22.9c0,3.6,2.9,6.5,6.5,6.5s6.5-2.9,6.5-6.5H163z"/>
	<path fill="#FFFFFF" d="M81.8,35.9H85v40.6h-3.2V35.9z M101.3,35.9h3.2v40.6h-3.2V35.9z"/>
	<path fill="#B4D7EE" d="M85,35.9h16.2v3.2H85V35.9z"/>
	<path fill="#FFFFFF" d="M115.9,32.7h48.8v32.5h-48.8V32.7z"/>
	<path fill="#3E4347" d="M167.9,70c0,0.8-0.8,1.6-1.6,1.6h-52c-0.8,0-1.6-0.8-1.6-1.6v-3.2c0-0.8,0.8-1.6,1.6-1.6h52
		c0.8,0,1.6,0.8,1.6,1.6V70z"/>
	<path fill="#D6EEF0" d="M119.1,35.9h42.2v26h-42.2V35.9z"/>
	<path fill="#B4D7EE" d="M119.1,35.9h42.2v3.2h-42.2V35.9z"/>
	<path fill="#3E4347" d="M176,8.9H72V1c0-0.5,1.5-1,3.2-1h97.5c1.8,0,3.2,0.4,3.2,1V8.9z"/>
	<path fill="#939598" d="M120.8,41.8h40.6H120.8z M120.8,41.6h40.6V42h-40.6L120.8,41.6z M120.8,47.4h40.6H120.8z M120.8,47.2h40.6
		v0.4h-40.6L120.8,47.2z M120.8,53.1h40.6H120.8z M120.8,52.9h40.6v0.4h-40.6L120.8,52.9z M120.8,58.7h40.6H120.8z M120.8,58.6h40.6
		v0.4h-40.6L120.8,58.6z M127.3,61.9V37.5V61.9z"/>
	<path fill="#939598" d="M126.9,37.5h0.6v24.3h-0.6V37.5z M136.7,61.9V37.5V61.9z M136.4,37.5h0.6v24.3h-0.6V37.5z M146.2,61.9V37.5
		V61.9z M145.9,37.5h0.6v24.3h-0.6V37.5z M155.6,61.9V37.5V61.9z M155.3,37.5h0.6v24.3h-0.6V37.5z"/>
	<path fill="#EE4036" d="M120.8,53.8l6.6-5.8c-0.1-0.1-0.1-0.2-0.2-0.4c-0.3-0.1-0.6-0.1-0.8-0.2l-5.6,4.8V53.8"/>
	<path fill="#EE4036" d="M145.1,49.5l6.6-6.5c-0.1-0.1-0.1-0.3-0.2-0.4c-0.3-0.1-0.6-0.2-0.8-0.3l-5.6,5.4V49.5"/>
	<path fill="#EE4036" d="M131.2,53.8c0.7,0.1,0.7,0,1.1-0.4l-5.2-6c-0.1-0.1-0.2-0.2-0.4-0.2c-0.2,0-0.3,0-0.4,0.1
		c-0.1,0.1-0.2,0.2-0.2,0.4s0,0.3,0.1,0.4L131.2,53.8C131.2,53.8,131.2,53.8,131.2,53.8z M145.1,47.7l-3-3.4
		c-0.1-0.1-0.1-0.1-0.2-0.1c-0.1,0-0.1-0.1-0.2-0.1c-0.1,0-0.2,0-0.2,0c-0.1,0-0.1,0.1-0.2,0.1c-0.1,0.1-0.1,0.1-0.1,0.2
		c0,0.1-0.1,0.1-0.1,0.2c0,0.1,0,0.2,0,0.2c0,0.1,0.1,0.1,0.1,0.2l3.8,4.4L145.1,47.7"/>
	<path fill="#EE4036" d="M132.3,53.5c-0.3,0.3-0.7,0.3-0.9,0c-0.2-0.2-0.1-0.6,0.2-0.9l9.6-8.4c0.3-0.3,0.7-0.3,0.9,0
		c0.2,0.2,0.1,0.7-0.2,0.9L132.3,53.5"/>
	<rect x="81.8" y="32.7" fill="#FFFEFE" width="22.8" height="3.2"/>
	<path fill="#35A265" d="M97.9,59.5c0-2.8-1.9-3.6-4.1-4l-1.1-0.2c-1.7-0.3-1.8-0.8-1.8-1.4c0-0.8,0.8-1.3,2-1.3
		c1.5,0,1.9,0.7,2,1.3l0,0c0.2,0.5,0.6,0.8,1.2,0.8c0.1,0,0.3,0,0.4,0c0.6-0.1,1-0.6,1-1.1c0-0.1,0-0.3-0.1-0.4
		c-0.3-1-1.1-2.5-3.5-2.8v-1.6c0-1.4-2.1-1.4-2.1,0v1.7c-2.5,0.4-3.4,2.1-3.4,3.6c0,2.7,1.9,3.4,3.7,3.8l1.2,0.3
		c1.7,0.3,2,0.8,2,1.6c0,1-0.8,1.6-2.2,1.6c-1.8,0-2.2-0.8-2.4-1.7c-0.1-0.5-0.6-0.8-1.2-0.8c-0.1,0-0.2,0-0.3,0l0,0
		c-0.6,0.1-1,0.6-1,1.2c0,0.1,0,0.2,0,0.3l0,0.1c0.3,0.9,0.9,2.9,3.8,3.3v1.7c0,0.7,0.5,1,1.1,1c0.5,0,1.1-0.4,1.1-1v-1.7
		C96.4,63.1,97.9,61.6,97.9,59.5"/>
</g>
<path fill="#11146F" d="M11.7,121.2H0c0-3,1.4-4.5,4.2-4.5h24.2c0,1.5-0.4,2.6-1.1,3.4c-0.7,0.8-1.7,1.2-3.1,1.2h-7.4v25.4
	c0,1.3-0.4,2.3-1.3,3c-0.9,0.7-2.1,1.1-3.8,1.1V121.2z M38.5,130.1c-1.8,0-3.3,0.5-4.5,1.6s-1.8,2.4-1.8,3.9v12c0,1.2-0.4,2-1.2,2.5
	c-0.8,0.5-2,0.8-3.6,0.8v-21c0-2.6,1.5-3.9,4.6-3.9v2.9c-0.4,0.5-0.8,1-1.1,1.5l0.2,0.2c2-3,4.6-4.6,7.6-4.6c1.2,0,2.1,0.3,2.8,0.9
	c0.7,0.6,1,1.4,1,2.3c0,0.7-0.2,1.2-0.5,1.7C41.2,130.3,40,130.1,38.5,130.1z M53.1,150.8c-2.7,0-4.8-0.7-6.5-2.2
	c-1.7-1.5-2.5-3.4-2.5-5.9c0-2.5,0.9-4.4,2.7-5.9c1.8-1.5,4.1-2.2,7-2.2c3,0,5.5,1,7.4,3.1l0.2-0.2c-0.4-0.4-0.8-0.9-1.3-1.2v-1.6
	c0-1.5-0.5-2.7-1.5-3.6c-1-0.9-2.4-1.3-4.2-1.3c-3.2,0-5.6,1.2-7,3.7c-0.6-0.3-1.1-0.6-1.5-1.1c-0.4-0.5-0.5-1-0.5-1.4
	c0-0.9,0.4-1.7,1.3-2.5c0.9-0.8,2-1.4,3.5-1.9c1.4-0.5,3-0.7,4.6-0.7c3.1,0,5.6,0.8,7.4,2.3c1.8,1.5,2.7,3.6,2.7,6.3v12.8
	c0,1.2-0.4,2.1-1.1,2.7c-0.7,0.5-1.9,0.8-3.4,0.8v-2.2c0.7-0.7,1-1.2,1.1-1.2l-0.2-0.2c-1.1,1.2-2.2,2.1-3.6,2.7
	C56.3,150.5,54.8,150.8,53.1,150.8z M54.1,147.1c1.9,0,3.4-0.4,4.4-1.2c1.1-0.8,1.6-1.8,1.6-3.2s-0.5-2.5-1.6-3.3s-2.5-1.2-4.3-1.2
	c-1.7,0-3,0.4-4,1.2c-1,0.8-1.5,1.9-1.5,3.3s0.5,2.4,1.4,3.2C51.1,146.7,52.4,147.1,54.1,147.1z M79.7,150.8c-1.8,0-3.4-0.4-4.8-1.1
	c-1.4-0.7-2.5-1.7-3.3-3c-0.8-1.3-1.2-2.8-1.2-4.4v-8c0-1.6,0.4-3.1,1.2-4.4c0.8-1.3,1.9-2.3,3.4-3c1.5-0.7,3.1-1.1,4.9-1.1
	c1.4,0,2.7,0.3,4,0.9c1.3,0.6,2.4,1.3,3.4,2.3l0.1-0.2c-0.2-0.3-0.5-0.6-1-1v-8c0-1.1,0.4-2,1.2-2.6s2-0.9,3.6-0.9v30.8
	c0,1.1-0.4,2-1.1,2.6c-0.7,0.7-1.8,1-3.4,1v-2.7c0.4-0.6,0.8-1,0.9-1.2l-0.2-0.2c-1,1.3-2.1,2.3-3.4,3.1
	C83,150.4,81.5,150.8,79.7,150.8z M80.9,146.6c1.6,0,2.9-0.4,4-1.2c1.1-0.8,1.6-1.9,1.6-3.1v-7.9c0-1.2-0.5-2.2-1.6-3
	c-1-0.8-2.4-1.2-4.1-1.2c-1.8,0-3.2,0.4-4.2,1.2c-1,0.8-1.4,1.9-1.4,3.3v7.5c0,1.5,0.5,2.6,1.4,3.4
	C77.7,146.2,79.1,146.6,80.9,146.6z M101.1,122.7c-1,0-1.8-0.3-2.4-0.9c-0.7-0.6-1-1.4-1-2.3c0-0.9,0.3-1.7,1-2.3
	c0.7-0.6,1.5-0.9,2.4-0.9c1,0,1.8,0.3,2.4,0.9c0.7,0.6,1,1.4,1,2.3c0,0.9-0.3,1.7-1,2.3C102.8,122.4,102,122.7,101.1,122.7z
	 M98.7,129.2c0-1.2,0.4-2,1.2-2.5c0.8-0.5,2-0.8,3.6-0.8v21.6c0,1.1-0.4,2-1.2,2.5c-0.8,0.5-2,0.8-3.6,0.8V129.2z M110.8,129.8
	c0-2.6,1.5-3.9,4.6-3.9v3c-0.3,0.3-0.7,0.8-1.1,1.3l0.2,0.2c1-1.4,2.2-2.5,3.7-3.3c1.5-0.8,3.2-1.2,5-1.2c2.6,0,4.6,0.8,6.1,2.4
	c1.5,1.5,2.3,3.5,2.3,6v13.3c0,1.1-0.4,2-1.2,2.5c-0.8,0.5-2,0.8-3.6,0.8v-16c0-1.4-0.4-2.5-1.2-3.4s-2-1.3-3.6-1.3
	c-1.1,0-2.2,0.3-3.2,0.8c-1,0.5-1.8,1.1-2.4,2c-0.6,0.8-0.9,1.7-0.9,2.7v12c0,1.2-0.4,2-1.2,2.5c-0.8,0.5-2,0.8-3.6,0.8V129.8z
	 M147.3,160.4c-1.8,0-3.4-0.3-4.8-0.8c-1.4-0.5-2.6-1.2-3.4-2.2c-0.8-0.9-1.2-1.9-1.2-3c0-1.7,1.2-2.6,3.5-2.6
	c0.1,1.4,0.6,2.6,1.6,3.4c1.1,0.8,2.5,1.2,4.3,1.2c3.9,0,5.8-1.9,5.8-5.7v-2.4c0.4-0.4,0.8-0.7,1-1.1l-0.1-0.2
	c-0.9,0.9-2,1.7-3.5,2.3c-1.4,0.6-2.7,0.9-4.1,0.9c-1.8,0-3.4-0.4-4.8-1.1c-1.4-0.7-2.5-1.7-3.3-2.9c-0.8-1.3-1.2-2.8-1.2-4.4v-7.5
	c0-1.6,0.4-3.1,1.2-4.4s2-2.3,3.4-3c1.4-0.7,3-1.1,4.7-1.1c1.7,0,3.2,0.4,4.5,1.1c1.3,0.7,2.4,1.7,3.4,3l0.2-0.2
	c-0.3-0.4-0.6-0.9-1-1.2c0-1.8,1.5-2.7,4.5-2.7v24.3c0,2-0.5,3.7-1.4,5.3c-0.9,1.6-2.2,2.8-3.8,3.6
	C151.2,159.9,149.4,160.4,147.3,160.4z M147.5,146.1c1.6,0,3-0.4,4.1-1.2c1.1-0.9,1.7-1.9,1.7-3.1v-7.5c0-1.2-0.5-2.2-1.6-3.1
	c-1.1-0.8-2.4-1.2-4-1.2c-1.8,0-3.2,0.4-4.2,1.2c-1,0.8-1.4,1.9-1.4,3.4v7c0,1.4,0.5,2.5,1.4,3.4
	C144.3,145.7,145.7,146.1,147.5,146.1z"/>
<path fill="#35A265" d="M164.2,119.1c0-0.7,0.2-1.3,0.7-1.7c0.5-0.4,1.2-0.7,1.9-0.7h13.8c2.2,0,4.1,0.4,5.8,1.3
	c1.7,0.9,3,2.1,3.9,3.7c0.9,1.6,1.4,3.5,1.4,5.6c0,2.1-0.5,4-1.4,5.7c-0.9,1.6-2.2,2.9-3.9,3.8c-1.7,0.9-3.6,1.3-5.8,1.3h-11.2v8.5
	c0,1.3-0.4,2.3-1.3,3c-0.9,0.7-2.2,1.1-3.8,1.1V119.1z M180.7,133.6c1.9,0,3.3-0.5,4.4-1.6c1.1-1.1,1.6-2.7,1.6-4.6
	c0-1.9-0.5-3.4-1.6-4.5c-1.1-1.1-2.5-1.7-4.3-1.7h-11.2v12.4H180.7z M202.9,150.8c-2,0-3.8-0.4-5.4-1.1s-2.9-1.7-3.8-3
	c-0.9-1.3-1.3-2.8-1.3-4.4v-7.5c0-1.6,0.4-3.1,1.3-4.5c0.9-1.3,2.1-2.4,3.7-3.2c1.6-0.8,3.4-1.2,5.5-1.2c2,0,3.9,0.4,5.5,1.2
	c1.6,0.8,2.8,1.8,3.7,3.2c0.9,1.3,1.4,2.8,1.4,4.5v7.5c0,1.6-0.5,3.1-1.4,4.4c-0.9,1.3-2.2,2.3-3.8,3
	C206.7,150.4,204.9,150.8,202.9,150.8z M202.9,146.6c1.8,0,3.3-0.4,4.3-1.2c1.1-0.9,1.6-2,1.6-3.4v-7.1c0-1.5-0.5-2.7-1.6-3.6
	c-1.1-0.9-2.5-1.3-4.3-1.3s-3.2,0.4-4.3,1.3c-1.1,0.9-1.6,2.1-1.6,3.6v7.1c0,1.4,0.5,2.5,1.6,3.4C199.6,146.2,201,146.6,202.9,146.6
	z M226.5,150.8c-1.8,0-3.4-0.2-4.9-0.7c-1.5-0.5-2.6-1.2-3.5-2.2c-0.9-1-1.3-2-1.3-3.3c0-1.6,1.1-2.5,3.2-2.6c0.3,1.7,1,2.9,2.2,3.7
	c1.2,0.8,2.6,1.2,4.4,1.2c1.8,0,3.2-0.3,4.2-0.8c1-0.5,1.5-1.3,1.5-2.3c0-1-0.4-1.8-1.3-2.4c-0.9-0.6-2.5-1.1-4.9-1.6
	c-2.2-0.5-4-1-5.2-1.6c-1.3-0.5-2.2-1.3-2.9-2.2c-0.6-0.9-1-2.1-1-3.6c0-1.3,0.4-2.4,1.2-3.4c0.8-1,1.8-1.8,3.2-2.4
	c1.4-0.6,3-0.9,4.8-0.9c1.7,0,3.3,0.2,4.8,0.7c1.5,0.4,2.6,1.1,3.5,2c0.9,0.8,1.3,1.8,1.3,2.9c0,1.6-1.2,2.4-3.6,2.5
	c-0.2-1.3-0.8-2.4-1.8-3.2c-1-0.8-2.4-1.2-4.1-1.2c-1.4,0-2.6,0.3-3.5,0.8c-0.9,0.5-1.3,1.2-1.3,2.1c0,0.9,0.4,1.6,1.2,2.1
	c0.8,0.4,2.2,0.9,4.2,1.3c3.4,0.7,5.9,1.7,7.5,2.9c1.6,1.2,2.4,2.9,2.4,5c0,2.2-0.9,3.9-2.7,5.1
	C232.3,150.1,229.7,150.8,226.5,150.8z M249.9,150.8c-2.4,0-4.2-0.7-5.3-2c-1.2-1.4-1.7-3.2-1.7-5.4v-13.3h-4.6
	c0-1.2,0.3-2.2,0.8-2.8c0.5-0.6,1.2-1,2.1-1h1.9V122c0-1.2,0.4-2,1.2-2.5c0.8-0.5,1.9-0.8,3.5-0.8v7.6h6.4c0,1.3-0.3,2.2-0.8,2.8
	c-0.5,0.6-1.3,0.9-2.4,0.9h-3v13.1c0,1.2,0.2,2.1,0.7,2.6c0.4,0.5,1.2,0.8,2.4,0.8c1.1,0,2.2-0.3,3.3-0.9c0.5,0.5,0.8,1.2,0.8,1.9
	c0,0.8-0.4,1.6-1.3,2.2C252.6,150.4,251.4,150.8,249.9,150.8z"/>
</svg>
