<svg width="454" height="336" viewBox="0 0 454 336" fill="none" xmlns="http://www.w3.org/2000/svg">
<g clip-path="url(#clip0_2743_942)">
<path d="M337.418 40.7848C343.505 26.0894 336.527 9.24188 321.832 3.15473C307.136 -2.93242 290.289 4.04592 284.201 18.7413C278.114 33.4367 285.093 50.2842 299.788 56.3714C314.483 62.4585 331.331 55.4802 337.418 40.7848Z" stroke="#2C7CDB" stroke-width="2" stroke-linecap="round" stroke-linejoin="round" stroke-dasharray="3.01 3.01"/>
<path d="M302.201 24.4004H295.301V40.4004H302.201V24.4004Z" stroke="#2C7CDB" stroke-width="2" stroke-miterlimit="10"/>
<path d="M299.901 18.7002H297.701V24.4002H299.901V18.7002Z" fill="#2C7CDB"/>
<path d="M299.901 40.4004H297.701V46.1004H299.901V40.4004Z" fill="#2C7CDB"/>
<path d="M314.201 14.9004H307.301V35.9004H314.201V14.9004Z" stroke="#2C7CDB" stroke-width="2" stroke-miterlimit="10"/>
<path d="M311.901 9.2002H309.701V14.9002H311.901V9.2002Z" fill="#2C7CDB"/>
<path d="M311.901 35.9004H309.701V41.6004H311.901V35.9004Z" fill="#2C7CDB"/>
<path d="M326.201 29.2998H319.301V40.1998H326.201V29.2998Z" stroke="#2C7CDB" stroke-width="2" stroke-miterlimit="10"/>
<path d="M323.901 23.7002H321.701V29.4002H323.901V23.7002Z" fill="#2C7CDB"/>
<path d="M323.901 40.2002H321.701V45.9002H323.901V40.2002Z" fill="#2C7CDB"/>
</g>
<circle opacity="0.1" cx="200" cy="216" r="120" fill="#2C7CDB"/>
<circle opacity="0.1" cx="200" cy="216" r="110.638" fill="#2C7CDB"/>
<path d="M200.425 316.426C256.124 316.426 301.276 271.273 301.276 215.575C301.276 159.876 256.124 114.724 200.425 114.724C144.727 114.724 99.5742 159.876 99.5742 215.575C99.5742 271.273 144.727 316.426 200.425 316.426Z" fill="#2C7CDB"/>
<path d="M286.042 188.767L276.595 179.66H258.553L270.212 190.979C270.468 191.235 270.893 191.405 271.234 191.405H285.021C286.383 191.32 287.063 189.703 286.042 188.767Z" fill="#230C0F"/>
<path d="M105.021 182.894H295.915C282.298 143.234 244.681 114.724 200.426 114.724C156.17 114.724 118.553 143.234 105.021 182.894Z" fill="#0F31AD"/>
<path d="M149.276 167.745H143.744C141.106 167.745 138.979 165.618 138.979 162.979V152.937C138.979 150.299 141.106 148.171 143.744 148.171H149.276C151.915 148.171 154.042 150.299 154.042 152.937V162.894C154.042 165.618 151.915 167.745 149.276 167.745Z" fill="#A3A3A3"/>
<path d="M241.531 123.49C229.021 117.873 215.063 114.724 200.425 114.724C195.744 114.724 191.233 115.064 186.723 115.66V154.213H241.531V123.49Z" fill="#2C7CDB"/>
<path d="M142.298 271.234L141.191 282.468C138.893 282.298 137.191 280.34 137.361 277.957L138.127 270.894L142.298 271.234Z" fill="black"/>
<path d="M231.574 125.277V131.235H225.787V154.214H231.574H241.532V131.235V125.277H231.574Z" fill="#1A64AD"/>
<path d="M243.829 154.213H184.34V155.745H243.829V154.213Z" fill="#DDDDDD"/>
<path d="M210.978 140.511C211.403 138.809 212.595 137.362 212.51 135.575C212.34 133.362 209.957 132.001 207.744 131.915C205.531 131.83 203.489 132.596 201.276 132.852C199.148 133.107 196.595 132.681 195.404 130.809C194.127 128.852 194.978 126.128 194.212 123.915C193.531 121.958 191.574 120.596 189.616 120.086C188.68 119.83 187.744 119.745 186.723 119.66V154.043H211.999C212.51 153.277 212.85 152.426 212.935 151.575C213.531 147.915 210.127 144.256 210.978 140.511Z" fill="#1A64AD"/>
<path d="M132.596 244.511H124.596V280.936H132.596V244.511Z" fill="#05134C"/>
<path d="M144.681 174.724H142.383V191.149H144.681V174.724Z" fill="#A3A3A3"/>
<path d="M159.064 174.724H156.766V191.149H159.064V174.724Z" fill="#A3A3A3"/>
<path d="M137.276 276.426C125.786 273.958 117.02 265.533 111.999 252.171C108.34 242.469 107.914 233.533 107.914 233.107L115.489 232.767C115.489 233.107 117.191 264.341 138.893 269.022L137.276 276.426Z" fill="#0E2877"/>
<path d="M165.532 161.107C165.362 160.936 161.022 156.511 160.426 147.915L163.575 147.319C164.085 154.553 167.915 158.638 167.915 158.724L165.532 161.107Z" fill="#FAD94B"/>
<path d="M150.298 163.404H161.022C160.085 151.574 163.575 147.319 163.575 147.319C163.575 147.319 163.575 144.34 157.702 143.744C152.766 143.149 149.192 144.596 149.192 144.596C149.192 144.596 149.192 147.744 149.192 155.744C149.107 160.596 150.298 163.404 150.298 163.404Z" fill="#382325"/>
<path d="M212.34 171.83C210.893 171.83 205.957 169.958 205.617 160.767C205.361 155.405 203.319 154.894 201.787 152.767C200.255 150.639 199.149 146.809 202.468 144.256C203.915 143.15 208.255 143.49 209.702 149.107C210.638 152.852 209.446 152.511 211.234 156.852C212.34 159.49 216.595 161.958 216.255 166.979C216.17 168.852 215.574 170.384 214.212 171.405C213.957 171.575 212.68 171.83 212.34 171.83Z" fill="#35A265"/>
<path d="M215.83 184.51C215.66 184.51 215.405 184.34 215.405 184.17C213.022 164.255 203.745 148.936 203.66 148.766C203.575 148.596 203.575 148.34 203.83 148.17C204.001 148.085 204.256 148.085 204.426 148.34C204.511 148.51 213.958 163.915 216.341 184.085C216.256 184.34 216.171 184.51 215.83 184.51C215.83 184.51 215.916 184.51 215.83 184.51Z" fill="#45DB82"/>
<path d="M262.638 203.66H257.361L259.063 185.873H266.212L262.638 203.66Z" fill="black"/>
<path d="M218.043 169.277C222.213 168.255 222.554 166.128 221.617 162.723C221.362 161.702 222.298 160.596 223.32 159.404C226.809 155.319 222.469 152.425 223.49 149.957C224.511 147.489 225.277 142.894 221.447 141.191C219.83 140.511 215.49 141.787 215.405 147.574C215.32 151.404 215.915 151.404 215.745 154.468C215.575 157.277 210.894 160.34 213.192 165.447C213.958 167.149 214.639 168.596 216.171 169.277C216.426 169.447 217.703 169.362 218.043 169.277Z" fill="#35A265"/>
<path d="M151.064 214.554L229.533 312.171C258.979 303.32 282.724 281.362 294.043 253.107L263.064 214.469H151.064V214.554Z" fill="#0F31AD"/>
<path d="M217.447 182.469C217.192 182.469 217.022 182.298 217.022 182.128C214.724 161.958 219.575 147.32 219.66 147.15C219.745 146.894 220 146.809 220.171 146.894C220.426 146.979 220.511 147.235 220.426 147.405C220.341 147.575 215.575 162.043 217.873 181.958C217.873 182.213 217.702 182.469 217.447 182.469Z" fill="#45DB82"/>
<path d="M223.319 171.745C226.893 171.83 229.361 168.256 229.361 165.277C229.361 164.341 228.255 160.937 231.914 157.277C233.531 155.66 234.893 151.915 232.17 149.703C230.978 148.767 227.148 148.852 225.872 153.533C225.021 156.596 225.446 156.767 224.68 159.235C223.914 161.447 219.489 162.979 220.255 167.66C220.51 169.192 220.765 170.554 221.872 171.405C221.957 171.49 222.978 171.745 223.319 171.745Z" fill="#35A265"/>
<path d="M220.084 182.469C219.828 182.469 219.658 182.213 219.658 181.958C222.126 165.022 229.275 154.128 229.36 154.043C229.531 153.873 229.786 153.788 229.956 153.958C230.126 154.128 230.211 154.384 230.041 154.554C229.956 154.639 222.892 165.447 220.509 182.128C220.509 182.298 220.254 182.469 220.084 182.469Z" fill="#45DB82"/>
<path d="M198.979 204.17H196.681L195.064 176.596H198.554L198.979 204.17Z" fill="white"/>
<path d="M286.977 224.426H284.68L283.062 196.852H286.552L286.977 224.426Z" fill="#A3A3A3"/>
<path d="M261.275 224.426H263.573L265.19 196.852H261.701L261.275 224.426Z" fill="#A3A3A3"/>
<path d="M285.361 178.043C285.361 178.043 282.552 166.213 275.999 159.235C274.722 157.873 272.595 157.447 271.488 157.618L268.169 158.554C267.148 158.554 262.212 160.426 260.084 161.277L262.041 165.958C263.148 165.447 264.339 165.107 265.361 164.681L268.85 179.49L278.297 187.575L281.19 186.384C284.51 185.192 286.297 181.532 285.361 178.043Z" fill="#FAD94B"/>
<path d="M236.596 199.915H238.894L240.511 172.341H237.021L236.596 199.915Z" fill="#A3A3A3"/>
<path d="M165.957 197.107L161.276 193.532C160.851 193.192 160.595 192.681 160.68 192.086L161.276 187.49C161.361 186.639 162.212 186.043 162.978 186.128C163.829 186.213 165.021 186.724 164.936 187.575L164.51 190.809L168.34 195.064C169.702 197.022 167.148 198.043 165.957 197.107Z" fill="#382325"/>
<path d="M186.723 176.426L187.659 192.936H190.042L189.701 176.426H186.723Z" fill="white"/>
<path d="M130.808 172.681L129.616 192.936H127.318L127.574 168.426L130.808 172.681Z" fill="white"/>
<path d="M135.83 204.17H138.213L139.745 176.596H136.341L135.83 204.17Z" fill="white"/>
<path d="M271.319 191.745H269.617V208.171H271.319V191.745Z" fill="#A3A3A3"/>
<path d="M279.915 191.745H278.213V208.171H279.915V191.745Z" fill="#A3A3A3"/>
<path d="M165.956 189.702H160.68L162.382 171.915H169.531L165.956 189.702Z" fill="#EC5328"/>
<path d="M255.234 196.681L250.043 195.66L251.66 178.894H258.809L255.234 196.681Z" fill="black"/>
<path d="M151.574 197.107L146.893 193.532C146.468 193.192 146.212 192.681 146.298 192.086L146.893 187.49C146.978 186.639 147.829 186.043 148.595 186.128C149.446 186.213 150.638 186.724 150.553 187.575L150.127 190.809L153.957 195.064C155.319 197.022 152.766 198.043 151.574 197.107Z" fill="#382325"/>
<path d="M151.575 189.702H146.299L148.001 171.915H155.15L151.575 189.702Z" fill="#EC5328"/>
<path d="M193.191 163.404H123.148V165.277L133.957 178.468H203.914V176.596L193.191 163.404Z" fill="#91B4D8"/>
<path d="M203.914 176.596H133.957L123.148 163.404H193.191L203.914 176.596Z" fill="#2C7CDB"/>
<path d="M289.702 196.851H259.915L231.234 169.021H261.022L289.702 196.851Z" fill="#382325"/>
<path d="M268.85 179.66H254.893L245.105 170.043H259.148L268.85 179.66Z" fill="white"/>
<path d="M264.17 184.511H252.68C252.425 184.511 252.255 184.425 252.085 184.255L244.085 176.34C243.574 175.83 243.914 174.894 244.68 174.894H256.17C256.425 174.894 256.595 174.979 256.765 175.149L264.765 183.064C265.276 183.489 264.936 184.511 264.17 184.511Z" fill="#DDDDDD"/>
<path d="M263.659 183.405H252.765L245.105 175.83H256.084L263.659 183.405Z" fill="black"/>
<path d="M267.659 270.128H265.276L263.744 242.554H267.148L267.659 270.128Z" fill="#937150"/>
<path d="M204.51 270.128H206.808L208.425 242.554H204.935L204.51 270.128Z" fill="#937150"/>
<path d="M255.404 242.383L256.34 258.893H258.638L258.383 242.383H255.404Z" fill="#937150"/>
<path d="M153.701 163.83H169.531V167.149H156.68L153.701 163.83Z" fill="#91B4D8"/>
<path d="M144.936 165.021H137.361L142.212 170.383H149.787L144.936 165.021Z" fill="white"/>
<path d="M131.063 240.426C131.063 240.426 132.68 220.086 132.595 219.745C132.51 219.405 133.702 214.298 128.255 211.405C122.808 208.511 111.574 209.873 111.574 209.873L110.978 210.043C108.425 210.809 106.382 212.766 105.446 215.32L103.744 220.171L121.446 241.788L131.063 240.426Z" fill="#DDDDDD"/>
<path d="M169.532 167.149H157.021L161.873 155.745H174.383L169.532 167.149Z" fill="white"/>
<path d="M125.787 283.404V246.979H104.596C109.021 260.596 116.34 273.021 125.787 283.404Z" fill="#937150"/>
<path d="M125.787 283.404V246.979H104.596C109.021 260.596 116.34 273.021 125.787 283.404Z" fill="#937150"/>
<path d="M132.594 219.745C132.509 219.405 133.701 214.298 128.254 211.405C127.573 211.064 126.892 210.809 126.041 210.554C126.296 213.277 126.977 220.511 126.722 226.469C126.637 228.596 128.679 230.554 131.743 232.256C132.169 226.554 132.679 219.915 132.594 219.745Z" fill="#A3A3A3"/>
<path d="M199.403 238.639L198.212 258.894H195.914L196.169 234.469L199.403 238.639Z" fill="#937150"/>
<path d="M114.212 209.617C112.595 209.702 111.574 209.787 111.574 209.787L110.978 209.958C108.425 210.724 106.382 212.681 105.446 215.234L103.744 220.085L112.085 230.213L114.212 209.617Z" fill="#A3A3A3"/>
<path d="M272.596 244.767V242.554H270.724L261.788 231.66H191.83L202.639 244.767H270.468H272.596Z" fill="#91B4D8"/>
<path d="M193.958 229.447H191.83V231.66H193.958V229.447Z" fill="#91B4D8"/>
<path d="M108.51 213.787L125.786 219.064L144.935 212.596L137.531 230.979L140.425 244.511H127.148L110.808 242.808L108.51 230.979V213.787Z" fill="white"/>
<path d="M111.318 216.086L125.872 220.596L142.127 215.064L135.914 230.639L138.297 242.043H127.063L113.361 240.596L111.318 230.639V216.086Z" fill="#45DB82"/>
<path d="M119.745 213.192C118.213 212.937 117.192 211.49 117.447 209.958L118.298 204.852L123.745 205.788L122.894 210.894C122.639 212.426 121.192 213.447 119.745 213.192Z" fill="#DE6F76"/>
<path d="M272.596 242.554H202.639L191.83 229.447H261.788L272.596 242.554Z" fill="#2C7CDB"/>
<path d="M268.765 191.49C271.35 191.49 273.446 190.652 273.446 189.617C273.446 188.583 271.35 187.745 268.765 187.745C266.18 187.745 264.084 188.583 264.084 189.617C264.084 190.652 266.18 191.49 268.765 191.49Z" fill="#91B4D8"/>
<path d="M250.383 240.171C248.936 240.171 247.83 238.979 247.83 237.617V226.383C247.83 224.936 249.022 223.83 250.383 223.83C251.83 223.83 252.936 225.022 252.936 226.383V237.617C252.936 238.979 251.745 240.171 250.383 240.171Z" fill="#EC5328"/>
<path d="M244.085 263.234H228C225.702 263.234 223.83 261.362 223.83 259.064V257.532C223.83 255.064 225.788 253.106 228.256 253.106H248.341V259.064C248.341 261.362 246.468 263.234 244.085 263.234Z" fill="#382325"/>
<path d="M208.511 227.49H207.235V226.469H201.447V234.724H207.235V234.213H208.511C209.362 234.213 210.043 233.533 210.043 232.682V229.192C210.128 228.171 209.447 227.49 208.511 227.49ZM209.277 232.596C209.277 233.022 208.937 233.277 208.596 233.277H207.32V228.341H208.596C209.022 228.341 209.277 228.682 209.277 229.022V232.596Z" fill="black"/>
<path d="M232.681 239.065H222.893L218.979 225.277H232.681V239.065Z" fill="white"/>
<path d="M229.788 228.681V227.66H222.043L222.298 228.681H229.788Z" fill="black"/>
<path d="M231.575 235.745V234.724H223.83L224.085 235.745H231.575Z" fill="black"/>
<path d="M230.383 230.808V229.787H222.639L222.894 230.808H230.383Z" fill="black"/>
<path d="M230.808 233.192V232.171H223.148L223.404 233.192H230.808Z" fill="black"/>
<path d="M217.873 234.128L213.447 231.064L212.766 228.681L210.809 227.404C210.553 227.234 210.213 227.404 210.213 227.66V228.681H208.766C208.256 228.681 207.83 229.107 207.83 229.617V232.17C207.83 232.681 208.256 233.107 208.766 233.107H211.915L216.256 236.766L217.873 234.128Z" fill="#F19F8D"/>
<path d="M238.977 218.128C238.977 218.128 234.892 210.469 232.765 210.469C231.828 210.469 230.977 210.979 230.297 211.745C230.126 211.916 229.956 212.171 229.871 212.426L227.828 215.745C227.658 216.086 227.829 216.596 228.169 216.596L229.19 217.022C229.446 219.49 230.552 220.682 232.424 220.682C232.85 220.682 233.19 220.596 233.616 220.511L234.211 224.256C234.211 224.256 240.169 224.256 239.999 223.916C239.828 223.575 238.977 218.128 238.977 218.128Z" fill="#F19F8D"/>
<path d="M231.829 215.064C232.205 215.064 232.51 214.759 232.51 214.383C232.51 214.007 232.205 213.702 231.829 213.702C231.453 213.702 231.148 214.007 231.148 214.383C231.148 214.759 231.453 215.064 231.829 215.064Z" fill="black"/>
<path d="M222.298 241.447C220.936 241.447 219.575 240.766 218.128 239.404L211.83 234.213L215.064 230.298L221.532 235.575C221.617 235.66 221.617 235.66 221.702 235.745V235.575L225.277 227.745L225.447 227.575C225.532 227.404 225.702 227.064 225.788 226.723C226.213 225.447 227.234 222.809 231.064 222.809H234.128V227.915H231.064C230.894 227.915 230.809 227.915 230.724 227.915C230.639 228.085 230.553 228.255 230.553 228.426C230.383 228.936 230.128 229.532 229.702 230.213L226.553 237.106C226.043 239.234 225.022 240.596 223.405 241.106C223.149 241.362 222.724 241.447 222.298 241.447Z" fill="#EC5328"/>
<path d="M242.468 254.638H236.255C233.021 254.638 230.383 252 230.383 248.766V222.979H248.255V248.766C248.34 252 245.702 254.638 242.468 254.638Z" fill="#EC5328"/>
<path d="M231.098 217.572L229.336 218.205L229.537 218.766L231.299 218.133L231.098 217.572Z" fill="black"/>
<path d="M218.894 267.49L217.362 253.702C217.022 250.894 216.852 248.766 219.745 247.915C223.83 246.809 237.958 248.681 237.958 248.681L235.916 256.766L224.596 253.277C224.001 253.107 223.575 253.362 223.405 253.532C223.235 253.702 222.809 254.043 222.894 254.724L223.83 266.894L218.894 267.49Z" fill="#EC5328"/>
<path d="M248.34 257.022H236.766C234.553 257.022 232.766 255.234 232.766 253.022V241.532C232.766 239.319 234.553 237.532 236.766 237.532H248.34C250.553 237.532 252.34 239.319 252.34 241.532V253.107C252.255 255.319 250.468 257.022 248.34 257.022Z" fill="#382325"/>
<path d="M243.829 263.234H241.531V279.66H243.829V263.234Z" fill="#937150"/>
<path d="M232.169 263.234H229.871V279.66H232.169V263.234Z" fill="#937150"/>
<path d="M223.914 269.532L213.02 270.723C212.85 269.277 213.872 268 215.318 267.83L223.659 266.894L223.914 269.532Z" fill="black"/>
<path d="M218.468 174.043H217.021H209.617L212.766 191.83H217.021H218.468H222.809L225.872 174.043H218.468Z" fill="black"/>
<path d="M167.368 161.359C167.514 160.962 167.383 160.548 167.075 160.434C166.766 160.32 166.397 160.549 166.25 160.946C166.103 161.342 166.235 161.757 166.543 161.871C166.852 161.985 167.221 161.756 167.368 161.359Z" fill="#91B4D8"/>
<path d="M128.339 204.851C127.148 207.83 124.424 209.873 121.531 209.107C118.637 208.341 116.935 205.107 117.786 201.958C118.637 198.809 121.701 196.936 124.594 197.702C127.488 198.468 130.722 199.149 128.339 204.851Z" fill="#DE6F76"/>
<path d="M117.703 204.936C118.831 204.936 119.745 203.946 119.745 202.724C119.745 201.501 118.831 200.511 117.703 200.511C116.575 200.511 115.66 201.501 115.66 202.724C115.66 203.946 116.575 204.936 117.703 204.936Z" fill="#DE6F76"/>
<path d="M133.275 199.234C133.275 199.234 131.999 203.234 128.424 201.872C124.85 200.511 122.041 198.894 121.871 200.511C121.786 202.553 119.658 202.723 119.658 202.723C119.403 202.042 118.382 200.681 117.19 200.596C115.914 199.319 119.318 191.234 127.573 196.596C131.914 199.234 133.275 199.234 133.275 199.234Z" fill="#FAD94B"/>
<path d="M138.979 228.086L136.681 227.575C136 227.405 135.404 227.915 135.404 228.596V232.511C135.404 233.107 135.915 233.618 136.511 233.618H138.128C138.723 233.618 139.319 233.192 139.404 232.596L140.085 229.703C140.17 229.022 139.745 228.256 138.979 228.086Z" fill="#DE6F76"/>
<path d="M123.828 204.171C124.251 204.171 124.594 203.828 124.594 203.405C124.594 202.982 124.251 202.639 123.828 202.639C123.405 202.639 123.062 202.982 123.062 203.405C123.062 203.828 123.405 204.171 123.828 204.171Z" fill="black"/>
<path d="M128 205.192C128.423 205.192 128.766 204.849 128.766 204.426C128.766 204.003 128.423 203.66 128 203.66C127.577 203.66 127.234 204.003 127.234 204.426C127.234 204.849 127.577 205.192 128 205.192Z" fill="black"/>
<path d="M125.957 206.724C125.531 206.724 125.191 206.554 125.105 206.554L125.276 206.128C125.446 206.213 126.127 206.384 126.297 206.128C126.467 205.958 126.467 204.852 126.212 203.66L126.637 203.575C126.808 204.341 126.978 206.128 126.552 206.469C126.382 206.639 126.127 206.724 125.957 206.724Z" fill="black"/>
<path d="M158.383 143.234L158.979 144.511L159.234 146.894L158.043 145.107L158.383 143.234Z" fill="white"/>
<path d="M230.297 210.128C230.722 208.681 231.829 206.979 234.893 206.639C238.467 206.213 240.425 205.788 243.829 210.213C247.744 215.32 250.978 234.043 250.978 234.043C250.978 234.043 237.871 236.596 234.893 233.277C232.425 230.469 234.978 219.915 234.978 219.915C234.978 219.915 235.659 215.49 234.127 213.277C232.595 211.064 230.382 211.405 230.382 211.405V210.128H230.297Z" fill="black"/>
<path d="M193.277 284.511C192.256 278.213 186.213 274.043 176.937 274.043C167.66 274.043 160.596 278.554 160.596 284.511C160.596 285.362 160.681 286.128 160.852 286.894C158.809 293.022 161.533 296.171 163.49 297.532C164.852 298.469 166.469 299.064 168.086 299.32C170.724 299.745 173.277 299.234 174.554 298.128C175.235 297.532 175.235 296.426 174.639 295.745C174.043 295.064 172.937 294.979 172.256 295.66C171.66 296.171 168.001 296.596 165.447 294.809C164.426 294.043 163.83 293.022 163.575 291.83C164.256 292.426 170.639 292.766 171.064 291.66C171.745 290.128 171.405 288.681 170.809 287.149C170.128 285.532 170.554 285.958 176.426 284.937C182.554 283.83 185.533 285.022 183.405 288.086C182.724 289.107 181.788 289.277 181.533 291.064H181.107C179.575 291.064 178.384 292.256 178.384 293.788H181.703H186.384C192.341 292.766 193.873 288.511 193.277 284.511Z" fill="#382325"/>
<path d="M176.51 293.617C176.51 291.83 175.063 290.383 173.276 290.383H173.02C173.361 289.702 173.531 288.851 173.531 288C173.531 284.936 170.978 282.383 167.914 282.383C164.85 282.383 162.297 284.936 162.297 288C162.297 291.064 164.85 293.617 167.914 293.617C168.169 293.617 168.339 293.617 168.595 293.532V293.617H176.51V293.617Z" fill="#A3A3A3"/>
<path d="M182.213 289.447C184.845 289.447 186.979 287.542 186.979 285.192C186.979 282.842 184.845 280.937 182.213 280.937C179.581 280.937 177.447 282.842 177.447 285.192C177.447 287.542 179.581 289.447 182.213 289.447Z" fill="#A3A3A3"/>
<path d="M124.595 208.085C124 207.915 123.574 207.66 123.489 207.404C123.404 207.149 123.489 206.894 123.489 206.894L123.829 207.064L123.659 206.979L123.829 207.064C123.829 207.064 123.829 207.149 123.829 207.234C123.915 207.319 124.085 207.574 124.68 207.66L124.595 208.085Z" fill="black"/>
<path d="M159.489 135.149C157.617 134.639 155.659 135.575 154.723 137.362C154.553 137.192 154.298 137.107 154.042 137.107C153.361 137.107 152.766 137.703 152.766 138.469C152.766 139.234 153.276 139.83 153.957 139.83C154.042 139.83 154.042 139.83 154.127 139.83C154.127 140.341 154.212 140.852 154.468 141.362L153.872 144.426C153.702 145.362 153.872 144.426 155.574 144.852C155.659 145.277 156.51 146.639 156.51 147.405C156.51 147.405 157.446 145.703 157.957 145.192L158.212 143.915C159.915 143.83 161.361 142.469 162.212 140.681C164.085 136.256 161.702 135.745 159.489 135.149Z" fill="#F19F8D"/>
<path d="M158.809 140C159.138 140 159.404 139.733 159.404 139.404C159.404 139.075 159.138 138.809 158.809 138.809C158.48 138.809 158.213 139.075 158.213 139.404C158.213 139.733 158.48 140 158.809 140Z" fill="black"/>
<path d="M161.957 140.766C162.286 140.766 162.553 140.499 162.553 140.17C162.553 139.841 162.286 139.574 161.957 139.574C161.628 139.574 161.361 139.841 161.361 140.17C161.361 140.499 161.628 140.766 161.957 140.766Z" fill="black"/>
<path d="M160.339 141.957C159.999 141.957 159.743 141.872 159.658 141.787L159.743 141.532C159.914 141.617 160.339 141.702 160.509 141.532C160.679 141.447 160.594 140.51 160.509 139.659L160.85 139.574C160.935 140.17 161.105 141.447 160.765 141.787C160.679 141.872 160.509 141.957 160.339 141.957Z" fill="black"/>
<path d="M159.319 142.894C158.893 142.809 158.553 142.554 158.468 142.384C158.382 142.213 158.468 142.043 158.468 141.958L158.723 142.128L158.553 142.043L158.723 142.128V142.213C158.723 142.298 158.893 142.469 159.319 142.554V142.894Z" fill="black"/>
<path d="M151.659 160.256L155.148 160.596L158.297 163.83L157.701 164.511L155.574 162.979V164.001L152.51 164.341L150.723 162.384L151.659 160.256Z" fill="#F19F8D"/>
<path d="M179.488 164.766C179.573 165.702 179.999 166.553 180.68 167.064H184.424C185.19 166.468 185.701 165.617 185.701 164.596V160.596H179.488V161.447C179.233 161.191 178.892 161.106 178.467 161.106C177.531 161.106 176.68 162.043 176.68 163.149C176.68 164.255 177.446 165.191 178.467 165.191C178.892 165.106 179.233 165.021 179.488 164.766ZM177.616 163.149C177.616 162.468 178.041 161.957 178.552 161.957C179.063 161.957 179.488 162.468 179.488 163.149C179.488 163.83 179.063 164.34 178.552 164.34C178.041 164.34 177.616 163.745 177.616 163.149Z" fill="white"/>
<path d="M272.851 184.51C272.511 184.51 272.17 184.681 271.83 184.851V184.085H265.617V186.808C265.617 188 266.298 189.106 267.319 189.617H270.128C270.809 189.276 271.319 188.766 271.575 188C271.915 188.34 272.341 188.596 272.766 188.596C273.702 188.596 274.553 187.659 274.553 186.553C274.553 185.447 273.873 184.51 272.851 184.51ZM272.851 187.745C272.341 187.745 271.915 187.234 271.915 186.553C271.915 185.872 272.341 185.362 272.851 185.362C273.362 185.362 273.787 185.872 273.787 186.553C273.787 187.234 273.362 187.745 272.851 187.745Z" fill="white"/>
<path d="M163.49 134.383C163.575 133.447 162.894 132.596 161.958 132.511C161.617 132.511 161.362 132.511 161.107 132.681C161.021 131.915 160.341 131.235 159.575 131.235C158.894 131.149 158.298 131.575 157.958 132.086C157.702 131.915 157.447 131.83 157.192 131.83C156.255 131.745 155.404 132.426 155.404 133.362C154.468 133.277 153.702 133.958 153.617 134.894C153.617 135.32 153.702 135.66 153.958 136C153.873 136.511 153.873 136.937 154.043 137.107C154.979 137.192 155.66 138.298 155.83 138.809C155.83 138.809 157.362 138.724 157.532 137.192C157.617 135.915 159.319 136.341 162.043 137.447C162.213 137.532 162.468 137.618 162.638 137.618C162.809 137.703 162.979 137.703 163.149 137.788C164.085 137.873 164.936 137.192 164.936 136.256C164.851 135.32 164.341 134.554 163.49 134.383Z" fill="black"/>
<path d="M261.617 203.575L254.043 203.319C253.192 203.319 252.426 204 252.426 204.851C252.426 205.702 253.107 206.468 253.958 206.468L261.362 206.638L261.617 203.575Z" fill="#45DB82"/>
<path d="M152.51 159.915C152.51 159.915 148.68 158.128 147.829 156.681C145.957 153.787 149.361 151.064 151.063 149.192C151.574 148.596 152.595 144.936 149.191 144.511C146.893 145.532 140.936 153.192 143.914 157.787C145.361 160.085 148.85 162.383 150.978 162.979L152.51 159.915Z" fill="#FAD94B"/>
<path d="M154.042 148.001L155.574 144.766L154.127 143.064L154.212 142.554L152.51 143.745L154.042 148.001Z" fill="white"/>
<path d="M182.127 285.532C181.531 285.532 181.105 285.277 181.105 285.277L181.531 284.511C181.531 284.511 182.212 284.851 183.148 284.341L183.574 285.107C183.063 285.447 182.552 285.532 182.127 285.532Z" fill="black"/>
<path d="M178.894 285.362C178.043 285.362 177.532 284.937 177.447 284.937L177.958 284.256C177.958 284.256 178.554 284.767 179.575 284.341L179.915 285.107C179.575 285.362 179.234 285.362 178.894 285.362Z" fill="black"/>
<path d="M183.148 278.894V283.574C184.425 283.574 185.531 282.553 185.531 281.191C185.531 279.83 184.425 278.894 183.148 278.894Z" fill="#A3A3A3"/>
<path d="M178.639 278.894V283.574C179.915 283.574 181.022 282.553 181.022 281.191C181.022 279.83 179.915 278.894 178.639 278.894Z" fill="#A3A3A3"/>
<path d="M180.085 287.234L181.191 286.298H178.979L180.085 287.234Z" fill="black"/>
<path d="M181.105 288.681C180.765 288.681 180.509 288.596 180.254 288.341C179.658 287.745 179.658 286.809 179.658 286.809L180.509 286.894C180.509 286.894 180.509 287.404 180.85 287.745C181.19 288.085 181.956 287.575 182.211 287.404L182.722 288.085C182.296 288.426 181.701 288.681 181.105 288.681Z" fill="black"/>
<path d="M179.063 288.596C178.467 288.596 177.872 288.256 177.531 288L178.042 287.319C178.212 287.49 179.063 287.915 179.404 287.66C179.744 287.319 179.744 286.809 179.744 286.809L180.595 286.724C180.595 286.724 180.68 287.575 179.999 288.256C179.659 288.511 179.404 288.596 179.063 288.596Z" fill="black"/>
<path d="M281.191 173.021C280.595 170.298 276.254 161.532 275.744 160.596L271.914 162.468C273.616 165.872 276.34 171.745 276.935 173.702L267.148 175.319L263.999 174.723L261.105 176.936L261.446 177.872L265.191 178.383C265.446 178.383 265.701 178.383 265.957 178.383L266.637 178.298L277.361 177.872C278.042 177.872 279.488 177.787 280.51 176.596C281.02 176.085 281.616 174.894 281.191 173.021Z" fill="#945D5F"/>
<path d="M271.914 165.106L273.616 169.106C273.616 169.106 280.765 165.787 280.595 165.617C280.509 165.532 278.978 163.489 277.616 161.787C276.509 160.426 274.552 160.085 273.105 161.021C271.829 161.872 271.318 163.66 271.914 165.106Z" fill="#D1AB0F"/>
<path d="M259.83 174.894C259.66 174.894 259.49 174.724 259.405 174.554L258.383 169.618C258.298 169.362 258.469 169.192 258.724 169.107C258.979 169.022 259.149 169.192 259.235 169.448L260.256 174.384C260.256 174.639 260.171 174.809 259.83 174.894C259.83 174.894 259.915 174.894 259.83 174.894Z" fill="black"/>
<path d="M127.063 242.043H138.297L136.68 234.469C135.744 235.83 135.148 237.703 133.531 238.299C132.425 238.724 131.233 238.384 130.127 238.469C128.255 238.639 126.552 240.171 126.127 241.958L127.063 242.043Z" fill="#35A265"/>
<path d="M122.638 241.532C123.148 240.681 123.403 239.659 123.063 238.808C122.723 238.042 121.872 237.276 122.127 236.51C122.297 235.83 123.148 235.574 123.574 234.978C124.255 233.957 123.233 232.51 122.042 232.17C120.85 231.915 119.574 232.34 118.382 232.681C117.191 233.021 115.744 233.106 114.808 232.34C113.957 231.574 113.786 230.298 113.872 229.106C114.042 227.915 114.297 226.808 114.127 225.617C113.957 224.425 113.02 223.319 111.829 223.404C111.659 223.404 111.489 223.489 111.318 223.489V230.553L113.276 240.51L122.638 241.532Z" fill="#35A265"/>
<path d="M104.595 246.979H125.787L99.5742 215.064C99.5742 215.235 99.5742 215.405 99.5742 215.575C99.5742 226.554 101.361 237.107 104.595 246.979Z" fill="#382325"/>
<path d="M111.318 219.66C111.574 219.66 111.914 219.66 112.169 219.66" stroke="black" stroke-width="0.5" stroke-miterlimit="10"/>
<path d="M113.361 220C113.787 220.17 114.212 220.34 114.553 220.681C115.829 221.617 116.595 223.234 116.51 224.766C116.425 226.468 115.574 228.34 116.595 229.702C117.276 230.638 118.468 230.894 119.574 230.894C120.68 230.894 121.787 230.638 122.893 230.809C125.021 231.149 126.808 233.447 126.042 235.404C125.787 235.915 125.446 236.34 125.191 236.851C124.595 237.872 124.34 238.979 124.34 240.17" stroke="black" stroke-width="0.5" stroke-miterlimit="10" stroke-dasharray="2.02 2.02"/>
<path d="M124.426 240.937C124.426 241.192 124.426 241.532 124.511 241.788" stroke="black" stroke-width="0.5" stroke-miterlimit="10"/>
<path d="M118.809 226.724C118.809 227.49 119.064 228.426 119.66 228.851C120.17 229.192 120.766 229.192 121.362 229.107C122.383 228.937 123.404 228.596 124.341 228.766C125.021 228.937 125.617 229.277 126.213 229.362C127.404 229.532 128.681 228.596 128.851 227.405C129.106 225.958 128 224.681 126.723 223.915C123.66 221.873 118.894 221.873 118.809 226.724Z" fill="#0F31AD"/>
<path d="M126.553 233.788C126.553 233.532 126.553 233.192 126.638 232.937" stroke="black" stroke-width="0.5" stroke-miterlimit="10"/>
<path d="M127.234 231.744C127.66 231.234 128.256 230.893 128.937 230.808C129.447 230.723 130.043 230.808 130.554 230.723C132.171 230.298 132.596 228.255 132.681 226.553C132.681 226.042 132.681 225.532 132.937 225.021C133.447 223.83 134.809 223.319 136.085 223.149C136.596 223.064 137.022 223.064 137.447 222.979" stroke="black" stroke-width="0.5" stroke-miterlimit="10" stroke-dasharray="2.16 2.16"/>
<path d="M138.127 222.894C138.382 222.894 138.638 222.894 138.978 222.894" stroke="black" stroke-width="0.5" stroke-miterlimit="10"/>
<path d="M128.17 222.043C128.765 222.809 129.617 223.32 130.553 223.235C132.34 223.064 133.191 220.937 134.808 220.256C136.255 219.66 137.787 220.256 139.234 220.681C139.404 220.767 139.574 220.767 139.829 220.852L142.127 215.064L127.148 220.171C127.489 220.767 127.659 221.447 128.17 222.043Z" fill="#35A265"/>
<path d="M121.531 219.234L111.318 216.085V218.383C111.659 218.468 111.999 218.468 112.34 218.553C114.382 218.723 116.425 219.149 118.467 219.745C118.978 219.915 119.574 220.085 120.169 219.915C120.765 219.745 121.191 219.489 121.531 219.234Z" fill="#35A265"/>
<path d="M259.319 172.17C258.468 171.149 257.106 169.362 256.851 169.022C256.596 168.766 256.681 168.681 256.681 168.596C256.766 168.17 257.532 166.979 261.702 165.277L260.426 162.128C256.255 163.83 254.043 165.617 253.447 167.575C253.021 168.766 253.362 170.043 254.213 171.149C254.723 171.83 255.404 172.341 256.34 173.107C256.681 173.447 257.192 173.788 257.617 174.213L258.128 175.49L260.426 175.915L261.362 174.553L260.851 172.426L259.319 172.17Z" fill="#945D5F"/>
<path d="M176.936 274.043C172.851 274.043 169.191 274.894 166.383 276.426C167.659 276.937 169.191 278.213 169.872 278.554C171.745 279.32 174.383 279.149 175.149 277.362C175.234 277.107 175.319 276.851 175.489 276.596C175.83 276.086 176.596 275.915 177.191 276.086C177.787 276.171 178.383 276.511 178.979 276.681C180.34 277.107 181.872 277.022 183.319 276.937C184.425 276.851 185.702 276.681 186.638 276.171C184.17 274.809 180.851 274.043 176.936 274.043Z" fill="#A3A3A3"/>
<path d="M193.276 284.511C192.935 282.469 192.084 280.681 190.808 279.149C190.637 279.235 190.382 279.32 190.212 279.49C189.786 279.83 189.361 280.256 189.361 280.766C189.361 281.277 189.701 281.873 190.212 281.958C189.531 282.469 188.765 283.149 188.85 284C188.935 285.022 190.212 285.532 191.233 285.277C191.403 285.277 191.489 285.192 191.659 285.277C191.914 285.362 191.999 285.532 192.169 285.703C192.51 286.043 193.02 286.298 193.446 286.469C193.446 285.788 193.361 285.107 193.276 284.511Z" fill="#A3A3A3"/>
<path d="M176.51 293.617C176.51 291.83 175.063 290.383 173.276 290.383H173.021C173.276 289.787 173.446 289.192 173.531 288.511C173.276 288.681 172.936 288.851 172.68 288.936C172.085 289.021 171.574 288.936 170.978 289.021C170.382 289.106 169.787 289.362 169.617 289.872C169.361 290.553 169.872 291.575 169.276 291.915C169.021 292.085 168.68 292 168.34 292.085C167.659 292.255 167.234 292.936 167.148 293.617C167.404 293.617 167.659 293.702 167.914 293.702C168.17 293.702 168.34 293.702 168.595 293.617V293.702H176.51V293.617Z" fill="#382325"/>
<path d="M261.447 205.532L252.426 205.191C252.511 205.957 253.192 206.553 253.958 206.553L260.851 206.723L261.362 206.553L261.447 205.532Z" fill="white"/>
<path d="M254.553 196.511L247.064 195.064C246.212 194.894 245.361 195.49 245.191 196.341C245.021 197.192 245.617 198.043 246.468 198.213L253.787 199.575L254.553 196.511Z" fill="#45DB82"/>
<path d="M254.126 198.383L245.275 196.596C245.275 197.362 245.786 198.043 246.552 198.213L253.36 199.489L253.871 199.404L254.126 198.383Z" fill="white"/>
<path d="M223.915 269.532V270.554L213.277 271.83L213.021 270.724L223.915 269.532Z" fill="#35A265"/>
<path d="M265.957 159.234C266.553 160.511 268.34 161.192 270.127 160.851C272 160.511 273.361 159.234 273.446 157.873C272.68 157.702 272 157.617 271.489 157.702L268.17 158.639C267.829 158.639 266.978 158.894 265.957 159.234Z" fill="#D1AB0F"/>
<path d="M269.958 152.255C269.958 152.255 270.043 151.064 270.043 150.553C270.043 147.575 267.575 145.106 264.596 145.106C261.618 145.106 259.149 147.575 259.149 150.553C259.149 150.809 259.149 150.979 259.235 151.234L258.724 154.723C258.639 155.149 259.064 155.489 259.32 155.319L260.426 155.234C261.703 157.362 263.149 158.043 264.852 157.277C265.192 157.106 266.043 156.426 266.298 156.17L267.915 159.745C267.915 159.745 270.724 160.511 272.256 158.213C272.426 158.043 269.788 152.34 269.958 152.255Z" fill="#945D5F"/>
<path d="M264.169 146.299C265.861 146.299 267.233 144.927 267.233 143.235C267.233 141.543 265.861 140.171 264.169 140.171C262.477 140.171 261.105 141.543 261.105 143.235C261.105 144.927 262.477 146.299 264.169 146.299Z" fill="black"/>
<path d="M262.128 152.851C262.504 152.851 262.809 152.546 262.809 152.17C262.809 151.794 262.504 151.489 262.128 151.489C261.752 151.489 261.447 151.794 261.447 152.17C261.447 152.546 261.752 152.851 262.128 152.851Z" fill="black"/>
<path d="M266.213 153.532C266.128 153.532 266.128 153.532 266.043 153.532L266.128 152.936C266.553 152.936 266.724 152.766 266.724 152.766C266.979 152.51 266.894 151.915 266.724 151.489C266.639 151.319 266.468 150.979 266.213 151.064C266.043 151.064 265.702 151.319 265.617 151.659L265.021 151.489C265.192 150.893 265.617 150.468 266.213 150.383C266.724 150.383 267.149 150.638 267.404 151.234C267.66 151.83 267.66 152.596 267.319 153.191C267.064 153.276 266.724 153.532 266.213 153.532Z" fill="black"/>
<path d="M269.958 152.255C269.958 152.255 270.043 151.064 270.043 150.553C270.043 147.575 267.575 145.106 264.597 145.106C262.214 145.106 260.256 146.638 259.49 148.766C260.086 148.936 260.767 148.851 261.363 148.681C262.214 148.34 263.065 147.745 263.831 148.085C264.171 148.255 264.426 148.596 264.682 148.851C265.107 149.277 265.618 149.617 266.129 149.787C266.809 150.043 267.746 150.213 267.831 150.979C267.831 151.149 267.831 151.319 267.831 151.489C267.916 152.17 268.682 152.596 269.277 152.511C269.618 152.426 269.788 152.426 269.958 152.255Z" fill="black"/>
<path d="M131.659 281.106H126.637C126.297 281.106 126.042 281.192 125.701 281.277V283.745H133.956V283.404C134.042 282.128 132.935 281.106 131.659 281.106Z" fill="black"/>
<path opacity="0.33" d="M183.574 155.405C184.34 155.064 185.191 155.234 185.957 155.149C187.574 154.979 189.021 153.788 189.362 152.171C189.787 150.639 189.191 148.851 187.915 147.83C186.553 146.724 183.319 145.532 181.872 144.511C179.489 142.894 182.894 141.022 184 139.234C184.255 138.724 184.511 137.958 183.404 136.937C182.723 136.426 182.128 135.83 181.532 135.234C182.128 136.426 182.468 137.873 181.447 138.724C180.425 139.575 178.043 140.766 177.277 141.788C176.255 143.064 176.085 144.256 176.851 145.617C177.702 147.064 179.319 147.83 180.851 148.341C182.128 148.766 183.745 149.362 183.745 150.724C183.745 151.745 182.638 152.426 181.617 152.511C181.191 152.511 180.681 152.511 180.255 152.596C179.83 152.681 179.404 153.022 179.319 153.532C179.234 154.383 180.085 155.149 180.851 155.66C182.043 156.511 182.128 159.064 182.383 159.83C182.298 158.554 182.468 156.341 183.574 155.405Z" fill="white"/>
<path d="M262.004 155.689L260.947 156.239L261.262 156.843L262.318 156.293L262.004 155.689Z" fill="black"/>
<path d="M117.447 261.362C117.532 260.851 117.617 260.34 117.702 259.83C117.958 258.638 118.213 257.447 117.958 256.17C117.277 253.362 114.128 252 111.575 251.745C110.724 251.66 109.787 251.575 108.936 251.575C108 251.575 107.149 251.489 106.213 251.404C106.298 251.66 106.383 251.83 106.468 252.085C107.319 252.17 108.085 252.17 108.936 252.255C109.787 252.255 110.638 252.34 111.489 252.426C113.872 252.681 116.766 253.872 117.362 256.34C117.617 257.447 117.362 258.553 117.107 259.66C117.021 260.17 116.851 260.681 116.851 261.192C116.511 263.489 117.107 265.872 117.702 268.17C118.213 270.383 118.638 272.34 118.553 274.213C118.724 274.468 118.894 274.723 119.149 274.979C119.489 272.596 118.894 270.043 118.383 268C117.702 265.872 117.107 263.575 117.447 261.362Z" fill="#382325"/>
<path d="M111.999 256.17C110.978 255.745 109.872 255.659 108.851 255.574C108.595 255.574 108.34 255.489 108.085 255.489C107.999 255.489 107.914 255.489 107.744 255.489C107.829 255.745 107.914 255.915 107.999 256.17C108.255 256.17 108.425 256.255 108.68 256.255C109.702 256.34 110.723 256.511 111.659 256.851C112.68 257.276 113.787 258.128 113.957 259.319C114.127 260.255 113.702 261.106 113.276 262.128C112.851 263.064 112.425 264 112.51 265.021C112.51 265.106 112.51 265.191 112.51 265.362C112.851 265.957 113.106 266.468 113.446 266.979C113.446 266.894 113.446 266.894 113.446 266.808C113.446 266.468 113.361 266.213 113.276 265.957C113.191 265.617 113.106 265.276 113.106 264.936C113.021 264.085 113.446 263.234 113.872 262.383C114.297 261.362 114.808 260.34 114.638 259.234C114.468 257.702 113.191 256.681 111.999 256.17Z" fill="#382325"/>
<path d="M123.233 268.766C122.722 268 122.212 267.234 121.956 266.468C121.19 264.425 121.446 262.128 121.616 259.915C121.871 257.362 122.212 254.723 120.935 252.425C119.063 249.106 114.807 248.255 112.424 248C111.403 247.915 110.382 247.915 109.446 247.83C107.829 247.745 106.297 247.745 104.68 247.489C104.765 247.745 104.85 247.915 104.935 248.17C106.382 248.425 107.914 248.425 109.446 248.511C110.467 248.511 111.403 248.596 112.424 248.681C114.637 248.851 118.722 249.702 120.424 252.766C121.616 254.894 121.275 257.276 121.02 259.915C120.765 262.213 120.509 264.596 121.361 266.808C121.701 267.659 122.212 268.511 122.722 269.276C123.318 270.213 123.914 271.149 124.254 272.255C124.68 273.872 124.339 275.574 123.829 277.021C123.573 277.957 123.233 278.979 122.637 280C122.807 280.17 122.892 280.34 123.063 280.511C123.658 279.404 124.084 278.213 124.424 277.191C124.85 275.659 125.275 273.787 124.85 272.085C124.509 270.723 123.914 269.702 123.233 268.766Z" fill="#382325"/>
<path d="M120.255 248.51C121.106 249.276 122.127 249.617 123.064 249.532C124 249.361 124.851 248.766 125.702 247.574V246.979H125.361L125.276 247.064C124.51 248.17 123.744 248.681 122.979 248.851C122.213 248.936 121.361 248.681 120.681 248C120.34 247.659 120.085 247.319 119.744 246.979H118.979C119.404 247.489 119.83 248 120.255 248.51Z" fill="#382325"/>
<path d="M125.787 264.17C125.362 263.575 124.936 262.979 124.681 262.298C124.085 260.681 124.17 258.979 124.341 257.447C124.596 255.064 125.022 252.766 125.787 250.468V248.511C124.681 251.319 124 254.298 123.745 257.362C123.575 258.894 123.49 260.766 124.17 262.468C124.511 263.489 125.107 264.341 125.873 265.192V264.17H125.787Z" fill="#382325"/>
<rect x="38" y="102.2" width="14" height="20.8" fill="#F4452D"/>
<line x1="45" y1="102.2" x2="45" y2="92.2002" stroke="#FFFEFE"/>
<line x1="45" y1="136" x2="45" y2="123" stroke="#FFFEFE"/>
<rect x="324" y="120.799" width="14" height="28.5148" fill="#F4452D"/>
<line x1="331" y1="120.799" x2="331" y2="109" stroke="#FFFEFE"/>
<line x1="331" y1="156.2" x2="331" y2="149.317" stroke="#FFFEFE"/>
<rect x="421" y="140.799" width="14" height="28.5148" fill="#F4452D"/>
<line x1="428" y1="140.799" x2="428" y2="129" stroke="#FFFEFE"/>
<line x1="428" y1="184.2" x2="428" y2="169.2" stroke="#FFFEFE"/>
<rect x="344" y="169" width="14" height="8" fill="#F4452D"/>
<line x1="351" y1="169" x2="351" y2="134" stroke="#FFFEFE"/>
<line x1="351" y1="183.9" x2="351" y2="177.018" stroke="#FFFEFE"/>
<rect x="363" y="184" width="14" height="16" fill="#F4452D"/>
<line x1="370" y1="184" x2="370" y2="149" stroke="#FFFEFE"/>
<line x1="370" y1="233" x2="370" y2="200" stroke="#FFFEFE"/>
<rect x="57" y="126.644" width="14" height="67.8344" fill="#F4452D"/>
<line x1="64" y1="126.69" x2="64" y2="111.036" stroke="#FFFEFE"/>
<line x1="64" y1="201" x2="64" y2="194.477" stroke="#FFFEFE"/>
<rect y="172" width="14" height="33" fill="#35A265"/>
<line x1="7" y1="172" x2="7" y2="157" stroke="#FFFEFE"/>
<rect x="19" y="114.2" width="14" height="45.6" fill="#35A265"/>
<line x1="26" y1="114.2" x2="26" y2="110.2" stroke="#FFFEFE"/>
<line x1="26" y1="170" x2="26" y2="160" stroke="#FFFEFE"/>
<rect x="440" y="87.1465" width="14" height="84.7096" fill="#35A265"/>
<line x1="447" y1="87.1465" x2="447" y2="81.1465" stroke="#FFFEFE"/>
<line x1="447" y1="175.8" x2="447" y2="171.8" stroke="#FFFEFE"/>
<rect x="382" y="174.596" width="14" height="29.5866" fill="#35A265"/>
<line x1="389" y1="174.596" x2="389" y2="172" stroke="#FFFEFE"/>
<line x1="389" y1="228.8" x2="389" y2="203.8" stroke="#FFFEFE"/>
<rect x="402" y="156.596" width="14" height="29.5866" fill="#35A265"/>
<line x1="409" y1="156.596" x2="409" y2="154.596" stroke="#FFFEFE"/>
<line x1="409" y1="197.8" x2="409" y2="185.8" stroke="#FFFEFE"/>
<rect x="305" y="103" width="14" height="12" fill="#35A265"/>
<line x1="312" y1="103" x2="312" y2="94" stroke="#FFFEFE"/>
<line x1="312" y1="138" x2="312" y2="115" stroke="#FFFEFE"/>
<defs>
<clipPath id="clip0_2743_942">
<rect width="59.6" height="59.6" fill="white" transform="translate(281)"/>
</clipPath>
</defs>
</svg>
