<?xml version="1.0" encoding="utf-8"?>
<!-- Generator: Adobe Illustrator 26.3.1, SVG Export Plug-In . SVG Version: 6.00 Build 0)  -->
<svg version="1.1" id="Слой_2" xmlns="http://www.w3.org/2000/svg" xmlns:xlink="http://www.w3.org/1999/xlink" x="0px" y="0px"
	 viewBox="0 0 3800 2000" style="enable-background:new 0 0 3800 2000;" xml:space="preserve">
<rect style="fill:#FFFFFF;" width="3800" height="2000"/>
<g>
	<path style="fill:#EBF2F9;" d="M3190.29,741.02c-125.43-107-276.65-752.26-794.67-416.19
		c-267.64,173.63-718.93-149.06-1092.47-37.6C960.1,389.59,927.03,726.84,960.23,836.74c67.05,221.98-141.6,255.02-335.16,350.39
		c-303.62,149.61-80.35,675.38,206.48,677.89c286.83,2.51,2024.52-5.01,2024.52-5.01s416.68,1.05,589.96-228.92
		C3632.48,1383.61,3514.28,1017.39,3190.29,741.02z"/>
	<g>
		<g>
			
				<rect x="2661.72" y="344.03" transform="matrix(-1 -1.224647e-16 1.224647e-16 -1 6037.5508 1887.8745)" style="fill:#AED3FF;" width="714.11" height="1199.82"/>
			<rect x="2639.34" y="344.03" style="fill:#D2E4FF;" width="714.11" height="1199.82"/>
			<rect x="2687.97" y="411.05" style="fill:#F3F9FF;" width="618.54" height="417.92"/>
			<rect x="2963.88" y="1221.15" style="fill:#F3F9FF;" width="331.97" height="223.13"/>
			<path style="fill:#EE9849;" d="M2713.47,624.35c0,0,105.61-13.16,170.14,46.29c64.54,59.45,184.76,5.27,233.16,0
				c84.16-9.16,150.14,18.38,169.71,48.64v90.8h-573.01V624.35z"/>
			<rect x="2795.33" y="478.23" style="fill:#A6C7F9;" width="4.42" height="141.79"/>
			<rect x="2969.01" y="539.07" style="fill:#A6C7F9;" width="4.42" height="141.79"/>
			<rect x="3148.21" y="506.99" style="fill:#A6C7F9;" width="4.42" height="141.79"/>
			<path style="fill:#A6C7F9;" d="M2849.17,499.98h-33.92c-2.03,0-3.69-1.66-3.69-3.69l0,0c0-2.03,1.66-3.69,3.69-3.69h33.92
				c2.03,0,3.69,1.66,3.69,3.69l0,0C2852.85,498.32,2851.19,499.98,2849.17,499.98z"/>
			<path style="fill:#A6C7F9;" d="M2849.17,513.26h-33.92c-2.03,0-3.69-1.66-3.69-3.69l0,0c0-2.03,1.66-3.69,3.69-3.69h33.92
				c2.03,0,3.69,1.66,3.69,3.69l0,0C2852.85,511.6,2851.19,513.26,2849.17,513.26z"/>
			<path style="fill:#A6C7F9;" d="M3020.26,572.25h-33.92c-2.03,0-3.69-1.66-3.69-3.69l0,0c0-2.03,1.66-3.69,3.69-3.69h33.92
				c2.03,0,3.69,1.66,3.69,3.69l0,0C3023.95,570.6,3022.29,572.25,3020.26,572.25z"/>
			<path style="fill:#A6C7F9;" d="M3020.26,585.26h-33.92c-2.03,0-3.69-1.66-3.69-3.69l0,0c0-2.03,1.66-3.69,3.69-3.69h33.92
				c2.03,0,3.69,1.66,3.69,3.69l0,0C3023.95,583.6,3022.29,585.26,3020.26,585.26z"/>
			<path style="fill:#A6C7F9;" d="M3202.41,518.79h-33.92c-2.03,0-3.69-1.66-3.69-3.69l0,0c0-2.03,1.66-3.69,3.69-3.69h33.92
				c2.03,0,3.69,1.66,3.69,3.69l0,0C3206.1,517.13,3204.44,518.79,3202.41,518.79z"/>
			<path style="fill:#A6C7F9;" d="M3202.41,531.79h-33.92c-2.03,0-3.69-1.66-3.69-3.69l0,0c0-2.03,1.66-3.69,3.69-3.69h33.92
				c2.03,0,3.69,1.66,3.69,3.69l0,0C3206.1,530.13,3204.44,531.79,3202.41,531.79z"/>
			<g>
				<path style="fill:#F3F9FF;" d="M3184.36,935.87c0-33.73,27.34-61.07,61.07-61.07c33.73,0,61.07,27.34,61.07,61.07
					s-27.34,61.07-61.07,61.07C3211.71,996.94,3184.36,969.6,3184.36,935.87z"/>
				<path style="fill:#C65447;" d="M3301.33,935.87c0,30.87-25.03,55.9-55.9,55.9c-14.57,0-27.84-5.57-37.78-14.71l37.78-41.19
					v-55.9C3276.31,879.97,3301.33,905,3301.33,935.87z"/>
				<path style="fill:#A6C7F9;" d="M3224.15,926.02h-20.07c-0.92,0-1.68-0.76-1.68-1.68l0,0c0-0.92,0.76-1.68,1.68-1.68h20.07
					c0.92,0,1.68,0.76,1.68,1.68l0,0C3225.83,925.27,3225.07,926.02,3224.15,926.02z"/>
			</g>
			<g>
				<circle style="fill:#F3F9FF;" cx="3093.8" cy="935.87" r="61.07"/>
				<path style="fill:#E57970;" d="M3093.81,935.87l34.35,44.1c-9.47,7.4-21.39,11.8-34.35,11.8c-30.88,0-55.9-25.03-55.9-55.9
					c0-30.87,25.03-55.9,55.9-55.9c29.15,0,53.09,22.31,55.66,50.79L3093.81,935.87z"/>
				<path style="fill:#A6C7F9;" d="M3136.85,949.69h-13.97c-0.92,0-1.68-0.76-1.68-1.68l0,0c0-0.92,0.76-1.68,1.68-1.68h13.97
					c0.92,0,1.68,0.76,1.68,1.68l0,0C3138.53,948.93,3137.77,949.69,3136.85,949.69z"/>
			</g>
			<g>
				<path style="fill:#F3F9FF;" d="M3184.36,1104.08c0-33.73,27.34-61.07,61.07-61.07c33.73,0,61.07,27.34,61.07,61.07
					c0,33.73-27.34,61.07-61.07,61.07C3211.71,1165.16,3184.36,1137.81,3184.36,1104.08z"/>
				<path style="fill:#EE9849;" d="M3301.33,1104.08c0,30.87-25.03,55.9-55.9,55.9c-14.57,0-27.84-5.57-37.78-14.71l37.78-41.19
					v-55.9C3276.31,1048.19,3301.33,1073.21,3301.33,1104.08z"/>
				<path style="fill:#A6C7F9;" d="M3224.15,1094.24h-20.07c-0.92,0-1.68-0.76-1.68-1.68l0,0c0-0.92,0.76-1.68,1.68-1.68h20.07
					c0.92,0,1.68,0.76,1.68,1.68l0,0C3225.83,1093.48,3225.07,1094.24,3224.15,1094.24z"/>
			</g>
			<g>
				<path style="fill:#F3F9FF;" d="M3032.73,1104.08c0-33.73,27.34-61.07,61.07-61.07c33.73,0,61.07,27.34,61.07,61.07
					c0,33.73-27.34,61.07-61.07,61.07C3060.07,1165.16,3032.73,1137.81,3032.73,1104.08z"/>
				<path style="fill:#C65447;" d="M3149.47,1098.98c-2.58-28.48-26.52-50.79-55.66-50.79c-30.88,0-55.9,25.03-55.9,55.9
					c0,30.87,25.03,55.9,55.9,55.9c12.95,0,24.87-4.4,34.35-11.79l-34.35-44.1L3149.47,1098.98z"/>
				<path style="fill:#A6C7F9;" d="M3136.85,1117.9h-13.97c-0.92,0-1.68-0.76-1.68-1.68l0,0c0-0.92,0.76-1.68,1.68-1.68h13.97
					c0.92,0,1.68,0.76,1.68,1.68l0,0C3138.53,1117.15,3137.77,1117.9,3136.85,1117.9z"/>
			</g>
			<g>
				<polygon style="fill:#A6C7F9;" points="3281.54,1428.69 2976.83,1428.69 2976.83,1248.65 2980.62,1248.65 2980.62,1424.9 
					3281.54,1424.9 				"/>
			</g>
			<g>
				<path style="fill:#A6C7F9;" d="M3072.08,1363.58c-37.3-29.69-76.97,0-76.97,0v50.76h278.86v-131.22
					C3198.19,1285.04,3109.38,1393.27,3072.08,1363.58z"/>
				<path style="fill:#A6C7F9;" d="M2998.31,1262.38h129.94c1.76,0,3.19-1.44,3.19-3.19s-1.44-3.19-3.19-3.19h-129.94
					c-1.76,0-3.19,1.44-3.19,3.19S2996.55,1262.38,2998.31,1262.38z"/>
				<path style="fill:#A6C7F9;" d="M2998.31,1277.98h129.94c1.76,0,3.19-1.44,3.19-3.19c0-1.76-1.44-3.19-3.19-3.19h-129.94
					c-1.76,0-3.19,1.44-3.19,3.19C2995.11,1276.54,2996.55,1277.98,2998.31,1277.98z"/>
				<path style="fill:#A6C7F9;" d="M2997.73,1292.71h86.04c1.44,0,2.61-1.18,2.61-2.61v-1.16c0-1.44-1.17-2.61-2.61-2.61h-86.04
					c-1.44,0-2.61,1.18-2.61,2.61v1.16C2995.11,1291.53,2996.29,1292.71,2997.73,1292.71z"/>
			</g>
		</g>
		<g>
			<rect x="1544.09" y="157.53" style="fill:#D2E4FF;" width="977.09" height="1473.56"/>
			<rect x="1638.5" y="239.96" style="fill:#F3F9FF;" width="786.67" height="876.84"/>
			
				<ellipse transform="matrix(0.7071 -0.7071 0.7071 0.7071 -461.5407 1679.6128)" style="fill:#F3F9FF;" cx="1796.7" cy="1396.94" rx="141.48" ry="141.48"/>
			<path style="fill:#EE9849;" d="M1916.29,1396.94c0-66.05-53.54-119.6-119.58-119.6c-66.06,0-119.6,53.55-119.6,119.6
				s53.54,119.6,119.6,119.6c27.28,0,52.42-9.13,72.53-24.51l-72.53-95.09l111.75,42.65
				C1913.52,1426.34,1916.29,1411.96,1916.29,1396.94z"/>
			
				<ellipse transform="matrix(0.2298 -0.9732 0.9732 0.2298 395.6282 3293.7678)" style="fill:#F3F9FF;" cx="2278.74" cy="1396.94" rx="141.48" ry="141.48"/>
			<path style="fill:#EE9849;" d="M2278.74,1277.34c-66.06,0-119.6,53.55-119.6,119.6c0,32.69,13.1,62.3,34.36,83.89l85.23-83.89
				l111.75,42.65c5.05-13.25,7.83-27.62,7.83-42.65C2398.33,1330.89,2344.79,1277.34,2278.74,1277.34z"/>
			<g>
				<path style="fill:#DD7C2C;" d="M2261.26,1336.22h-50.91c-2,0-3.64,1.64-3.64,3.64l0,0c0,2,1.64,3.64,3.64,3.64h50.91
					c2,0,3.64-1.64,3.64-3.64l0,0C2264.9,1337.86,2263.26,1336.22,2261.26,1336.22z"/>
				<path style="fill:#DD7C2C;" d="M2261.26,1347.74h-50.91c-2,0-3.64,1.64-3.64,3.64s1.64,3.64,3.64,3.64h50.91
					c2,0,3.64-1.64,3.64-3.64S2263.26,1347.74,2261.26,1347.74z"/>
				<path style="fill:#DD7C2C;" d="M2231.38,1359.25h-21.02c-2,0-3.64,1.64-3.64,3.64s1.64,3.64,3.64,3.64h21.02
					c2,0,3.64-1.64,3.64-3.64S2233.38,1359.25,2231.38,1359.25z"/>
			</g>
			<g>
				<path style="fill:#DD7C2C;" d="M1778.25,1336.22h-50.91c-2,0-3.64,1.64-3.64,3.64l0,0c0,2,1.64,3.64,3.64,3.64h50.91
					c2,0,3.64-1.64,3.64-3.64l0,0C1781.88,1337.86,1780.25,1336.22,1778.25,1336.22z"/>
				<path style="fill:#DD7C2C;" d="M1778.25,1347.74h-50.91c-2,0-3.64,1.64-3.64,3.64s1.64,3.64,3.64,3.64h50.91
					c2,0,3.64-1.64,3.64-3.64S1780.25,1347.74,1778.25,1347.74z"/>
				<path style="fill:#DD7C2C;" d="M1748.36,1359.25h-21.02c-2,0-3.64,1.64-3.64,3.64s1.64,3.64,3.64,3.64h21.02
					c2,0,3.64-1.64,3.64-3.64S1750.36,1359.25,1748.36,1359.25z"/>
			</g>
			<g>
				<rect x="1708.55" y="553.32" style="fill:#A6C7F9;" width="83.01" height="517.12"/>
				<rect x="1844.55" y="409.18" style="fill:#A6C7F9;" width="83.01" height="661.26"/>
				<rect x="1992.94" y="678.37" style="fill:#A6C7F9;" width="83.01" height="392.06"/>
				<rect x="2137.34" y="497.46" style="fill:#A6C7F9;" width="83.01" height="572.98"/>
				<rect x="2282.49" y="755.11" style="fill:#A6C7F9;" width="83.01" height="315.32"/>
			</g>
			<g>
				<path style="fill:#A6C7F9;" d="M2216.42,422.91h-70.3c-4,0-7.27,3.27-7.27,7.27s3.27,7.27,7.27,7.27h70.3
					c4,0,7.27-3.27,7.27-7.27S2220.42,422.91,2216.42,422.91z"/>
				<path style="fill:#A6C7F9;" d="M2162.13,449.38h-16.01c-4,0-7.27,3.27-7.27,7.27s3.27,7.27,7.27,7.27h16.01
					c4,0,7.27-3.27,7.27-7.27S2166.13,449.38,2162.13,449.38z"/>
				<path style="fill:#A6C7F9;" d="M1926.73,310.29h-70.3c-4,0-7.27,3.27-7.27,7.27s3.27,7.27,7.27,7.27h70.3
					c4,0,7.27-3.27,7.27-7.27S1930.73,310.29,1926.73,310.29z"/>
				<path style="fill:#A6C7F9;" d="M1872.44,336.76h-16.01c-4,0-7.27,3.27-7.27,7.27l0,0c0,4,3.27,7.27,7.27,7.27h16.01
					c4,0,7.27-3.27,7.27-7.27l0,0C1879.71,340.03,1876.44,336.76,1872.44,336.76z"/>
				<path style="fill:#A6C7F9;" d="M2069.6,601.19h-70.3c-4,0-7.27,3.27-7.27,7.27s3.27,7.27,7.27,7.27h70.3
					c4,0,7.27-3.27,7.27-7.27S2073.6,601.19,2069.6,601.19z"/>
				<path style="fill:#A6C7F9;" d="M2015.31,627.66h-16.01c-4,0-7.27,3.27-7.27,7.27l0,0c0,4,3.27,7.27,7.27,7.27h16.01
					c4,0,7.27-3.27,7.27-7.27l0,0C2022.58,630.93,2019.31,627.66,2015.31,627.66z"/>
				<path style="fill:#A6C7F9;" d="M2359.15,678.37h-70.3c-4,0-7.27,3.27-7.27,7.27c0,4,3.27,7.27,7.27,7.27h70.3
					c4,0,7.27-3.27,7.27-7.27C2366.42,681.65,2363.15,678.37,2359.15,678.37z"/>
				<path style="fill:#A6C7F9;" d="M2304.86,704.84h-16.01c-4,0-7.27,3.27-7.27,7.27c0,4,3.27,7.27,7.27,7.27h16.01
					c4,0,7.27-3.27,7.27-7.27C2312.13,708.11,2308.86,704.84,2304.86,704.84z"/>
			</g>
		</g>
		<g>
			<rect x="698.13" y="716.09" style="fill:#AED3FF;" width="714.11" height="402.02"/>
			<rect x="721.35" y="716.09" style="fill:#D2E4FF;" width="714.11" height="402.02"/>
			
				<ellipse transform="matrix(0.7071 -0.7071 0.7071 0.7071 -373.5868 914.1247)" style="fill:#F3F9FF;" cx="916.65" cy="908.02" rx="129.12" ry="129.12"/>
			<g>
				<path style="fill:#F3F9FF;" d="M1355.19,835.89h-213.9c-7.75,0-14.09,6.34-14.09,14.09l0,0c0,7.75,6.34,14.09,14.09,14.09h213.9
					c7.75,0,14.09-6.34,14.09-14.09l0,0C1369.28,842.23,1362.94,835.89,1355.19,835.89z"/>
				<path style="fill:#F3F9FF;" d="M1355.19,893.93h-213.9c-7.75,0-14.09,6.34-14.09,14.09l0,0c0,7.75,6.34,14.09,14.09,14.09h213.9
					c7.75,0,14.09-6.34,14.09-14.09l0,0C1369.28,900.27,1362.94,893.93,1355.19,893.93z"/>
				<path style="fill:#F3F9FF;" d="M1355.19,951.96h-213.9c-7.75,0-14.09,6.34-14.09,14.09c0,7.75,6.34,14.09,14.09,14.09h213.9
					c7.75,0,14.09-6.34,14.09-14.09C1369.28,958.3,1362.94,951.96,1355.19,951.96z"/>
			</g>
			<path style="fill:#A8D29F;" d="M798.44,906.15h118.22V787.93C851.37,787.93,798.44,840.86,798.44,906.15z"/>
			<path style="fill:#F1A34F;" d="M1034.87,909.95H916.66h0H798.44c0,65.29,52.93,118.22,118.22,118.22l0,0c0,0,0,0,0,0c0,0,0,0,0,0
				l0,0C981.94,1028.17,1034.87,975.24,1034.87,909.95z"/>
			<g>
				<path style="fill:#82B378;" d="M896.23,845.37h-64.16c-3.65,0-6.64,2.99-6.64,6.64c0,3.65,2.99,6.64,6.64,6.64h64.16
					c3.65,0,6.64-2.99,6.64-6.64C902.87,848.35,899.89,845.37,896.23,845.37z"/>
				<path style="fill:#82B378;" d="M846.69,869.52h-14.61c-3.65,0-6.64,2.99-6.64,6.64c0,3.65,2.99,6.64,6.64,6.64h14.61
					c3.65,0,6.64-2.99,6.64-6.64C853.33,872.51,850.34,869.52,846.69,869.52z"/>
			</g>
			<g>
				<path style="fill:#DD8936;" d="M991.49,938.85h-64.16c-3.65,0-6.64,2.99-6.64,6.64c0,3.65,2.99,6.64,6.64,6.64h64.16
					c3.65,0,6.64-2.99,6.64-6.64C998.13,941.84,995.14,938.85,991.49,938.85z"/>
				<path style="fill:#DD8936;" d="M941.94,963h-14.61c-3.65,0-6.64,2.99-6.64,6.64l0,0c0,3.65,2.99,6.64,6.64,6.64h14.61
					c3.65,0,6.64-2.99,6.64-6.64l0,0C948.58,965.99,945.59,963,941.94,963z"/>
			</g>
		</g>
		<g>
			<path style="fill:#AED3FF;" d="M647.83,1190.11v411.15h714.11v-411.15H647.83z"/>
			<path style="fill:#D2E4FF;" d="M671.05,1190.11v411.15h714.11v-411.15H671.05z"/>
			<circle style="fill:#F3F9FF;" cx="866.35" cy="1382.99" r="129.12"/>
			<g>
				<path style="fill:#F3F9FF;" d="M1090.98,1339.05h213.9c7.75,0,14.09-6.34,14.09-14.09s-6.34-14.09-14.09-14.09h-213.9
					c-7.75,0-14.09,6.34-14.09,14.09S1083.23,1339.05,1090.98,1339.05z"/>
				<path style="fill:#F3F9FF;" d="M1304.88,1368.89h-213.9c-7.75,0-14.09,6.34-14.09,14.09s6.34,14.09,14.09,14.09h213.9
					c7.75,0,14.09-6.34,14.09-14.09S1312.63,1368.89,1304.88,1368.89z"/>
				<path style="fill:#F3F9FF;" d="M1304.88,1426.93h-213.9c-7.75,0-14.09,6.34-14.09,14.09l0,0c0,7.75,6.34,14.09,14.09,14.09
					h213.9c7.75,0,14.09-6.34,14.09-14.09l0,0C1318.98,1433.27,1312.63,1426.93,1304.88,1426.93z"/>
			</g>
			<path style="fill:#F1A34F;" d="M866.35,1385.08l-118.21-1.5c-0.01,0.5-0.01,1.01-0.01,1.5c0,65.29,52.93,118.22,118.22,118.22
				c23.34,0,45.1-6.77,63.43-18.45L866.35,1385.08z"/>
			<g>
				<path style="fill:#DD8936;" d="M870.7,1422.31h-64.16c-3.65,0-6.64,2.99-6.64,6.64v0c0,3.65,2.99,6.64,6.64,6.64h64.16
					c3.65,0,6.64-2.99,6.64-6.64v0C877.34,1425.29,874.35,1422.31,870.7,1422.31z"/>
				<path style="fill:#DD8936;" d="M821.16,1446.46h-14.61c-3.65,0-6.64,2.99-6.64,6.64s2.99,6.64,6.64,6.64h14.61
					c3.65,0,6.64-2.99,6.64-6.64S824.81,1446.46,821.16,1446.46z"/>
			</g>
		</g>
		<g>
			<rect x="647.83" y="277.64" style="fill:#AED3FF;" width="714.12" height="372.57"/>
			<rect x="671.05" y="277.64" style="fill:#D2E4FF;" width="714.11" height="372.57"/>
			
				<ellipse transform="matrix(0.7071 -0.7071 0.7071 0.7071 -78.1674 750.0859)" style="fill:#F3F9FF;" cx="866.35" cy="469.4" rx="129.12" ry="129.12"/>
			<path style="fill:#A8D29F;" d="M866.35,351.19c-65.29,0-118.22,52.92-118.22,118.21c0,44.72,24.85,83.65,61.48,103.73
				c18.94-35.08,56.74-103.73,56.74-103.73l55.97,104.14c37.06-19.96,62.23-59.1,62.23-104.14
				C984.56,404.11,931.64,351.19,866.35,351.19z"/>
			<g>
				<path style="fill:#F3F9FF;" d="M1304.88,397.27h-213.9c-7.75,0-14.09,6.34-14.09,14.09v0c0,7.75,6.34,14.09,14.09,14.09h213.9
					c7.75,0,14.09-6.34,14.09-14.09v0C1318.98,403.61,1312.63,397.27,1304.88,397.27z"/>
				<path style="fill:#F3F9FF;" d="M1304.88,455.31h-213.9c-7.75,0-14.09,6.34-14.09,14.09c0,7.75,6.34,14.09,14.09,14.09h213.9
					c7.75,0,14.09-6.34,14.09-14.09C1318.98,461.65,1312.63,455.31,1304.88,455.31z"/>
				<path style="fill:#F3F9FF;" d="M1304.88,513.34h-213.9c-7.75,0-14.09,6.34-14.09,14.09c0,7.75,6.34,14.09,14.09,14.09h213.9
					c7.75,0,14.09-6.34,14.09-14.09C1318.98,519.68,1312.63,513.34,1304.88,513.34z"/>
			</g>
			<g>
				<path style="fill:#82B378;" d="M870.71,412.94h-64.16c-3.65,0-6.64,2.99-6.64,6.64c0,3.65,2.99,6.64,6.64,6.64h64.16
					c3.65,0,6.64-2.99,6.64-6.64C877.34,415.93,874.36,412.94,870.71,412.94z"/>
				<path style="fill:#82B378;" d="M821.16,437.09h-14.61c-3.65,0-6.64,2.99-6.64,6.64l0,0c0,3.65,2.99,6.64,6.64,6.64h14.61
					c3.65,0,6.64-2.99,6.64-6.64l0,0C827.8,440.08,824.81,437.09,821.16,437.09z"/>
			</g>
		</g>
	</g>
	<g>
		<path style="fill:#E58638;" d="M1550.8,921.06c0,0,83.3,85.99,87.3,118.42c4,32.43-39.63,83.15-39.63,83.15L1550.8,921.06z"/>
		<path style="fill:#163560;" d="M1515.19,1813.13c0,0-2.83,45.71-11.68,46.37c-1.18,0.09-44.86,0.09-44.86,0.09l-55.76-0.32
			c0,0,0.36-13.44,16.66-16.28c16.3-2.84,43.58-14.3,53.46-35.84C1483.4,1784.49,1515.19,1813.13,1515.19,1813.13z"/>
		<path style="fill:#163560;" d="M1639.39,1813.13c0,0-2.83,45.71-11.68,46.37c-1.18,0.09-44.86,0.09-44.86,0.09l-55.93-0.2
			c0,0,0.53-13.56,16.83-16.4c16.3-2.84,43.58-14.3,53.46-35.84C1607.6,1784.49,1639.39,1813.13,1639.39,1813.13z"/>
		<path style="fill:#163560;" d="M1453.43,1322.9c0,0,14.58,93.27,68.99,258.85c54.4,165.58,61.82,237.28,61.82,237.28
			s14.72,2.13,30.26,2.13c9.83,0,28.1-3.77,28.1-3.77s0.5-180.96-24.58-264.22c-25.07-83.26-5.41-300.17-5.41-300.17L1453.43,1322.9
			z"/>
		<path style="fill:#1C468A;" d="M1425.03,1258.12c0,0-2.07,140.56,22.25,313.14c24.32,172.58,16.08,245.84,16.08,245.84
			s20.02,3.59,27.05,3.82c7.53,0.25,31.19-1.88,31.19-1.88s34.81-172.65,24.83-259.03s47.67-296.41,47.67-296.41L1425.03,1258.12z"
			/>
		<path style="fill:#FFB27D;" d="M1537.79,929.19l-27.47,20.35l-39.7-8.36c0.55-3.62,3.17-18.63,5.56-32.22
			c0.14-0.8,0.29-1.6,0.42-2.39c2.04-11.57,3.81-21.5,3.81-21.5l37.08-18.48l13.83-6.89c-0.04,0.24-1.07,12.84-1.22,14.67
			C1527.5,907.01,1537.79,929.19,1537.79,929.19z"/>
		<path style="fill:#E58638;" d="M1473.39,918.92c0.87-0.37,54.01-16.05,59.78-14.14c5.77,1.91,9.19,13.08,9.19,13.08l-86.92,19.65
			C1455.45,937.51,1462.29,923.6,1473.39,918.92z"/>
		<path style="fill:#EE9849;" d="M1616.48,1275.47c-9.01,41.09-158.91,45.96-197.55,8.66c-4.4-4.25-4.61-24.03-2.95-50.7
			c3.24-52.11,13.65-130.49,14.06-170.53c0.2-19.34,2.85-39.12,6.4-57.08c7.53-38.28,19.01-68.32,19.01-68.32
			s73.22-23.67,86.92-19.64C1608.37,937.25,1625.49,1234.38,1616.48,1275.47z"/>
		<path style="fill:#E58638;" d="M1415.98,1233.43c3.24-52.11,13.65-130.49,14.06-170.53c0.2-19.34,2.85-39.12,6.4-57.08l44.04-7.77
			C1480.48,998.05,1523.54,1173.94,1415.98,1233.43z"/>
		<path style="fill:#FFB27D;" d="M1439.83,1160.8c0,0,3,7.18-3.3,11.99s-10.39,12.62-8.95,18.33c1.44,5.71,15.27,15.01,20.07,13.51
			c4.79-1.5,14.55-9.01,13.5-12.02c-1.05-3.01,6.56-26.41-5.12-35.41C1444.33,1148.19,1439.83,1160.8,1439.83,1160.8z"/>
		<path style="fill:#EE9849;" d="M1489.08,926.96c0,0-42.96,8.04-77.18,58.48c-34.23,50.44-56.74,87.94-50.44,106.12
			c6.31,18.18,63.78,81.23,73.68,81.23c9.91,0,25.9-7.21,26.8-23.42c0,0-40.46-60.64-32.49-69.73c3.41-3.88,52.53-43.76,59.55-25.75
			C1500.59,1083.7,1489.08,926.96,1489.08,926.96z"/>
		<path style="fill:#FCA56B;" d="M1527.31,874.95c-8.14,15.58-38.49,29.06-51.14,34.01c0.14-0.8,0.29-1.6,0.42-2.39
			c2.04-11.57,3.81-21.5,3.81-21.5l37.08-18.48C1525.68,866.46,1530.67,868.54,1527.31,874.95z"/>
		<path style="fill:#FFB27D;" d="M1468.46,885.92c0,0,54.89,17.12,65.03-17.23c10.14-34.35,24.05-55.27-10.57-67.66
			c-34.62-12.39-45.33-1.3-51.5,9.34C1465.24,821.02,1454.44,880.58,1468.46,885.92z"/>
		<path style="fill:#163560;" d="M1473.57,807.07c0,0,3.5,39.97,11.77,38.24c8.27-1.74,15.76-3.02,14.55,9.03
			c-1.21,12.05-12.67,25.96,12.8,28.09c25.48,2.13,62.1-63.57,55.1-76.01C1547.6,770.53,1444.39,763.29,1473.57,807.07z"/>
	</g>
	<g>
		<polygon style="fill:#FFB27D;" points="485.25,1735.91 501.96,1806.3 526.99,1806.16 527.91,1735.91 		"/>
		<polygon style="fill:#FFB27D;" points="695.81,1738.91 743.36,1806.3 761.9,1782.5 733.28,1729.65 		"/>
		<path style="fill:#163560;" d="M572.19,810.98c-8.64-4.91-19-5.45-26.24-5.02c1.87-1.93,5.53-2.63,5.53-2.63
			c-4.49-0.67-14.52,3.79-14.52,3.79c-62.48-24.08-72.3,67.92-70.99,89.3c1.3,21.37-21,28.35-53.5,45.19
			c-62.02,32.13-67.47,75.16-67.47,75.16c0.48,0.28,0.99,0.61,1.52,0.98c3.08-5.21,9.41-15,14.75-16.48
			c-0.2,0.47-6.31,13.48-8.59,20.93c18.3,13.92,52.53,44.76,76.38,66.63c-0.11-4.27,0.06-10.34,1.62-13.54l2.95,17.75
			c12.77,11.74,21.57,19.99,21.57,19.99c-1.58-17.27,78.11-108.42,119.69-135.71c10.12-14.9,13.72-41.22,13.99-43.29
			c-1.75,20.87-5.32,32.58-8.51,39.17C615.59,940.77,595.09,824,572.19,810.98z"/>
		<path style="fill:#FFB27D;" d="M572.44,978.66c0.21,0.09-20.07,10.62-35.33,6.45c-14.35-3.91-23.73-22.52-23.53-22.56
			c6.08-1.21,7.83-9.56,7.7-45.45l2.75,0.54l46.2,9.15c0,0-1.05,14.54-1.08,28.23C569.11,966.53,569.81,977.43,572.44,978.66z"/>
		<path style="fill:#E37970;" d="M520.2,826.05c0,0,22.79-24.26,51.4-1.24C571.6,824.81,554.95,821.93,520.2,826.05z"/>
		<path style="fill:#D68D5D;" d="M570.23,926.79c0,0-1.05,14.54-1.08,28.23c-25.85-0.73-39.51-24.31-45.11-37.38L570.23,926.79z"/>
		<path style="fill:#163560;" d="M519.26,912.62c0,0-13.55-21.41-16.8-39.71c-2.32-13.07,4.33-61.5,53.01-54.53
			c0,0,14.14,1.39,27.42,10.37c10.57,7.14,25.82,22.55,8.77,64.81l-4.43,14.28L519.26,912.62z"/>
		<path style="fill:#80BDCC;" d="M754.35,1764.03l-24.49,0.75l-26.51,0.81c0,0-61.22-68.17-95.57-177.44
			c-0.8-2.54-1.64-5.11-2.54-7.71c-18.8-54.8-57.76-123.59-78.29-185.86c-3.27-9.92-6.2-19.25-8.84-28.09
			c-0.84-2.83-1.67-5.61-2.45-8.35c-15.13-52.58-19.51-87.09-23.55-123.98l148.27,1.19C640.4,1235.36,664.33,1487.21,754.35,1764.03
			z"/>
		<path style="fill:#E7F1FD;" d="M619.64,1150.17c-0.37,70.55,10.35,100.82,10.35,100.82s-63.48,32.25-138.93,8.51
			c-0.89-0.28-62.47-14.33-62.47-14.33c1.26-2.86,12.49-50.4,13.72-53.02c15.93-34.21,28.02-49.21,29.91-59.72
			c3.5-19.63,3.58-39.95,1.83-59.11c-4.6-50.72-18.3-92.83-18.3-92.83c20.56-4.68,40.34-12.68,61.74-20.7
			c4.92,6.13,19.43,12.32,32.49,12.03c15.03-0.33,19.72-6.69,19.17-13.85c16.02,8.91,28.75,17.39,28.75,17.39
			c13.61,23.64,41.22,46.6,43.22,82.87C641.62,1067.15,619.65,1148.19,619.64,1150.17z"/>
		<path style="fill:#5F9AA8;" d="M492.13,1158.03c-6.48,9.17-18.91,64.93-49.82,71.94c15.93-39.74,28.02-57.16,29.91-69.38
			c3.5-22.81,3.58-46.4,1.83-68.66c10.35-18.14,18.07-30.57,18.07-30.57c0.81-2.93,16.45-51.27,21.46-8.06
			C518.58,1096.51,499.37,1147.77,492.13,1158.03z"/>
		<path style="fill:#FFB27D;" d="M578.86,939.76c0,0-61.16,1.01-61.2-37.09s-7.96-63.63,31.08-65.88
			c39.05-2.26,46.65,12.27,49.76,24.99C601.6,874.49,594.77,938.52,578.86,939.76z"/>
		<path style="fill:#163560;" d="M596.68,840.59c-9.44-11.44-16.58-8.95-20.58-5.52c-13.22-19.75-54.99,8.81-54.99,8.81
			c-4.09,27.34-23.8,43-23.8,43s11.15,6.89,36.85,0.28c20.23-5.2,34.9-33.99,40.24-46.02c3.64,3.23,11.31,10.7,13.61,18.02
			c3.05,9.7,4.42,29.67,10.24,28.99C598.24,888.16,610.86,857.78,596.68,840.59z"/>
		<path style="fill:#FFB27D;" d="M501.12,1802.36c0,0,2.02,13.94-3.19,28.86c0,0-4.1,18.67,14.29,19.01
			c18.39,0.35,22.9-1.39,20.81-12.83c-2.08-11.45-6.04-31.24-6.04-31.24L501.12,1802.36z"/>
		<path style="fill:#C45446;" d="M534.77,1859.4c0,0-0.02,0.01-0.06,0.04h-38.04c-0.04-0.03-0.06-0.04-0.06-0.04
			c-2.08-9.76,1.32-28.16,1.32-28.16c20.82,19.9,33.85-0.5,33.85-0.5C535.16,1839.25,534.77,1859.4,534.77,1859.4z"/>
		<path style="fill:#FFB27D;" d="M806.2,1840.14c0,0-33.9-38.49-44.31-57.64l-25.2,12.91l56.34,52.91l13.18-1.73L806.2,1840.14z"/>
		<path style="fill:#C45446;" d="M826.99,1859.33h-47.03c-4.14-3.73-8.09-11.25-12.93-21.11c-2.77-5.65-8.98-8.76-15.35-10.47v31.58
			h-9.73l-9.01-33.58c-6-11.25-1.49-21.57,2.73-30.46c4.91-0.01,19.15,3.54,44.19,32.31c8.23,9.45,17.31,12.82,26.34,12.54
			c0.12,0.08,0.25,0.15,0.37,0.2C820.83,1846.88,825.48,1854.92,826.99,1859.33z"/>
		<path style="fill:#E37970;" d="M824.71,1002.99c0,0-40.15,22.45-54.49,28.92c-5.1,2.3-14.34,6.6-23.78,11.01
			c-5.7,2.66-11.47,5.37-16.46,7.72c-8.43,3.96-18.46,1.79-24.52-5.29c-21.74-25.38-78-80.4-136.1-87.3l-0.2-0.09
			c0,0,0.01,0.02,0.03,0.06c-0.02,0-0.05-0.01-0.07-0.01l0.32,0.63c3.27,8.12,35.12,87.7,36.1,104.49
			c1.04,17.69,4.16,289.31,4.16,289.31s-2.08,12.49,21.85,7.28c23.94-5.2,30.18-10.41,30.18-10.41s-22.9-167.55-16.65-225.83
			c1.23-11.44,0.12-24.29-2.44-37.56c35.39,21.43,77.11,30.97,77.11,30.97s15.56-6.79,39.74-21.77
			c10.15-6.3,21.92-16.34,33.51-26.96c14-12.83,38.09-43.84,38.09-43.84L824.71,1002.99z"/>
		<path style="fill:#5F9AA8;" d="M729.86,1764.78l-26.51,0.81c0,0-61.22-68.17-95.57-177.44c-0.8-2.54-1.64-5.11-2.54-7.71
			c-18.8-54.8-57.76-123.59-78.29-185.86c-3.27-9.92-6.2-19.25-8.84-28.09c-0.84-2.83-1.67-5.61-2.45-8.35l21.83-16.57
			c0,0,65.55,106.15,85.85,206.04C640.99,1634.4,711.59,1738.81,729.86,1764.78z"/>
		<path style="fill:#80BDCC;" d="M539.79,1556.93c0.37,48.58-2.08,160.26-8.41,206.5h-23.48c-12.98,0-19.45-0.19-19.45-0.19
			c-15.87-80.39-27.16-146.91-35.38-204.23c-6.74-47.04-12.74-87.37-17.35-122.08c-4.64-34.94-7.87-64.19-9.02-88.91
			c-0.18-3.89-0.31-7.68-0.39-11.35c-0.07-3.69-0.09-7.28-0.06-10.77l128.11-12.49C552.75,1398.53,539.58,1528.7,539.79,1556.93z"/>
		<path style="fill:#5F9AA8;" d="M507.91,1763.44c-12.98,0-19.45-0.19-19.45-0.19c-15.87-80.39-27.16-146.91-35.38-204.23
			c-6.74-47.04-12.74-87.37-17.35-122.08c-4.64-34.94-7.87-64.19-9.02-88.91l47.01,27.65c0,0-30,10.58-18.56,90.72
			C466.6,1546.53,491.97,1752.09,507.91,1763.44z"/>
		<path style="fill:#E37970;" d="M513.96,1347.24c0,0-9.02,32.6-40.24,28.44s-75.62-22.9-75.62-22.9s13.34-42.16,29.93-97.54
			c20.09-67.05,44.95-153.49,56.67-208.01c3.29-15.28,5.54-28.04,6.37-37.17l26.44-50.28c0,0,38.08,86.7,40.16,108.55
			C559.75,1090.19,513.96,1347.24,513.96,1347.24z"/>
		<path style="fill:#FFB27D;" d="M625.46,1092.73c-15.03,1.97-20.79,9.96-22.64,20.73c-1,5.81-4,11.56-6.54,15.62
			c-14.97,0.8-50.61,2.74-80.56,4.64l-2.47,39.28c24.6-3.06,54.83-9.3,89.63-21.21c2.67-0.46,6.01-2.12,10.2-5.54
			c21.56-17.66,33.8-47.23,33.84-51.46C646.94,1090.54,640.48,1090.76,625.46,1092.73z"/>
		<path style="fill:#C45446;" d="M512.57,1114.13c-1.39,35.38-9.72,104.07-83.95,140.84c-0.2,0.09-0.4,0.2-0.59,0.28
			c20.09-67.05,44.95-153.49,56.67-208.01C498.32,1067.61,513.33,1094.64,512.57,1114.13z"/>
		<path style="fill:#E37970;" d="M517.5,959.78c0,0-63.5,4.5-78.76,38.5c-15.26,34-20.12,147.08-0.69,180.38
			c0,0,26.75,7.62,74.05-1.23c0.58-0.11,1.16-0.22,1.75-0.33c0,0,15.09-36.95,1.56-44.23c0,0-39.89,2.08-35.73-11.1
			S517.5,959.78,517.5,959.78z"/>
		<g>
			<path style="fill:#FFB27D;" d="M867.76,976.31c-34.16-4.39-42.78,26.68-42.78,26.68l6.38,21.34
				c10.53,1.45,19.75-1.29,28.24-13.44c8.49-12.15,10.83-7.48,16.23-16.53C883.13,982.1,871.68,977.54,867.76,976.31z"/>
			<path style="fill:#FFB27D;" d="M770.22,1031.91c-5.1,2.3-14.34,6.6-23.78,11.01c5.05,8.97,11.37,25.27,13.05,52.21
				c10.15-6.3,23.29-16.79,34.51-27.8c18-17.67,37.09-43,37.09-43l-6.38-21.34C824.71,1002.99,784.56,1025.44,770.22,1031.91z"/>
		</g>
	</g>
	<g>
		<g>
			<path style="fill:#E49963;" d="M2582.45,1279.44c0,0-24.29,6.24-39.73,1.59c-15.44-4.65-42.02,2.99-46.3,8.62
				s-2.71,7.87,4.93,9.81s34.7,13.48,52.48,6.8s40.98-6.92,40.98-6.92L2582.45,1279.44z"/>
			<path style="fill:#4A75CB;" d="M2792.4,1068.42c0,0-27.29,193.96-72.48,211.33c-22.3,8.57-120.84,28-149.98,29.95
				c0,0-7.14-5.79-5.4-29.37c0,0,103.24-37.9,117.91-58.51c21.83-30.68-13.55-125.32,13.84-154.14
				C2723.67,1038.87,2769.8,1026.48,2792.4,1068.42z"/>
		</g>
		<path style="fill:#2B478B;" d="M2788.91,1815.74v-42.29h66.58c1.8,0,3.27-1.47,3.27-3.27v-6.78c0-1.8-1.47-3.27-3.27-3.27h-66.58
			v-240.72c0-6.75-5.53-12.28-12.28-12.28h-13.17c-6.75,0-12.28,5.53-12.28,12.28v240.72h-66.58c-1.8,0-3.27,1.47-3.27,3.27v6.78
			c0,1.8,1.47,3.27,3.27,3.27h66.58v42.29c-48.17,3.64-86.76,20.98-97.59,43.39h232.92
			C2875.68,1836.72,2837.08,1819.38,2788.91,1815.74z"/>
		<path style="fill:#163560;" d="M2783.2,1477.04c-7.96,13.5-17.17,26.16-26.66,38.14c-29.33,37.03-61.26,67.56-66.82,96.41
			c-1.11,5.75-2.86,11.95-5.16,18.47c-2.32,6.61-5.19,13.56-8.51,20.75c-12.45,27.04-31.06,57.33-49.64,84.87
			c-32.12,47.6-62.33,87.32-62.33,87.32l-55.4-2.36c2.22-5.55,26.38-71.28,58.7-151.6c13.13-32.61,27.08-67.29,40.55-100.74
			c1.79-4.47,3.59-8.92,5.36-13.32c4.12-10.24,8.17-20.31,12.12-30.12c30.35-75.42,54.52-135.48,54.52-135.48
			s121.3-45.95,133.9-16.18C2824.24,1397.75,2815.78,1421.8,2783.2,1477.04z"/>
		<path style="fill:#163560;" d="M2562.36,1812.93c0,0-2.83,45.71-11.68,46.37c-1.18,0.09-44.86,0.09-44.86,0.09l-55.76-0.32
			c0,0,0.37-13.44,16.66-16.28c16.3-2.84,43.58-14.29,53.46-35.84C2530.56,1784.29,2562.36,1812.93,2562.36,1812.93z"/>
		<path style="fill:#163560;" d="M2690.64,1682.33c0,0,38.53,24.76,34.79,32.8c-0.5,1.07-21.79,39.21-21.79,39.21l-27.47,48.53
			c0,0-11.55-6.87-6.09-22.49c5.47-15.62,8.76-45.02-5.23-64.14C2650.13,1696.12,2690.64,1682.33,2690.64,1682.33z"/>
		<path style="fill:#1C468A;" d="M2638.5,1367.56c0,0-152.26,94.84-169.26,158.58c-17,63.74,202.54,199.71,202.54,199.71
			s24.08-21.25,28.33-36.83c0,0-99.24-118.89-120.76-145.54c-13.22-16.37,195.47-56.66,220.97-96.32
			c25.5-39.66,16.37-73.03,16.37-73.03L2638.5,1367.56z"/>
		<path style="fill:#EE9849;" d="M2925.86,1489.35h-311.62c-6.23,0-11.33,5.1-11.33,11.33v62.32c0,6.23,5.1,11.33,11.33,11.33
			h311.62c6.23,0,11.33-5.1,11.33-11.33v-62.32C2937.19,1494.45,2932.09,1489.35,2925.86,1489.35z"/>
		<path style="fill:#E49963;" d="M2708.91,1035.17c-14.96,9.26-23.2,21.02-23.2,21.02c36.48,9.44,96.95-24.37,96.95-24.37
			s-23.48-15.78-32.18-50.44c-0.44-1.75-0.84-3.54-1.2-5.38c-1.14-5.84-1.85-12.16-1.97-18.98l-16.76,15.01L2702.69,997
			c0,0,0.63,10.36,4.12,28.17C2707.42,1028.28,2708.11,1031.62,2708.91,1035.17z"/>
		<path style="fill:#739AF0;" d="M2821.11,1207.25c-5.22,70.27,3.56,177.11-2.36,195.62c-5.12,15.97-65.32,6.52-88.58,1.18
			c-8.61-1.97-19.04-4.79-29.81-8.12c-30.05-9.3-62.79-22.59-66.3-32.45c-0.14-0.39-0.25-0.77-0.32-1.13
			c-0.32-1.43-0.25-2.77,0.06-4.13c1.17-5.03,5.68-10.47,6.21-22.91c0.59-13.9,0.5-30.26,1.03-47.86c0.03-1.98,0.05-4.14,0.27-6.12
			l0.01-0.72c0.01-0.38,0.02-0.75,0.03-1.13c0.5-19.63,1.53-40.26,2.72-60.73c0.76-12.85,1.63-25.58,2.64-37.78
			c2.62-31.48,6.15-59.47,10.83-77.17c7.64-28.85,24.48-47.67,39.81-61.46l11.09-9.51c12.38,2.7,27,0.91,40.23-5.36
			c14.32-6.8,19.27-11.67,21.76-9.84C2803.5,1043.15,2827.28,1121.34,2821.11,1207.25z"/>
		<path style="fill:#4A75CB;" d="M2700.53,1396.08c-30.05-9.3-62.79-22.59-66.3-32.45c-0.14-0.39-0.25-0.77-0.32-1.13
			c0.02-1.38,0.04-2.76,0.06-4.13c1.17-5.03,5.68-10.47,6.21-22.91c0.59-13.9,0.5-30.26,1.03-47.86c0.03-1.98,0.05-4.14,0.27-6.12
			l0.01-0.72c0.01-0.38,0.02-0.75,0.03-1.13l113.5-51.48C2755.01,1228.14,2761.55,1319.62,2700.53,1396.08z"/>
		<path style="fill:#D68D5D;" d="M2702.69,997c0,0,0.63,10.36,4.12,28.17c27.21-8.79,39.55-33.37,43.67-43.79
			c1.17-2.94,1.68-4.77,1.68-4.77s-1.06-0.23-2.88-0.61c-3.82-0.81-11.03-2.34-18.73-3.97L2702.69,997z"/>
		<path style="fill:#E49963;" d="M2691.68,996.72c0,0,59.78,6.74,63.4-30.55c3.62-37.29,13.78-61.53-24.23-67.42
			c-38.01-5.88-46.82,7.63-51.06,19.78C2675.55,930.69,2676.22,994.01,2691.68,996.72z"/>
		<path style="fill:#2B478B;" d="M2754.82,968.75c0,0-3.79-49.5-58.2-54.63c-37.27-3.51-16.49-35.59-12.52-40.71
			c0,0,28.55,3.92,57.82,8.75C2803.36,892.32,2760.85,961.04,2754.82,968.75z"/>
		<g>
			
				<rect x="2437.85" y="1188.36" transform="matrix(0.9511 -0.309 0.309 0.9511 -270.037 815.9176)" style="fill:#4A75CB;" width="5.5" height="144.06"/>
			
				<rect x="2460.13" y="1319.09" transform="matrix(0.9998 -0.0214 0.0214 0.9998 -27.6889 54.4551)" style="fill:#4A75CB;" width="151.17" height="9.04"/>
		</g>
		<g>
			<path style="fill:#E49963;" d="M2594.95,1309.26c0,0-23.46,8.88-39.32,5.96c-15.86-2.92-41.43,7.6-45.07,13.67
				c-3.63,6.07-1.83,8.12,5.98,9.21c7.81,1.09,35.97,9.58,52.91,0.98c16.94-8.6,39.96-11.4,39.96-11.4L2594.95,1309.26z"/>
			<path style="fill:#739AF0;" d="M2780.36,1076.38c0,0-5.74,195.78-48.74,218.03c-21.21,10.98-117.01,41.15-145.77,46.31
				c0,0-7.74-4.97-8.61-28.6c0,0,98.43-49.05,110.74-71.16c18.31-32.9-27.29-123.07-3.24-154.72
				C2708.79,1054.58,2753.28,1037.19,2780.36,1076.38z"/>
		</g>
	</g>
	<path style="fill:#202F4E;" d="M3441.83,1865.37H377.21c-1.64,0-2.99-1.35-2.99-2.99l0,0c0-1.64,1.35-2.99,2.99-2.99h3064.62
		c1.64,0,2.99,1.35,2.99,2.99l0,0C3444.82,1864.02,3443.47,1865.37,3441.83,1865.37z"/>
</g>
</svg>
