<?xml version="1.0" encoding="utf-8"?>
<!-- Generator: Adobe Illustrator 26.3.1, SVG Export Plug-In . SVG Version: 6.00 Build 0)  -->
<svg version="1.1" xmlns="http://www.w3.org/2000/svg" xmlns:xlink="http://www.w3.org/1999/xlink" x="0px" y="0px"
	 viewBox="0 0 674.78 451.03" style="enable-background:new 0 0 674.78 451.03;" xml:space="preserve">
<g id="Background_Complete">
	<g>
		<g>
			<g>
				<g>
					<g>
						<g>
							<g>
								<g>
									<path style="fill-rule:evenodd;clip-rule:evenodd;fill:#E0E0E0;" d="M247.41,337.85c3.38,0.42,6.65,1.3,9.72,2.57
										l7.15-5.99l12.28,9.34l-3.87,8.48c2.04,2.63,3.76,5.54,5.07,8.69l9.29,0.82l2.07,15.29l-8.73,3.26
										c-0.42,3.38-1.3,6.65-2.57,9.72l5.99,7.15l-9.34,12.27l-8.48-3.87c-2.63,2.04-5.54,3.76-8.69,5.07l-0.82,9.28l-15.29,2.08
										l-3.26-8.73c-3.38-0.42-6.65-1.3-9.72-2.57l-7.15,5.99l-12.28-9.34l3.87-8.48c-2.04-2.63-3.76-5.54-5.07-8.69l-9.28-0.82
										l-2.07-15.29l8.73-3.26c0.42-3.38,1.3-6.65,2.57-9.72l-5.99-7.15l9.34-12.27l8.49,3.87c2.63-2.04,5.54-3.76,8.69-5.07
										l0.82-9.28l15.29-2.07L247.41,337.85L247.41,337.85z M242.83,358.93c-10.51,0.38-17.99,10.2-15.55,20.43
										c1.8,7.57,8.85,12.94,16.63,12.65c10.51-0.38,17.98-10.2,15.54-20.43C257.65,364.02,250.61,358.65,242.83,358.93z"/>
								</g>
							</g>
						</g>
					</g>
				</g>
			</g>
		</g>
	</g>
	<g>
		<g>
			<path style="fill:#E0E0E0;" d="M84.94,113.88V69.46c24.37,0,44.42,20.05,44.42,44.42c0,24.37-20.05,44.42-44.42,44.42
				c-23.98,0-43.86-19.42-44.41-43.4L84.94,113.88z"/>
		</g>
		<g>
			<path style="fill:#F5F5F5;" d="M74.11,101.91l-44.42,1c0-11.57,4.52-23.69,12.59-31.98c8.07-8.29,19.58-13.11,31.15-13.43
				L74.11,101.91z"/>
		</g>
	</g>
	<g>
		<g>
			<g>
				<g>
					<g>
						<g>
							<g>
								<g>
									<path style="fill-rule:evenodd;clip-rule:evenodd;fill:#E0E0E0;" d="M573.83,8.73c3.38,0.42,6.65,1.3,9.72,2.57l7.15-5.99
										l12.28,9.34l-3.87,8.48c2.04,2.63,3.76,5.54,5.07,8.69l9.29,0.82l2.07,15.29l-8.73,3.26c-0.42,3.38-1.3,6.65-2.57,9.72
										l5.99,7.15l-9.34,12.27l-8.48-3.87c-2.63,2.04-5.54,3.76-8.69,5.07l-0.82,9.28l-15.29,2.08l-3.26-8.73
										c-3.38-0.42-6.65-1.3-9.72-2.57l-7.15,5.99l-12.28-9.34l3.87-8.48c-2.04-2.63-3.76-5.54-5.07-8.69l-9.28-0.82l-2.07-15.29
										l8.73-3.26c0.42-3.38,1.3-6.65,2.57-9.72l-5.99-7.15l9.34-12.27l8.49,3.87c2.63-2.04,5.54-3.76,8.69-5.07l0.82-9.28
										L570.57,0L573.83,8.73L573.83,8.73z M569.25,29.81c-10.51,0.38-17.99,10.2-15.55,20.43c1.8,7.57,8.85,12.94,16.63,12.65
										c10.51-0.38,17.98-10.2,15.54-20.43C584.07,34.9,577.03,29.53,569.25,29.81z"/>
								</g>
							</g>
						</g>
					</g>
				</g>
			</g>
		</g>
	</g>
</g>
<g id="Background_Simple" style="display:none;">
	<path style="display:inline;fill:#EBEBEB;" d="M639.13,64.55c-25.48-32.24-65.97-53.41-107-51.27
		c-41.04,2.14-80.8,29.67-93.18,68.85c-4.78,15.13-5.57,31.2-8.79,46.73c-3.22,15.53-9.53,31.41-22.29,40.83
		c-11.78,8.69-27.27,10.56-41.89,9.89s-29.13-3.59-43.76-3.25c-35.55,0.82-69.86,22.5-85.85,54.26
		c-16,31.76-12.99,72.23,7.52,101.28l3.55,5.36c37.98,59.64,107.34,75.25,150.68,74.15c43.95-1.11,93.08-8.83,133.76-25.5
		c40.68-16.66,73.96-48.16,100.33-83.33c26.36-35.15,41.3-78.65,42.51-122.57C675.83,138.91,664.6,96.79,639.13,64.55z"/>
	<path style="display:inline;fill:#EBEBEB;" d="M200.29,72.59c-0.43-14.75-7.68-28.95-16.55-40.74
		c-17.76-23.61-49.95-26.64-75.41-25.7l1.53,0.07C71.03,4.41,46.74,37.46,40.72,63.84c-6.03,26.38,5.47,54.61,24.54,73.8
		c14.73,14.82,34.53,25.33,55.41,25.95c22.57,0.67,44.76-10.56,59.13-27.97C194.17,118.21,200.94,95.16,200.29,72.59z"/>
</g>
<g id="Floor">
	<g>
		<g>
			<path style="fill:#263238;" d="M671.53,435.55c0,0.14-150.34,0.26-335.75,0.26C150.31,435.81,0,435.7,0,435.55
				s150.31-0.26,335.78-0.26C521.19,435.29,671.53,435.41,671.53,435.55z"/>
		</g>
	</g>
</g>
<g id="Nuts">
	<g>
		<g>
			<g>
				<g>
					<g>
						<g>
							<path style="fill-rule:evenodd;clip-rule:evenodd;fill:#E8505B;" d="M110.3,221.15c2.82,1.47,5.4,3.3,7.68,5.41l8.21-2.92
								l7.71,12.17l-6.14,6.17c0.94,2.97,1.49,6.07,1.61,9.26l7.87,3.73l-3.16,14.06l-8.71,0.02c-1.47,2.82-3.3,5.4-5.41,7.68
								l2.92,8.21l-12.17,7.71l-6.17-6.14c-2.97,0.94-6.07,1.49-9.26,1.61l-3.73,7.87l-14.06-3.15l-0.02-8.71
								c-2.82-1.47-5.4-3.3-7.68-5.41l-8.21,2.92l-7.71-12.17l6.15-6.17c-0.94-2.97-1.49-6.07-1.61-9.25l-7.86-3.74l3.15-14.06
								l8.71-0.02c1.47-2.82,3.3-5.4,5.41-7.68l-2.92-8.21l12.17-7.71l6.17,6.15c2.97-0.94,6.07-1.49,9.26-1.61l3.73-7.86
								l14.06,3.15L110.3,221.15L110.3,221.15z M97.9,237.7c-8.33-1.87-16.6,3.37-18.47,11.7c-1.87,8.33,3.37,16.6,11.7,18.47
								c8.33,1.87,16.6-3.37,18.47-11.7C111.47,247.83,106.23,239.57,97.9,237.7z"/>
						</g>
					</g>
				</g>
			</g>
			<g style="opacity:0.8;">
				<g>
					<g>
						<g>
							<path style="fill-rule:evenodd;clip-rule:evenodd;fill:#FFFFFF;" d="M110.3,221.15c2.82,1.47,5.4,3.3,7.68,5.41l8.21-2.92
								l7.71,12.17l-6.14,6.17c0.94,2.97,1.49,6.07,1.61,9.26l7.87,3.73l-3.16,14.06l-8.71,0.02c-1.47,2.82-3.3,5.4-5.41,7.68
								l2.92,8.21l-12.17,7.71l-6.17-6.14c-2.97,0.94-6.07,1.49-9.26,1.61l-3.73,7.87l-14.06-3.15l-0.02-8.71
								c-2.82-1.47-5.4-3.3-7.68-5.41l-8.21,2.92l-7.71-12.17l6.15-6.17c-0.94-2.97-1.49-6.07-1.61-9.25l-7.86-3.74l3.15-14.06
								l8.71-0.02c1.47-2.82,3.3-5.4,5.41-7.68l-2.92-8.21l12.17-7.71l6.17,6.15c2.97-0.94,6.07-1.49,9.26-1.61l3.73-7.86
								l14.06,3.15L110.3,221.15L110.3,221.15z M97.9,237.7c-8.33-1.87-16.6,3.37-18.47,11.7c-1.87,8.33,3.37,16.6,11.7,18.47
								c8.33,1.87,16.6-3.37,18.47-11.7C111.47,247.83,106.23,239.57,97.9,237.7z"/>
						</g>
					</g>
				</g>
			</g>
		</g>
		<g>
			<g>
				<g>
					<g>
						<g>
							<g>
								<path style="fill:#263238;" d="M122.8,347.55c0,0,1.26,0.09,3.31,1.03c2,0.93,4.84,2.97,6.59,6.67
									c0.85,1.83,1.43,4.04,1.34,6.44c-0.1,2.38-0.74,4.95-2.22,7.22c-0.71,1.15-1.62,2.21-2.69,3.13
									c-1.06,0.94-2.28,1.73-3.64,2.31c-2.68,1.22-5.86,1.54-8.9,0.88c-3.04-0.71-5.78-2.35-7.68-4.6
									c-0.97-1.1-1.75-2.34-2.3-3.64c-0.57-1.29-0.95-2.64-1.1-3.98c-0.37-2.68,0.16-5.28,1.08-7.48
									c0.94-2.21,2.42-3.96,3.97-5.25c3.17-2.6,6.6-3.23,8.8-3.21C121.62,347.09,122.8,347.55,122.8,347.55
									c-0.01,0.1-1.22-0.24-3.42-0.16c-2.16,0.08-5.46,0.79-8.45,3.34c-1.47,1.27-2.85,2.96-3.72,5.08
									c-0.85,2.1-1.33,4.58-0.96,7.12c0.15,1.27,0.51,2.54,1.06,3.76c0.53,1.23,1.27,2.4,2.19,3.43c1.81,2.12,4.39,3.66,7.26,4.33
									c2.88,0.62,5.88,0.33,8.41-0.82c1.28-0.54,2.45-1.28,3.45-2.17c1.02-0.87,1.89-1.86,2.57-2.95
									c1.42-2.14,2.05-4.58,2.17-6.85c0.11-2.28-0.41-4.41-1.2-6.18c-1.62-3.59-4.3-5.63-6.21-6.63
									C124.01,347.86,122.77,347.65,122.8,347.55z"/>
							</g>
						</g>
					</g>
				</g>
			</g>
			<g>
				<g>
					<g>
						<g>
							<g>
								<path style="fill:#263238;" d="M134.01,332.59c-0.01,0.01-0.02-0.16-0.03-0.49c-0.01-0.37-0.02-0.86-0.03-1.49
									c-0.02-1.37-0.05-3.34-0.08-5.89l0.1,0.12c-3.26-0.71-7.55-1.65-12.73-2.78l0.23-0.11c-1.01,2.16-2.14,4.56-3.35,7.13
									l-0.06,0.13l-0.14,0.01c-2.65,0.11-5.46,0.57-8.3,1.47l-0.15,0.05l-0.11-0.11c-1.75-1.73-3.63-3.6-5.6-5.54l0.35,0.04
									c-3.46,2.21-7.14,4.54-10.99,7l0.13-0.37c0.82,2.3,1.73,4.83,2.66,7.42l0.07,0.19l-0.14,0.15
									c-1.78,1.92-3.48,4.27-4.83,6.88l-0.1,0.19l-0.21,0c-2.44,0.01-5.13,0.02-7.87,0.03l0.35-0.28c-0.89,4-1.85,8.31-2.84,12.72
									l-0.2-0.42c2.22,1.05,4.65,2.2,7.12,3.37l0.21,0.1l0.01,0.23c0.1,2.63,0.57,5.49,1.45,8.27l0.07,0.22l-0.17,0.17
									c-1.74,1.75-3.64,3.66-5.56,5.59l0.05-0.49c2.21,3.49,4.58,7.22,6.98,11.01l-0.47-0.16c2.34-0.84,4.87-1.74,7.42-2.64
									l0.23-0.08l0.18,0.17c1.96,1.81,4.3,3.5,6.85,4.83l0,0l0,0c0.1,0.16-0.21-0.35,0.22,0.36v0.01v0.02l0,0.03v0.06l0,0.12
									l0,0.25l0,0.5l0,0.99l0,1.97c0,1.31,0.01,2.62,0.01,3.93l-0.31-0.39c4.3,0.97,8.54,1.92,12.72,2.86l-0.45,0.22
									c1.14-2.39,2.26-4.77,3.38-7.11l0.1-0.22l0.24-0.01c2.84-0.11,5.63-0.6,8.27-1.43l0.22-0.07l0.17,0.17
									c1.89,1.88,3.74,3.73,5.58,5.56l-0.47-0.05c3.76-2.38,7.43-4.7,11.02-6.96l-0.15,0.44c-0.89-2.52-1.77-4.99-2.63-7.43
									l-0.07-0.21l0.15-0.16c1.95-2.1,3.58-4.43,4.85-6.86l0.1-0.19l0.21,0c2.7,0,5.32,0,7.87,0l-0.32,0.26
									c1.01-4.47,1.97-8.69,2.88-12.71l0.17,0.34c-2.5-1.19-4.84-2.32-7.11-3.4l-0.16-0.08l-0.01-0.17
									c-0.11-3.01-0.63-5.77-1.42-8.3l-0.05-0.15l0.11-0.11c2.03-2.02,3.85-3.84,5.58-5.56l-0.03,0.29
									c-2.68-4.28-4.97-7.92-6.93-11.04l0.21,0.07c-2.97,1.04-5.41,1.89-7.44,2.59l-0.07,0.03l-0.06-0.05
									c-2.09-1.95-3.87-3.14-5.06-3.9c-0.58-0.35-1.03-0.62-1.35-0.82C134.14,332.68,134,332.59,134.01,332.59
									c0.01-0.01,0.17,0.07,0.48,0.22c0.31,0.16,0.78,0.4,1.39,0.76c1.22,0.72,3.03,1.88,5.16,3.82l-0.13-0.03
									c2.02-0.73,4.45-1.62,7.4-2.69l0.13-0.05l0.08,0.12c1.98,3.1,4.3,6.73,7.02,10.98l0.1,0.16l-0.13,0.14
									c-1.71,1.73-3.53,3.57-5.54,5.6l0.06-0.27c0.82,2.57,1.37,5.38,1.49,8.44l-0.16-0.25c2.27,1.07,4.62,2.18,7.12,3.36
									l0.22,0.1l-0.05,0.24c-0.89,4.02-1.83,8.25-2.83,12.72l-0.06,0.26l-0.27,0c-2.56,0.01-5.17,0.02-7.87,0.03l0.31-0.19
									c-1.29,2.49-2.95,4.87-4.94,7.03l0.08-0.36c0.87,2.43,1.75,4.9,2.65,7.42l0.1,0.28l-0.25,0.16c-3.58,2.27-7.25,4.6-11,6.99
									l-0.26,0.16l-0.22-0.22c-1.84-1.83-3.7-3.68-5.59-5.55l0.39,0.1c-2.71,0.86-5.56,1.37-8.47,1.48l0.34-0.22
									c-1.11,2.35-2.24,4.72-3.37,7.12l-0.14,0.29l-0.31-0.07c-4.18-0.94-8.42-1.89-12.72-2.85l-0.31-0.07l0-0.32
									c0-1.3-0.01-2.61-0.01-3.93l0-1.98l0-0.99l0-0.5l0-0.25l0-0.12l0-0.06v-0.03v-0.02v-0.01c0.43,0.71,0.12,0.2,0.21,0.35l0,0
									l0,0c-2.62-1.36-5.02-3.09-7.03-4.95l0.41,0.08c-2.55,0.91-5.08,1.81-7.42,2.64l-0.3,0.11l-0.17-0.27
									c-2.4-3.79-4.76-7.53-6.97-11.01l-0.17-0.27l0.22-0.22c1.92-1.93,3.82-3.83,5.56-5.58l-0.09,0.39
									c-0.9-2.85-1.37-5.78-1.47-8.47l0.22,0.33c-2.46-1.17-4.9-2.33-7.11-3.39l-0.27-0.13l0.07-0.29c1-4.41,1.97-8.72,2.87-12.72
									l0.06-0.28l0.29,0c2.74,0,5.43,0,7.87,0l-0.31,0.19c1.39-2.67,3.14-5.06,4.96-7.01l-0.07,0.34
									c-0.92-2.6-1.81-5.13-2.63-7.43l-0.08-0.24l0.21-0.13c3.87-2.44,7.55-4.76,11.03-6.95l0.19-0.12l0.16,0.16
									c1.95,1.96,3.83,3.84,5.57,5.58l-0.26-0.06c2.89-0.9,5.76-1.35,8.44-1.44l-0.2,0.13c1.23-2.56,2.37-4.95,3.41-7.1l0.07-0.15
									l0.16,0.04c5.17,1.19,9.45,2.18,12.7,2.93l0.1,0.02l0,0.1c-0.02,2.53-0.04,4.49-0.05,5.84c-0.01,0.64-0.02,1.14-0.03,1.51
									C134.03,332.4,134.02,332.58,134.01,332.59z"/>
							</g>
						</g>
					</g>
				</g>
			</g>
		</g>
		<g>
			<g>
				<g>
					<g>
						<g>
							<path style="fill-rule:evenodd;clip-rule:evenodd;fill:#E8505B;" d="M59.45,303.98c1.64,0.86,3.14,1.92,4.47,3.15l4.78-1.7
								l4.49,7.09l-3.58,3.59c0.54,1.73,0.87,3.54,0.94,5.39l4.58,2.17l-1.84,8.18l-5.07,0.01c-0.86,1.64-1.92,3.14-3.15,4.47
								l1.7,4.78l-7.09,4.49l-3.59-3.58c-1.73,0.54-3.54,0.87-5.39,0.94l-2.17,4.58l-8.19-1.84l-0.01-5.07
								c-1.64-0.86-3.14-1.92-4.47-3.15l-4.78,1.7l-4.49-7.09l3.58-3.59c-0.54-1.73-0.87-3.54-0.94-5.39l-4.58-2.17l1.84-8.19
								l5.07-0.01c0.86-1.64,1.92-3.14,3.15-4.47l-1.7-4.78l7.09-4.49l3.59,3.58c1.73-0.54,3.54-0.87,5.39-0.94l2.17-4.58l8.18,1.84
								L59.45,303.98L59.45,303.98z M52.24,313.62c-4.85-1.09-9.66,1.96-10.75,6.81c-1.09,4.85,1.96,9.66,6.81,10.75
								c4.85,1.09,9.66-1.96,10.75-6.81C60.13,319.52,57.09,314.7,52.24,313.62z"/>
						</g>
					</g>
				</g>
			</g>
			<g style="opacity:0.4;">
				<g>
					<g>
						<g>
							<path style="fill-rule:evenodd;clip-rule:evenodd;fill:#FFFFFF;" d="M59.45,303.98c1.64,0.86,3.14,1.92,4.47,3.15l4.78-1.7
								l4.49,7.09l-3.58,3.59c0.54,1.73,0.87,3.54,0.94,5.39l4.58,2.17l-1.84,8.18l-5.07,0.01c-0.86,1.64-1.92,3.14-3.15,4.47
								l1.7,4.78l-7.09,4.49l-3.59-3.58c-1.73,0.54-3.54,0.87-5.39,0.94l-2.17,4.58l-8.19-1.84l-0.01-5.07
								c-1.64-0.86-3.14-1.92-4.47-3.15l-4.78,1.7l-4.49-7.09l3.58-3.59c-0.54-1.73-0.87-3.54-0.94-5.39l-4.58-2.17l1.84-8.19
								l5.07-0.01c0.86-1.64,1.92-3.14,3.15-4.47l-1.7-4.78l7.09-4.49l3.59,3.58c1.73-0.54,3.54-0.87,5.39-0.94l2.17-4.58l8.18,1.84
								L59.45,303.98L59.45,303.98z M52.24,313.62c-4.85-1.09-9.66,1.96-10.75,6.81c-1.09,4.85,1.96,9.66,6.81,10.75
								c4.85,1.09,9.66-1.96,10.75-6.81C60.13,319.52,57.09,314.7,52.24,313.62z"/>
						</g>
					</g>
				</g>
			</g>
		</g>
	</g>
	<g>
		<g>
			<g>
				<g>
					<g>
						<g>
							<g>
								<g>
									<path style="fill-rule:evenodd;clip-rule:evenodd;fill:#263238;" d="M585.56,162.31c2.32,0.29,4.56,0.89,6.67,1.76
										l4.9-4.11l8.42,6.41l-2.65,5.82c1.4,1.8,2.58,3.8,3.48,5.96l6.37,0.56l1.42,10.49l-5.99,2.24
										c-0.29,2.32-0.89,4.56-1.76,6.67l4.11,4.91l-6.41,8.42l-5.82-2.65c-1.8,1.4-3.8,2.58-5.96,3.48l-0.56,6.37l-10.49,1.42
										l-2.24-5.99c-2.32-0.29-4.56-0.89-6.67-1.76l-4.91,4.11l-8.42-6.41l2.66-5.82c-1.4-1.8-2.58-3.8-3.48-5.96l-6.37-0.56
										l-1.42-10.49l5.99-2.24c0.29-2.32,0.89-4.56,1.76-6.67l-4.11-4.91l6.41-8.42l5.82,2.65c1.8-1.4,3.8-2.58,5.96-3.48
										l0.56-6.37l10.49-1.42L585.56,162.31L585.56,162.31z M582.41,176.78c-7.22,0.26-12.35,7-10.67,14.02
										c1.24,5.2,6.08,8.88,11.41,8.68c7.21-0.26,12.34-7,10.67-14.02C592.59,180.27,587.75,176.59,582.41,176.78z"/>
								</g>
							</g>
						</g>
					</g>
				</g>
			</g>
		</g>
	</g>
	<g>
		<g>
			<g>
				<g>
					<g>
						<g>
							<g>
								<g>
									<g>
										<g>
											<path style="fill:#263238;" d="M626.65,99.54c0,0,1.19-0.35,3.39-0.18c2.16,0.17,5.46,1.08,8.33,3.88
												c1.41,1.39,2.7,3.23,3.43,5.46c0.72,2.22,1.01,4.8,0.43,7.39c-0.26,1.3-0.74,2.58-1.4,3.79
												c-0.65,1.22-1.51,2.37-2.55,3.36c-2.05,2.03-4.86,3.41-7.88,3.85c-3.03,0.39-6.11-0.19-8.63-1.61
												c-1.27-0.68-2.41-1.55-3.36-2.56c-0.97-0.99-1.77-2.1-2.37-3.28c-1.26-2.34-1.66-4.91-1.56-7.24
												c0.11-2.35,0.87-4.46,1.86-6.18c2.02-3.47,4.96-5.22,7-5.96C625.41,99.52,626.65,99.54,626.65,99.54
												c0.02,0.1-1.21,0.19-3.2,1.02c-1.96,0.81-4.75,2.58-6.63,5.95c-0.92,1.67-1.61,3.7-1.69,5.94
												c-0.07,2.22,0.34,4.66,1.55,6.87c0.57,1.12,1.34,2.16,2.26,3.09c0.91,0.95,1.98,1.77,3.19,2.41
												c2.38,1.33,5.29,1.87,8.15,1.5c2.86-0.42,5.51-1.71,7.45-3.62c0.99-0.93,1.81-2.02,2.43-3.17
												c0.64-1.14,1.1-2.36,1.35-3.59c0.58-2.45,0.32-4.91-0.34-7.04c-0.67-2.14-1.88-3.91-3.21-5.27
												c-2.71-2.74-5.87-3.71-7.97-3.97C627.86,99.41,626.66,99.64,626.65,99.54z"/>
										</g>
									</g>
								</g>
							</g>
						</g>
					</g>
				</g>
			</g>
			<g>
				<g>
					<g>
						<g>
							<g>
								<g>
									<g>
										<g>
											<path style="fill:#263238;" d="M631.85,81.96c-0.01,0.01-0.07-0.14-0.2-0.44c-0.13-0.33-0.31-0.78-0.54-1.36
												c-0.48-1.25-1.18-3.05-2.09-5.39l0.13,0.08c-3.24,0.46-7.5,1.06-12.65,1.79l0.17-0.18c-0.2,2.33-0.41,4.92-0.65,7.69
												l-0.01,0.14l-0.13,0.05c-2.39,1.01-4.83,2.39-7.13,4.19l-0.12,0.1l-0.14-0.06c-2.19-0.99-4.57-2.07-7.04-3.18l0.34-0.09
												c-2.43,3.21-5.01,6.61-7.72,10.19l-0.01-0.39c1.54,1.83,3.24,3.85,4.97,5.91l0.13,0.15l-0.08,0.18
												c-0.98,2.37-1.74,5.11-2.09,7.97l-0.02,0.2l-0.19,0.07c-2.24,0.84-4.71,1.77-7.23,2.71l0.22-0.38
												c0.54,3.98,1.13,8.27,1.73,12.66l-0.33-0.32c2.4,0.21,5.03,0.44,7.69,0.67l0.23,0.02l0.09,0.21
												c0.99,2.38,2.39,4.86,4.15,7.11l0.14,0.18l-0.1,0.21c-1,2.2-2.1,4.6-3.2,7.03l-0.12-0.47c3.22,2.45,6.67,5.07,10.17,7.74
												l-0.49,0.01c1.87-1.57,3.89-3.26,5.92-4.96l0.18-0.15l0.22,0.09c2.42,1,5.14,1.75,7.95,2.1l0,0l0,0
												c0.14,0.11-0.32-0.25,0.32,0.25l0,0.01l0.01,0.01l0.01,0.03l0.02,0.06l0.04,0.11l0.09,0.23l0.17,0.46l0.34,0.91
												l0.68,1.81c0.45,1.21,0.9,2.41,1.35,3.61l-0.42-0.25c4.28-0.58,8.5-1.15,12.67-1.72l-0.34,0.35
												c0.23-2.59,0.46-5.15,0.68-7.69l0.02-0.23l0.22-0.09c2.57-1.07,4.97-2.47,7.11-4.14l0.18-0.14l0.21,0.1
												c2.38,1.09,4.72,2.15,7.03,3.21l-0.45,0.11c2.65-3.47,5.23-6.86,7.75-10.16l0.01,0.45c-1.68-2.01-3.33-3.99-4.95-5.93
												l-0.14-0.16l0.08-0.2c1.08-2.6,1.78-5.29,2.12-7.96l0.03-0.21l0.19-0.07c2.48-0.92,4.89-1.82,7.24-2.69l-0.21,0.35
												c-0.59-4.46-1.16-8.66-1.69-12.67l0.27,0.26c-2.7-0.24-5.24-0.47-7.69-0.7l-0.17-0.02l-0.07-0.16
												c-1.13-2.72-2.55-5.09-4.14-7.15l-0.1-0.12l0.07-0.14c1.17-2.55,2.23-4.85,3.23-7.02l0.07,0.28
												c-3.93-3.02-7.27-5.59-10.14-7.79l0.22-0.01c-2.38,1.97-4.33,3.58-5.95,4.92l-0.06,0.05l-0.07-0.03
												c-2.59-1.08-4.63-1.57-5.98-1.86c-0.65-0.12-1.16-0.22-1.52-0.29C632,82,631.84,81.97,631.85,81.96
												c0.01-0.01,0.18,0,0.51,0.04c0.34,0.04,0.86,0.1,1.54,0.23c1.36,0.25,3.42,0.69,6.05,1.75l-0.13,0.02
												c1.61-1.36,3.54-3,5.89-5l0.11-0.09l0.11,0.09c2.88,2.17,6.25,4.71,10.2,7.7l0.15,0.11l-0.08,0.17
												c-0.98,2.18-2.02,4.48-3.18,7.04L653,93.73c1.63,2.08,3.09,4.48,4.25,7.25l-0.24-0.17c2.45,0.21,4.99,0.43,7.69,0.66
												l0.24,0.02l0.03,0.24c0.55,4,1.13,8.21,1.74,12.66l0.04,0.26l-0.25,0.09c-2.35,0.88-4.75,1.78-7.23,2.72l0.22-0.28
												c-0.34,2.73-1.05,5.49-2.14,8.15l-0.06-0.36c1.63,1.94,3.28,3.91,4.97,5.91l0.19,0.22l-0.18,0.23
												c-2.51,3.31-5.09,6.7-7.73,10.18l-0.18,0.24l-0.27-0.12c-2.31-1.05-4.65-2.12-7.03-3.2l0.39-0.05
												c-2.2,1.71-4.65,3.15-7.28,4.25l0.24-0.32c-0.22,2.54-0.45,5.1-0.67,7.69l-0.03,0.31l-0.31,0.04
												c-4.16,0.57-8.39,1.14-12.67,1.72l-0.31,0.04l-0.11-0.29c-0.45-1.2-0.9-2.4-1.35-3.61l-0.68-1.81l-0.34-0.91l-0.17-0.46
												l-0.09-0.23l-0.04-0.11l-0.02-0.06l-0.01-0.03l-0.01-0.01l0-0.01c0.64,0.5,0.18,0.14,0.32,0.25l0,0l0,0
												c-2.88-0.36-5.67-1.13-8.15-2.15l0.4-0.06c-2.03,1.7-4.05,3.39-5.92,4.96l-0.24,0.2l-0.25-0.19
												c-3.5-2.66-6.95-5.29-10.17-7.74l-0.25-0.19l0.13-0.28c1.11-2.43,2.2-4.83,3.21-7.03l0.05,0.39
												c-1.8-2.31-3.23-4.85-4.24-7.29l0.31,0.23c-2.66-0.24-5.3-0.47-7.69-0.69l-0.29-0.03l-0.04-0.29
												c-0.59-4.4-1.17-8.69-1.7-12.67l-0.04-0.28l0.26-0.1c2.52-0.94,4.99-1.86,7.24-2.69l-0.22,0.28
												c0.37-2.93,1.16-5.72,2.16-8.14l0.05,0.33c-1.73-2.07-3.42-4.09-4.95-5.93l-0.16-0.19l0.15-0.2
												c2.72-3.56,5.32-6.95,7.76-10.15l0.14-0.18l0.2,0.09c2.46,1.13,4.83,2.22,7.02,3.22l-0.27,0.03
												c2.35-1.82,4.83-3.2,7.27-4.21l-0.14,0.19c0.26-2.77,0.49-5.36,0.71-7.69l0.01-0.16l0.16-0.02
												c5.16-0.67,9.43-1.22,12.67-1.64l0.1-0.01l0.03,0.09c0.84,2.34,1.49,4.14,1.94,5.39c0.21,0.6,0.37,1.06,0.49,1.4
												C631.8,81.78,631.86,81.95,631.85,81.96z"/>
										</g>
									</g>
								</g>
							</g>
						</g>
					</g>
				</g>
			</g>
		</g>
	</g>
</g>
<g id="Screen">
	<g>
		<g>
			<g>
				<g>
					<rect x="117.76" y="43.35" style="fill:#FAFAFA;" width="460.04" height="318.02"/>
				</g>
				<g>
					<g>
						<path style="fill:#263238;" d="M577.8,361.38c0-1.72-0.08-124.55-0.21-318.02l0.21,0.21c-127.57,0.01-287.21,0.03-460,0.05
							h-0.04l0.26-0.26c-0.01,113.6-0.02,221.5-0.02,318.02l-0.24-0.24C389.26,361.28,575.68,361.38,577.8,361.38
							c-2.11,0-188.54,0.1-460.04,0.24l-0.24,0v-0.24c-0.01-96.52-0.01-204.43-0.02-318.02v-0.26h0.26h0.04
							c172.79,0.02,332.43,0.04,460,0.05h0.21l0,0.21C577.88,236.83,577.8,359.66,577.8,361.38z"/>
					</g>
				</g>
			</g>
			<g>
				<rect x="117.76" y="43.35" style="fill:#263238;" width="460.04" height="18.45"/>
			</g>
			<g>
				<path style="fill:#FFFFFF;" d="M130.89,52.23c0,1.56-1.27,2.83-2.83,2.83c-1.56,0-2.83-1.27-2.83-2.83
					c0-1.56,1.27-2.83,2.83-2.83C129.62,49.4,130.89,50.67,130.89,52.23z"/>
			</g>
			<g>
				<path style="fill:#FFFFFF;" d="M141.11,52.23c0,1.56-1.27,2.83-2.83,2.83c-1.56,0-2.83-1.27-2.83-2.83
					c0-1.56,1.27-2.83,2.83-2.83C139.84,49.4,141.11,50.67,141.11,52.23z"/>
			</g>
			<g>
				<path style="fill:#FFFFFF;" d="M151.33,52.23c0,1.56-1.27,2.83-2.83,2.83c-1.56,0-2.83-1.27-2.83-2.83
					c0-1.56,1.27-2.83,2.83-2.83C150.06,49.4,151.33,50.67,151.33,52.23z"/>
			</g>
		</g>
		<g>
			<g>
				<g>
					<path style="fill:#E0E0E0;" d="M561.34,341.39c0-1.15-0.06-37.97-0.15-103.3l0.15,0.15c-94.89,0.02-249.88,0.06-424.7,0.11
						h-0.03l0.26-0.26c0,35.39,0,69.96,0,103.3l-0.26-0.26C378.81,341.28,558.81,341.39,561.34,341.39
						c-2.53,0-182.53,0.11-424.72,0.26l-0.26,0v-0.26c0-33.34,0-67.91-0.01-103.3v-0.26h0.26h0.03
						c174.82,0.04,329.8,0.08,424.7,0.11h0.15l0,0.15C561.4,303.42,561.34,340.24,561.34,341.39z"/>
				</g>
			</g>
			<g>
				<g>
					<g>
						<path style="fill:#E0E0E0;" d="M342.92,229.42c0,0-0.02-0.9-0.02-2.63c-0.01-1.73-0.01-4.3-0.02-7.65
							c-0.01-6.7-0.03-16.54-0.05-29.13c-0.03-25.16-0.06-61.28-0.11-105.2l0.21,0.21c-57.17,0.01-128.35,0.03-205.33,0.05h-0.02
							l0.26-0.26c-0.01,51.73-0.02,100.83-0.02,144.6l-0.24-0.24c60.63,0.05,111.93,0.09,148.09,0.12
							c18.09,0.03,32.39,0.05,42.18,0.06c4.89,0.01,8.65,0.02,11.2,0.03c1.27,0.01,2.23,0.01,2.89,0.01
							C342.58,229.41,342.92,229.42,342.92,229.42s-0.32,0.01-0.96,0.01c-0.65,0-1.6,0.01-2.86,0.01
							c-2.54,0.01-6.28,0.02-11.15,0.03c-9.77,0.01-24.06,0.04-42.13,0.06c-36.2,0.03-87.56,0.07-148.25,0.12l-0.24,0l0-0.24
							c-0.01-43.77-0.01-92.87-0.02-144.6v-0.26h0.26h0.02c76.98,0.02,148.17,0.04,205.33,0.05h0.21l0,0.21
							c-0.05,43.97-0.08,80.14-0.11,105.33c-0.02,12.57-0.04,22.39-0.05,29.08c-0.01,3.33-0.02,5.88-0.02,7.61
							C342.93,228.55,342.92,229.42,342.92,229.42z"/>
					</g>
				</g>
				<g>
					<path style="fill:#E8505B;" d="M159.77,202.07l14.79-21.39c3.01-4.35,9-5.4,13.3-2.32l2.08,1.49
						c5.16,3.69,12.42,1.36,14.47-4.64l7.18-21.01c2.92-8.54,15.01-8.54,17.93,0l3.47,10.17c2.79,8.15,14.13,8.65,17.62,0.77
						l3.01-6.8c3.01-6.78,12.29-7.63,16.48-1.51v0c4.4,6.44,14.26,5.1,16.78-2.28l3.36-9.83c3.09-9.03,16.08-8.34,18.2,0.96
						l12.85,56.4C321.3,202.07,160.22,201.62,159.77,202.07z"/>
				</g>
				<g style="opacity:0.3;">
					<path d="M159.77,202.07l14.79-21.39c3.01-4.35,9-5.4,13.3-2.32l2.08,1.49c5.16,3.69,12.42,1.36,14.47-4.64l7.18-21.01
						c2.92-8.54,15.01-8.54,17.93,0l3.47,10.17c2.79,8.15,14.13,8.65,17.62,0.77l3.01-6.8c3.01-6.78,12.29-7.63,16.48-1.51v0
						c4.4,6.44,14.26,5.1,16.78-2.28l3.36-9.83c3.09-9.03,16.08-8.34,18.2,0.96l12.85,56.4
						C321.3,202.07,160.22,201.62,159.77,202.07z"/>
				</g>
				<g>
					<g>
						<g>
							<g>
								<path style="fill:#E8505B;" d="M159.35,202.62l12.02-35.16c2.82-8.24,14.42-8.38,17.43-0.21l5.76,15.58
									c2.49,6.74,11.38,8.19,15.89,2.59l4.66-5.8c3.1-3.85,8.68-4.59,12.67-1.67l10.86,7.94c1.59,1.16,3.5,1.78,5.46,1.78h13.82
									c1.96,0,3.88,0.62,5.46,1.78l10.28,7.52c4.22,3.08,10.15,2.07,13.1-2.25l9.65-14.12c0.12-0.18,0.25-0.35,0.38-0.52
									c3.87-4.9,11.64-3.87,14.45,1.71l10.33,20.48C321.57,202.29,159.35,201.96,159.35,202.62z"/>
							</g>
						</g>
					</g>
				</g>
				<g>
					<path style="fill:#E8505B;" d="M321.52,202.29l-12.56-10.22c-17.22-12.67-25.39,11.44-38.93-6.65l-4.66-5.8
						c-3.1-3.85-8.68-4.59-12.67-1.67l-5.4,3.95c-5.13,3.76-11.33,5.78-17.69,5.78h-7.05c-1.96,0-3.88,0.62-5.46,1.78l-10.28,7.52
						c-4.22,3.08-7.16,3.5-13.91-2.17c0,0-7.33-5.96-7.5-6.17c-3.59-4.37-11.1-4.37-14.33,0c-0.78,1.05-1.59,1.98-2.47,2.95
						l-9.7,10.69C158.91,202.29,321.52,201.63,321.52,202.29z"/>
				</g>
				<g style="opacity:0.3;">
					<path style="fill:#FFFFFF;" d="M321.52,202.29l-12.56-10.22c-17.22-12.67-25.39,11.44-38.93-6.65l-4.66-5.8
						c-3.1-3.85-8.68-4.59-12.67-1.67l-5.4,3.95c-5.13,3.76-11.33,5.78-17.69,5.78h-7.05c-1.96,0-3.88,0.62-5.46,1.78l-10.28,7.52
						c-4.22,3.08-7.16,3.5-13.91-2.17c0,0-7.33-5.96-7.5-6.17c-3.59-4.37-11.1-4.37-14.33,0c-0.78,1.05-1.59,1.98-2.47,2.95
						l-9.7,10.69C158.91,202.29,321.52,201.63,321.52,202.29z"/>
				</g>
				<g>
					<g>
						<path style="fill:#263238;" d="M203.95,121.11c0,0.14-5.75,0.26-12.83,0.26c-7.09,0-12.83-0.12-12.83-0.26
							c0-0.14,5.74-0.26,12.83-0.26C198.21,120.85,203.95,120.97,203.95,121.11z"/>
					</g>
				</g>
				<g>
					<rect x="171.09" y="118.92" style="fill:#E8505B;" width="4.39" height="4.39"/>
				</g>
				<g>
					<g>
						<path style="fill:#263238;" d="M252.37,121.11c0,0.14-5.75,0.26-12.83,0.26c-7.09,0-12.83-0.12-12.83-0.26
							c0-0.14,5.74-0.26,12.83-0.26C246.62,120.85,252.37,120.97,252.37,121.11z"/>
					</g>
				</g>
				<g>
					<rect x="219.51" y="118.92" style="fill:#E8505B;" width="4.39" height="4.39"/>
				</g>
				<g>
					<g>
						<path style="fill:#263238;" d="M300.79,121.11c0,0.14-5.75,0.26-12.83,0.26c-7.09,0-12.83-0.12-12.83-0.26
							c0-0.14,5.74-0.26,12.83-0.26C295.04,120.85,300.79,120.97,300.79,121.11z"/>
					</g>
				</g>
				<g>
					<rect x="267.93" y="118.92" style="fill:#E8505B;" width="4.39" height="4.39"/>
				</g>
			</g>
			<g>
				<g>
					<g>
						<g>
							<path style="fill:#E8505B;" d="M301.42,323.73l10.57-15.07c1.23-1.76,3.67-2.14,5.38-0.85l5.56,4.2
								c1.82,1.37,4.42,0.84,5.56-1.13l16.04-27.78c1.34-2.32,4.6-2.55,6.25-0.45l10.01,12.7c1.62,2.05,4.77,1.89,6.17-0.31
								l7.32-11.5c1.53-2.4,5.05-2.32,6.48,0.14l6.04,10.46c1.42,2.46,4.94,2.54,6.47,0.14l20.66-32.38
								c1.47-2.3,4.82-2.34,6.34-0.07l34.13,51.06c1.37,2.05,4.3,2.26,5.95,0.44l20.74-22.83c1.46-1.6,3.96-1.66,5.49-0.13
								l16.49,16.55c1.76,1.77,4.72,1.38,5.96-0.78l29.51-51.11c1.94-3.36,7.07-1.98,7.07,1.89v66.8H301.42z"/>
						</g>
						<g>
							<g>
								<path style="fill:#263238;" d="M545,332.08c-0.01,0-0.01-0.1-0.02-0.29c0-0.21-0.01-0.51-0.02-0.9
									c-0.01-0.83-0.02-2.05-0.03-3.73l0.07,0.07c-14.1,0.11-63.16,0.19-121.43,0.19c-58.28,0-107.34-0.08-121.44-0.19l0.07-0.07
									c-0.02,1.68-0.03,2.9-0.03,3.73c-0.01,0.39-0.01,0.68-0.02,0.9c-0.01,0.2-0.01,0.29-0.02,0.29c-0.01,0-0.01-0.1-0.02-0.29
									c0-0.21-0.01-0.51-0.02-0.9c-0.01-0.83-0.02-2.05-0.03-3.73l0-0.07l0.07,0c14.1-0.11,63.15-0.19,121.44-0.19
									c58.26,0,107.32,0.08,121.43,0.19l0.07,0l0,0.07c-0.01,1.68-0.03,2.9-0.03,3.73c-0.01,0.39-0.01,0.69-0.02,0.9
									C545.01,331.98,545.01,332.08,545,332.08z"/>
							</g>
						</g>
						<g>
							<g>
								<path style="fill:#263238;" d="M329.12,331.69c-0.14,0-0.26-0.46-0.26-1.03c0-0.57,0.12-1.04,0.26-1.04
									c0.14,0,0.26,0.46,0.26,1.04C329.38,331.22,329.26,331.69,329.12,331.69z"/>
							</g>
						</g>
						<g>
							<g>
								<path style="fill:#263238;" d="M356.11,331.69c-0.14,0-0.26-0.46-0.26-1.03c0-0.57,0.12-1.04,0.26-1.04s0.26,0.46,0.26,1.04
									C356.37,331.22,356.25,331.69,356.11,331.69z"/>
							</g>
						</g>
						<g>
							<g>
								<path style="fill:#263238;" d="M383.09,331.69c-0.14,0-0.26-0.46-0.26-1.03c0-0.57,0.12-1.04,0.26-1.04s0.26,0.46,0.26,1.04
									C383.35,331.22,383.23,331.69,383.09,331.69z"/>
							</g>
						</g>
						<g>
							<g>
								<path style="fill:#263238;" d="M410.08,331.69c-0.14,0-0.26-0.46-0.26-1.03c0-0.57,0.12-1.04,0.26-1.04
									c0.14,0,0.26,0.46,0.26,1.04C410.34,331.22,410.22,331.69,410.08,331.69z"/>
							</g>
						</g>
						<g>
							<g>
								<path style="fill:#263238;" d="M437.06,331.69c-0.14,0-0.26-0.46-0.26-1.03c0-0.57,0.12-1.04,0.26-1.04s0.26,0.46,0.26,1.04
									C437.32,331.22,437.2,331.69,437.06,331.69z"/>
							</g>
						</g>
						<g>
							<g>
								<path style="fill:#263238;" d="M464.05,331.69c-0.14,0-0.26-0.46-0.26-1.03c0-0.57,0.12-1.04,0.26-1.04
									c0.14,0,0.26,0.46,0.26,1.04C464.31,331.22,464.19,331.69,464.05,331.69z"/>
							</g>
						</g>
						<g>
							<g>
								<path style="fill:#263238;" d="M491.03,331.69c-0.14,0-0.26-0.46-0.26-1.03c0-0.57,0.12-1.04,0.26-1.04
									c0.14,0,0.26,0.46,0.26,1.04C491.29,331.22,491.17,331.69,491.03,331.69z"/>
							</g>
						</g>
						<g>
							<g>
								<path style="fill:#263238;" d="M518.01,331.69c-0.14,0-0.26-0.46-0.26-1.03c0-0.57,0.12-1.04,0.26-1.04s0.26,0.46,0.26,1.04
									C518.27,331.22,518.16,331.69,518.01,331.69z"/>
							</g>
						</g>
					</g>
				</g>
			</g>
			<g>
				<g>
					<g>
						<path style="fill:#E0E0E0;" d="M562.68,196.29c0,0-0.01-0.6-0.02-1.75c0-1.16-0.01-2.87-0.02-5.1
							c-0.01-4.48-0.03-11.08-0.05-19.56c-0.02-16.96-0.06-41.48-0.1-71.75l0.19,0.19c-53.51,0.02-125.86,0.04-205.34,0.07h-0.01
							l0.26-0.26c0,34.56-0.01,67.77-0.01,98.17l-0.25-0.25c59.83,0.05,111.13,0.09,147.49,0.12c18.19,0.03,32.64,0.05,42.56,0.07
							c4.95,0.01,8.77,0.02,11.36,0.03c1.29,0.01,2.27,0.01,2.94,0.01C562.34,196.28,562.68,196.29,562.68,196.29
							s-0.32,0.01-0.98,0.01c-0.66,0-1.63,0.01-2.91,0.01c-2.58,0.01-6.38,0.02-11.31,0.03c-9.9,0.02-24.33,0.04-42.5,0.07
							c-36.4,0.03-87.76,0.07-147.66,0.12l-0.25,0v-0.25c0-30.39-0.01-63.61-0.01-98.17v-0.26h0.26h0.01
							c79.48,0.03,151.82,0.05,205.34,0.07l0.19,0l0,0.19c-0.04,30.32-0.08,54.88-0.1,71.87c-0.02,8.47-0.04,15.05-0.05,19.52
							c-0.01,2.22-0.02,3.92-0.02,5.07C562.69,195.72,562.68,196.29,562.68,196.29z"/>
					</g>
				</g>
				<g>
					<g>
						<g>
							<g>
								<path style="fill:#E0E0E0;" d="M516.2,140.93H374.75c-1.3,0-2.36-1.06-2.36-2.36c0-1.3,1.06-2.36,2.36-2.36H516.2
									c1.3,0,2.36,1.06,2.36,2.36C518.56,139.87,517.5,140.93,516.2,140.93z"/>
							</g>
							<g>
								<path style="fill:#E0E0E0;" d="M516.2,122.26H374.75c-1.3,0-2.36-1.06-2.36-2.36c0-1.3,1.06-2.36,2.36-2.36H516.2
									c1.3,0,2.36,1.06,2.36,2.36C518.56,121.2,517.5,122.26,516.2,122.26z"/>
							</g>
							<g>
								<path style="fill:#455A64;" d="M438.66,140.93h-63.92c-1.3,0-2.36-1.06-2.36-2.36c0-1.3,1.06-2.36,2.36-2.36h63.92
									c1.3,0,2.36,1.06,2.36,2.36C441.02,139.87,439.97,140.93,438.66,140.93z"/>
							</g>
						</g>
						<g>
							<path style="fill:#263238;" d="M534.14,139.58h-1.04v1.35h-0.76v-1.35h-3.06v-0.55l2.81-3.6h0.85l-2.7,3.47h2.11v-1.19h0.74
								v1.19h1.04V139.58z"/>
							<path style="fill:#263238;" d="M538.44,139.28c0,0.95-0.68,1.71-2.08,1.71c-0.78,0-1.55-0.25-2.02-0.67l0.36-0.62
								c0.37,0.35,0.98,0.59,1.65,0.59c0.83,0,1.3-0.38,1.3-0.98c0-0.62-0.39-1.01-1.67-1.01h-1.25l0.29-2.88h3.1v0.68h-2.44
								l-0.15,1.51h0.61C537.8,137.62,538.44,138.3,538.44,139.28z"/>
							<path style="fill:#263238;" d="M538.93,136.88c0-0.9,0.52-1.5,1.28-1.5c0.76,0,1.27,0.6,1.27,1.5c0,0.9-0.51,1.5-1.27,1.5
								C539.45,138.38,538.93,137.78,538.93,136.88z M540.98,136.88c0-0.66-0.29-1.05-0.77-1.05c-0.47,0-0.77,0.4-0.77,1.05
								c0,0.65,0.3,1.05,0.77,1.05C540.69,137.93,540.98,137.54,540.98,136.88z M543.53,135.43h0.61l-3.76,5.5h-0.6L543.53,135.43z
								 M542.42,139.47c0-0.9,0.51-1.5,1.27-1.5c0.76,0,1.28,0.6,1.28,1.5c0,0.9-0.52,1.5-1.28,1.5
								C542.93,140.97,542.42,140.37,542.42,139.47z M544.46,139.47c0-0.65-0.3-1.05-0.77-1.05c-0.48,0-0.77,0.39-0.77,1.05
								s0.29,1.05,0.77,1.05C544.16,140.53,544.46,140.13,544.46,139.47z"/>
						</g>
					</g>
				</g>
				<g>
					<g>
						<g>
							<g>
								<path style="fill:#E0E0E0;" d="M516.2,158.22H374.75c-1.3,0-2.36-1.06-2.36-2.36c0-1.3,1.06-2.36,2.36-2.36H516.2
									c1.3,0,2.36,1.06,2.36,2.36C518.56,157.16,517.5,158.22,516.2,158.22z"/>
							</g>
							<g>
								<path style="fill:#455A64;" d="M459.49,158.22h-84.6c-1.76,0-2.5-1.06-2.5-2.36c0-1.3,0.75-2.36,1.67-2.36h84.6
									c1.66,0,2.71,1.06,2.71,2.36C461.36,157.79,459.57,158.22,459.49,158.22z"/>
							</g>
						</g>
						<g>
							<path style="fill:#263238;" d="M533.36,152.72v0.53l-2.22,4.97h-0.83l2.18-4.82h-2.51v0.98h-0.75v-1.67H533.36z"/>
							<path style="fill:#263238;" d="M533.89,155.47c0-1.79,0.96-2.81,2.25-2.81c1.28,0,2.24,1.02,2.24,2.81
								c0,1.79-0.96,2.81-2.24,2.81C534.85,158.28,533.89,157.26,533.89,155.47z M537.59,155.47c0-1.41-0.6-2.11-1.45-2.11
								c-0.87,0-1.46,0.71-1.46,2.11c0,1.41,0.6,2.11,1.46,2.11C537,157.58,537.59,156.87,537.59,155.47z"/>
							<path style="fill:#263238;" d="M539.05,154.17c0-0.9,0.52-1.5,1.28-1.5c0.76,0,1.27,0.6,1.27,1.5c0,0.9-0.51,1.5-1.27,1.5
								C539.57,155.67,539.05,155.07,539.05,154.17z M541.1,154.17c0-0.66-0.29-1.05-0.77-1.05c-0.47,0-0.77,0.4-0.77,1.05
								c0,0.65,0.3,1.05,0.77,1.05C540.81,155.22,541.1,154.83,541.1,154.17z M543.65,152.72h0.61l-3.76,5.5h-0.6L543.65,152.72z
								 M542.54,156.76c0-0.9,0.51-1.5,1.27-1.5c0.76,0,1.28,0.6,1.28,1.5c0,0.9-0.52,1.5-1.28,1.5
								C543.05,158.26,542.54,157.66,542.54,156.76z M544.58,156.76c0-0.65-0.3-1.05-0.77-1.05c-0.48,0-0.77,0.39-0.77,1.05
								c0,0.66,0.29,1.05,0.77,1.05C544.28,157.82,544.58,157.41,544.58,156.76z"/>
						</g>
					</g>
				</g>
				<g>
					<g>
						<g>
							<g>
								<path style="fill:#E0E0E0;" d="M516.2,175.1H374.75c-1.3,0-2.36-1.06-2.36-2.36s1.06-2.36,2.36-2.36H516.2
									c1.3,0,2.36,1.06,2.36,2.36S517.5,175.1,516.2,175.1z"/>
							</g>
							<g>
								<path style="fill:#455A64;" d="M427.29,175.1h-52.54c-1.3,0-2.36-1.06-2.36-2.36s1.06-2.36,2.36-2.36h52.54
									c1.3,0,2.36,1.06,2.36,2.36S428.59,175.1,427.29,175.1z"/>
							</g>
						</g>
						<g>
							<path style="fill:#263238;" d="M533.21,173.45c0,0.95-0.68,1.71-2.08,1.71c-0.78,0-1.55-0.25-2.02-0.67l0.36-0.62
								c0.37,0.35,0.98,0.59,1.65,0.59c0.83,0,1.3-0.38,1.3-0.98c0-0.62-0.39-1.01-1.67-1.01h-1.25l0.29-2.88h3.1v0.68h-2.44
								l-0.15,1.51h0.61C532.56,171.79,533.21,172.47,533.21,173.45z"/>
							<path style="fill:#263238;" d="M533.86,172.34c0-1.79,0.96-2.81,2.25-2.81c1.28,0,2.24,1.02,2.24,2.81
								c0,1.79-0.96,2.81-2.24,2.81C534.82,175.16,533.86,174.14,533.86,172.34z M537.56,172.34c0-1.41-0.6-2.11-1.45-2.11
								c-0.87,0-1.46,0.71-1.46,2.11c0,1.41,0.6,2.11,1.46,2.11C536.97,174.46,537.56,173.75,537.56,172.34z"/>
							<path style="fill:#263238;" d="M539.02,171.05c0-0.9,0.52-1.5,1.28-1.5c0.76,0,1.27,0.6,1.27,1.5c0,0.9-0.51,1.5-1.27,1.5
								C539.54,172.55,539.02,171.94,539.02,171.05z M541.07,171.05c0-0.66-0.29-1.05-0.77-1.05c-0.47,0-0.77,0.4-0.77,1.05
								c0,0.65,0.3,1.05,0.77,1.05C540.78,172.1,541.07,171.71,541.07,171.05z M543.61,169.59h0.61l-3.76,5.5h-0.6L543.61,169.59z
								 M542.51,173.64c0-0.9,0.51-1.5,1.27-1.5c0.76,0,1.28,0.61,1.28,1.5c0,0.9-0.52,1.5-1.28,1.5
								C543.02,175.14,542.51,174.54,542.51,173.64z M544.55,173.64c0-0.65-0.3-1.05-0.77-1.05c-0.48,0-0.77,0.39-0.77,1.05
								c0,0.66,0.29,1.05,0.77,1.05C544.25,174.69,544.55,174.29,544.55,173.64z"/>
						</g>
					</g>
				</g>
				<g>
					<g>
						<g>
							<g>
								<path style="fill:#E8505B;" d="M468.4,122.26h-93.65c-1.3,0-2.36-1.06-2.36-2.36s1.06-2.36,2.36-2.36h93.65
									c1.3,0,2.36,1.06,2.36,2.36S469.7,122.26,468.4,122.26z"/>
							</g>
						</g>
						<g>
							<path style="fill:#263238;" d="M533.61,120.58c0,1.06-0.86,1.74-1.95,1.74c-1.48,0-2.31-0.99-2.31-2.74
								c0-1.88,1.06-2.88,2.6-2.88c0.52,0,1.01,0.1,1.37,0.32l-0.3,0.61c-0.28-0.19-0.66-0.26-1.05-0.26c-1.12,0-1.83,0.7-1.83,2.07
								c0,0.06,0,0.13,0.01,0.2c0.31-0.47,0.9-0.72,1.58-0.72C532.82,118.92,533.61,119.57,533.61,120.58z M532.85,120.61
								c0-0.64-0.49-1.06-1.26-1.06c-0.75,0-1.27,0.46-1.27,1.07c0,0.57,0.46,1.06,1.3,1.06
								C532.34,121.68,532.85,121.27,532.85,120.61z"/>
							<path style="fill:#263238;" d="M534.2,119.51c0-1.79,0.96-2.81,2.25-2.81c1.28,0,2.24,1.02,2.24,2.81
								c0,1.79-0.96,2.81-2.24,2.81C535.16,122.32,534.2,121.3,534.2,119.51z M537.9,119.51c0-1.41-0.6-2.11-1.45-2.11
								c-0.87,0-1.46,0.71-1.46,2.11s0.6,2.11,1.46,2.11C537.3,121.62,537.9,120.91,537.9,119.51z"/>
							<path style="fill:#263238;" d="M539.36,118.21c0-0.9,0.52-1.5,1.28-1.5c0.76,0,1.27,0.6,1.27,1.5s-0.51,1.5-1.27,1.5
								C539.87,119.71,539.36,119.11,539.36,118.21z M541.41,118.21c0-0.66-0.29-1.05-0.77-1.05c-0.47,0-0.77,0.4-0.77,1.05
								c0,0.65,0.3,1.05,0.77,1.05C541.11,119.26,541.41,118.87,541.41,118.21z M543.95,116.76h0.61l-3.76,5.5h-0.6L543.95,116.76z
								 M542.84,120.8c0-0.9,0.51-1.5,1.27-1.5c0.76,0,1.28,0.61,1.28,1.5c0,0.9-0.52,1.5-1.28,1.5
								C543.36,122.3,542.84,121.7,542.84,120.8z M544.89,120.8c0-0.65-0.3-1.05-0.77-1.05c-0.48,0-0.77,0.39-0.77,1.05
								c0,0.66,0.29,1.05,0.77,1.05C544.59,121.86,544.89,121.46,544.89,120.8z"/>
						</g>
					</g>
				</g>
			</g>
			<g>
				<g>
					<path style="fill:#E0E0E0;" d="M512.9,206.35c0,0.14-34.62,0.26-77.32,0.26c-42.72,0-77.33-0.12-77.33-0.26
						s34.62-0.26,77.33-0.26C478.28,206.09,512.9,206.2,512.9,206.35z"/>
				</g>
			</g>
			<g>
				<g>
					<path style="fill:#E0E0E0;" d="M512.9,215.52c0,0.14-34.62,0.26-77.32,0.26c-42.72,0-77.33-0.12-77.33-0.26
						c0-0.14,34.62-0.26,77.33-0.26C478.28,215.26,512.9,215.37,512.9,215.52z"/>
				</g>
			</g>
			<g>
				<g>
					<path style="fill:#E0E0E0;" d="M512.9,223.81c0,0.14-34.62,0.26-77.32,0.26c-42.72,0-77.33-0.12-77.33-0.26
						s34.62-0.26,77.33-0.26C478.28,223.55,512.9,223.67,512.9,223.81z"/>
				</g>
			</g>
			<g>
				<g>
					<g>
						<g>
							<g>
								<path style="fill:#E0E0E0;" d="M164.89,317.74L164.89,317.74c-1.54,0-2.78-1.24-2.78-2.78v-52.15
									c0-1.54,1.24-2.78,2.78-2.78l0,0c1.54,0,2.78,1.24,2.78,2.78v52.15C167.67,316.49,166.42,317.74,164.89,317.74z"/>
							</g>
							<g>
								<path style="fill:#E8505B;" d="M164.89,317.98L164.89,317.98c-1.54,0-2.78-1.24-2.78-2.78v-33.62
									c0-1.54,1.24-2.78,2.78-2.78l0,0c1.54,0,2.78,1.24,2.78,2.78v33.62C167.67,316.74,166.42,317.98,164.89,317.98z"/>
							</g>
						</g>
						<g>
							<path style="fill:#263238;" d="M163.14,320.16v4.64h-0.48v-4.21h-1.09v-0.42H163.14z"/>
							<path style="fill:#263238;" d="M164.24,322.48c0-1.48,0.77-2.36,1.85-2.36c1.07,0,1.85,0.88,1.85,2.36
								c0,1.48-0.78,2.36-1.85,2.36C165.02,324.84,164.24,323.96,164.24,322.48z M167.46,322.48c0-1.24-0.56-1.92-1.36-1.92
								c-0.81,0-1.36,0.68-1.36,1.92c0,1.24,0.56,1.92,1.36,1.92C166.9,324.4,167.46,323.72,167.46,322.48z"/>
						</g>
					</g>
					<g>
						<g>
							<g>
								<path style="fill:#E0E0E0;" d="M176,317.74L176,317.74c-1.54,0-2.78-1.24-2.78-2.78v-52.15c0-1.54,1.24-2.78,2.78-2.78l0,0
									c1.53,0,2.78,1.24,2.78,2.78v52.15C178.78,316.49,177.53,317.74,176,317.74z"/>
							</g>
							<g>
								<path style="fill:#E8505B;" d="M176,317.98L176,317.98c-1.54,0-2.78-1.24-2.78-2.78V271c0-1.54,1.24-2.78,2.78-2.78l0,0
									c1.53,0,2.78,1.24,2.78,2.78v44.21C178.78,316.74,177.53,317.98,176,317.98z"/>
							</g>
						</g>
						<g>
							<path style="fill:#263238;" d="M175.34,324.37v0.42h-3.25v-0.34l1.93-1.89c0.52-0.52,0.62-0.83,0.62-1.15
								c0-0.54-0.38-0.87-1.09-0.87c-0.54,0-0.96,0.17-1.26,0.52l-0.34-0.29c0.36-0.42,0.93-0.66,1.64-0.66
								c0.94,0,1.54,0.48,1.54,1.25c0,0.44-0.14,0.84-0.76,1.45l-1.58,1.55H175.34z"/>
							<path style="fill:#263238;" d="M175.9,322.48c0-1.48,0.77-2.36,1.85-2.36c1.07,0,1.85,0.88,1.85,2.36
								c0,1.48-0.78,2.36-1.85,2.36C176.68,324.84,175.9,323.96,175.9,322.48z M179.12,322.48c0-1.24-0.56-1.92-1.36-1.92
								c-0.81,0-1.36,0.68-1.36,1.92c0,1.24,0.56,1.92,1.36,1.92C178.56,324.4,179.12,323.72,179.12,322.48z"/>
						</g>
					</g>
					<g>
						<g>
							<g>
								<path style="fill:#E0E0E0;" d="M187.11,317.74L187.11,317.74c-1.54,0-2.78-1.24-2.78-2.78v-52.15
									c0-1.54,1.24-2.78,2.78-2.78l0,0c1.54,0,2.78,1.24,2.78,2.78v52.15C189.89,316.49,188.65,317.74,187.11,317.74z"/>
							</g>
							<g>
								<path style="fill:#E8505B;" d="M187.11,317.98L187.11,317.98c-1.54,0-2.78-1.24-2.78-2.78v-25.68
									c0-1.54,1.24-2.78,2.78-2.78l0,0c1.54,0,2.78,1.24,2.78,2.78v25.68C189.89,316.74,188.65,317.98,187.11,317.98z"/>
							</g>
						</g>
						<g>
							<path style="fill:#263238;" d="M186.39,323.46c0,0.77-0.56,1.37-1.68,1.37c-0.67,0-1.31-0.23-1.67-0.6l0.23-0.38
								c0.3,0.31,0.83,0.54,1.44,0.54c0.77,0,1.19-0.36,1.19-0.93c0-0.56-0.39-0.92-1.25-0.92h-0.33v-0.35l1.28-1.61h-2.37v-0.42
								h2.98v0.34l-1.31,1.65C185.89,322.2,186.39,322.72,186.39,323.46z"/>
							<path style="fill:#263238;" d="M187.05,322.48c0-1.48,0.77-2.36,1.85-2.36c1.07,0,1.85,0.88,1.85,2.36
								c0,1.48-0.78,2.36-1.85,2.36C187.83,324.84,187.05,323.96,187.05,322.48z M190.27,322.48c0-1.24-0.56-1.92-1.36-1.92
								c-0.81,0-1.36,0.68-1.36,1.92c0,1.24,0.56,1.92,1.36,1.92C189.71,324.4,190.27,323.72,190.27,322.48z"/>
						</g>
					</g>
					<g>
						<g>
							<g>
								<path style="fill:#E0E0E0;" d="M198.22,317.74L198.22,317.74c-1.54,0-2.78-1.24-2.78-2.78v-52.15
									c0-1.54,1.24-2.78,2.78-2.78l0,0c1.54,0,2.78,1.24,2.78,2.78v52.15C201,316.49,199.76,317.74,198.22,317.74z"/>
							</g>
							<g>
								<path style="fill:#E8505B;" d="M198.22,317.98L198.22,317.98c-1.54,0-2.78-1.24-2.78-2.78V271c0-1.54,1.24-2.78,2.78-2.78
									l0,0c1.54,0,2.78,1.24,2.78,2.78v44.21C201,316.74,199.76,317.98,198.22,317.98z"/>
							</g>
						</g>
						<g>
							<path style="fill:#263238;" d="M198.25,323.58h-0.93v1.22h-0.48v-1.22h-2.62v-0.34l2.46-3.07h0.53l-2.37,2.99h2.01v-1.07
								h0.46v1.07h0.93V323.58z"/>
							<path style="fill:#263238;" d="M198.68,322.48c0-1.48,0.77-2.36,1.85-2.36c1.07,0,1.85,0.88,1.85,2.36
								c0,1.48-0.78,2.36-1.85,2.36C199.45,324.84,198.68,323.96,198.68,322.48z M201.89,322.48c0-1.24-0.56-1.92-1.36-1.92
								c-0.81,0-1.36,0.68-1.36,1.92c0,1.24,0.56,1.92,1.36,1.92C201.33,324.4,201.89,323.72,201.89,322.48z"/>
						</g>
					</g>
					<g>
						<g>
							<g>
								<path style="fill:#E0E0E0;" d="M209.33,317.74L209.33,317.74c-1.53,0-2.78-1.24-2.78-2.78v-52.15
									c0-1.54,1.24-2.78,2.78-2.78l0,0c1.54,0,2.78,1.24,2.78,2.78v52.15C212.11,316.49,210.87,317.74,209.33,317.74z"/>
							</g>
							<g>
								<path style="fill:#E8505B;" d="M209.33,317.98L209.33,317.98c-1.53,0-2.78-1.24-2.78-2.78v-35.74
									c0-1.54,1.24-2.78,2.78-2.78l0,0c1.54,0,2.78,1.24,2.78,2.78v35.74C212.11,316.74,210.87,317.98,209.33,317.98z"/>
							</g>
						</g>
						<g>
							<path style="fill:#263238;" d="M209.09,323.43c0,0.79-0.55,1.4-1.68,1.4c-0.67,0-1.3-0.23-1.66-0.6l0.23-0.38
								c0.3,0.31,0.83,0.54,1.42,0.54c0.79,0,1.21-0.38,1.21-0.95c0-0.6-0.37-0.97-1.55-0.97h-0.99l0.24-2.32h2.54v0.42h-2.12
								l-0.16,1.48h0.6C208.56,322.06,209.09,322.61,209.09,323.43z"/>
							<path style="fill:#263238;" d="M209.69,322.48c0-1.48,0.77-2.36,1.85-2.36c1.07,0,1.85,0.88,1.85,2.36
								c0,1.48-0.78,2.36-1.85,2.36C210.46,324.84,209.69,323.96,209.69,322.48z M212.9,322.48c0-1.24-0.56-1.92-1.36-1.92
								c-0.81,0-1.36,0.68-1.36,1.92c0,1.24,0.56,1.92,1.36,1.92C212.34,324.4,212.9,323.72,212.9,322.48z"/>
						</g>
					</g>
					<g>
						<g>
							<g>
								<path style="fill:#E0E0E0;" d="M220.45,317.74L220.45,317.74c-1.54,0-2.78-1.24-2.78-2.78v-52.15
									c0-1.54,1.24-2.78,2.78-2.78l0,0c1.54,0,2.78,1.24,2.78,2.78v52.15C223.22,316.49,221.98,317.74,220.45,317.74z"/>
							</g>
							<g>
								<path style="fill:#E8505B;" d="M220.45,317.74L220.45,317.74c-1.54,0-2.78-1.24-2.78-2.53v-25.68
									c0-1.78,1.24-3.02,2.78-3.02l0,0c1.54,0,2.78,1.24,2.78,2.78v25.68C223.22,316.49,221.98,317.74,220.45,317.74z"/>
							</g>
						</g>
						<g>
							<path style="fill:#263238;" d="M220.08,323.41c0,0.87-0.68,1.42-1.58,1.42c-1.23,0-1.9-0.85-1.9-2.32
								c0-1.58,0.86-2.4,2.12-2.4c0.42,0,0.81,0.07,1.1,0.25l-0.19,0.38c-0.24-0.16-0.56-0.22-0.9-0.22c-1,0-1.64,0.64-1.64,1.9
								c0,0.11,0.01,0.24,0.02,0.38c0.23-0.51,0.77-0.79,1.42-0.79C219.44,322.02,220.08,322.56,220.08,323.41z M219.61,323.42
								c0-0.61-0.45-1-1.17-1c-0.71,0-1.19,0.44-1.19,1.01c0,0.51,0.42,0.99,1.23,0.99C219.15,324.43,219.61,324.04,219.61,323.42z"
								/>
							<path style="fill:#263238;" d="M220.63,322.48c0-1.48,0.77-2.36,1.85-2.36c1.07,0,1.85,0.88,1.85,2.36
								c0,1.48-0.78,2.36-1.85,2.36C221.4,324.84,220.63,323.96,220.63,322.48z M223.84,322.48c0-1.24-0.56-1.92-1.36-1.92
								c-0.81,0-1.36,0.68-1.36,1.92c0,1.24,0.56,1.92,1.36,1.92C223.28,324.4,223.84,323.72,223.84,322.48z"/>
						</g>
					</g>
					<g>
						<g>
							<g>
								<path style="fill:#E0E0E0;" d="M231.56,317.74L231.56,317.74c-1.54,0-2.78-1.24-2.78-2.78v-52.15
									c0-1.54,1.24-2.78,2.78-2.78l0,0c1.54,0,2.78,1.24,2.78,2.78v52.15C234.34,316.49,233.09,317.74,231.56,317.74z"/>
							</g>
							<g>
								<path style="fill:#E8505B;" d="M231.56,317.98L231.56,317.98c-1.54,0-2.78-1.24-2.78-2.78v-46.85
									c0-1.54,1.24-2.78,2.78-2.78l0,0c1.54,0,2.78,1.24,2.78,2.78v46.85C234.34,316.74,233.09,317.98,231.56,317.98z"/>
							</g>
						</g>
						<g>
							<path style="fill:#263238;" d="M230.96,320.16v0.34l-1.94,4.3h-0.52l1.91-4.21h-2.38v0.87h-0.47v-1.29H230.96z"/>
							<path style="fill:#263238;" d="M231.46,322.48c0-1.48,0.77-2.36,1.85-2.36c1.07,0,1.85,0.88,1.85,2.36
								c0,1.48-0.78,2.36-1.85,2.36C232.23,324.84,231.46,323.96,231.46,322.48z M234.67,322.48c0-1.24-0.56-1.92-1.36-1.92
								c-0.81,0-1.36,0.68-1.36,1.92c0,1.24,0.56,1.92,1.36,1.92C234.11,324.4,234.67,323.72,234.67,322.48z"/>
						</g>
					</g>
					<g>
						<g>
							<g>
								<path style="fill:#E0E0E0;" d="M242.67,317.74L242.67,317.74c-1.54,0-2.78-1.24-2.78-2.78v-52.15
									c0-1.54,1.24-2.78,2.78-2.78l0,0c1.54,0,2.78,1.24,2.78,2.78v52.15C245.45,316.49,244.2,317.74,242.67,317.74z"/>
							</g>
							<g>
								<path style="fill:#E8505B;" d="M242.67,317.98L242.67,317.98c-1.54,0-2.78-1.24-2.78-2.78v-20.38
									c0-1.53,1.24-2.78,2.78-2.78l0,0c1.54,0,2.78,1.24,2.78,2.78v20.38C245.45,316.74,244.2,317.98,242.67,317.98z"/>
							</g>
						</g>
						<g>
							<path style="fill:#263238;" d="M242.11,323.51c0,0.82-0.7,1.33-1.8,1.33c-1.11,0-1.79-0.51-1.79-1.33
								c0-0.56,0.32-0.95,0.89-1.14c-0.47-0.19-0.73-0.54-0.73-1.02c0-0.75,0.64-1.23,1.62-1.23c0.98,0,1.64,0.47,1.64,1.23
								c0,0.48-0.27,0.83-0.74,1.02C241.79,322.56,242.11,322.96,242.11,323.51z M241.62,323.5c0-0.57-0.49-0.93-1.31-0.93
								c-0.82,0-1.3,0.36-1.3,0.93c0,0.58,0.48,0.93,1.3,0.93C241.13,324.43,241.62,324.07,241.62,323.5z M240.31,322.19
								c0.72,0,1.15-0.32,1.15-0.83c0-0.52-0.46-0.84-1.15-0.84c-0.7,0-1.15,0.32-1.15,0.83
								C239.17,321.87,239.59,322.19,240.31,322.19z"/>
							<path style="fill:#263238;" d="M242.77,322.48c0-1.48,0.78-2.36,1.85-2.36c1.07,0,1.85,0.88,1.85,2.36
								c0,1.48-0.78,2.36-1.85,2.36C243.55,324.84,242.77,323.96,242.77,322.48z M245.99,322.48c0-1.24-0.56-1.92-1.36-1.92
								c-0.81,0-1.36,0.68-1.36,1.92c0,1.24,0.56,1.92,1.36,1.92C245.43,324.4,245.99,323.72,245.99,322.48z"/>
						</g>
					</g>
					<g>
						<g>
							<g>
								<path style="fill:#E0E0E0;" d="M253.78,317.74L253.78,317.74c-1.54,0-2.78-1.24-2.78-2.78v-52.15
									c0-1.54,1.24-2.78,2.78-2.78l0,0c1.54,0,2.78,1.24,2.78,2.78v52.15C256.56,316.49,255.31,317.74,253.78,317.74z"/>
							</g>
							<g>
								<path style="fill:#E8505B;" d="M253.78,317.74L253.78,317.74c-1.54,0-2.78-1.24-2.78-2.53v-7.15c0-1.78,1.24-3.02,2.78-3.02
									l0,0c1.54,0,2.78,1.24,2.78,2.78v7.15C256.56,316.49,255.31,317.74,253.78,317.74z"/>
							</g>
						</g>
						<g>
							<path style="fill:#263238;" d="M252.94,322.44c0,1.58-0.86,2.4-2.12,2.4c-0.42,0-0.81-0.07-1.1-0.25l0.19-0.38
								c0.24,0.16,0.56,0.22,0.9,0.22c1,0,1.64-0.64,1.64-1.9c0-0.11-0.01-0.24-0.02-0.38c-0.23,0.51-0.77,0.79-1.42,0.79
								c-0.92,0-1.56-0.54-1.56-1.39c0-0.87,0.68-1.42,1.58-1.42C252.27,320.12,252.94,320.97,252.94,322.44z M252.29,321.52
								c0-0.51-0.42-0.99-1.23-0.99c-0.67,0-1.13,0.39-1.13,1.01c0,0.61,0.45,1,1.17,1C251.8,322.53,252.29,322.09,252.29,321.52z"
								/>
							<path style="fill:#263238;" d="M253.63,322.48c0-1.48,0.77-2.36,1.85-2.36c1.07,0,1.85,0.88,1.85,2.36
								c0,1.48-0.78,2.36-1.85,2.36C254.4,324.84,253.63,323.96,253.63,322.48z M256.84,322.48c0-1.24-0.56-1.92-1.36-1.92
								c-0.81,0-1.36,0.68-1.36,1.92c0,1.24,0.56,1.92,1.36,1.92C256.28,324.4,256.84,323.72,256.84,322.48z"/>
						</g>
					</g>
					<g>
						<g>
							<g>
								<path style="fill:#E0E0E0;" d="M264.89,317.74L264.89,317.74c-1.54,0-2.78-1.24-2.78-2.78v-52.15
									c0-1.54,1.24-2.78,2.78-2.78l0,0c1.54,0,2.78,1.24,2.78,2.78v52.15C267.67,316.49,266.43,317.74,264.89,317.74z"/>
							</g>
							<g>
								<path style="fill:#E8505B;" d="M264.89,317.74L264.89,317.74c-1.54,0-2.78-1.24-2.78-2.53v-25.68
									c0-1.78,1.24-3.02,2.78-3.02l0,0c1.54,0,2.78,1.24,2.78,2.78v25.68C267.67,316.49,266.43,317.74,264.89,317.74z"/>
							</g>
						</g>
						<g>
							<path style="fill:#263238;" d="M260.91,320.16v4.64h-0.48v-4.21h-1.09v-0.42H260.91z"/>
							<path style="fill:#263238;" d="M262.01,322.48c0-1.48,0.77-2.36,1.85-2.36c1.07,0,1.85,0.88,1.85,2.36
								c0,1.48-0.78,2.36-1.85,2.36C262.79,324.84,262.01,323.96,262.01,322.48z M265.22,322.48c0-1.24-0.56-1.92-1.36-1.92
								c-0.81,0-1.36,0.68-1.36,1.92c0,1.24,0.56,1.92,1.36,1.92C264.67,324.4,265.22,323.72,265.22,322.48z"/>
							<path style="fill:#263238;" d="M266.39,322.48c0-1.48,0.77-2.36,1.85-2.36c1.07,0,1.85,0.88,1.85,2.36
								c0,1.48-0.78,2.36-1.85,2.36C267.17,324.84,266.39,323.96,266.39,322.48z M269.6,322.48c0-1.24-0.56-1.92-1.36-1.92
								c-0.81,0-1.36,0.68-1.36,1.92c0,1.24,0.56,1.92,1.36,1.92C269.05,324.4,269.6,323.72,269.6,322.48z"/>
						</g>
					</g>
				</g>
			</g>
			<g>
				<g>
					<path style="fill:#E0E0E0;" d="M287.91,328.64c-0.14,0-0.26-17.16-0.26-38.33c0-21.17,0.12-38.33,0.26-38.33
						s0.26,17.16,0.26,38.33C288.18,311.48,288.06,328.64,287.91,328.64z"/>
				</g>
			</g>
			<g>
				<g>
					<path style="fill:#263238;" d="M352.58,256.98c0,0.14-10.58,0.26-23.63,0.26c-13.05,0-23.63-0.12-23.63-0.26
						c0-0.14,10.58-0.26,23.63-0.26C342,256.72,352.58,256.83,352.58,256.98z"/>
				</g>
			</g>
			<g style="opacity:0.5;">
				<path style="fill:#FFFFFF;" d="M301.42,323.73l10.57-15.07c1.23-1.76,3.67-2.14,5.38-0.85l5.56,4.2
					c1.82,1.37,4.42,0.84,5.56-1.13l16.04-27.78c1.34-2.32,4.6-2.55,6.25-0.45l10.01,12.7c1.62,2.05,4.77,1.89,6.17-0.31l7.32-11.5
					c1.53-2.4,5.05-2.32,6.48,0.14l6.04,10.46c1.42,2.46,4.94,2.54,6.47,0.14l20.66-32.38c1.47-2.3,4.82-2.34,6.34-0.07l34.13,51.06
					c1.37,2.05,4.3,2.26,5.95,0.44l20.74-22.83c1.46-1.6,3.96-1.66,5.49-0.13l16.49,16.55c1.76,1.77,4.72,1.38,5.96-0.78
					l29.51-51.11c1.94-3.36,7.07-1.98,7.07,1.89v66.8H301.42z"/>
			</g>
		</g>
	</g>
</g>
<g id="Magnifying_Glass">
	<g>
		<g>
			<path style="fill:#455A64;" d="M112.18,330.18c-23.57,0-43.89-17.83-46.45-41.78c-2.74-25.63,15.88-48.71,41.52-51.45
				c12.42-1.32,24.61,2.26,34.32,10.1c9.72,7.84,15.8,19,17.13,31.41l0,0c2.74,25.63-15.88,48.71-41.52,51.45
				C115.5,330.09,113.83,330.18,112.18,330.18z M112.29,243.68c-1.43,0-2.86,0.08-4.3,0.23c-21.79,2.33-37.63,21.95-35.3,43.75
				c2.33,21.79,21.96,37.64,43.75,35.3c21.79-2.33,37.63-21.96,35.3-43.75c-1.13-10.56-6.3-20.04-14.56-26.71
				C130.04,246.74,121.33,243.68,112.29,243.68z"/>
		</g>
		<g>
			<path style="fill:#455A64;" d="M181.48,373.39c-0.99,0-1.97-0.42-2.67-1.23l-44.21-51.88c-1.25-1.47-1.08-3.68,0.39-4.93
				c1.47-1.25,3.68-1.08,4.93,0.39l44.21,51.88c1.25,1.47,1.08,3.68-0.39,4.93C183.09,373.11,182.28,373.39,181.48,373.39z"/>
		</g>
	</g>
</g>
<g id="Plant">
	<g>
		<g>
			<g>
				<g>
					<g>
						<g>
							<path style="fill:#E8505B;" d="M604.97,370.47c7.2,2.51,16.58,0.27,22.74-4.23c6.16-4.5,10.59-10.94,14.51-17.47
								c1.68-2.79,3.31-5.69,3.84-8.9c0.53-3.21-0.25-6.82-2.74-8.91c-3.87-3.26-9.79-1.6-14.19,0.9
								C615.39,339.68,606,354.69,604.97,370.47"/>
						</g>
					</g>
				</g>
			</g>
			<g>
				<g>
					<g>
						<g>
							<path style="fill:#E8505B;" d="M612.7,387.7c4.32,5.7,11.75,8.24,18.89,8.57c7.15,0.33,14.21-1.64,20.89-4.21
								c2.42-0.93,5.08-2.2,5.91-4.66c0.63-1.86-0.02-3.98-1.27-5.5c-1.25-1.52-3.02-2.52-4.82-3.29
								c-6.58-2.8-14.11-2.93-21.02-1.14C624.35,379.26,618.31,383.27,612.7,387.7"/>
						</g>
					</g>
				</g>
			</g>
			<g>
				<g>
					<g>
						<g>
							<path style="fill:#E8505B;" d="M604.87,339.64c5.96,0.12,10.47-5.1,13.16-10.41c3.73-7.36,5-15.94,3.55-24.06
								c-0.54-3.04-1.7-6.33-4.42-7.79c-2.77-1.49-6.37-0.51-8.69,1.61c-2.32,2.12-3.59,5.14-4.52,8.14
								C600.75,317.48,601.44,329.37,604.87,339.64"/>
						</g>
					</g>
				</g>
			</g>
			<g>
				<g>
					<g>
						<g>
							<path style="fill:#E8505B;" d="M585.3,372.59c10.16-17.29,11.85-38.44,5.85-57.57c-0.97-3.1-2.81-6.65-6.06-6.86
								c-3.59-0.23-5.85,3.78-6.84,7.24c-3.48,12.15-2.74,25.05-1.97,37.66C576.76,360.84,579.43,367.48,585.3,372.59"/>
						</g>
					</g>
				</g>
			</g>
			<g>
				<g>
					<g>
						<g>
							<path style="fill:#E8505B;" d="M574.74,379.7c-3.68-11.84-13.04-21.77-24.65-26.14c-2.7-1.02-6.13-1.59-8.14,0.47
								c-1.97,2.02-1.37,5.41-0.1,7.94c2.04,4.08,5.36,7.36,8.67,10.51c3.01,2.86,6.13,5.74,9.94,7.4
								C564.27,381.55,571.26,381.97,574.74,379.7"/>
						</g>
					</g>
				</g>
			</g>
			<g>
				<g>
					<g>
						<g>
							<g>
								<path style="fill:#263238;" d="M637.71,335.29c0,0.01-0.06,0.06-0.18,0.16c-0.15,0.11-0.33,0.25-0.55,0.42
									c-0.52,0.39-1.23,0.92-2.13,1.59c-0.47,0.35-0.98,0.73-1.54,1.14c-0.55,0.43-1.13,0.93-1.77,1.44
									c-1.26,1.05-2.74,2.18-4.24,3.6c-0.76,0.69-1.56,1.42-2.39,2.18c-0.83,0.76-1.63,1.62-2.49,2.47
									c-1.75,1.68-3.44,3.64-5.26,5.67c-3.52,4.15-7.14,8.94-10.47,14.28c-3.28,5.37-5.95,10.75-8.09,15.76
									c-1,2.54-2,4.93-2.72,7.24c-0.38,1.15-0.79,2.25-1.1,3.33c-0.3,1.08-0.6,2.12-0.88,3.11c-0.6,1.97-0.95,3.81-1.33,5.4
									c-0.18,0.8-0.36,1.54-0.5,2.23c-0.12,0.69-0.23,1.32-0.33,1.89c-0.2,1.11-0.36,1.98-0.47,2.62c-0.05,0.28-0.1,0.5-0.13,0.68
									c-0.03,0.15-0.05,0.23-0.06,0.23c-0.01,0,0-0.08,0.01-0.24c0.02-0.18,0.05-0.41,0.09-0.69c0.09-0.64,0.22-1.52,0.38-2.63
									c0.09-0.58,0.18-1.21,0.29-1.9c0.12-0.69,0.3-1.44,0.46-2.24c0.35-1.6,0.68-3.45,1.26-5.43c0.27-1,0.55-2.04,0.85-3.13
									c0.3-1.09,0.71-2.19,1.08-3.35c0.71-2.33,1.7-4.74,2.69-7.29c2.13-5.04,4.79-10.45,8.09-15.84
									c3.35-5.36,6.99-10.16,10.55-14.31c1.84-2.03,3.55-3.98,5.31-5.66c0.87-0.85,1.68-1.7,2.52-2.46
									c0.84-0.75,1.65-1.47,2.42-2.16c1.51-1.41,3.02-2.53,4.3-3.56c0.65-0.51,1.23-0.99,1.8-1.41c0.57-0.4,1.1-0.77,1.57-1.11
									c0.92-0.64,1.65-1.15,2.18-1.52c0.23-0.16,0.42-0.28,0.57-0.39C637.63,335.33,637.7,335.29,637.71,335.29z"/>
							</g>
						</g>
					</g>
				</g>
			</g>
			<g>
				<g>
					<g>
						<g>
							<g>
								<path style="fill:#263238;" d="M651.16,383.21c0,0.02-0.24-0.02-0.7-0.12c-0.45-0.08-1.11-0.26-1.98-0.4
									c-1.72-0.34-4.23-0.72-7.35-0.9c-6.21-0.4-15.04,0.34-23.88,4.02c-8.84,3.68-15.59,9.42-19.69,14.11
									c-2.07,2.34-3.57,4.39-4.54,5.85c-0.51,0.71-0.85,1.31-1.11,1.69c-0.25,0.39-0.39,0.58-0.41,0.58
									c-0.01-0.01,0.1-0.22,0.33-0.63c0.24-0.4,0.55-1,1.04-1.74c0.93-1.49,2.39-3.58,4.45-5.97
									c4.06-4.77,10.83-10.62,19.76-14.33c8.92-3.71,17.84-4.4,24.09-3.91c3.14,0.23,5.66,0.66,7.37,1.05
									c0.86,0.17,1.52,0.38,1.96,0.49C650.93,383.12,651.16,383.19,651.16,383.21z"/>
							</g>
						</g>
					</g>
				</g>
			</g>
			<g>
				<g>
					<g>
						<g>
							<g>
								<path style="fill:#263238;" d="M613.65,304.28c0.01,0-0.01,0.09-0.04,0.27c-0.04,0.2-0.1,0.46-0.16,0.78
									c-0.16,0.71-0.38,1.71-0.67,2.98c-0.58,2.58-1.48,6.31-2.6,10.91c-2.24,9.2-5.49,21.87-8.88,35.91
									c-1.68,7.03-3.21,13.74-4.52,19.86c-1.29,6.12-2.39,11.65-3.21,16.31c-0.44,2.33-0.77,4.44-1.08,6.29
									c-0.32,1.85-0.57,3.45-0.76,4.76c-0.2,1.28-0.36,2.29-0.47,3.01c-0.05,0.32-0.1,0.58-0.13,0.78
									c-0.03,0.18-0.05,0.27-0.06,0.26c-0.01,0,0-0.09,0.01-0.27c0.02-0.2,0.05-0.46,0.09-0.79c0.09-0.73,0.22-1.74,0.38-3.03
									c0.16-1.31,0.38-2.92,0.68-4.78c0.29-1.86,0.59-3.98,1.01-6.31c0.78-4.67,1.84-10.21,3.11-16.35
									c1.29-6.13,2.8-12.85,4.49-19.88c3.39-14.05,6.69-26.7,9.01-35.88c1.15-4.56,2.09-8.27,2.75-10.87
									c0.32-1.26,0.57-2.25,0.76-2.95c0.09-0.32,0.15-0.57,0.21-0.77C613.61,304.36,613.64,304.28,613.65,304.28z"/>
							</g>
						</g>
					</g>
				</g>
			</g>
			<g>
				<g>
					<g>
						<g>
							<g>
								<path style="fill:#263238;" d="M590.32,405.02c-0.01,0-0.03-0.07-0.06-0.21c-0.04-0.17-0.09-0.37-0.14-0.62
									c-0.12-0.59-0.29-1.39-0.5-2.41c-0.43-2.09-1-5.13-1.65-8.89c-1.3-7.52-2.85-17.96-3.8-29.58
									c-0.46-5.81-0.72-11.36-0.83-16.41c-0.08-5.05-0.04-9.6,0.12-13.41c0.05-1.91,0.17-3.63,0.26-5.15
									c0.08-1.51,0.18-2.82,0.28-3.88c0.1-1.03,0.17-1.85,0.23-2.45c0.03-0.26,0.05-0.46,0.07-0.64c0.02-0.14,0.03-0.22,0.04-0.21
									c0.01,0,0.01,0.07,0.01,0.22c-0.01,0.17-0.01,0.38-0.02,0.64c-0.03,0.6-0.08,1.42-0.14,2.45c-0.07,1.06-0.15,2.37-0.2,3.88
									c-0.06,1.51-0.16,3.24-0.18,5.14c-0.11,3.81-0.12,8.35-0.02,13.39c0.14,5.04,0.41,10.58,0.86,16.38
									c0.95,11.6,2.44,22.03,3.65,29.56c0.61,3.76,1.13,6.81,1.5,8.91c0.17,1.02,0.31,1.83,0.41,2.42
									c0.04,0.25,0.07,0.46,0.1,0.63C590.33,404.94,590.33,405.02,590.32,405.02z"/>
							</g>
						</g>
					</g>
				</g>
			</g>
			<g>
				<g>
					<g>
						<g>
							<g>
								<path style="fill:#263238;" d="M591.08,407.21c-0.02,0.01-0.11-0.2-0.26-0.6c-0.17-0.44-0.39-1.02-0.67-1.74
									c-0.15-0.38-0.3-0.8-0.48-1.26c-0.2-0.45-0.42-0.94-0.65-1.46c-0.23-0.53-0.48-1.09-0.75-1.68
									c-0.26-0.59-0.6-1.19-0.92-1.84c-0.33-0.64-0.68-1.32-1.04-2.01c-0.4-0.68-0.81-1.39-1.24-2.12
									c-0.82-1.49-1.87-2.97-2.89-4.59c-2.18-3.14-4.74-6.47-7.65-9.78c-2.94-3.28-5.95-6.22-8.78-8.79
									c-1.46-1.23-2.8-2.46-4.15-3.49c-0.66-0.53-1.3-1.04-1.92-1.53c-0.63-0.47-1.24-0.92-1.83-1.35
									c-1.15-0.87-2.24-1.6-3.19-2.24c-0.94-0.65-1.77-1.2-2.46-1.61c-0.65-0.41-1.17-0.74-1.57-1c-0.36-0.23-0.54-0.36-0.53-0.38
									c0.01-0.01,0.21,0.09,0.58,0.29c0.41,0.23,0.95,0.54,1.62,0.92c0.71,0.39,1.55,0.92,2.51,1.55
									c0.97,0.62,2.07,1.33,3.24,2.19c0.59,0.42,1.21,0.87,1.85,1.33c0.63,0.49,1.27,0.99,1.95,1.52
									c1.37,1.02,2.72,2.25,4.19,3.47c2.86,2.56,5.89,5.5,8.84,8.8c2.93,3.32,5.49,6.68,7.66,9.85c1.01,1.63,2.06,3.13,2.87,4.63
									c0.42,0.74,0.83,1.46,1.22,2.15c0.35,0.71,0.69,1.39,1.01,2.04c0.31,0.65,0.64,1.26,0.9,1.86c0.25,0.6,0.49,1.17,0.71,1.7
									c0.22,0.53,0.43,1.02,0.62,1.48c0.16,0.46,0.31,0.89,0.44,1.28c0.24,0.73,0.44,1.32,0.59,1.77
									C591.03,406.99,591.09,407.21,591.08,407.21z"/>
							</g>
						</g>
					</g>
				</g>
			</g>
			<g>
				<g>
					<g>
						<g>
							<g>
								<path style="fill:#263238;" d="M633.94,355.34c0,0.08-1.23,0.08-3.21,0.19c-1.98,0.11-4.7,0.37-7.67,0.93
									c-2.97,0.57-5.6,1.32-7.47,1.95c-1.88,0.62-3.02,1.07-3.05,1c-0.01-0.03,0.26-0.18,0.76-0.41c0.5-0.24,1.25-0.55,2.18-0.91
									c1.86-0.71,4.5-1.53,7.5-2.1c2.99-0.57,5.75-0.77,7.74-0.8c1-0.01,1.8,0.01,2.36,0.05
									C633.63,355.27,633.94,355.31,633.94,355.34z"/>
							</g>
						</g>
					</g>
				</g>
			</g>
			<g>
				<g>
					<g>
						<g>
							<g>
								<path style="fill:#263238;" d="M641.6,392.76c-0.14,0.07-1.29-3.24-4.18-6.31c-2.85-3.11-6.07-4.5-5.98-4.64
									c0.02-0.05,0.84,0.23,2.06,0.91c1.22,0.68,2.81,1.83,4.27,3.4c1.46,1.57,2.48,3.24,3.07,4.51
									C641.44,391.91,641.65,392.75,641.6,392.76z"/>
							</g>
						</g>
					</g>
				</g>
			</g>
			<g>
				<g>
					<g>
						<g>
							<g>
								<path style="fill:#263238;" d="M615.47,318.31c0.1,0.1-1.77,1.96-3.81,4.47c-2.05,2.5-3.49,4.71-3.61,4.63
									c-0.11-0.06,1.16-2.4,3.24-4.94C613.35,319.94,615.39,318.22,615.47,318.31z"/>
							</g>
						</g>
					</g>
				</g>
			</g>
			<g>
				<g>
					<g>
						<g>
							<g>
								<path style="fill:#263238;" d="M609.34,307.71c0.13-0.02,0.54,1.77,0.93,4.01c0.38,2.24,0.58,4.07,0.45,4.09
									c-0.13,0.02-0.54-1.77-0.93-4.01C609.41,309.57,609.21,307.74,609.34,307.71z"/>
							</g>
						</g>
					</g>
				</g>
			</g>
			<g>
				<g>
					<g>
						<g>
							<g>
								<path style="fill:#263238;" d="M590.34,340.97c0.12,0.06-1.21,2.86-2.97,6.26c-1.76,3.4-3.28,6.1-3.4,6.04
									c-0.12-0.06,1.21-2.86,2.97-6.26C588.7,343.61,590.22,340.91,590.34,340.97z"/>
							</g>
						</g>
					</g>
				</g>
			</g>
			<g>
				<g>
					<g>
						<g>
							<g>
								<path style="fill:#263238;" d="M579.03,329.68c0.12-0.06,1.25,1.97,2.52,4.53c1.27,2.56,2.21,4.68,2.09,4.74
									c-0.12,0.06-1.25-1.97-2.52-4.53C579.85,331.86,578.91,329.74,579.03,329.68z"/>
							</g>
						</g>
					</g>
				</g>
			</g>
			<g>
				<g>
					<g>
						<g>
							<g>
								<path style="fill:#263238;" d="M562.41,368.29c-0.03,0.14-2.05-0.25-4.56-0.43c-2.51-0.18-4.57-0.08-4.58-0.22
									c-0.02-0.12,2.05-0.44,4.61-0.26C560.44,367.56,562.44,368.17,562.41,368.29z"/>
							</g>
						</g>
					</g>
				</g>
			</g>
		</g>
		<g>
			<g>
				<g>
					<g>
						<g>
							<path style="fill:#263238;" d="M573.76,402.43l5.65,29.74c0.37,1.97,2.09,3.39,4.09,3.39h16.7c2.04,0,3.78-1.47,4.11-3.49
								l4.92-29.64H573.76z"/>
						</g>
					</g>
				</g>
			</g>
			<g>
				<g>
					<g>
						<g>
							<polygon style="fill:#455A64;" points="575.6,412.09 607.54,412.09 609.24,402.43 573.76,402.43 							"/>
						</g>
					</g>
				</g>
			</g>
			<g>
				<g>
					<g>
						<g>
							<polygon style="fill:#FAFAFA;" points="575.6,412.09 576.27,415.62 607.05,415.62 607.54,412.09 							"/>
						</g>
					</g>
				</g>
			</g>
		</g>
	</g>
</g>
<g id="Character">
	<g>
		<g>
			<g>
				<g>
					<g>
						<g>
							<g>
								<path style="fill:#E8505B;" d="M470.54,407.19l0.51,18.18c0,0,18.65,5.59,19.07,8.94l-35.21,2.25l-1.95-28.29L470.54,407.19
									z"/>
							</g>
						</g>
					</g>
					<g>
						<g>
							<g>
								<g>
									<path style="fill:#E0E0E0;" d="M460.06,424.53c-0.67,0.23-1.09,1.03-0.89,1.7c0.2,0.68,1.01,1.11,1.68,0.9
										c0.67-0.22,1.21-1.16,0.93-1.81c-0.28-0.65-1.25-1.11-1.85-0.74"/>
								</g>
							</g>
						</g>
					</g>
					<g style="opacity:0.6;">
						<g>
							<g>
								<path style="fill:#FFFFFF;" d="M454.9,436.55l-0.09-2.86l33.79-1.09c0,0,1.61,0.58,1.5,1.7L454.9,436.55z"/>
							</g>
						</g>
					</g>
					<g>
						<g>
							<g>
								<g>
									<path style="fill:#263238;" d="M471.61,425.15c0.01,0.17-0.85,0.31-1.66,0.91c-0.83,0.59-1.22,1.36-1.38,1.3
										c-0.16-0.02,0.03-1.07,1.02-1.79C470.58,424.85,471.63,424.99,471.61,425.15z"/>
								</g>
							</g>
						</g>
					</g>
					<g>
						<g>
							<g>
								<g>
									<path style="fill:#263238;" d="M475.4,426.44c0.05,0.16-0.68,0.5-1.21,1.27c-0.56,0.75-0.66,1.54-0.83,1.55
										c-0.16,0.04-0.34-0.96,0.34-1.9C474.38,426.41,475.38,426.28,475.4,426.44z"/>
								</g>
							</g>
						</g>
					</g>
					<g>
						<g>
							<g>
								<g>
									<path style="fill:#263238;" d="M477.78,430.73c-0.15,0.05-0.45-0.8-0.07-1.77c0.37-0.97,1.16-1.4,1.24-1.26
										c0.11,0.14-0.38,0.67-0.68,1.47C477.95,429.97,477.95,430.7,477.78,430.73z"/>
								</g>
							</g>
						</g>
					</g>
					<g>
						<g>
							<g>
								<g>
									<path style="fill:#263238;" d="M471.03,421.02c-0.06,0.16-0.87-0.03-1.83,0.1c-0.97,0.11-1.71,0.48-1.8,0.34
										c-0.11-0.12,0.59-0.8,1.73-0.94C470.27,420.38,471.11,420.88,471.03,421.02z"/>
								</g>
							</g>
						</g>
					</g>
				</g>
				<g>
					<g>
						<g>
							<g>
								<path style="fill:#263238;" d="M470.86,417.35c0.01,0.07-0.67,0.22-1.76,0.1c-0.55-0.06-1.19-0.2-1.88-0.45
									c-0.34-0.13-0.7-0.28-1.05-0.47c-0.17-0.09-0.37-0.19-0.56-0.38c-0.2-0.17-0.34-0.62-0.14-0.91
									c0.16-0.28,0.47-0.42,0.73-0.44c0.26-0.02,0.47,0.01,0.67,0.05c0.4,0.07,0.77,0.18,1.12,0.31c0.69,0.26,1.26,0.62,1.69,0.96
									c0.87,0.7,1.18,1.33,1.13,1.37c-0.07,0.06-0.51-0.45-1.38-1.02c-0.43-0.28-0.98-0.57-1.63-0.79
									c-0.32-0.11-0.67-0.19-1.03-0.25c-0.38-0.07-0.7-0.06-0.78,0.12c-0.03,0.07-0.03,0.09,0.05,0.19
									c0.09,0.1,0.24,0.18,0.41,0.28c0.32,0.18,0.65,0.34,0.97,0.47c0.63,0.27,1.23,0.44,1.75,0.54
									C470.19,417.26,470.86,417.26,470.86,417.35z"/>
							</g>
						</g>
					</g>
				</g>
				<g>
					<g>
						<g>
							<g>
								<path style="fill:#263238;" d="M470.65,417.61c-0.06,0.03-0.44-0.56-0.57-1.67c-0.06-0.55-0.05-1.22,0.12-1.95
									c0.09-0.36,0.21-0.73,0.38-1.1c0.18-0.36,0.41-0.84,1.07-0.96c0.35-0.04,0.65,0.22,0.77,0.44c0.13,0.23,0.17,0.43,0.22,0.63
									c0.09,0.41,0.11,0.81,0.08,1.19c-0.06,0.76-0.33,1.4-0.64,1.87c-0.63,0.96-1.33,1.21-1.35,1.15
									c-0.06-0.08,0.52-0.45,0.99-1.36c0.23-0.45,0.43-1.03,0.45-1.69c0.01-0.33-0.01-0.67-0.1-1.02
									c-0.08-0.37-0.24-0.66-0.38-0.62c-0.18,0.01-0.45,0.31-0.58,0.62c-0.16,0.33-0.28,0.66-0.38,0.98
									c-0.18,0.65-0.24,1.27-0.23,1.78C470.52,416.95,470.75,417.58,470.65,417.61z"/>
							</g>
						</g>
					</g>
				</g>
			</g>
		</g>
		<g>
			<g>
				<g>
					<g>
						<path style="fill:#E8505B;" d="M396.02,406.39l-2.12,23.35l-7,17.99c-0.5,1.3,0.19,2.75,1.52,3.16l0,0
							c0.74,0.23,1.55,0.1,2.17-0.38c3.94-3,18.4-14.13,18.46-15.85c0.07-1.99,3.87-24.49,3.87-24.49L396.02,406.39z"/>
					</g>
				</g>
			</g>
			<g style="opacity:0.6;">
				<g>
					<g>
						<path style="fill:#FFFFFF;" d="M388.42,450.9l20.8-17.8l-0.11,0.99c-0.1,0.85-0.49,1.65-1.12,2.23
							c-1.68,1.57-6.4,5.8-17.34,14.21C390.02,451.02,389.18,451.16,388.42,450.9L388.42,450.9z"/>
					</g>
				</g>
			</g>
			<g style="opacity:0.6;">
				<g>
					<g>
						<g>
							<path style="fill:#FFFFFF;" d="M405.3,425.04c-0.63,0.34-0.92,1.2-0.61,1.84s1.18,0.95,1.82,0.62
								c0.64-0.33,1.02-1.35,0.64-1.95c-0.38-0.6-1.43-0.9-1.96-0.44"/>
						</g>
					</g>
				</g>
			</g>
			<g>
				<g>
					<g>
						<g>
							<path style="fill:#263238;" d="M394.91,441.33c-0.14,0.05-0.53-1.23-1.84-2.05c-1.29-0.85-2.61-0.67-2.62-0.82
								c-0.01-0.06,0.3-0.21,0.86-0.22c0.55-0.02,1.33,0.15,2.05,0.61c0.72,0.46,1.19,1.1,1.4,1.61
								C394.97,440.97,394.97,441.32,394.91,441.33z"/>
						</g>
					</g>
				</g>
			</g>
			<g>
				<g>
					<g>
						<g>
							<path style="fill:#263238;" d="M392.89,444.26c-0.12,0.09-0.78-0.75-1.95-1.24c-1.16-0.51-2.22-0.4-2.24-0.55
								c-0.05-0.13,1.12-0.49,2.44,0.08C392.47,443.11,393.02,444.21,392.89,444.26z"/>
						</g>
					</g>
				</g>
			</g>
			<g>
				<g>
					<g>
						<g>
							<path style="fill:#263238;" d="M398.45,437.68c-0.12,0.1-1.13-1.2-2.88-2.11c-1.73-0.94-3.38-1.04-3.36-1.2
								c-0.02-0.13,1.74-0.26,3.61,0.74C397.68,436.09,398.57,437.63,398.45,437.68z"/>
						</g>
					</g>
				</g>
			</g>
			<g>
				<g>
					<g>
						<g>
							<path style="fill:#263238;" d="M399.69,430.63c-0.08,0.13-1.3-0.55-2.97-0.8c-1.66-0.27-3.04,0-3.08-0.15
								c-0.05-0.12,1.37-0.65,3.16-0.36C398.59,429.6,399.78,430.53,399.69,430.63z"/>
						</g>
					</g>
				</g>
			</g>
			<g>
				<g>
					<g>
						<g>
							<path style="fill:#263238;" d="M400.49,423.79c-0.09,0.13-1.29-0.8-3.07-0.92c-1.78-0.16-3.11,0.56-3.18,0.42
								c-0.03-0.05,0.26-0.32,0.83-0.57c0.57-0.25,1.43-0.45,2.39-0.37c0.96,0.08,1.78,0.41,2.3,0.74
								C400.28,423.44,400.53,423.75,400.49,423.79z"/>
						</g>
					</g>
				</g>
			</g>
			<g>
				<g>
					<g>
						<g>
							<path style="fill:#263238;" d="M397.6,421.58c-0.03,0-0.05-0.32,0.07-0.88c0.12-0.56,0.37-1.37,0.96-2.23
								c0.3-0.4,0.63-0.93,1.31-1.16c0.34-0.12,0.82,0,1.06,0.34c0.24,0.33,0.28,0.72,0.25,1.09c-0.19,1.48-1.63,2.76-3.31,2.79
								c-1.69-0.01-3.1-1.13-3.61-2.49c-0.11-0.35-0.16-0.76,0.06-1.14c0.22-0.38,0.71-0.48,1.04-0.39
								c0.68,0.18,1.07,0.63,1.44,0.97c0.73,0.74,1.15,1.47,1.38,1.99c0.24,0.52,0.29,0.84,0.27,0.85c-0.09,0.05-0.46-1.21-1.9-2.57
								c-0.37-0.32-0.79-0.71-1.28-0.82c-0.24-0.05-0.46,0.02-0.57,0.21c-0.11,0.18-0.1,0.48,0,0.75c0.44,1.11,1.73,2.14,3.16,2.12
								c1.42,0,2.68-1.14,2.85-2.32c0.04-0.29-0.01-0.58-0.14-0.77c-0.13-0.18-0.36-0.26-0.58-0.19c-0.47,0.13-0.83,0.59-1.13,0.96
								C397.75,420.28,397.7,421.61,397.6,421.58z"/>
						</g>
					</g>
				</g>
			</g>
		</g>
		<g>
			<polygon style="fill:#263238;" points="390.71,239.52 389.32,421.65 414.93,423.29 420.32,271.15 451.02,422.43 474.3,419.98 
				449.54,239.49 			"/>
		</g>
		<g>
			<g>
				<g>
					<g>
						<g>
							<g>
								<g>
									<g>
										<g>
											<g>
												<g>
													<g>
														<g>
															<g>
																<g>
																	<g>
																		<g>
																			<path style="fill:#B78876;" d="M421.85,91.63c-8.65-0.67-16.18,5.87-16.7,14.53
																				c-0.43,7.21-0.83,15.01-0.78,18.94c0.1,8.43,8.54,9.74,8.54,9.74s-0.21,2.5-0.44,5.6
																				c-0.47,6.24,4.31,11.64,10.56,11.93l0,0c6.13,0.28,11.33-4.46,11.6-10.59l1.53-33.97
																				C436.53,99.44,430.2,92.28,421.85,91.63L421.85,91.63z"/>
																		</g>
																	</g>
																</g>
															</g>
														</g>
													</g>
												</g>
											</g>
											<g>
												<g>
													<g>
														<g>
															<g>
																<g>
																	<g>
																		<g>
																			<path style="fill:#AA6550;" d="M412.89,134.72c0,0,5.33,0.43,10.99-3.12c0,0-2.6,6.07-11.01,5.31L412.89,134.72z
																				"/>
																		</g>
																	</g>
																</g>
															</g>
														</g>
													</g>
												</g>
											</g>
										</g>
									</g>
								</g>
								<g>
									<g>
										<g>
											<g>
												<g>
													<g>
														<g>
															<g>
																<g>
																	<path style="fill:#B78876;" d="M435.38,110.7c0.14-0.06,5.79-1.71,5.61,4.05c-0.18,5.76-5.93,4.39-5.94,4.22
																		C435.04,118.81,435.38,110.7,435.38,110.7z"/>
																</g>
															</g>
														</g>
													</g>
												</g>
											</g>
										</g>
									</g>
									<g>
										<g>
											<g>
												<g>
													<g>
														<g>
															<g>
																<g>
																	<g>
																		<path style="fill:#AA6550;" d="M436.88,116.85c0.03-0.02,0.1,0.07,0.27,0.16c0.16,0.08,0.45,0.14,0.75,0.04
																			c0.62-0.2,1.16-1.15,1.22-2.19c0.03-0.52-0.06-1.03-0.23-1.45c-0.16-0.43-0.43-0.73-0.73-0.79
																			c-0.3-0.08-0.53,0.1-0.6,0.26c-0.08,0.16-0.05,0.28-0.08,0.28c-0.02,0.01-0.12-0.1-0.07-0.34
																			c0.03-0.11,0.1-0.25,0.24-0.35c0.14-0.11,0.35-0.16,0.56-0.13c0.44,0.05,0.83,0.47,1.02,0.93
																			c0.21,0.46,0.33,1.03,0.3,1.62c-0.07,1.16-0.7,2.23-1.54,2.44c-0.41,0.09-0.74-0.04-0.91-0.18
																			C436.89,116.99,436.86,116.86,436.88,116.85z"/>
																	</g>
																</g>
															</g>
														</g>
													</g>
												</g>
											</g>
										</g>
									</g>
								</g>
								<g>
									<g>
										<g>
											<g>
												<g>
													<g>
														<g>
															<g>
																<g>
																	<g>
																		<g>
																			<g>
																				<g>
																					<g>
																						<path style="fill:#263238;" d="M407.29,111.53c-0.02,0.64,0.5,1.18,1.16,1.21c0.66,0.04,1.22-0.45,1.24-1.09
																							c0.02-0.64-0.5-1.18-1.16-1.22C407.87,110.4,407.31,110.89,407.29,111.53z"/>
																					</g>
																				</g>
																			</g>
																		</g>
																	</g>
																</g>
															</g>
														</g>
														<g>
															<g>
																<g>
																	<g>
																		<g>
																			<g>
																				<g>
																					<g>
																						<g>
																							<path style="fill:#263238;" d="M407.32,109.17c0.15,0.16,1.06-0.52,2.36-0.51c1.29-0.02,2.24,0.65,2.39,0.49
																								c0.07-0.07-0.08-0.35-0.5-0.66c-0.41-0.3-1.1-0.59-1.91-0.59c-0.81,0-1.49,0.3-1.88,0.61
																								C407.38,108.81,407.25,109.1,407.32,109.17z"/>
																						</g>
																					</g>
																				</g>
																			</g>
																		</g>
																	</g>
																</g>
															</g>
														</g>
													</g>
													<g>
														<g>
															<g>
																<g>
																	<g>
																		<g>
																			<g>
																				<g>
																					<g>
																						<path style="fill:#263238;" d="M420.02,111.53c-0.02,0.64,0.5,1.18,1.16,1.21c0.66,0.04,1.22-0.45,1.24-1.09
																							c0.02-0.64-0.5-1.18-1.16-1.22C420.6,110.4,420.05,110.89,420.02,111.53z"/>
																					</g>
																				</g>
																			</g>
																		</g>
																	</g>
																</g>
															</g>
														</g>
														<g>
															<g>
																<g>
																	<g>
																		<g>
																			<g>
																				<g>
																					<g>
																						<g>
																							<path style="fill:#263238;" d="M420.06,109.41c0.15,0.16,1.06-0.52,2.36-0.51c1.29-0.02,2.25,0.65,2.39,0.49
																								c0.07-0.07-0.08-0.35-0.5-0.65c-0.41-0.3-1.1-0.59-1.91-0.59c-0.81,0-1.49,0.3-1.88,0.61
																								C420.12,109.06,419.98,109.34,420.06,109.41z"/>
																						</g>
																					</g>
																				</g>
																			</g>
																		</g>
																	</g>
																</g>
															</g>
														</g>
													</g>
													<g>
														<g>
															<g>
																<g>
																	<g>
																		<g>
																			<g>
																				<g>
																					<g>
																						<path style="fill:#263238;" d="M415.35,119.02c0.01-0.07-0.8-0.21-2.1-0.38c-0.33-0.03-0.64-0.1-0.7-0.33
																							c-0.08-0.24,0.06-0.6,0.22-0.98c0.31-0.8,0.64-1.64,0.98-2.52c1.36-3.59,2.34-6.54,2.2-6.59
																							c-0.15-0.05-1.36,2.81-2.72,6.4c-0.33,0.88-0.64,1.73-0.94,2.53c-0.13,0.38-0.34,0.8-0.17,1.3
																							c0.09,0.25,0.33,0.43,0.54,0.48c0.21,0.06,0.4,0.07,0.56,0.08C414.53,119.09,415.35,119.09,415.35,119.02z"/>
																					</g>
																				</g>
																			</g>
																		</g>
																	</g>
																</g>
															</g>
														</g>
													</g>
													<g>
														<g>
															<g>
																<g>
																	<g>
																		<g>
																			<g>
																				<g>
																					<g>
																						<path style="fill:#263238;" d="M419.17,119.92c-0.21-0.01-0.21,1.39-1.42,2.39c-1.2,1-2.7,0.84-2.71,1.04
																							c-0.02,0.09,0.33,0.27,0.97,0.29c0.62,0.02,1.53-0.18,2.26-0.79c0.73-0.61,1.05-1.43,1.1-2.01
																							C419.42,120.26,419.26,119.91,419.17,119.92z"/>
																					</g>
																				</g>
																			</g>
																		</g>
																	</g>
																</g>
															</g>
														</g>
													</g>
												</g>
											</g>
										</g>
										<g>
											<g>
												<g>
													<g>
														<g>
															<g>
																<g>
																	<g>
																		<path style="fill:#263238;" d="M419.72,104.33c0.13,0.35,1.42,0.19,2.94,0.37c1.52,0.15,2.75,0.6,2.95,0.28
																			c0.09-0.15-0.12-0.48-0.62-0.82c-0.49-0.34-1.28-0.66-2.19-0.77c-0.91-0.1-1.75,0.04-2.3,0.27
																			C419.95,103.89,419.67,104.17,419.72,104.33z"/>
																	</g>
																</g>
															</g>
														</g>
													</g>
												</g>
											</g>
										</g>
										<g>
											<g>
												<g>
													<g>
														<g>
															<g>
																<g>
																	<g>
																		<path style="fill:#263238;" d="M407.8,105.42c0.23,0.29,1.12-0.01,2.19-0.03c1.07-0.05,1.98,0.2,2.19-0.11
																			c0.09-0.15-0.05-0.44-0.45-0.72c-0.39-0.28-1.05-0.5-1.78-0.48c-0.74,0.02-1.38,0.29-1.75,0.59
																			C407.82,104.97,407.69,105.28,407.8,105.42z"/>
																	</g>
																</g>
															</g>
														</g>
													</g>
												</g>
											</g>
										</g>
									</g>
								</g>
							</g>
						</g>
					</g>
				</g>
			</g>
			<g>
				<g>
					<path style="fill:#263238;" d="M436.04,110.44c0.07,0.88,0.04,1.9-0.14,2.77c-0.19,0.87-0.68,1.71-1.47,2.1
						c-1.45,0.72-3.27-0.39-3.91-1.87c-0.65-1.48-0.47-3.18-0.32-4.79c0.2-2.2,0.32-4.43-0.1-6.6s-1.44-4.28-3.17-5.66
						c-1.73-1.37-4.23-1.87-6.21-0.9c-1.22,0.6-2.14,1.68-3.28,2.42c-1.03,0.67-2.27,1.07-3.48,0.88c-1.21-0.19-2.35-1.04-2.67-2.22
						c-0.35-1.29,0.32-2.69,1.36-3.54c1.04-0.84,2.37-1.22,3.68-1.47c3.64-0.69,7.49-0.52,10.94,0.85c3.44,1.37,6.49,3.97,7.94,7.39
						c1.68,3.95,1.46,6.35,0.97,10.64"/>
				</g>
			</g>
		</g>
		<g>
			<g>
				<path style="fill:#B78876;" d="M318.6,154.59l12.3,2.48l16.91,10.77l-5.77,10.98c0,0-5.95-1.66-7.68-3.19
					c-1.74-1.53-3.66-1.71-3.66-1.71s0.12,2.72-1.94,2.25c-2.06-0.47-5.49-1.05-4.91-3.95c0,0-1.53-0.42-1.45-2.44
					c0,0-1.7-0.13-1.24-2.94c0.46-2.81,2.49-6.45,8.1-5.42c0.29,0.06,0.68-0.5,0.17-0.69l-8.67-2.04
					C320.77,158.68,315.34,156.53,318.6,154.59z"/>
			</g>
			<g>
				<g>
					<path style="fill:#AA6550;" d="M324.67,166.7c0.02-0.07,0.81,0.13,2.06,0.5c0.63,0.21,1.36,0.36,2.21,0.75
						c0.41,0.21,0.84,0.58,1,1.14c0.16,0.58-0.15,1.2-0.59,1.54c-0.95,0.72-2.09,0.5-2.9,0.38c-0.86-0.13-1.63-0.29-2.27-0.47
						c-1.27-0.36-2-0.74-1.97-0.8c0.03-0.08,0.79,0.18,2.06,0.44c0.63,0.13,1.39,0.25,2.24,0.35c0.43,0.04,0.88,0.12,1.3,0.09
						c0.43-0.03,0.88-0.14,1.21-0.4c0.33-0.26,0.51-0.67,0.42-1.01c-0.09-0.36-0.39-0.66-0.73-0.84c-0.71-0.36-1.5-0.58-2.1-0.82
						C325.39,167.09,324.65,166.77,324.67,166.7z"/>
				</g>
			</g>
			<g>
				<g>
					<path style="fill:#AA6550;" d="M327.67,165.11c-0.02,0.15-0.75,0.17-1.47,0.63c-0.73,0.45-1.07,1.1-1.21,1.05
						c-0.14-0.02,0.03-0.93,0.93-1.49C326.82,164.74,327.72,164.98,327.67,165.11z"/>
				</g>
			</g>
			<g>
				<g>
					<path style="fill:#AA6550;" d="M328.97,170.5c0.02-0.02,0.13,0.01,0.28,0.17c0.19,0.16,0.22,0.53,0.27,0.84
						c0.06,0.38,0,0.89-0.35,1.31c-0.36,0.46-1.07,0.56-1.6,0.47c-1.06-0.16-2.01-0.32-2.69-0.54c-0.68-0.22-1.05-0.46-1.03-0.52
						c0.03-0.07,0.44,0.05,1.12,0.17c0.67,0.13,1.63,0.22,2.67,0.38c0.5,0.07,0.92,0.01,1.17-0.27c0.26-0.27,0.35-0.65,0.34-0.96
						c-0.01-0.38,0.03-0.6-0.06-0.75C329.01,170.62,328.94,170.53,328.97,170.5z"/>
				</g>
			</g>
			<g>
				<g>
					<path style="fill:#AA6550;" d="M328.88,172.76c-0.01-0.06,0.22-0.17,0.6-0.06c0.37,0.1,0.79,0.43,1.1,0.88
						c0.37,0.55,0.24,1.13,0.13,1.45c-0.12,0.34-0.27,0.5-0.33,0.48c-0.07-0.03-0.05-0.24-0.03-0.56c0.02-0.31,0.03-0.75-0.2-1.07
						c-0.28-0.39-0.57-0.69-0.82-0.84C329.08,172.88,328.88,172.84,328.88,172.76z"/>
				</g>
			</g>
			<g>
				<g>
					<path style="fill:#B78876;" d="M338.33,166.4l-5.94-0.25l-6.23,1.22c0,0-0.51,1.13,2.37,1.9c2.89,0.77,5.55,0.26,5.55,0.26
						s2.57,3.75,5.91,4.61"/>
				</g>
				<g>
					<g>
						<path style="fill:#AA6550;" d="M340,174.15c-0.01,0.02-0.2-0.01-0.55-0.1c-0.35-0.1-0.85-0.29-1.45-0.62
							c-1.19-0.65-2.71-1.9-4.1-3.76l0.23,0.1c-2.01,0.31-4.44,0.31-6.83-0.64c-0.35-0.16-0.69-0.34-0.98-0.62
							c-0.28-0.28-0.57-0.69-0.39-1.24l0.04-0.12l0.15-0.03c2.29-0.43,4.41-0.83,6.24-1.17l0.03,0l0.02,0
							c1.8,0.1,3.29,0.19,4.32,0.27c1.03,0.08,1.61,0.14,1.61,0.19c0,0.04-0.59,0.06-1.62,0.05c-1.03-0.01-2.52-0.04-4.33-0.09
							l0.05,0c-1.82,0.37-3.94,0.8-6.22,1.26l0.19-0.15c-0.05,0.15,0.06,0.45,0.28,0.65c0.22,0.21,0.52,0.38,0.84,0.52
							c2.22,0.89,4.63,0.93,6.53,0.67l0.15-0.02l0.08,0.12c1.3,1.82,2.75,3.1,3.86,3.79C339.26,173.92,340.02,174.08,340,174.15z"/>
					</g>
				</g>
			</g>
			<g>
				<g>
					<path style="fill:#AA6550;" d="M331.09,162.93c-0.08,0.12-0.65-0.14-1.08-0.75c-0.43-0.61-0.49-1.23-0.35-1.27
						c0.14-0.04,0.4,0.44,0.78,0.97C330.8,162.4,331.17,162.81,331.09,162.93z"/>
				</g>
			</g>
		</g>
		<g>
			<g>
				<path style="fill:#F5F5F5;" d="M396.23,240.92c10.21,4.41,22.15,5.72,35.63,4.29l9.87-100.56l-7-5.38l-16.13,11.99l-5.53-11.55
					l-12.95,18.61L396.23,240.92z"/>
			</g>
			<g>
				<g>
					<path style="fill:#263238;" d="M413.18,245.77c-0.01,0-0.03-0.08-0.06-0.24c-0.03-0.19-0.07-0.42-0.11-0.71
						c-0.09-0.67-0.22-1.58-0.38-2.74c-0.1-1.2-0.18-2.66-0.28-4.37c-0.09-1.7-0.08-3.65-0.13-5.79
						c-0.06-8.59,0.51-20.44,1.47-33.49c0.96-13.06,2.14-24.86,3.09-33.39c0.47-4.26,0.91-7.71,1.23-10.09
						c0.16-1.19,0.31-2.11,0.41-2.73c0.05-0.29,0.09-0.52,0.12-0.71c0.03-0.16,0.05-0.24,0.06-0.24c0.01,0,0.01,0.08-0.01,0.25
						c-0.02,0.19-0.04,0.43-0.07,0.72c-0.08,0.67-0.18,1.59-0.31,2.74c-0.26,2.43-0.62,5.87-1.07,10.1
						c-0.86,8.53-1.98,20.33-2.94,33.39c-0.96,13.05-1.59,24.88-1.62,33.46c0.02,2.14-0.01,4.08,0.05,5.78
						c0.08,1.69,0.14,3.15,0.2,4.36c0.12,1.16,0.21,2.07,0.28,2.74c0.02,0.29,0.04,0.52,0.06,0.72
						C413.19,245.68,413.19,245.77,413.18,245.77z"/>
				</g>
			</g>
			<g>
				<path style="fill:#E8505B;" d="M426.76,260.58c0,0-7.52-78.61-2.85-87.39c3.61-6.8,9.2-21,11.53-27.06
					c0.7-1.81,0.65-3.83-0.14-5.6l-0.56-1.24l7,5.38l14.37,7.72l-8.67,66.6l9.82,33.79L426.76,260.58z"/>
			</g>
			<g style="opacity:0.3;">
				<g>
					<path d="M424.83,237.82c6.11-1.28,3.47,2.27,9.65,1.37c3.34-0.49,3.51-2.44,6.26-4.39c2.75-1.96,6.91-3.59,10.29-3.52
						l-1.37-4.71l-25.56,0.95L424.83,237.82z"/>
				</g>
			</g>
			<g>
				<path style="fill:#E8505B;" d="M389.61,156.18l2.49,62.8l-5.04,35.15l12.59,4.65l5.51-97.12c0.06-3.61,0.87-7.17,2.38-10.45
					l4.93-10.76l-16.7,5.69L389.61,156.18z"/>
			</g>
			<g>
				<g>
					<path style="fill:#E8505B;" d="M456.12,152.38c0,0,7.89,6.82,9.66,15.99c1.29,6.69,5.1,30.15,6.16,42.2
						c0.66,7.49-4.6,14.25-12.03,15.34c-0.11,0.02-0.23,0.03-0.34,0.05c-11.43,1.56-30.63-0.6-30.63-0.6l3.35-14.6
						c0,0,16.98-2.45,20.03-4.5l-4.05-27.09C448.26,179.18,451.58,153.16,456.12,152.38z"/>
				</g>
			</g>
			<g>
				<path style="fill:#E8505B;" d="M348.92,165.74l27.8,17.61c0,0,10.01-29.42,16.45-36.33l7.74-2.64l-7.06,56.44
					c-0.53,3.19-2.39,6.01-5.1,7.76l0,0c-4.17,2.68-9.59,2.39-13.44-0.73l-34.01-27.58L348.92,165.74z"/>
			</g>
			<g>
				<g>
					<path style="fill:#263238;" d="M457.38,215.42c-0.09-0.01-0.04-0.64-0.17-1.64c-0.12-0.99-0.48-2.35-1.23-3.67
						c-0.76-1.32-1.74-2.32-2.54-2.93c-0.79-0.62-1.36-0.9-1.32-0.98c0.02-0.05,0.65,0.11,1.54,0.68c0.88,0.56,1.97,1.57,2.78,2.97
						c0.8,1.4,1.12,2.86,1.15,3.9C457.61,214.8,457.44,215.43,457.38,215.42z"/>
				</g>
			</g>
			<g>
				<g>
					<path style="fill:#263238;" d="M454.4,217.35c-0.17-0.03,0.59-2.68-0.07-5.9c-0.62-3.23-2.33-5.4-2.18-5.48
						c0.05-0.04,0.54,0.44,1.13,1.38c0.59,0.93,1.24,2.34,1.57,4.01c0.33,1.66,0.27,3.22,0.08,4.3
						C454.73,216.74,454.46,217.37,454.4,217.35z"/>
				</g>
			</g>
			<g>
				<g>
					<path style="fill:#263238;" d="M454.18,155.13c0.07,0.09-1.4,0.93-3.03,3.02c-1.64,2.06-3.23,5.47-3.71,9.48
						c-0.47,4.02,0,7.7,0.37,10.33c0.19,1.23,0.34,2.28,0.47,3.12c0.11,0.74,0.16,1.15,0.12,1.16c-0.03,0.01-0.15-0.39-0.32-1.12
						c-0.17-0.73-0.4-1.79-0.64-3.1c-0.46-2.62-1-6.35-0.52-10.45c0.49-4.11,2.18-7.6,3.94-9.65c0.87-1.04,1.7-1.76,2.32-2.19
						C453.79,155.3,454.16,155.11,454.18,155.13z"/>
				</g>
			</g>
			<g style="opacity:0.3;">
				<g>
					<path d="M452.52,206.03c1.31,1.54,1.95,3.58,2.03,5.6c0.08,2.02-0.35,4.04-0.97,5.96c-0.12,0.36-0.23,0.77-0.03,1.09
						c0.26,0.4,0.91,0.36,1.27,0.04c0.36-0.32,0.5-0.81,0.63-1.27c-0.24,0.27,0.11,0.73,0.47,0.71c0.36-0.02,0.63-0.33,0.83-0.63
						c1.12-1.74,1.02-4.04,0.24-5.95s-2.18-3.49-3.6-4.99"/>
				</g>
			</g>
			<g>
				<g>
					<path style="fill:#263238;" d="M382.38,194.35c-0.11,0.08-1.83-2.16-3.4-5.25c-1.58-3.09-2.39-5.79-2.26-5.83
						c0.14-0.05,1.16,2.55,2.72,5.6C381,191.92,382.51,194.27,382.38,194.35z"/>
				</g>
			</g>
			<g>
				<g>
					<path style="fill:#263238;" d="M378.49,196.47c-0.07,0.02-0.34-0.69-0.7-1.88c-0.35-1.18-0.77-2.84-1.11-4.7
						c-0.34-1.86-0.54-3.55-0.64-4.79c-0.09-1.23-0.09-2-0.02-2c0.15-0.01,0.48,3.01,1.17,6.7
						C377.87,193.48,378.63,196.43,378.49,196.47z"/>
				</g>
			</g>
			<g>
				<g>
					<path style="fill:#263238;" d="M392.1,164.08c0.14,0,0.26,12.29,0.26,27.45c0,15.16-0.12,27.45-0.26,27.45
						s-0.26-12.29-0.26-27.45C391.84,176.37,391.95,164.08,392.1,164.08z"/>
				</g>
			</g>
			<g>
				<g>
					<path style="fill:#263238;" d="M409.03,141.61c0.01,0.01-0.1,0.18-0.33,0.49c-0.26,0.35-0.59,0.8-1,1.36
						c-0.85,1.19-2.06,2.94-3.36,5.22c-1.28,2.28-2.78,5.09-3.56,8.48c-0.31,1.68-0.51,3.55-0.79,5.44c-0.83,2,1.14,3.3,2.74,4.39
						l0.4,0.27l-0.45,0.19c-0.53,0.23-1.09,0.63-1.63,1.04c-0.72,0.56-1.41,1.15-2.03,1.72l0.08-0.21c0.31,3.97,1,7.73,1.45,11.13
						c0.48,3.38,0.9,6.42,1.27,8.99c0.33,2.5,0.61,4.54,0.81,6.02c0.08,0.67,0.14,1.21,0.19,1.63c0.04,0.37,0.05,0.57,0.03,0.57
						c-0.02,0-0.06-0.19-0.13-0.56c-0.07-0.42-0.17-0.96-0.29-1.62c-0.24-1.47-0.56-3.5-0.96-5.99c-0.39-2.56-0.86-5.6-1.38-8.98
						c-0.48-3.4-1.18-7.12-1.5-11.16l-0.01-0.13l0.09-0.08c0.64-0.58,1.33-1.18,2.07-1.75c0.56-0.42,1.11-0.84,1.76-1.11l-0.05,0.46
						c-0.87-0.56-1.71-1.17-2.4-1.95c-0.33-0.4-0.65-0.85-0.72-1.43c-0.03-0.13-0.01-0.3,0-0.43l0.05-0.36l0.1-0.71
						c0.29-1.9,0.49-3.71,0.83-5.48c0.4-1.74,1.02-3.31,1.68-4.73c0.66-1.42,1.36-2.7,2.04-3.83c1.35-2.28,2.61-4,3.51-5.16
						c0.45-0.58,0.82-1.02,1.07-1.3C408.87,141.75,409.01,141.6,409.03,141.61z"/>
				</g>
			</g>
			<g>
				<g>
					<path style="fill:#263238;" d="M439.84,143.45c0.02,0,0.06,0.14,0.14,0.42c0.08,0.28,0.16,0.7,0.25,1.24
						c0.16,1.09,0.22,2.69-0.01,4.64c-0.24,1.95-0.78,4.23-1.5,6.71c-0.68,2.49-1.63,5.2-2.85,7.92c-1.09,2.46-2.25,4.75-3.32,6.85
						l-0.05,0.11l-0.11,0.02c-0.83,0.17-1.64,0.33-2.41,0.49l0.13-0.38c0.54,0.64,1.06,1.26,1.56,1.85l0.1,0.12l-0.08,0.13
						c-1.42,2.28-2.61,4.19-3.49,5.61c-0.4,0.61-0.73,1.12-1,1.54c-0.24,0.35-0.37,0.53-0.39,0.52c-0.02-0.01,0.08-0.21,0.28-0.58
						c0.24-0.43,0.54-0.96,0.9-1.6c0.85-1.44,1.98-3.38,3.34-5.7l0.02,0.25c-0.5-0.58-1.03-1.19-1.58-1.82l-0.26-0.29l0.38-0.08
						c0.77-0.16,1.58-0.34,2.41-0.51l-0.17,0.13c1.04-2.11,2.19-4.4,3.28-6.84c1.22-2.71,2.16-5.36,2.87-7.84
						c0.75-2.46,1.32-4.71,1.6-6.62c0.28-1.92,0.28-3.49,0.18-4.57C439.93,144.05,439.79,143.47,439.84,143.45z"/>
				</g>
			</g>
			<g style="opacity:0.3;">
				<g>
					<path d="M381.19,193.9c-1.24-3.54-2.95-7.12-4.47-10.55l-1.26-0.8c-1.03,3.15-0.63,6.6,0.47,9.72c0.1,0.28,0.24,0.59,0.52,0.69
						c0.37,0.13,0.77-0.22,0.84-0.6c0.08-0.38-0.07-0.78-0.21-1.14c0.82,1.46,1.76,2.85,2.8,4.15c0.16,0.2,0.35,0.41,0.6,0.47
						c0.41,0.09,0.81-0.29,0.89-0.7C381.46,194.72,381.32,194.29,381.19,193.9z"/>
				</g>
			</g>
			<g style="opacity:0.3;">
				<g>
					<path d="M402.19,196.89c-2.4-6.79-4.81-13.63-5.76-20.77c-0.21-1.57-0.34-3.2,0.06-4.73c0.41-1.54,1.45-2.98,2.96-3.48
						c-0.85-0.92-0.87-2.49-0.04-3.43c0.98,1.04,1.95,2.07,2.93,3.11c-1.52-0.02-2.79,1.29-3.23,2.74
						c-0.44,1.45-0.24,3.01-0.04,4.51c1,7.43,1.99,14.86,2.99,22.29"/>
				</g>
			</g>
			<g style="opacity:0.3;">
				<g>
					<path d="M434.11,173.08c1.45-5.08,2.91-10.17,4.36-15.25c-1.22,2.92-2.44,5.83-3.66,8.75c-0.51,1.22-1.04,2.47-1.92,3.46
						c-0.88,0.99-2.19,1.7-3.5,1.51c0.76,0.52,1.52,1.03,2.28,1.55c-1.63,2.63-3.23,5.51-4.87,8.14l3.51,0.3
						c1.33-2.12,2.52-4,3.85-6.11c-0.39-0.7-0.78-1.4-1.17-2.11C433.35,173.23,433.73,173.16,434.11,173.08z"/>
				</g>
			</g>
			<g>
				<polygon style="fill:#F5F5F5;" points="412.46,140.44 412.65,138 417.17,144.38 418.61,151.27 422.3,144.38 435.05,136.97 
					435.05,143.45 432.61,149.75 427.86,153.42 422.43,155.8 415.96,154.59 412.05,152.38 411.18,147.81 				"/>
			</g>
			<g>
				<g>
					<path style="fill:#263238;" d="M416.85,144.29c0.07,0.03-0.27,0.89-0.66,2.32c-0.38,1.43-0.86,3.48-0.75,5.76l0.05,0.99
						l-0.52-0.83c-0.1-0.16-0.21-0.33-0.32-0.5c-1.28-2.18-1.87-4.35-2.52-5.81c-0.61-1.48-1.14-2.33-1.07-2.37
						c0.05-0.04,0.7,0.75,1.41,2.22c0.74,1.45,1.4,3.61,2.63,5.69c0.1,0.17,0.21,0.33,0.3,0.48l-0.48,0.16
						c-0.1-2.39,0.45-4.46,0.93-5.89C416.34,145.07,416.8,144.26,416.85,144.29z"/>
				</g>
			</g>
			<g>
				<g>
					<path style="fill:#263238;" d="M435.05,141.19c0.02,0,0.03,0.09,0.03,0.26c0.02,0.17-0.02,0.43-0.08,0.75
						c-0.14,0.65-0.58,1.53-1.35,2.41c-0.77,0.89-1.85,1.78-3.12,2.64c-1.3,0.81-2.6,1.81-3.97,2.92c-1.23,0.97-2.41,1.92-3.6,2.65
						l-0.47,0.29l0.1-0.54c0.21-1.14,0.15-2.28,0.11-3.27c-0.05-1-0.14-1.87-0.21-2.6c-0.15-1.45-0.25-2.31-0.19-2.32
						c0.05-0.01,0.26,0.83,0.49,2.28c0.11,0.73,0.24,1.61,0.32,2.61c0.07,1.01,0.16,2.14-0.04,3.39l-0.37-0.25
						c1.14-0.72,2.3-1.67,3.53-2.64c1.36-1.1,2.73-2.13,4.03-2.91c1.26-0.82,2.34-1.66,3.11-2.49c0.78-0.82,1.23-1.63,1.43-2.22
						C435,141.55,435,141.19,435.05,141.19z"/>
				</g>
			</g>
			<g>
				<g>
					<path style="fill:#263238;" d="M450.46,226.53c0,0.01-0.14,0.03-0.41,0.05c-0.31,0.02-0.7,0.04-1.18,0.07
						c-1.04,0.05-2.55,0.11-4.46,0.14c-1.91,0.03-4.22,0.05-6.85,0.02c-1.31-0.01-2.7-0.04-4.17-0.09c-0.73-0.03-1.48-0.06-2.24-0.1
						c-0.38-0.03-0.77-0.05-1.16-0.08l-0.59-0.06c-0.1-0.02-0.2-0.02-0.31-0.05c-0.06-0.01-0.1-0.01-0.17-0.04l-0.1-0.03
						c-0.02,0.01-0.19-0.13-0.2-0.22l-0.01-0.06l0.01-0.04c0.87-3.95,1.83-8.28,2.84-12.81c0.19-0.85,0.38-1.7,0.56-2.53l0.04-0.17
						l0.18-0.03c7.82-1.15,14.94-2.32,19.99-4.42l-0.11,0.21c-0.49-3.5-0.88-6.36-1.17-8.4c-0.12-0.95-0.22-1.71-0.29-2.29
						c-0.06-0.53-0.08-0.8-0.06-0.81c0.02,0,0.08,0.27,0.17,0.79c0.1,0.57,0.23,1.33,0.39,2.28c0.33,2.04,0.78,4.89,1.34,8.38
						l0.02,0.15l-0.14,0.06c-5.09,2.2-12.24,3.42-20.06,4.58l0.22-0.2c-0.18,0.83-0.37,1.68-0.56,2.53
						c-1.02,4.53-1.99,8.86-2.87,12.8l-0.21-0.06c6.25,0.28,11.72,0.4,15.52,0.4c1.87,0,3.37,0,4.46,0c0.48,0,0.87,0,1.19,0
						C450.32,226.5,450.46,226.51,450.46,226.53z"/>
				</g>
			</g>
		</g>
		<g>
			<g>
				<g>
					<polygon style="fill:#455A64;" points="453.67,187.52 445.02,208.5 432.28,210.76 428.86,226.1 437.28,226.59 437.21,227.15 
						404.2,228.09 418.17,187.52 					"/>
				</g>
				<g>
					<polygon style="fill:#455A64;" points="413.51,180.56 418.17,187.52 404.2,228.09 399.65,220.31 					"/>
				</g>
				<g>
					<polygon style="fill:#EBEBEB;" points="453.67,187.52 448.57,182.56 413.51,180.56 418.17,187.52 					"/>
				</g>
				<g>
					<g>
						<path style="fill:#263238;" d="M418.17,187.52c0.14,0.05-2.88,9.17-6.74,20.37c-3.86,11.21-7.1,20.25-7.23,20.2
							c-0.14-0.05,2.88-9.17,6.74-20.37C414.79,196.51,418.03,187.47,418.17,187.52z"/>
					</g>
				</g>
			</g>
			<g>
				<g>
					<path style="fill:#B78876;" d="M431.81,211.92l-6.05-0.52c0,0-2.34-3.89-3.88-5.24c-1.54-1.36-9.49-5.16-9.49-5.16
						s-1.16,1.39,0,2.79c0.52,0.63,4.28,2.74,4.28,2.74l0,0c0.45,1.55-0.89,3.03-2.47,2.73c-2.33-0.43-5.04-0.91-5.4-0.91
						c-0.4,0-2.72-2.2-4.43-3.87c-1.02-1-2.85-0.04-2.44,1.33c0.04,0.14,0.11,0.26,0.2,0.34c0,0-2.45-0.09-0.26,3.21
						c0,0-0.51,3.04,1.29,4.44c0,0,0.78,3.68,1.93,4.95c1.15,1.27,12.43,3.68,12.43,3.68l11.75,1.14L431.81,211.92z"/>
				</g>
				<g>
					<g>
						<path style="fill:#AA6550;" d="M413.18,212.76c0,0.07-0.77,0.11-2.02,0.05c-1.23-0.08-3.03-0.25-4.74-1.25
							c-1.71-1.03-2.68-2.57-3.3-3.63c-0.62-1.09-0.92-1.79-0.86-1.83c0.07-0.04,0.48,0.61,1.17,1.63c0.7,1,1.68,2.43,3.26,3.37
							c1.58,0.92,3.3,1.16,4.51,1.33C412.42,212.6,413.19,212.68,413.18,212.76z"/>
					</g>
				</g>
				<g>
					<g>
						<path style="fill:#AA6550;" d="M412.02,215.37c0.01,0.07-0.7,0.23-1.84,0.14c-0.57-0.04-1.25-0.12-1.99-0.29
							c-0.73-0.18-1.57-0.39-2.32-0.95c-0.72-0.55-1.25-1.2-1.73-1.78c-0.43-0.53-0.84-1.05-1.24-1.55c-0.7-0.89-1.1-1.46-1.05-1.51
							c0.05-0.05,0.56,0.44,1.33,1.27c0.38,0.41,0.84,0.91,1.33,1.47c0.49,0.55,1.03,1.17,1.67,1.67c0.63,0.48,1.43,0.7,2.13,0.9
							c0.71,0.18,1.36,0.31,1.91,0.39C411.32,215.32,412.01,215.3,412.02,215.37z"/>
					</g>
				</g>
				<g>
					<g>
						<path style="fill:#AA6550;" d="M410.44,218.28c-0.03,0.21-2.05-0.22-4.43-0.88c-0.4-0.09-0.64-0.34-0.87-0.53
							c-0.23-0.2-0.43-0.42-0.61-0.62c-0.37-0.42-0.66-0.82-0.87-1.18c-0.44-0.72-0.56-1.23-0.5-1.26c0.07-0.03,0.3,0.41,0.8,1.05
							c0.25,0.32,0.55,0.68,0.92,1.06c0.18,0.19,0.38,0.38,0.6,0.56c0.22,0.17,0.44,0.37,0.66,0.41c1.22,0.33,2.28,0.67,3.06,0.92
							C409.97,218.07,410.44,218.22,410.44,218.28z"/>
					</g>
				</g>
			</g>
		</g>
	</g>
</g>
</svg>
