<svg width="137" height="137" viewBox="0 0 137 137" fill="none" xmlns="http://www.w3.org/2000/svg">
<path d="M118.805 105.961H26.7578V22.4766C26.7578 21.8879 26.2762 21.4062 25.6875 21.4062H18.1953C17.6066 21.4062 17.125 21.8879 17.125 22.4766V114.523C17.125 115.112 17.6066 115.594 18.1953 115.594H118.805C119.393 115.594 119.875 115.112 119.875 114.523V107.031C119.875 106.443 119.393 105.961 118.805 105.961ZM36.3906 97.3984H108.102C108.69 97.3984 109.172 96.9168 109.172 96.3281V37.9961C109.172 37.0328 108.008 36.5645 107.339 37.2335L79.2031 65.3693L62.426 48.7795C62.2248 48.5803 61.9532 48.4686 61.6701 48.4686C61.387 48.4686 61.1153 48.5803 60.9142 48.7795L35.628 74.1459C35.5298 74.2443 35.4521 74.3611 35.3992 74.4897C35.3464 74.6183 35.3196 74.7561 35.3203 74.8951V96.3281C35.3203 96.9168 35.802 97.3984 36.3906 97.3984Z" fill="#22DDAA"/>
</svg>
