<svg width="367" height="254" viewBox="0 0 367 254" fill="none" xmlns="http://www.w3.org/2000/svg">
<path d="M0 10C0 4.47715 4.47715 0 10 0H357C362.523 0 367 4.47715 367 10V244C367 249.523 362.523 254 357 254H10C4.47716 254 0 249.523 0 244V10Z" fill="#11146F"/>
<g style="mix-blend-mode:screen">
<path d="M126 140.5H230V147H126V140.5Z" fill="#D0D0D0"/>
<path d="M129.25 95H226.75V140.5H129.25V95Z" fill="#62727A"/>
<path d="M135.75 99.875H158.5V140.5H135.75V99.875Z" fill="#D6EEF0"/>
<path d="M129.25 86.875H226.75V96.625H129.25V86.875Z" fill="#3E4347"/>
<path d="M126 86.875C126 90.45 128.925 93.375 132.5 93.375C136.075 93.375 139 90.45 139 86.875H126Z" fill="#11146F"/>
<path d="M139 86.875C139 90.45 141.925 93.375 145.5 93.375C149.075 93.375 152 90.45 152 86.875H139Z" fill="#35A265"/>
<path d="M152 86.875C152 90.45 154.925 93.375 158.5 93.375C162.075 93.375 165 90.45 165 86.875H152Z" fill="#11146F"/>
<path d="M152 72.25H165V86.875H152V72.25Z" fill="#11146F" fill-opacity="0.7"/>
<path d="M165 86.875C165 90.45 167.925 93.375 171.5 93.375C175.075 93.375 178 90.45 178 86.875H165Z" fill="#35A265"/>
<path d="M165 72.25H178V86.875H165V72.25Z" fill="#35A265" fill-opacity="0.7"/>
<path d="M126 72.25H139V86.875H126V72.25Z" fill="#11146F" fill-opacity="0.7"/>
<path d="M139 72.25H152V86.875H139V72.25Z" fill="#35A265" fill-opacity="0.7"/>
<path d="M204 72.25H217V86.875H204V72.25Z" fill="#11146F" fill-opacity="0.7"/>
<path d="M217 72.25H230V86.875H217V72.25Z" fill="#35A265" fill-opacity="0.7"/>
<path d="M178 86.875C178 90.45 180.925 93.375 184.5 93.375C188.075 93.375 191 90.45 191 86.875H178Z" fill="#11146F"/>
<path d="M178 72.25H191V86.875H178V72.25Z" fill="#11146F" fill-opacity="0.7"/>
<path d="M191 86.875C191 90.45 193.925 93.375 197.5 93.375C201.075 93.375 204 90.45 204 86.875H191Z" fill="#35A265"/>
<path d="M191 72.25H204V86.875H191V72.25Z" fill="#35A265" fill-opacity="0.7"/>
<path d="M204 86.875C204 90.45 206.925 93.375 210.5 93.375C214.075 93.375 217 90.45 217 86.875H204Z" fill="#11146F"/>
<path d="M217 86.875C217 90.45 219.925 93.375 223.5 93.375C227.075 93.375 230 90.45 230 86.875H217Z" fill="#35A265"/>
<path d="M135.75 99.875H139V140.5H135.75V99.875ZM155.25 99.875H158.5V140.5H155.25V99.875Z" fill="white"/>
<path d="M139 99.875H155.25V103.125H139V99.875Z" fill="#B4D7EE"/>
<path d="M169.875 96.625H218.625V129.125H169.875V96.625Z" fill="white"/>
<path d="M221.875 134C221.875 134.812 221.062 135.625 220.25 135.625H168.25C167.438 135.625 166.625 134.812 166.625 134V130.75C166.625 129.938 167.438 129.125 168.25 129.125H220.25C221.062 129.125 221.875 129.938 221.875 130.75V134Z" fill="#3E4347"/>
<path d="M173.125 99.875H215.375V125.875H173.125V99.875Z" fill="#D6EEF0"/>
<path d="M173.125 99.875H215.375V103.125H173.125V99.875Z" fill="#B4D7EE"/>
<path d="M230 72.8292H126V64.9463C126 64.4043 127.462 63.9609 129.25 63.9609H226.75C228.538 63.9609 230 64.4043 230 64.9463V72.8292Z" fill="#3E4347"/>
<path d="M174.75 105.725H215.375H174.75ZM174.75 105.533H215.375V105.916H174.756L174.75 105.533ZM174.75 111.38H215.375H174.75ZM174.75 111.189H215.375V111.571H174.756L174.75 111.189ZM174.75 117.048H215.375H174.75ZM174.75 116.857H215.375V117.24H174.756L174.75 116.857ZM174.75 122.704H215.375H174.75ZM174.75 122.511H215.375V122.894H174.756L174.75 122.511ZM181.258 125.833V101.503Z" fill="#939598"/>
<path d="M180.938 101.5H181.576V125.834H180.938V101.5ZM190.701 125.834V101.504V125.834ZM190.379 101.5H191.017V125.834H190.379V101.5ZM200.161 125.834V101.504V125.834ZM199.843 101.5H200.482V125.834H199.843V101.5ZM209.601 125.834V101.504V125.834ZM209.28 101.5H209.918V125.834H209.28V101.5Z" fill="#939598"/>
<path d="M174.75 117.735L181.382 111.968C181.308 111.848 181.241 111.724 181.179 111.598C180.903 111.513 180.626 111.458 180.357 111.351L174.75 116.201V117.738" fill="#EE4036"/>
<path d="M199.109 113.439L205.741 106.984C205.668 106.849 205.6 106.711 205.538 106.57C205.263 106.474 204.985 106.413 204.717 106.293L199.109 111.722V113.443" fill="#EE4036"/>
<path d="M185.218 117.809C185.966 117.886 185.886 117.818 186.356 117.36L181.178 111.407C181.076 111.29 180.933 111.219 180.779 111.208C180.624 111.197 180.472 111.248 180.356 111.35C180.239 111.451 180.168 111.595 180.157 111.749C180.146 111.903 180.197 112.055 180.299 112.172L185.205 117.811C185.209 117.809 185.213 117.808 185.218 117.809ZM199.113 111.678L196.148 108.269C196.097 108.211 196.036 108.164 195.968 108.13C195.9 108.096 195.825 108.076 195.749 108.071C195.673 108.065 195.596 108.075 195.524 108.1C195.451 108.124 195.385 108.162 195.327 108.212C195.269 108.262 195.222 108.323 195.187 108.392C195.153 108.46 195.133 108.535 195.127 108.611C195.122 108.687 195.132 108.764 195.156 108.837C195.18 108.909 195.219 108.976 195.269 109.034L199.112 113.452V111.678" fill="#EE4036"/>
<path d="M186.273 117.442C185.974 117.702 185.562 117.715 185.351 117.471C185.14 117.229 185.21 116.822 185.508 116.563L195.118 108.203C195.415 107.944 195.829 107.931 196.04 108.173C196.251 108.415 196.181 108.823 195.883 109.082L186.272 117.442" fill="#EE4036"/>
<rect x="135.75" y="96.625" width="22.75" height="3.25" fill="#FFFEFE"/>
<path d="M151.911 123.455C151.911 120.69 149.962 119.898 147.855 119.451L146.737 119.225C145.085 118.9 144.958 118.421 144.958 117.78C144.958 116.947 145.708 116.45 146.965 116.45C148.453 116.45 148.834 117.197 148.992 117.759L149.007 117.806C149.194 118.295 149.629 118.587 150.172 118.587C150.312 118.587 150.439 118.566 150.533 118.547C151.115 118.431 151.521 117.967 151.521 117.418C151.521 117.282 151.496 117.147 151.447 117.016C151.148 116.056 150.31 114.546 147.987 114.201V112.555C147.987 111.185 145.84 111.185 145.84 112.555V114.211C143.344 114.601 142.425 116.299 142.425 117.779C142.425 120.472 144.3 121.223 146.132 121.6L147.34 121.857C149.061 122.207 149.365 122.656 149.365 123.469C149.365 124.462 148.525 125.055 147.117 125.055C145.289 125.055 144.916 124.231 144.667 123.307C144.521 122.796 144.059 122.467 143.489 122.467C143.365 122.467 143.265 122.483 143.145 122.504L143.109 122.511C142.52 122.651 142.124 123.115 142.124 123.665C142.124 123.77 142.143 123.859 142.158 123.93L142.176 124.013C142.441 124.909 143.027 126.866 145.946 127.303V129.025C145.946 129.711 146.485 130.07 147.019 130.07C147.552 130.07 148.092 129.711 148.092 129.025V127.333C150.41 127.031 151.913 125.55 151.913 123.455" fill="#35A265"/>
</g>
<path d="M65.7246 167.912H54.0606C54.0606 164.904 55.4526 163.4 58.2366 163.4H82.4766C82.4766 164.872 82.1246 165.992 81.4206 166.76C80.7166 167.528 79.6766 167.912 78.3006 167.912H70.8606V193.352C70.8606 194.664 70.4126 195.672 69.5166 196.376C68.6526 197.08 67.3886 197.432 65.7246 197.432V167.912ZM92.5607 176.744C90.7367 176.744 89.2327 177.272 88.0487 178.328C86.8647 179.384 86.2727 180.68 86.2727 182.216V194.168C86.2727 195.32 85.8727 196.152 85.0727 196.664C84.3047 197.176 83.1047 197.432 81.4727 197.432V176.456C81.4727 173.864 83.0087 172.568 86.0807 172.568V175.448C85.6647 175.928 85.2967 176.424 84.9767 176.936L85.2167 177.128C87.2327 174.088 89.7767 172.568 92.8487 172.568C94.0647 172.568 94.9927 172.872 95.6327 173.48C96.3047 174.088 96.6407 174.84 96.6407 175.736C96.6407 176.408 96.4647 176.984 96.1127 177.464C95.2167 176.984 94.0327 176.744 92.5607 176.744ZM107.159 197.432C104.503 197.432 102.327 196.712 100.631 195.272C98.9354 193.8 98.0874 191.848 98.0874 189.416C98.0874 186.952 98.9834 184.984 100.775 183.512C102.567 182.04 104.887 181.304 107.735 181.304C110.743 181.304 113.223 182.328 115.175 184.376L115.367 184.184C114.951 183.736 114.519 183.32 114.071 182.936V181.304C114.071 179.768 113.575 178.584 112.583 177.752C111.591 176.888 110.199 176.456 108.407 176.456C105.175 176.456 102.839 177.704 101.399 180.2C100.791 179.944 100.295 179.592 99.9114 179.144C99.5594 178.664 99.3834 178.184 99.3834 177.704C99.3834 176.808 99.8154 175.976 100.679 175.208C101.543 174.408 102.695 173.768 104.135 173.288C105.575 172.808 107.111 172.568 108.743 172.568C111.879 172.568 114.343 173.336 116.135 174.872C117.927 176.408 118.823 178.504 118.823 181.16V193.928C118.823 195.144 118.455 196.04 117.719 196.616C116.983 197.16 115.847 197.432 114.311 197.432V195.272C114.983 194.536 115.351 194.12 115.415 194.024L115.223 193.832C114.167 195.048 112.983 195.96 111.671 196.568C110.391 197.144 108.887 197.432 107.159 197.432ZM108.167 193.784C110.055 193.784 111.527 193.4 112.583 192.632C113.639 191.864 114.167 190.792 114.167 189.416C114.167 188.04 113.639 186.952 112.583 186.152C111.527 185.352 110.087 184.952 108.263 184.952C106.567 184.952 105.223 185.352 104.231 186.152C103.239 186.952 102.743 188.04 102.743 189.416C102.743 190.792 103.223 191.864 104.183 192.632C105.143 193.4 106.471 193.784 108.167 193.784ZM133.758 197.432C131.966 197.432 130.366 197.08 128.958 196.376C127.582 195.672 126.494 194.68 125.694 193.4C124.926 192.12 124.542 190.648 124.542 188.984V180.968C124.542 179.336 124.942 177.88 125.742 176.6C126.542 175.32 127.662 174.328 129.102 173.624C130.574 172.92 132.222 172.568 134.046 172.568C135.422 172.568 136.75 172.856 138.03 173.432C139.342 174.008 140.462 174.776 141.39 175.736L141.534 175.496C141.342 175.24 141.006 174.904 140.526 174.488V166.472C140.526 165.352 140.926 164.488 141.726 163.88C142.526 163.272 143.742 162.968 145.374 162.968V193.784C145.374 194.872 145.006 195.752 144.27 196.424C143.566 197.096 142.446 197.432 140.91 197.432V194.744C141.358 194.168 141.662 193.752 141.822 193.496L141.63 193.304C140.638 194.616 139.518 195.64 138.27 196.376C137.022 197.08 135.518 197.432 133.758 197.432ZM134.958 193.256C136.558 193.256 137.886 192.84 138.942 192.008C140.03 191.176 140.574 190.152 140.574 188.936V181.016C140.574 179.8 140.046 178.792 138.99 177.992C137.966 177.16 136.606 176.744 134.91 176.744C133.118 176.744 131.726 177.144 130.734 177.944C129.774 178.712 129.294 179.8 129.294 181.208V188.696C129.294 190.168 129.774 191.304 130.734 192.104C131.726 192.872 133.134 193.256 134.958 193.256ZM155.147 169.4C154.187 169.4 153.371 169.096 152.699 168.488C152.027 167.88 151.691 167.112 151.691 166.184C151.691 165.256 152.027 164.488 152.699 163.88C153.371 163.272 154.187 162.968 155.147 162.968C156.107 162.968 156.907 163.272 157.547 163.88C158.219 164.488 158.555 165.256 158.555 166.184C158.555 167.112 158.219 167.88 157.547 168.488C156.907 169.096 156.107 169.4 155.147 169.4ZM152.747 175.832C152.747 174.68 153.131 173.848 153.899 173.336C154.699 172.824 155.899 172.568 157.499 172.568V194.168C157.499 195.288 157.099 196.12 156.299 196.664C155.531 197.176 154.347 197.432 152.747 197.432V175.832ZM164.91 176.456C164.91 173.864 166.446 172.568 169.518 172.568V175.592C169.198 175.912 168.846 176.36 168.462 176.936L168.702 177.128C169.662 175.752 170.894 174.648 172.398 173.816C173.934 172.984 175.598 172.568 177.39 172.568C179.95 172.568 181.982 173.352 183.486 174.92C184.99 176.456 185.742 178.44 185.742 180.872V194.168C185.742 195.288 185.342 196.12 184.542 196.664C183.774 197.176 182.59 197.432 180.99 197.432V181.448C180.99 180.04 180.574 178.904 179.742 178.04C178.91 177.176 177.694 176.744 176.094 176.744C174.974 176.744 173.918 177 172.926 177.512C171.934 177.992 171.15 178.648 170.574 179.48C169.998 180.312 169.71 181.224 169.71 182.216V194.168C169.71 195.32 169.31 196.152 168.51 196.664C167.742 197.176 166.542 197.432 164.91 197.432V176.456ZM201.372 207.032C199.612 207.032 198.012 206.76 196.572 206.216C195.132 205.704 193.996 204.984 193.164 204.056C192.332 203.16 191.916 202.168 191.916 201.08C191.916 199.352 193.084 198.488 195.42 198.488C195.484 199.928 196.028 201.064 197.052 201.896C198.108 202.728 199.548 203.144 201.372 203.144C205.244 203.144 207.18 201.24 207.18 197.432V195.032C207.628 194.648 207.964 194.296 208.188 193.976L208.044 193.736C207.148 194.664 205.996 195.432 204.588 196.04C203.212 196.648 201.852 196.952 200.508 196.952C198.716 196.952 197.1 196.6 195.66 195.896C194.252 195.192 193.148 194.216 192.348 192.968C191.548 191.688 191.148 190.216 191.148 188.552V181.016C191.148 179.384 191.564 177.928 192.396 176.648C193.228 175.368 194.348 174.376 195.756 173.672C197.164 172.936 198.716 172.568 200.412 172.568C202.14 172.568 203.628 172.936 204.876 173.672C206.156 174.408 207.292 175.416 208.284 176.696L208.476 176.504C208.188 176.056 207.868 175.64 207.516 175.256C207.516 173.464 209.02 172.568 212.028 172.568V196.856C212.028 198.84 211.564 200.6 210.636 202.136C209.74 203.704 208.476 204.904 206.844 205.736C205.244 206.6 203.42 207.032 201.372 207.032ZM201.516 192.824C203.148 192.824 204.508 192.408 205.596 191.576C206.716 190.712 207.276 189.688 207.276 188.504V181.016C207.276 179.8 206.732 178.776 205.644 177.944C204.556 177.112 203.212 176.696 201.612 176.696C199.788 176.696 198.38 177.096 197.388 177.896C196.428 178.696 195.948 179.816 195.948 181.256V188.264C195.948 189.672 196.428 190.792 197.388 191.624C198.38 192.424 199.756 192.824 201.516 192.824Z" fill="#FFFEFE"/>
<path d="M218.301 165.8C218.301 165.096 218.541 164.52 219.021 164.072C219.533 163.624 220.173 163.4 220.941 163.4H234.717C236.893 163.4 238.813 163.848 240.477 164.744C242.173 165.608 243.485 166.856 244.413 168.488C245.341 170.088 245.805 171.944 245.805 174.056C245.805 176.2 245.341 178.088 244.413 179.72C243.517 181.352 242.221 182.616 240.525 183.512C238.861 184.376 236.925 184.808 234.717 184.808H223.485V193.352C223.485 194.664 223.037 195.672 222.141 196.376C221.245 197.08 219.965 197.432 218.301 197.432V165.8ZM234.717 180.296C236.573 180.296 238.029 179.752 239.085 178.664C240.141 177.544 240.669 176.008 240.669 174.056C240.669 172.168 240.125 170.68 239.037 169.592C237.981 168.472 236.541 167.912 234.717 167.912H223.485V180.296H234.717ZM256.913 197.432C254.897 197.432 253.089 197.064 251.489 196.328C249.889 195.592 248.625 194.584 247.697 193.304C246.801 191.992 246.353 190.536 246.353 188.936V181.4C246.353 179.768 246.801 178.28 247.697 176.936C248.593 175.592 249.841 174.536 251.441 173.768C253.041 172.968 254.865 172.568 256.913 172.568C258.961 172.568 260.785 172.968 262.385 173.768C263.985 174.536 265.233 175.592 266.129 176.936C267.057 178.28 267.521 179.768 267.521 181.4V188.936C267.521 190.536 267.057 191.992 266.129 193.304C265.233 194.584 263.969 195.592 262.337 196.328C260.737 197.064 258.929 197.432 256.913 197.432ZM256.913 193.304C258.737 193.304 260.177 192.888 261.233 192.056C262.289 191.192 262.817 190.056 262.817 188.648V181.592C262.817 180.12 262.273 178.936 261.185 178.04C260.129 177.144 258.705 176.696 256.913 176.696C255.121 176.696 253.681 177.144 252.593 178.04C251.537 178.936 251.009 180.12 251.009 181.592V188.648C251.009 190.056 251.537 191.192 252.593 192.056C253.649 192.888 255.089 193.304 256.913 193.304ZM280.576 197.432C278.816 197.432 277.184 197.192 275.68 196.712C274.208 196.2 273.04 195.48 272.176 194.552C271.312 193.592 270.88 192.504 270.88 191.288C270.88 189.656 271.952 188.792 274.096 188.696C274.384 190.36 275.104 191.608 276.256 192.44C277.44 193.24 278.896 193.64 280.624 193.64C282.416 193.64 283.808 193.384 284.8 192.872C285.792 192.36 286.288 191.592 286.288 190.568C286.288 189.544 285.84 188.744 284.944 188.168C284.08 187.592 282.448 187.048 280.048 186.536C277.84 186.024 276.096 185.496 274.816 184.952C273.536 184.408 272.576 183.688 271.936 182.792C271.296 181.864 270.976 180.68 270.976 179.24C270.976 177.96 271.36 176.824 272.128 175.832C272.896 174.808 273.968 174.008 275.344 173.432C276.752 172.856 278.368 172.568 280.192 172.568C281.92 172.568 283.504 172.792 284.944 173.24C286.416 173.688 287.584 174.344 288.448 175.208C289.344 176.04 289.792 177.016 289.792 178.136C289.792 179.704 288.608 180.536 286.24 180.632C286.08 179.288 285.488 178.232 284.464 177.464C283.472 176.696 282.096 176.312 280.336 176.312C278.896 176.312 277.728 176.584 276.832 177.128C275.936 177.64 275.488 178.328 275.488 179.192C275.488 180.088 275.888 180.776 276.688 181.256C277.52 181.704 278.928 182.152 280.912 182.6C284.336 183.304 286.848 184.264 288.448 185.48C290.048 186.664 290.848 188.344 290.848 190.52C290.848 192.696 289.936 194.392 288.112 195.608C286.32 196.824 283.808 197.432 280.576 197.432ZM303.946 197.432C301.546 197.432 299.77 196.76 298.618 195.416C297.466 194.04 296.89 192.248 296.89 190.04V176.744H292.282C292.282 175.496 292.538 174.568 293.05 173.96C293.562 173.32 294.25 173 295.114 173H296.986V168.632C296.986 167.48 297.37 166.648 298.138 166.136C298.906 165.624 300.074 165.368 301.642 165.368V173H308.026C308.026 174.28 307.754 175.224 307.21 175.832C306.698 176.44 305.882 176.744 304.762 176.744H301.738V189.848C301.738 191.064 301.962 191.944 302.41 192.488C302.858 193 303.658 193.256 304.81 193.256C305.93 193.256 307.018 192.952 308.074 192.344C308.586 192.856 308.842 193.496 308.842 194.264C308.842 195.096 308.41 195.832 307.546 196.472C306.682 197.112 305.482 197.432 303.946 197.432Z" fill="#35A265"/>
</svg>
