<?xml version="1.0" encoding="utf-8"?>
<!-- Generator: Adobe Illustrator 26.0.2, SVG Export Plug-In . SVG Version: 6.00 Build 0)  -->
<svg version="1.1" id="Layer_1" xmlns="http://www.w3.org/2000/svg" xmlns:xlink="http://www.w3.org/1999/xlink" x="0px" y="0px"
	 viewBox="0 0 232 343" style="enable-background:new 0 0 232 343;" xml:space="preserve">
<style type="text/css">
	.st0{fill:#FA6334;}
	.st1{fill:#FFFFFF;filter:url(#Adobe_OpacityMaskFilter);}
	.st2{mask:url(#path-1-outside-1_847_103_00000128476400197723574140000004029879393216305815_);fill:none;stroke:#FA6334;}
</style>
<path class="st0" d="M223.1,1H9.5C8.4,1,7.3,1.2,6.3,1.6s-2,1.1-2.8,1.9c-0.8,0.8-1.4,1.8-1.9,3C1.2,7.6,1,8.8,1,10v322.9
	c0,1.7,0.5,3.5,1.4,4.9c0.9,1.5,2.1,2.6,3.6,3.3c1.5,0.7,3.1,0.9,4.7,0.6c1.6-0.3,3-1.1,4.2-2.2l101.2-103l101.5,103
	c1.6,1.5,3.5,2.3,5.6,2.3c1.1,0.3,2.2,0.3,3.3,0c1.5-0.8,2.7-2.1,3.6-3.7c0.8-1.6,1.2-3.4,1-5.3V10c0-2.3-0.8-4.5-2.3-6.2
	C227.2,2.1,225.2,1.1,223.1,1z M214.5,312.2l-93.3-94.5c-0.7-0.8-1.6-1.4-2.6-1.9c-1-0.4-2-0.7-3-0.7s-2.1,0.2-3,0.7
	c-1,0.4-1.8,1.1-2.6,1.9l-92.6,94.5V18.9h197.1V312.2z"/>
<defs>
	<filter id="Adobe_OpacityMaskFilter" filterUnits="userSpaceOnUse" x="0.5" y="0.5" width="231" height="342">
		<feColorMatrix  type="matrix" values="1 0 0 0 0  0 1 0 0 0  0 0 1 0 0  0 0 0 1 0"/>
	</filter>
</defs>
<mask maskUnits="userSpaceOnUse" x="0.5" y="0.5" width="231" height="342" id="path-1-outside-1_847_103_00000128476400197723574140000004029879393216305815_">
	<rect y="0" class="st1" width="232" height="343"/>
	<path d="M223.1,1H9.5C8.4,1,7.3,1.2,6.3,1.6s-2,1.1-2.8,1.9c-0.8,0.8-1.4,1.8-1.9,3C1.2,7.6,1,8.8,1,10v322.9
		c0,1.7,0.5,3.5,1.4,4.9c0.9,1.5,2.1,2.6,3.6,3.3c1.5,0.7,3.1,0.9,4.7,0.6c1.6-0.3,3-1.1,4.2-2.2l101.2-103l101.5,103
		c1.6,1.5,3.5,2.3,5.6,2.3c1.1,0.3,2.2,0.3,3.3,0c1.5-0.8,2.7-2.1,3.6-3.7c0.8-1.6,1.2-3.4,1-5.3V10c0-2.3-0.8-4.5-2.3-6.2
		C227.2,2.1,225.2,1.1,223.1,1z M214.5,312.2l-93.3-94.5c-0.7-0.8-1.6-1.4-2.6-1.9c-1-0.4-2-0.7-3-0.7s-2.1,0.2-3,0.7
		c-1,0.4-1.8,1.1-2.6,1.9l-92.6,94.5V18.9h197.1V312.2z"/>
</mask>
<path class="st2" d="M223.1,1H9.5C8.4,1,7.3,1.2,6.3,1.6s-2,1.1-2.8,1.9c-0.8,0.8-1.4,1.8-1.9,3C1.2,7.6,1,8.8,1,10v322.9
	c0,1.7,0.5,3.5,1.4,4.9c0.9,1.5,2.1,2.6,3.6,3.3c1.5,0.7,3.1,0.9,4.7,0.6c1.6-0.3,3-1.1,4.2-2.2l101.2-103l101.5,103
	c1.6,1.5,3.5,2.3,5.6,2.3c1.1,0.3,2.2,0.3,3.3,0c1.5-0.8,2.7-2.1,3.6-3.7c0.8-1.6,1.2-3.4,1-5.3V10c0-2.3-0.8-4.5-2.3-6.2
	C227.2,2.1,225.2,1.1,223.1,1z M214.5,312.2l-93.3-94.5c-0.7-0.8-1.6-1.4-2.6-1.9c-1-0.4-2-0.7-3-0.7s-2.1,0.2-3,0.7
	c-1,0.4-1.8,1.1-2.6,1.9l-92.6,94.5V18.9h197.1V312.2z"/>
<path class="st0" d="M204.3,1.2H24c-12.4,0-22.5,9.5-22.5,21.3V320c0,11.8-3.3,21.7,9.1,21.7c6,0,11.7-7.7,15.9-11.8l90-94.4
	l95.4,99.5c12,9.8,3.3,2.4,11.1,7.3c6.8,4.3,8-9.6,8-15.2l0-304C231,11.4,216.8,1.2,204.3,1.2z"/>
</svg>
