<svg width="168" height="149" viewBox="0 0 168 149" fill="none" xmlns="http://www.w3.org/2000/svg">
<path d="M83.7541 24.8148C74.7072 24.8251 66.0341 28.0425 59.637 33.7614C53.2398 39.4802 49.6409 47.2338 49.6294 55.3215H66.978C66.978 47.0473 74.5073 40.3241 83.7541 40.3241C93.0009 40.3241 100.53 47.0473 100.53 55.3215C100.53 59.9588 96.3579 63.3243 89.9823 67.9306C87.8995 69.3892 85.899 70.9394 83.9883 72.5756C75.3314 80.3069 75.0798 88.5191 75.0798 89.4341V94.6065H92.4284L92.4197 89.6978C92.4284 89.5737 92.706 86.7045 96.2451 83.5484C97.5462 82.3852 99.1857 81.222 100.886 79.9968C107.643 75.1036 117.87 67.7134 117.87 55.3215C117.863 47.2339 114.267 39.4791 107.871 33.7596C101.474 28.04 92.8009 24.823 83.7541 24.8148ZM75.0798 102.361H92.4284V117.87H75.0798V102.361Z" fill="black"/>
<path d="M83.75 0C37.5703 0 0 33.3958 0 74.4444C0 115.493 37.5703 148.889 83.75 148.889C129.93 148.889 167.5 115.493 167.5 74.4444C167.5 33.3958 129.93 0 83.75 0ZM83.75 134C46.8079 134 16.75 107.282 16.75 74.4444C16.75 41.607 46.8079 14.8889 83.75 14.8889C120.692 14.8889 150.75 41.607 150.75 74.4444C150.75 107.282 120.692 134 83.75 134Z" fill="black"/>
</svg>
