<svg width="56" height="56" viewBox="0 0 56 56" fill="none" xmlns="http://www.w3.org/2000/svg">
<mask id="mask0_2_20" style="mask-type:alpha" maskUnits="userSpaceOnUse" x="0" y="2" width="56" height="46">
<g style="mix-blend-mode:multiply">
<line y1="-1.75" x2="41.9617" y2="-1.75" transform="matrix(-0.393254 0.91943 -0.891418 -0.453181 17.0017 5.58731)" stroke="#FFFEFE" stroke-width="3.5"/>
<line y1="-1.75" x2="41.9617" y2="-1.75" transform="matrix(-0.393254 0.91943 -0.891418 -0.453181 17.0017 5.58731)" stroke="#FFFEFE" stroke-width="3.5"/>
<line y1="-2.5" x2="43.6912" y2="-2.5" transform="matrix(0.301167 0.953571 -0.936207 0.351449 17.1799 5.58731)" stroke="#FFFEFE" stroke-width="5" stroke-miterlimit="1.41421" stroke-linejoin="bevel"/>
<line x1="2.5" y1="-2.5" x2="41.9796" y2="-2.5" transform="matrix(0.299997 0.95394 -0.9367 0.350132 37.1956 4.375)" stroke="#FFFEFE" stroke-width="5" stroke-linecap="square" stroke-linejoin="round"/>
<line x1="39.045" y1="5.1363" x2="28.5997" y2="30.5113" stroke="#FFFEFE" stroke-width="4"/>
<line x1="28.8643" y1="29.4874" x2="8.28372" y2="29.4874" stroke="#FFFEFE" stroke-width="4"/>
</g>
</mask>
<g mask="url(#mask0_2_20)">
<rect x="0.5" width="56" height="56" rx="8" fill="url(#paint0_linear_2_20)" fill-opacity="0.89" style="mix-blend-mode:darken"/>
<rect x="0.5" width="56" height="56" rx="8" fill="url(#paint1_radial_2_20)" fill-opacity="0.89" style="mix-blend-mode:darken"/>
<rect x="-5.625" y="-4.375" width="67.375" height="64.75" rx="8" fill="url(#paint2_linear_2_20)" fill-opacity="0.89" style="mix-blend-mode:darken"/>
</g>
<defs>
<linearGradient id="paint0_linear_2_20" x1="18.875" y1="46.375" x2="21.0625" y2="29.3125" gradientUnits="userSpaceOnUse">
<stop stop-color="#2DADF4"/>
<stop offset="1" stop-color="#2DADF4" stop-opacity="0"/>
</linearGradient>
<radialGradient id="paint1_radial_2_20" cx="0" cy="0" r="1" gradientUnits="userSpaceOnUse" gradientTransform="translate(33.75 23.625) rotate(97.8533) scale(25.6152 96.5516)">
<stop offset="0.276042" stop-color="#F3BB2C"/>
<stop offset="1" stop-color="#FFF9F8" stop-opacity="0"/>
</radialGradient>
<linearGradient id="paint2_linear_2_20" x1="40.1689" y1="10.2949" x2="2.55267" y2="81.3672" gradientUnits="userSpaceOnUse">
<stop stop-color="#F4452D"/>
<stop offset="0.34375" stop-color="#F4512D" stop-opacity="0"/>
</linearGradient>
</defs>
</svg>
