<svg width="77" height="113" viewBox="0 0 77 113" fill="none" xmlns="http://www.w3.org/2000/svg">
<mask id="path-1-outside-1_1350_126" maskUnits="userSpaceOnUse" x="0" y="0" width="77" height="113" fill="black">
<rect fill="white" width="77" height="113"/>
<path d="M73.4188 1.00234H3.78534C3.42472 0.986601 3.06491 1.05047 2.7275 1.19012C2.3901 1.32976 2.08207 1.5423 1.82192 1.81496C1.56176 2.08763 1.35486 2.41479 1.21361 2.7768C1.07237 3.13881 0.999712 3.52821 1 3.9216V109.015C1.00487 109.583 1.15876 110.138 1.44349 110.614C1.72822 111.09 2.13192 111.467 2.60693 111.701C3.08501 111.922 3.61103 111.99 4.12333 111.897C4.63562 111.804 5.11296 111.554 5.49939 111.175L38.4949 77.6622L71.5976 111.175C72.1034 111.655 72.7486 111.924 73.4188 111.934C73.7714 112.022 74.1375 112.022 74.4901 111.934C74.9796 111.667 75.3843 111.247 75.6517 110.726C75.9191 110.205 76.0369 109.609 75.9899 109.015V3.9216C75.9904 3.16718 75.723 2.44181 75.2437 1.89758C74.7644 1.35335 74.1104 1.03251 73.4188 1.00234ZM70.6335 102.301L40.209 71.5317C39.9701 71.2705 39.6863 71.0632 39.3738 70.9217C39.0613 70.7803 38.7262 70.7074 38.3878 70.7074C38.0494 70.7074 37.7144 70.7803 37.4018 70.9217C37.0893 71.0632 36.8055 71.2705 36.5666 71.5317L6.35642 102.301V6.84086H70.6335V102.301Z"/>
</mask>
<path d="M73.4188 1.00234H3.78534C3.42472 0.986601 3.06491 1.05047 2.7275 1.19012C2.3901 1.32976 2.08207 1.5423 1.82192 1.81496C1.56176 2.08763 1.35486 2.41479 1.21361 2.7768C1.07237 3.13881 0.999712 3.52821 1 3.9216V109.015C1.00487 109.583 1.15876 110.138 1.44349 110.614C1.72822 111.09 2.13192 111.467 2.60693 111.701C3.08501 111.922 3.61103 111.99 4.12333 111.897C4.63562 111.804 5.11296 111.554 5.49939 111.175L38.4949 77.6622L71.5976 111.175C72.1034 111.655 72.7486 111.924 73.4188 111.934C73.7714 112.022 74.1375 112.022 74.4901 111.934C74.9796 111.667 75.3843 111.247 75.6517 110.726C75.9191 110.205 76.0369 109.609 75.9899 109.015V3.9216C75.9904 3.16718 75.723 2.44181 75.2437 1.89758C74.7644 1.35335 74.1104 1.03251 73.4188 1.00234ZM70.6335 102.301L40.209 71.5317C39.9701 71.2705 39.6863 71.0632 39.3738 70.9217C39.0613 70.7803 38.7262 70.7074 38.3878 70.7074C38.0494 70.7074 37.7144 70.7803 37.4018 70.9217C37.0893 71.0632 36.8055 71.2705 36.5666 71.5317L6.35642 102.301V6.84086H70.6335V102.301Z" fill="#FA6334" fill-opacity="0.7"/>
<path d="M73.4188 1.00234H3.78534C3.42472 0.986601 3.06491 1.05047 2.7275 1.19012C2.3901 1.32976 2.08207 1.5423 1.82192 1.81496C1.56176 2.08763 1.35486 2.41479 1.21361 2.7768C1.07237 3.13881 0.999712 3.52821 1 3.9216V109.015C1.00487 109.583 1.15876 110.138 1.44349 110.614C1.72822 111.09 2.13192 111.467 2.60693 111.701C3.08501 111.922 3.61103 111.99 4.12333 111.897C4.63562 111.804 5.11296 111.554 5.49939 111.175L38.4949 77.6622L71.5976 111.175C72.1034 111.655 72.7486 111.924 73.4188 111.934C73.7714 112.022 74.1375 112.022 74.4901 111.934C74.9796 111.667 75.3843 111.247 75.6517 110.726C75.9191 110.205 76.0369 109.609 75.9899 109.015V3.9216C75.9904 3.16718 75.723 2.44181 75.2437 1.89758C74.7644 1.35335 74.1104 1.03251 73.4188 1.00234ZM70.6335 102.301L40.209 71.5317C39.9701 71.2705 39.6863 71.0632 39.3738 70.9217C39.0613 70.7803 38.7262 70.7074 38.3878 70.7074C38.0494 70.7074 37.7144 70.7803 37.4018 70.9217C37.0893 71.0632 36.8055 71.2705 36.5666 71.5317L6.35642 102.301V6.84086H70.6335V102.301Z" stroke="#FA6334" stroke-opacity="0.7" mask="url(#path-1-outside-1_1350_126)"/>
</svg>
