<svg width="87" height="91" viewBox="0 0 87 91" fill="none" xmlns="http://www.w3.org/2000/svg">
<path d="M76.9838 53.0738C82.0196 53.0738 86.1205 57.0959 86.1205 62.0493C86.1205 67.0024 82.0205 71.0248 76.9708 71.0248H10.58C5.52666 71.0248 1.4303 67.0082 1.4303 62.0493C1.4303 57.0972 5.52338 53.0738 10.567 53.0738C11.0192 53.0738 11.3939 52.7054 11.3939 52.255V32.6737C11.3939 15.0948 25.8892 0.852661 43.7754 0.852661C61.6616 0.852661 76.157 15.0982 76.157 32.6737V52.255C76.157 52.7143 76.5229 53.0738 76.9838 53.0738ZM76.9838 57.9695C73.7721 57.9695 71.1752 55.4187 71.1752 52.255V32.6737C71.1752 17.802 58.9102 5.74839 43.7754 5.74839C28.6404 5.74839 16.3756 17.7988 16.3756 32.6737V52.255C16.3756 55.4085 13.7713 57.9695 10.567 57.9695C8.27503 57.9695 6.41208 59.8007 6.41208 62.0493C6.41208 64.3019 8.27551 66.129 10.58 66.129H76.9708C79.2711 66.129 81.1387 64.2967 81.1387 62.0493C81.1387 59.8019 79.2705 57.9695 76.9838 57.9695ZM29.6604 75.9205H34.6421C34.6421 80.8775 38.7312 84.896 43.7754 84.896C48.8196 84.896 52.9087 80.8775 52.9087 75.9205H57.8904C57.8904 83.5814 51.5709 89.7917 43.7754 89.7917C35.9799 89.7917 29.6604 83.5814 29.6604 75.9205Z" fill="black" fill-opacity="0.35"/>
<path d="M29.6604 75.6705H29.4104V75.9205C29.4104 83.7235 35.8459 90.0417 43.7754 90.0417C51.7049 90.0417 58.1404 83.7235 58.1404 75.9205V75.6705H57.8904H52.9087H52.6587V75.9205C52.6587 80.7354 48.6856 84.646 43.7754 84.646C38.8652 84.646 34.8921 80.7354 34.8921 75.9205V75.6705H34.6421H29.6604ZM86.3705 62.0493C86.3705 56.9535 82.1534 52.8238 76.9838 52.8238C76.6581 52.8238 76.407 52.5734 76.407 52.255V32.6737C76.407 14.956 61.7956 0.602661 43.7754 0.602661C25.7553 0.602661 11.1439 14.9526 11.1439 32.6737V52.255C11.1439 52.5645 10.884 52.8238 10.567 52.8238C5.38948 52.8238 1.1803 56.955 1.1803 62.0493C1.1803 67.1508 5.39318 71.2748 10.58 71.2748H76.9708C82.1541 71.2748 86.3705 67.145 86.3705 62.0493ZM70.9252 52.255C70.9252 55.5607 73.638 58.2195 76.9838 58.2195C79.1368 58.2195 80.8887 59.9443 80.8887 62.0493C80.8887 64.1538 79.1379 65.879 76.9708 65.879H10.58C8.40864 65.879 6.66208 64.159 6.66208 62.0493C6.66208 59.943 8.40886 58.2195 10.567 58.2195C13.9054 58.2195 16.6256 55.5505 16.6256 52.255V32.6737C16.6256 17.941 28.7743 5.99839 43.7754 5.99839C58.7763 5.99839 70.9252 17.9442 70.9252 32.6737V52.255Z" stroke="black" stroke-opacity="0.35" stroke-width="0.5"/>
</svg>
