<?xml version="1.0" encoding="utf-8"?>
<!-- Generator: Adobe Illustrator 26.3.1, SVG Export Plug-In . SVG Version: 6.00 Build 0)  -->
<svg version="1.1" id="Layer_1" xmlns="http://www.w3.org/2000/svg" xmlns:xlink="http://www.w3.org/1999/xlink" x="0px" y="0px"
	 viewBox="0 0 255.2 44.1" style="enable-background:new 0 0 255.2 44.1;" xml:space="preserve">
<style type="text/css">
	.st0{fill:#11146F;}
	.st1{fill:#35A265;}
</style>
<path class="st0" d="M11.7,4.9H0c0-3,1.4-4.5,4.2-4.5h24.2c0,1.5-0.4,2.6-1.1,3.4S25.6,5,24.2,5h-7.4v25.4c0,1.3-0.4,2.3-1.3,3
	c-0.9,0.7-2.1,1.1-3.8,1.1C11.7,34.5,11.7,4.9,11.7,4.9z M38.5,13.8c-1.8,0-3.3,0.5-4.5,1.6s-1.8,2.4-1.8,3.9v12
	c0,1.2-0.4,2-1.2,2.5c-0.8,0.5-2,0.8-3.6,0.8v-21c0-2.6,1.5-3.9,4.6-3.9v2.9c-0.4,0.5-0.8,1-1.1,1.5l0.2,0.2c2-3,4.6-4.6,7.6-4.6
	c1.2,0,2.1,0.3,2.8,0.9s1,1.4,1,2.3c0,0.7-0.2,1.2-0.5,1.7C41.2,14,40,13.8,38.5,13.8z M53.1,34.5c-2.7,0-4.8-0.7-6.5-2.2
	s-2.5-3.4-2.5-5.9s0.9-4.4,2.7-5.9s4.1-2.2,7-2.2c3,0,5.5,1,7.4,3.1l0.2-0.2c-0.4-0.4-0.8-0.9-1.3-1.2v-1.6c0-1.5-0.5-2.7-1.5-3.6
	c-1-0.9-2.4-1.3-4.2-1.3c-3.2,0-5.6,1.2-7,3.7c-0.6-0.3-1.1-0.6-1.5-1.1s-0.5-1-0.5-1.4c0-0.9,0.4-1.7,1.3-2.5
	c0.9-0.8,2-1.4,3.5-1.9c1.4-0.5,3-0.7,4.6-0.7c3.1,0,5.6,0.8,7.4,2.3c1.8,1.5,2.7,3.6,2.7,6.3V31c0,1.2-0.4,2.1-1.1,2.7
	c-0.7,0.5-1.9,0.8-3.4,0.8v-2.2c0.7-0.7,1-1.2,1.1-1.2l-0.2-0.2c-1.1,1.2-2.2,2.1-3.6,2.7C56.3,34.2,54.8,34.5,53.1,34.5z
	 M54.1,30.8c1.9,0,3.4-0.4,4.4-1.2c1.1-0.8,1.6-1.8,1.6-3.2s-0.5-2.5-1.6-3.3s-2.5-1.2-4.3-1.2c-1.7,0-3,0.4-4,1.2s-1.5,1.9-1.5,3.3
	s0.5,2.4,1.4,3.2C51.1,30.4,52.4,30.8,54.1,30.8z M79.7,34.5c-1.8,0-3.4-0.4-4.8-1.1c-1.4-0.7-2.5-1.7-3.3-3s-1.2-2.8-1.2-4.4v-8
	c0-1.6,0.4-3.1,1.2-4.4c0.8-1.3,1.9-2.3,3.4-3s3.1-1.1,4.9-1.1c1.4,0,2.7,0.3,4,0.9s2.4,1.3,3.4,2.3l0.1-0.2c-0.2-0.3-0.5-0.6-1-1
	v-8c0-1.1,0.4-2,1.2-2.6s2-0.9,3.6-0.9v30.8c0,1.1-0.4,2-1.1,2.6c-0.7,0.7-1.8,1-3.4,1v-2.7c0.4-0.6,0.8-1,0.9-1.2l-0.2-0.2
	c-1,1.3-2.1,2.3-3.4,3.1C83,34.1,81.5,34.5,79.7,34.5z M80.9,30.3c1.6,0,2.9-0.4,4-1.2s1.6-1.9,1.6-3.1v-7.9c0-1.2-0.5-2.2-1.6-3
	c-1-0.8-2.4-1.2-4.1-1.2c-1.8,0-3.2,0.4-4.2,1.2s-1.4,1.9-1.4,3.3v7.5c0,1.5,0.5,2.6,1.4,3.4C77.7,29.9,79.1,30.3,80.9,30.3z
	 M101.1,6.4c-1,0-1.8-0.3-2.4-0.9c-0.7-0.6-1-1.4-1-2.3s0.3-1.7,1-2.3s1.5-0.9,2.4-0.9c1,0,1.8,0.3,2.4,0.9c0.7,0.6,1,1.4,1,2.3
	s-0.3,1.7-1,2.3S102,6.4,101.1,6.4z M98.7,12.9c0-1.2,0.4-2,1.2-2.5c0.8-0.5,2-0.8,3.6-0.8v21.6c0,1.1-0.4,2-1.2,2.5
	c-0.8,0.5-2,0.8-3.6,0.8V12.9z M110.8,13.5c0-2.6,1.5-3.9,4.6-3.9v3c-0.3,0.3-0.7,0.8-1.1,1.3l0.2,0.2c1-1.4,2.2-2.5,3.7-3.3
	s3.2-1.2,5-1.2c2.6,0,4.6,0.8,6.1,2.4c1.5,1.5,2.3,3.5,2.3,6v13.3c0,1.1-0.4,2-1.2,2.5s-2,0.8-3.6,0.8v-16c0-1.4-0.4-2.5-1.2-3.4
	s-2-1.3-3.6-1.3c-1.1,0-2.2,0.3-3.2,0.8s-1.8,1.1-2.4,2c-0.6,0.8-0.9,1.7-0.9,2.7v12c0,1.2-0.4,2-1.2,2.5c-0.8,0.5-2,0.8-3.6,0.8
	L110.8,13.5L110.8,13.5z M147.3,44.1c-1.8,0-3.4-0.3-4.8-0.8c-1.4-0.5-2.6-1.2-3.4-2.2c-0.8-0.9-1.2-1.9-1.2-3
	c0-1.7,1.2-2.6,3.5-2.6c0.1,1.4,0.6,2.6,1.6,3.4c1.1,0.8,2.5,1.2,4.3,1.2c3.9,0,5.8-1.9,5.8-5.7V32c0.4-0.4,0.8-0.7,1-1.1l-0.1-0.2
	c-0.9,0.9-2,1.7-3.5,2.3c-1.4,0.6-2.7,0.9-4.1,0.9c-1.8,0-3.4-0.4-4.8-1.1c-1.4-0.7-2.5-1.7-3.3-2.9c-0.8-1.3-1.2-2.8-1.2-4.4V18
	c0-1.6,0.4-3.1,1.2-4.4s2-2.3,3.4-3s3-1.1,4.7-1.1s3.2,0.4,4.5,1.1s2.4,1.7,3.4,3l0.2-0.2c-0.3-0.4-0.6-0.9-1-1.2
	c0-1.8,1.5-2.7,4.5-2.7v24.3c0,2-0.5,3.7-1.4,5.3s-2.2,2.8-3.8,3.6C151.2,43.6,149.4,44.1,147.3,44.1z M147.5,29.8
	c1.6,0,3-0.4,4.1-1.2c1.1-0.9,1.7-1.9,1.7-3.1V18c0-1.2-0.5-2.2-1.6-3.1c-1.1-0.8-2.4-1.2-4-1.2c-1.8,0-3.2,0.4-4.2,1.2
	s-1.4,1.9-1.4,3.4v7c0,1.4,0.5,2.5,1.4,3.4C144.3,29.4,145.7,29.8,147.5,29.8z"/>
<path class="st1" d="M164.2,2.8c0-0.7,0.2-1.3,0.7-1.7s1.2-0.7,1.9-0.7h13.8c2.2,0,4.1,0.4,5.8,1.3s3,2.1,3.9,3.7s1.4,3.5,1.4,5.6
	s-0.5,4-1.4,5.7c-0.9,1.6-2.2,2.9-3.9,3.8s-3.6,1.3-5.8,1.3h-11.2v8.5c0,1.3-0.4,2.3-1.3,3c-0.9,0.7-2.2,1.1-3.8,1.1L164.2,2.8
	L164.2,2.8z M180.7,17.3c1.9,0,3.3-0.5,4.4-1.6c1.1-1.1,1.6-2.7,1.6-4.6s-0.5-3.4-1.6-4.5s-2.5-1.7-4.3-1.7h-11.2v12.4H180.7z
	 M202.9,34.5c-2,0-3.8-0.4-5.4-1.1s-2.9-1.7-3.8-3c-0.9-1.3-1.3-2.8-1.3-4.4v-7.5c0-1.6,0.4-3.1,1.3-4.5c0.9-1.3,2.1-2.4,3.7-3.2
	c1.6-0.8,3.4-1.2,5.5-1.2c2,0,3.9,0.4,5.5,1.2s2.8,1.8,3.7,3.2c0.9,1.3,1.4,2.8,1.4,4.5V26c0,1.6-0.5,3.1-1.4,4.4s-2.2,2.3-3.8,3
	C206.7,34.1,204.9,34.5,202.9,34.5z M202.9,30.3c1.8,0,3.3-0.4,4.3-1.2c1.1-0.9,1.6-2,1.6-3.4v-7.1c0-1.5-0.5-2.7-1.6-3.6
	c-1.1-0.9-2.5-1.3-4.3-1.3s-3.2,0.4-4.3,1.3c-1.1,0.9-1.6,2.1-1.6,3.6v7.1c0,1.4,0.5,2.5,1.6,3.4C199.6,29.9,201,30.3,202.9,30.3z
	 M226.5,34.5c-1.8,0-3.4-0.2-4.9-0.7s-2.6-1.2-3.5-2.2s-1.3-2-1.3-3.3c0-1.6,1.1-2.5,3.2-2.6c0.3,1.7,1,2.9,2.2,3.7s2.6,1.2,4.4,1.2
	c1.8,0,3.2-0.3,4.2-0.8s1.5-1.3,1.5-2.3s-0.4-1.8-1.3-2.4c-0.9-0.6-2.5-1.1-4.9-1.6c-2.2-0.5-4-1-5.2-1.6c-1.3-0.5-2.2-1.3-2.9-2.2
	c-0.6-0.9-1-2.1-1-3.6c0-1.3,0.4-2.4,1.2-3.4s1.8-1.8,3.2-2.4s3-0.9,4.8-0.9c1.7,0,3.3,0.2,4.8,0.7c1.5,0.4,2.6,1.1,3.5,2
	c0.9,0.8,1.3,1.8,1.3,2.9c0,1.6-1.2,2.4-3.6,2.5c-0.2-1.3-0.8-2.4-1.8-3.2s-2.4-1.2-4.1-1.2c-1.4,0-2.6,0.3-3.5,0.8
	s-1.3,1.2-1.3,2.1s0.4,1.6,1.2,2.1c0.8,0.4,2.2,0.9,4.2,1.3c3.4,0.7,5.9,1.7,7.5,2.9s2.4,2.9,2.4,5c0,2.2-0.9,3.9-2.7,5.1
	C232.3,33.8,229.7,34.5,226.5,34.5z M249.9,34.5c-2.4,0-4.2-0.7-5.3-2c-1.2-1.4-1.7-3.2-1.7-5.4V13.8h-4.6c0-1.2,0.3-2.2,0.8-2.8
	s1.2-1,2.1-1h1.9V5.7c0-1.2,0.4-2,1.2-2.5s1.9-0.8,3.5-0.8V10h6.4c0,1.3-0.3,2.2-0.8,2.8s-1.3,0.9-2.4,0.9h-3v13.1
	c0,1.2,0.2,2.1,0.7,2.6c0.4,0.5,1.2,0.8,2.4,0.8c1.1,0,2.2-0.3,3.3-0.9c0.5,0.5,0.8,1.2,0.8,1.9c0,0.8-0.4,1.6-1.3,2.2
	C252.6,34.1,251.4,34.5,249.9,34.5z"/>
</svg>
