<svg width="104" height="90" viewBox="0 0 104 90" fill="none" xmlns="http://www.w3.org/2000/svg">
<path d="M94.2747 11.4078H81.4629V9.65862C81.4629 7.09699 80.472 4.64029 78.7081 2.82894C76.9443 1.0176 74.552 0 72.0576 0H9.40526C6.91083 0 4.51856 1.0176 2.75474 2.82894C0.990908 4.64029 0 7.09699 0 9.65862V51.1831C0 53.7447 0.990908 56.2014 2.75474 58.0127C4.51856 59.8241 6.91083 60.8417 9.40526 60.8417H14.3671L14.8114 77.8393C14.8397 78.6103 15.0957 79.3543 15.5455 79.9723C15.9952 80.5904 16.6174 81.0533 17.3294 81.2997C17.7068 81.4516 18.1089 81.5291 18.5143 81.5279C19.0612 81.5241 19.6006 81.396 20.0936 81.1528C20.5865 80.9095 21.0209 80.5571 21.3655 80.1209L27.7714 72.2495H28.8823H36.288L52.9879 88.7148C53.6743 89.3942 54.5895 89.7756 55.5429 89.7795C56.0392 89.7785 56.5303 89.6751 56.987 89.4753C57.6563 89.1842 58.2273 88.6973 58.629 88.0751C59.0306 87.4531 59.2451 86.7233 59.2457 85.9769V72.2495H94.2747C96.7692 72.2495 99.1614 71.2319 100.925 69.4206C102.689 67.6092 103.68 65.1525 103.68 62.5909V21.0664C103.68 18.5048 102.689 16.0481 100.925 14.2368C99.1614 12.4254 96.7692 11.4078 94.2747 11.4078ZM21.6617 57.0391C21.6617 56.0306 21.2716 55.0634 20.5772 54.3502C19.8828 53.6371 18.9409 53.2365 17.9589 53.2365H9.40526C8.87495 53.2365 8.36635 53.0201 7.99137 52.635C7.61638 52.25 7.40571 51.7277 7.40571 51.1831V9.65862C7.40571 9.11402 7.61638 8.59173 7.99137 8.20664C8.36635 7.82155 8.87495 7.60521 9.40526 7.60521H72.0576C72.5879 7.60521 73.0965 7.82155 73.4715 8.20664C73.8465 8.59173 74.0571 9.11402 74.0571 9.65862V51.1831C74.0571 51.7277 73.8465 52.25 73.4715 52.635C73.0965 53.0201 72.5879 53.2365 72.0576 53.2365H32.437C31.9022 53.2364 31.3737 53.3554 30.8879 53.5851C30.4021 53.8149 29.9705 54.15 29.6229 54.5674L21.8469 63.8457L21.6617 57.0391ZM96.2743 62.5909C96.2743 63.1355 96.0636 63.6578 95.6886 64.0429C95.3136 64.4279 94.8051 64.6443 94.2747 64.6443H55.5429C54.5608 64.6443 53.619 65.0449 52.9245 65.758C52.2301 66.4712 51.84 67.4384 51.84 68.4469V77.0408L40.3611 65.633C39.6747 64.9535 38.7595 64.5721 37.8062 64.5682H33.7701L36.7694 60.7656H72.0576C74.5393 60.7657 76.9204 59.7586 78.6821 57.9636C80.4438 56.1687 81.4433 53.7315 81.4629 51.1831V19.013H94.2747C94.8051 19.013 95.3136 19.2294 95.6886 19.6145C96.0636 19.9995 96.2743 20.5218 96.2743 21.0664V62.5909Z" fill="black" fill-opacity="0.35"/>
<path d="M64.1823 44.568H62.1963V20.1C62.1978 19.8428 62.0542 19.5925 61.7879 19.3882C61.5215 19.1838 61.1474 19.037 60.7238 18.9705C60.3003 18.9039 59.8512 18.9215 59.4464 19.0205C59.0417 19.1194 58.7042 19.2941 58.4865 19.5174L51.8314 26.3486L47.7125 23.9368C47.4952 23.8093 47.2304 23.7132 46.939 23.6559C46.6476 23.5986 46.3376 23.5818 46.0332 23.6068C45.7289 23.6317 45.4386 23.6978 45.1851 23.7997C44.9317 23.9017 44.722 24.0367 44.5726 24.1943L35.7488 33.5154L29.626 30.8193C29.3933 30.7168 29.1249 30.6455 28.84 30.6106C28.5551 30.5757 28.2606 30.5779 27.9774 30.6172C27.6941 30.6564 27.429 30.7317 27.2008 30.8377C26.9727 30.9437 26.787 31.0778 26.657 31.2306L18.5045 40.7976V17.7697C18.5045 17.4607 18.2952 17.1643 17.9228 16.9458C17.5503 16.7273 17.0452 16.6046 16.5185 16.6046C15.9917 16.6046 15.4866 16.7273 15.1142 16.9458C14.7417 17.1643 14.5325 17.4607 14.5325 17.7697V45.7331C14.544 45.7878 14.5626 45.842 14.5881 45.8951C14.6008 45.9794 14.6295 46.0626 14.6735 46.1432C14.7237 46.2099 14.7849 46.2735 14.8562 46.3332C14.9168 46.3994 14.9887 46.4618 15.0707 46.5196C15.171 46.5768 15.2816 46.6276 15.4003 46.671C15.4717 46.7094 15.5481 46.7445 15.6287 46.7759C15.6546 46.7829 15.6804 46.7852 15.7062 46.7922C15.732 46.7992 15.7797 46.8074 15.8174 46.8155C16.0406 46.8678 16.2782 46.8958 16.5185 46.8983H64.1823C64.709 46.8983 65.2142 46.7755 65.5866 46.557C65.9591 46.3385 66.1683 46.0421 66.1683 45.7331C66.1683 45.4241 65.9591 45.1277 65.5866 44.9092C65.2142 44.6907 64.709 44.568 64.1823 44.568Z" fill="black" fill-opacity="0.35"/>
</svg>
