<svg width="86" height="89" viewBox="0 0 86 89" fill="none" xmlns="http://www.w3.org/2000/svg">
<path d="M18.028 36.6837C17.677 30.1152 19.2588 23.5985 22.5734 17.9577C25.888 12.3168 30.7865 7.80516 36.6494 4.99325C42.5123 2.18133 49.0764 1.19545 55.5115 2.16027C61.9466 3.12509 67.9637 5.99728 72.802 10.4136C77.6402 14.83 81.0823 20.5921 82.693 26.9714C84.3036 33.3507 84.0104 40.0606 81.8506 46.2527C79.6907 52.4447 75.7611 57.8408 70.5587 61.7584C65.3563 65.6761 59.1148 67.9395 52.6235 68.2623C43.9188 68.6952 35.3837 65.6114 28.8958 59.6893C22.4079 53.7671 18.4986 45.4918 18.028 36.6837ZM78.1997 33.6912C77.9072 28.2175 76.0172 22.9464 72.7686 18.5447C69.5201 14.1429 65.059 10.808 59.9493 8.96187C54.8397 7.11571 49.3111 6.84114 44.0626 8.17287C38.8142 9.5046 34.0816 12.3828 30.4633 16.4436C26.8451 20.5043 24.5036 25.5652 23.7352 30.9863C22.9667 36.4073 23.8057 41.9451 26.146 46.8992C28.4863 51.8533 32.2229 56.0013 36.8832 58.8187C41.5435 61.636 46.9182 62.9962 52.3277 62.7272C59.5816 62.3664 66.3825 59.1046 71.2345 53.6593C76.0864 48.214 78.5919 41.0313 78.1997 33.6912Z" fill="black" fill-opacity="0.35"/>
<path d="M22.3577 17.8305C19.0182 23.5137 17.4247 30.0789 17.7783 36.6961C18.2524 45.5695 22.1907 53.9067 28.7276 59.8736C35.2646 65.8405 43.865 68.9482 52.6368 68.512C59.1782 68.1867 65.4676 65.9058 70.7096 61.9583C75.9516 58.0108 79.9107 52.574 82.0867 46.3357C84.2627 40.0975 84.558 33.3378 82.9354 26.9111C81.3128 20.4844 77.8451 14.6791 72.9702 10.2293C68.0954 5.77957 62.0323 2.88533 55.5477 1.91309C49.063 0.940837 42.4484 1.93434 36.5406 4.76782C30.6327 7.60128 25.6972 12.1473 22.3577 17.8305ZM72.5676 18.6926C75.7869 23.0547 77.6601 28.2786 77.95 33.7036C78.3387 40.9785 75.8554 48.0967 71.0475 53.4927C66.2396 58.8885 59.501 62.1201 52.3144 62.4775C46.9549 62.7441 41.6297 61.3965 37.012 58.6049C32.3943 55.8133 28.6914 51.7029 26.372 46.7931C24.0526 41.8833 23.2211 36.395 23.9827 31.0222C24.7444 25.6495 27.0649 20.6341 30.6503 16.6102C34.2357 12.5863 38.925 9.73458 44.125 8.41515C49.325 7.09573 54.8025 7.36774 59.8651 9.19691C64.9277 11.0261 69.3484 14.3304 72.5676 18.6926Z" stroke="black" stroke-opacity="0.35" stroke-width="0.5"/>
<path d="M28.3708 61.595L24.2937 57.8734L0.84049 84.1948L4.9176 87.9164L28.3708 61.595Z" fill="black" fill-opacity="0.35"/>
<path d="M28.5555 61.7635L28.7218 61.5769L28.5371 61.4083L24.46 57.6868L24.2754 57.5182L24.1091 57.7049L0.655845 84.0263L0.489531 84.2129L0.674175 84.3815L4.75129 88.1031L4.93593 88.2716L5.10225 88.0849L28.5555 61.7635Z" stroke="black" stroke-opacity="0.35" stroke-width="0.5"/>
</svg>
