<svg width="79" height="70" viewBox="0 0 79 70" fill="none" xmlns="http://www.w3.org/2000/svg">
<path d="M39.3772 11.667C35.1238 11.6718 31.0462 13.1845 28.0386 15.8732C25.0309 18.5619 23.3389 22.2073 23.3335 26.0097H31.4899C31.4899 22.1196 35.0298 18.9587 39.3772 18.9587C43.7246 18.9587 47.2645 22.1196 47.2645 26.0097C47.2645 28.1899 45.3029 29.7722 42.3054 31.9378C41.3261 32.6236 40.3856 33.3525 39.4873 34.1217C35.4173 37.7566 35.299 41.6175 35.299 42.0477V44.4795H43.4554L43.4513 42.1717C43.4554 42.1133 43.5859 40.7644 45.2498 39.2805C45.8616 38.7337 46.6324 38.1868 47.4317 37.6107C50.6086 35.3102 55.4168 31.8357 55.4168 26.0097C55.4136 22.2073 53.7228 18.5614 50.7156 15.8724C47.7084 13.1833 43.6306 11.6709 39.3772 11.667ZM35.299 48.1253H43.4554V55.417H35.299V48.1253Z" fill="black"/>
<path d="M39.375 0C17.6636 0 0 15.701 0 35C0 54.299 17.6636 70 39.375 70C61.0864 70 78.75 54.299 78.75 35C78.75 15.701 61.0864 0 39.375 0ZM39.375 63C22.0067 63 7.875 50.4385 7.875 35C7.875 19.5615 22.0067 7 39.375 7C56.7433 7 70.875 19.5615 70.875 35C70.875 50.4385 56.7433 63 39.375 63Z" fill="black"/>
</svg>
