<svg width="78" height="74" viewBox="0 0 78 74" fill="none" xmlns="http://www.w3.org/2000/svg">
<path d="M76.3396 36.3987L40.9076 0.98381C40.4004 0.480015 39.7146 0.197266 38.9998 0.197266C38.2849 0.197266 37.5991 0.480015 37.092 0.98381L1.65993 36.3987C1.14027 36.9163 0.72958 37.5328 0.452093 38.2117C0.174606 38.8907 0.0359477 39.6184 0.0443015 40.3518C0.0786765 43.3768 2.59664 45.7916 5.62164 45.7916H9.27399V73.7815H68.7256V45.7916H72.4552C73.9248 45.7916 75.3084 45.2158 76.3482 44.176C76.8602 43.6656 77.2659 43.0588 77.5418 42.3905C77.8176 41.7223 77.9581 41.006 77.9552 40.283C77.9552 38.8221 77.3795 37.4385 76.3396 36.3987ZM43.8123 67.594H34.1873V50.0627H43.8123V67.594ZM62.5381 39.6041V67.594H49.3123V48.0002C49.3123 46.101 47.774 44.5627 45.8748 44.5627H32.1248C30.2256 44.5627 28.6873 46.101 28.6873 48.0002V67.594H15.4615V39.6041H7.21149L39.0084 7.83303L70.7966 39.6041H62.5381Z" fill="black"/>
</svg>
