<svg width="400" height="400" viewBox="0 0 400 400" fill="none" xmlns="http://www.w3.org/2000/svg">
<rect width="400" height="400" rx="25" fill="#11146F"/>
<path d="M268.617 91.54H131.383V193.441H268.617V91.54Z" fill="#37459F"/>
<path d="M168.56 158.352C168.56 151.786 164.409 149.934 159.796 148.924L157.336 148.419C153.799 147.577 153.491 146.567 153.491 145.052C153.491 143.032 155.029 141.853 157.797 141.853C161.026 141.853 161.795 143.537 162.102 144.884V145.052C162.564 146.231 163.486 146.904 164.563 146.904C164.87 146.904 165.178 146.904 165.331 146.736C166.562 146.399 167.484 145.389 167.484 144.042C167.484 143.705 167.484 143.368 167.33 143.032C166.715 140.843 164.87 137.139 159.95 136.466V132.593C159.95 129.395 155.337 129.395 155.337 132.593V136.466C149.955 137.308 147.956 141.348 147.956 144.884C147.956 151.281 151.954 152.965 155.952 153.807L158.566 154.48C162.256 155.322 162.871 156.332 162.871 158.352C162.871 160.709 161.026 162.056 158.104 162.056C154.107 162.056 153.338 160.036 152.876 158.016C152.569 156.837 151.492 155.995 150.416 155.995C150.109 155.995 149.955 155.995 149.647 156.164H149.494C148.263 156.501 147.341 157.511 147.341 158.858C147.341 159.026 147.341 159.363 147.341 159.531V159.699C147.956 161.888 149.186 166.434 155.49 167.444V171.485C155.49 173.168 156.721 174.01 157.797 174.01C158.873 174.01 160.103 173.168 160.103 171.485V167.444C165.331 166.77 168.56 163.235 168.56 158.352Z" fill="white"/>
<path d="M252.66 132.12H188.83V174.286H252.66V132.12Z" stroke="white" stroke-miterlimit="10"/>
<path fill-rule="evenodd" clip-rule="evenodd" d="M242.043 140.064C243.346 141.371 243.44 143.594 242.253 145.028L232.939 156.281H211.578L204.023 166.026C202.879 167.502 200.864 167.677 199.524 166.417C198.183 165.157 198.024 162.939 199.168 161.463L208.635 149.253H230.12L237.535 140.295C238.722 138.86 240.74 138.757 242.043 140.064Z" fill="#93E2B6"/>
<path d="M275 189.929H125V200.47H275V189.929Z" fill="#87A9FF"/>
<path d="M131.383 84.7275V99.0221C131.383 109.327 139.125 117.804 148.537 117.804C157.949 117.804 165.691 109.327 165.691 99.0221V84.7275H131.383Z" fill="#EC5328"/>
<path d="M200 84.7275V99.0221C200 109.327 207.742 117.804 217.154 117.804C226.566 117.804 234.308 109.327 234.308 99.0221V84.7275H200Z" fill="#EC5328"/>
<path d="M234.309 84.7275V99.0221C234.309 109.327 242.051 117.804 251.463 117.804C260.875 117.804 268.617 109.327 268.617 99.0221V84.7275H234.309Z" fill="#93E2B6"/>
<path d="M165.691 84.7275V99.0221C165.691 109.327 173.434 117.804 182.846 117.804C192.258 117.804 200 109.327 200 99.0221V84.7275H165.691Z" fill="#93E2B6"/>
<path d="M275 81H125V91.5415H275V81Z" fill="#87A9FF"/>
<path d="M148.641 258.432H117.536C117.536 250.411 121.249 246.4 128.673 246.4H193.312C193.312 250.325 192.374 253.312 190.497 255.36C188.619 257.408 185.846 258.432 182.177 258.432H162.337V326.272C162.337 329.771 161.142 332.459 158.753 334.336C156.449 336.213 153.078 337.152 148.641 337.152V258.432Z" fill="#FFFEFE"/>
<path d="M206.01 252.8C206.01 250.923 206.65 249.387 207.931 248.192C209.296 246.997 211.003 246.4 213.051 246.4H249.787C255.589 246.4 260.709 247.595 265.146 249.984C269.669 252.288 273.168 255.616 275.643 259.968C278.117 264.235 279.355 269.184 279.355 274.816C279.355 280.533 278.117 285.568 275.643 289.92C273.253 294.272 269.797 297.643 265.275 300.032C260.837 302.336 255.675 303.488 249.787 303.488H219.835V326.272C219.835 329.771 218.64 332.459 216.251 334.336C213.861 336.213 210.448 337.152 206.01 337.152V252.8ZM249.787 291.456C254.736 291.456 258.619 290.005 261.435 287.104C264.251 284.117 265.659 280.021 265.659 274.816C265.659 269.781 264.208 265.813 261.307 262.912C258.491 259.925 254.651 258.432 249.787 258.432H219.835V291.456H249.787Z" fill="#4AD186"/>
</svg>
