<svg width="198" height="170" viewBox="0 0 198 170" fill="none" xmlns="http://www.w3.org/2000/svg">
<path d="M75.887 0C65.8238 0 56.1727 3.98015 49.0569 11.0649C41.9411 18.1496 37.9435 27.7585 37.9435 37.7778C37.9435 47.7971 41.9411 57.406 49.0569 64.4907C56.1727 71.5754 65.8238 75.5556 75.887 75.5556C85.9503 75.5556 95.6013 71.5754 102.717 64.4907C109.833 57.406 113.831 47.7971 113.831 37.7778C113.831 27.7585 109.833 18.1496 102.717 11.0649C95.6013 3.98015 85.9503 0 75.887 0ZM75.887 18.8889C80.9186 18.8889 85.7442 20.879 89.3021 24.4213C92.86 27.9637 94.8588 32.7681 94.8588 37.7778C94.8588 42.7874 92.86 47.5919 89.3021 51.1342C85.7442 54.6766 80.9186 56.6667 75.887 56.6667C70.8554 56.6667 66.0299 54.6766 62.472 51.1342C58.9141 47.5919 56.9153 42.7874 56.9153 37.7778C56.9153 32.7681 58.9141 27.9637 62.472 24.4213C66.0299 20.879 70.8554 18.8889 75.887 18.8889ZM142.288 75.5556C140.77 75.5556 140.012 76.3111 140.012 77.8222L137.545 89.7222C135.458 91.4222 132.423 92.9333 130.146 94.4444L118.004 89.7222C117.245 89.7222 115.728 89.7222 114.969 90.6667L105.862 107.289C105.104 108.044 105.104 109.556 106.621 110.311L116.487 118.056V127.5L106.621 135.244C105.862 136 105.104 137.511 105.862 138.267L114.969 154.889C115.728 155.833 117.245 155.833 118.004 155.833L130.146 151.111C132.423 152.622 135.458 154.133 137.545 155.833L140.012 167.733C140.012 169.244 140.77 170 142.288 170H161.26C162.019 170 163.537 169.244 163.537 167.733L165.054 155.833C168.09 154.133 171.125 152.622 173.402 151.111L184.975 155.833C186.303 155.833 187.82 155.833 187.82 154.889L197.686 138.267C198.445 137.511 197.686 136 196.927 135.244L187.061 127.5V118.056L196.927 110.311C197.686 109.556 198.445 108.044 197.686 107.289L187.82 90.6667C187.82 89.7222 186.303 89.7222 184.975 89.7222L173.402 94.4444C171.125 92.9333 168.09 91.4222 165.054 89.7222L163.537 77.8222C163.537 76.3111 162.019 75.5556 161.26 75.5556H142.288ZM75.887 85C50.5597 85 0 97.5611 0 122.778V151.111H91.7284C89.0724 145.539 87.1752 139.494 86.2266 133.167H18.0232V122.778C18.0232 116.733 47.714 102.944 75.887 102.944C79.9659 102.944 84.1397 103.322 88.2187 103.889C90.1158 97.8444 92.677 92.1778 95.9971 86.9833C88.5981 85.7556 81.5785 85 75.887 85ZM152.153 108.611C159.742 108.611 166.003 114.844 166.003 123.156C166.003 130.711 159.742 136.944 152.153 136.944C143.806 136.944 137.545 130.711 137.545 123.156C137.545 114.844 143.806 108.611 152.153 108.611Z" fill="black"/>
</svg>
