<svg width="195" height="210" viewBox="0 0 195 210" fill="none" xmlns="http://www.w3.org/2000/svg">
<mask id="path-1-outside-1_1351_149" maskUnits="userSpaceOnUse" x="0" y="0" width="195" height="210" fill="black">
<rect fill="white" width="195" height="210"/>
<path d="M139.037 1.29865C140.465 1.78147 141.647 2.8221 142.322 4.19167C142.996 5.56125 143.109 7.1476 142.635 8.60183L136.96 25.9353C136.484 27.3911 135.46 28.5948 134.112 29.2818C132.765 29.9688 131.204 30.0827 129.774 29.5985C128.344 29.1142 127.162 28.0715 126.487 26.6997C125.812 25.328 125.7 23.7395 126.176 22.2837L131.851 4.95024C132.087 4.22994 132.46 3.56404 132.949 2.99061C133.438 2.41719 134.033 1.94748 134.701 1.60835C135.368 1.26922 136.094 1.06731 136.839 1.01417C137.583 0.961028 138.33 1.0577 139.037 1.29865V1.29865ZM181.003 22.4224C181.53 21.8852 181.949 21.2474 182.235 20.5456C182.52 19.8437 182.667 19.0914 182.667 18.3317C182.667 17.572 182.52 16.8197 182.235 16.1178C181.949 15.4159 181.53 14.7782 181.003 14.241C180.475 13.7038 179.849 13.2777 179.159 12.9869C178.47 12.6962 177.731 12.5466 176.984 12.5466C176.238 12.5466 175.499 12.6962 174.81 12.9869C174.12 13.2777 173.494 13.7038 172.966 14.241L150.263 37.3523C149.736 37.8887 149.317 38.5257 149.031 39.2269C148.745 39.9281 148.598 40.6797 148.597 41.4389C148.596 42.9721 149.193 44.443 150.258 45.5279C151.322 46.6128 152.766 47.223 154.272 47.224C155.778 47.2251 157.223 46.6171 158.289 45.5337L180.991 22.4224H181.003ZM64.6743 25.7851C66.2589 22.3912 68.6326 19.4419 71.5895 17.1927C74.5465 14.9434 77.9976 13.4621 81.6439 12.877C85.2902 12.2919 89.0216 12.6208 92.5148 13.835C96.008 15.0493 99.1577 17.1124 101.691 19.8455L176.462 100.504C178.957 103.195 180.781 106.457 181.78 110.015C182.78 113.573 182.925 117.323 182.204 120.95C181.483 124.577 179.917 127.975 177.638 130.858C175.359 133.741 172.433 136.025 169.107 137.517L124.416 157.577C126.073 163.592 126.34 169.915 125.197 176.052C124.054 182.19 121.531 187.974 117.827 192.954C114.122 197.934 109.336 201.974 103.843 204.757C98.3499 207.541 92.2985 208.993 86.1624 209C79.3995 209.004 72.7477 207.249 66.8377 203.902C60.9277 200.555 55.9554 195.727 52.3922 189.875L38.7706 195.977C35.6414 197.381 32.1692 197.794 28.8062 197.161C25.4432 196.529 22.3453 194.88 19.9161 192.429L6.04474 178.435C3.53652 175.906 1.86255 172.646 1.25448 169.106C0.646418 165.566 1.13433 161.921 2.65069 158.675L64.6743 25.7966V25.7851ZM62.9262 185.138C66.6937 190.613 72.2097 194.588 78.5342 196.387C84.8586 198.185 91.6 197.695 97.6094 195.001C103.619 192.306 108.524 187.573 111.489 181.608C114.455 175.644 115.296 168.817 113.871 162.292L62.9262 185.138V185.138ZM93.4386 27.7727C92.1711 26.4077 90.5959 25.3779 88.8493 24.7724C87.1028 24.1669 85.2375 24.0039 83.4152 24.2975C81.5928 24.5912 79.8682 25.3326 78.3907 26.4576C76.9132 27.5826 75.7274 29.0573 74.9359 30.754L12.9009 163.644C12.3986 164.725 12.2379 165.938 12.4413 167.115C12.6446 168.293 13.2018 169.378 14.0361 170.219L27.9074 184.202C28.7157 185.018 29.7465 185.568 30.866 185.781C31.9855 185.993 33.1418 185.857 34.1847 185.392L164.521 126.955C166.184 126.21 167.647 125.069 168.787 123.628C169.927 122.188 170.711 120.49 171.072 118.677C171.434 116.864 171.362 114.99 170.864 113.211C170.366 111.432 169.456 109.801 168.21 108.454L93.4386 27.7958V27.7727ZM171.297 58.7765C169.792 58.7765 168.348 59.3852 167.284 60.4688C166.22 61.5523 165.622 63.0219 165.622 64.5543C165.622 66.0867 166.22 67.5563 167.284 68.6398C168.348 69.7234 169.792 70.3321 171.297 70.3321H188.324C189.83 70.3321 191.273 69.7234 192.338 68.6398C193.402 67.5563 194 66.0867 194 64.5543C194 63.0219 193.402 61.5523 192.338 60.4688C191.273 59.3852 189.83 58.7765 188.324 58.7765H171.297Z"/>
</mask>
<path d="M139.037 1.29865C140.465 1.78147 141.647 2.8221 142.322 4.19167C142.996 5.56125 143.109 7.1476 142.635 8.60183L136.96 25.9353C136.484 27.3911 135.46 28.5948 134.112 29.2818C132.765 29.9688 131.204 30.0827 129.774 29.5985C128.344 29.1142 127.162 28.0715 126.487 26.6997C125.812 25.328 125.7 23.7395 126.176 22.2837L131.851 4.95024C132.087 4.22994 132.46 3.56404 132.949 2.99061C133.438 2.41719 134.033 1.94748 134.701 1.60835C135.368 1.26922 136.094 1.06731 136.839 1.01417C137.583 0.961028 138.33 1.0577 139.037 1.29865V1.29865ZM181.003 22.4224C181.53 21.8852 181.949 21.2474 182.235 20.5456C182.52 19.8437 182.667 19.0914 182.667 18.3317C182.667 17.572 182.52 16.8197 182.235 16.1178C181.949 15.4159 181.53 14.7782 181.003 14.241C180.475 13.7038 179.849 13.2777 179.159 12.9869C178.47 12.6962 177.731 12.5466 176.984 12.5466C176.238 12.5466 175.499 12.6962 174.81 12.9869C174.12 13.2777 173.494 13.7038 172.966 14.241L150.263 37.3523C149.736 37.8887 149.317 38.5257 149.031 39.2269C148.745 39.9281 148.598 40.6797 148.597 41.4389C148.596 42.9721 149.193 44.443 150.258 45.5279C151.322 46.6128 152.766 47.223 154.272 47.224C155.778 47.2251 157.223 46.6171 158.289 45.5337L180.991 22.4224H181.003ZM64.6743 25.7851C66.2589 22.3912 68.6326 19.4419 71.5895 17.1927C74.5465 14.9434 77.9976 13.4621 81.6439 12.877C85.2902 12.2919 89.0216 12.6208 92.5148 13.835C96.008 15.0493 99.1577 17.1124 101.691 19.8455L176.462 100.504C178.957 103.195 180.781 106.457 181.78 110.015C182.78 113.573 182.925 117.323 182.204 120.95C181.483 124.577 179.917 127.975 177.638 130.858C175.359 133.741 172.433 136.025 169.107 137.517L124.416 157.577C126.073 163.592 126.34 169.915 125.197 176.052C124.054 182.19 121.531 187.974 117.827 192.954C114.122 197.934 109.336 201.974 103.843 204.757C98.3499 207.541 92.2985 208.993 86.1624 209C79.3995 209.004 72.7477 207.249 66.8377 203.902C60.9277 200.555 55.9554 195.727 52.3922 189.875L38.7706 195.977C35.6414 197.381 32.1692 197.794 28.8062 197.161C25.4432 196.529 22.3453 194.88 19.9161 192.429L6.04474 178.435C3.53652 175.906 1.86255 172.646 1.25448 169.106C0.646418 165.566 1.13433 161.921 2.65069 158.675L64.6743 25.7966V25.7851ZM62.9262 185.138C66.6937 190.613 72.2097 194.588 78.5342 196.387C84.8586 198.185 91.6 197.695 97.6094 195.001C103.619 192.306 108.524 187.573 111.489 181.608C114.455 175.644 115.296 168.817 113.871 162.292L62.9262 185.138V185.138ZM93.4386 27.7727C92.1711 26.4077 90.5959 25.3779 88.8493 24.7724C87.1028 24.1669 85.2375 24.0039 83.4152 24.2975C81.5928 24.5912 79.8682 25.3326 78.3907 26.4576C76.9132 27.5826 75.7274 29.0573 74.9359 30.754L12.9009 163.644C12.3986 164.725 12.2379 165.938 12.4413 167.115C12.6446 168.293 13.2018 169.378 14.0361 170.219L27.9074 184.202C28.7157 185.018 29.7465 185.568 30.866 185.781C31.9855 185.993 33.1418 185.857 34.1847 185.392L164.521 126.955C166.184 126.21 167.647 125.069 168.787 123.628C169.927 122.188 170.711 120.49 171.072 118.677C171.434 116.864 171.362 114.99 170.864 113.211C170.366 111.432 169.456 109.801 168.21 108.454L93.4386 27.7958V27.7727ZM171.297 58.7765C169.792 58.7765 168.348 59.3852 167.284 60.4688C166.22 61.5523 165.622 63.0219 165.622 64.5543C165.622 66.0867 166.22 67.5563 167.284 68.6398C168.348 69.7234 169.792 70.3321 171.297 70.3321H188.324C189.83 70.3321 191.273 69.7234 192.338 68.6398C193.402 67.5563 194 66.0867 194 64.5543C194 63.0219 193.402 61.5523 192.338 60.4688C191.273 59.3852 189.83 58.7765 188.324 58.7765H171.297Z" fill="black"/>
<path d="M139.037 1.29865C140.465 1.78147 141.647 2.8221 142.322 4.19167C142.996 5.56125 143.109 7.1476 142.635 8.60183L136.96 25.9353C136.484 27.3911 135.46 28.5948 134.112 29.2818C132.765 29.9688 131.204 30.0827 129.774 29.5985C128.344 29.1142 127.162 28.0715 126.487 26.6997C125.812 25.328 125.7 23.7395 126.176 22.2837L131.851 4.95024C132.087 4.22994 132.46 3.56404 132.949 2.99061C133.438 2.41719 134.033 1.94748 134.701 1.60835C135.368 1.26922 136.094 1.06731 136.839 1.01417C137.583 0.961028 138.33 1.0577 139.037 1.29865V1.29865ZM181.003 22.4224C181.53 21.8852 181.949 21.2474 182.235 20.5456C182.52 19.8437 182.667 19.0914 182.667 18.3317C182.667 17.572 182.52 16.8197 182.235 16.1178C181.949 15.4159 181.53 14.7782 181.003 14.241C180.475 13.7038 179.849 13.2777 179.159 12.9869C178.47 12.6962 177.731 12.5466 176.984 12.5466C176.238 12.5466 175.499 12.6962 174.81 12.9869C174.12 13.2777 173.494 13.7038 172.966 14.241L150.263 37.3523C149.736 37.8887 149.317 38.5257 149.031 39.2269C148.745 39.9281 148.598 40.6797 148.597 41.4389C148.596 42.9721 149.193 44.443 150.258 45.5279C151.322 46.6128 152.766 47.223 154.272 47.224C155.778 47.2251 157.223 46.6171 158.289 45.5337L180.991 22.4224H181.003ZM64.6743 25.7851C66.2589 22.3912 68.6326 19.4419 71.5895 17.1927C74.5465 14.9434 77.9976 13.4621 81.6439 12.877C85.2902 12.2919 89.0216 12.6208 92.5148 13.835C96.008 15.0493 99.1577 17.1124 101.691 19.8455L176.462 100.504C178.957 103.195 180.781 106.457 181.78 110.015C182.78 113.573 182.925 117.323 182.204 120.95C181.483 124.577 179.917 127.975 177.638 130.858C175.359 133.741 172.433 136.025 169.107 137.517L124.416 157.577C126.073 163.592 126.34 169.915 125.197 176.052C124.054 182.19 121.531 187.974 117.827 192.954C114.122 197.934 109.336 201.974 103.843 204.757C98.3499 207.541 92.2985 208.993 86.1624 209C79.3995 209.004 72.7477 207.249 66.8377 203.902C60.9277 200.555 55.9554 195.727 52.3922 189.875L38.7706 195.977C35.6414 197.381 32.1692 197.794 28.8062 197.161C25.4432 196.529 22.3453 194.88 19.9161 192.429L6.04474 178.435C3.53652 175.906 1.86255 172.646 1.25448 169.106C0.646418 165.566 1.13433 161.921 2.65069 158.675L64.6743 25.7966V25.7851ZM62.9262 185.138C66.6937 190.613 72.2097 194.588 78.5342 196.387C84.8586 198.185 91.6 197.695 97.6094 195.001C103.619 192.306 108.524 187.573 111.489 181.608C114.455 175.644 115.296 168.817 113.871 162.292L62.9262 185.138V185.138ZM93.4386 27.7727C92.1711 26.4077 90.5959 25.3779 88.8493 24.7724C87.1028 24.1669 85.2375 24.0039 83.4152 24.2975C81.5928 24.5912 79.8682 25.3326 78.3907 26.4576C76.9132 27.5826 75.7274 29.0573 74.9359 30.754L12.9009 163.644C12.3986 164.725 12.2379 165.938 12.4413 167.115C12.6446 168.293 13.2018 169.378 14.0361 170.219L27.9074 184.202C28.7157 185.018 29.7465 185.568 30.866 185.781C31.9855 185.993 33.1418 185.857 34.1847 185.392L164.521 126.955C166.184 126.21 167.647 125.069 168.787 123.628C169.927 122.188 170.711 120.49 171.072 118.677C171.434 116.864 171.362 114.99 170.864 113.211C170.366 111.432 169.456 109.801 168.21 108.454L93.4386 27.7958V27.7727ZM171.297 58.7765C169.792 58.7765 168.348 59.3852 167.284 60.4688C166.22 61.5523 165.622 63.0219 165.622 64.5543C165.622 66.0867 166.22 67.5563 167.284 68.6398C168.348 69.7234 169.792 70.3321 171.297 70.3321H188.324C189.83 70.3321 191.273 69.7234 192.338 68.6398C193.402 67.5563 194 66.0867 194 64.5543C194 63.0219 193.402 61.5523 192.338 60.4688C191.273 59.3852 189.83 58.7765 188.324 58.7765H171.297Z" stroke="black" mask="url(#path-1-outside-1_1351_149)"/>
</svg>
