<svg width="232" height="343" viewBox="0 0 232 343" fill="none" xmlns="http://www.w3.org/2000/svg">
<mask id="path-1-outside-1_847_103" maskUnits="userSpaceOnUse" x="0" y="0" width="232" height="343" fill="black">
<rect fill="white" width="232" height="343"/>
<path d="M223.084 1.00718H9.54171C8.43582 0.958837 7.33238 1.15506 6.29768 1.58406C5.26298 2.01306 4.31835 2.66599 3.52055 3.50362C2.72274 4.34126 2.08822 5.34632 1.65508 6.45846C1.22194 7.57059 0.999117 8.76684 1 9.97536V332.83C1.01495 334.575 1.48686 336.28 2.36004 337.741C3.23322 339.203 4.47123 340.362 5.92791 341.081C7.39403 341.76 9.00716 341.969 10.5782 341.683C12.1492 341.397 13.6131 340.628 14.7981 339.466L115.984 236.512L217.499 339.466C219.051 340.939 221.029 341.765 223.084 341.798C224.166 342.067 225.288 342.067 226.37 341.798C227.871 340.978 229.112 339.685 229.932 338.086C230.752 336.487 231.113 334.656 230.969 332.83V9.97536C230.971 7.65772 230.151 5.42935 228.681 3.75744C227.211 2.08552 225.205 1.09988 223.084 1.00718ZM214.543 312.203L121.241 217.679C120.508 216.876 119.638 216.239 118.68 215.805C117.721 215.37 116.694 215.146 115.656 215.146C114.618 215.146 113.591 215.37 112.632 215.805C111.674 216.239 110.804 216.876 110.071 217.679L17.4264 312.203V18.9435H214.543V312.203Z"/>
</mask>
<path d="M223.084 1.00718H9.54171C8.43582 0.958837 7.33238 1.15506 6.29768 1.58406C5.26298 2.01306 4.31835 2.66599 3.52055 3.50362C2.72274 4.34126 2.08822 5.34632 1.65508 6.45846C1.22194 7.57059 0.999117 8.76684 1 9.97536V332.83C1.01495 334.575 1.48686 336.28 2.36004 337.741C3.23322 339.203 4.47123 340.362 5.92791 341.081C7.39403 341.76 9.00716 341.969 10.5782 341.683C12.1492 341.397 13.6131 340.628 14.7981 339.466L115.984 236.512L217.499 339.466C219.051 340.939 221.029 341.765 223.084 341.798C224.166 342.067 225.288 342.067 226.37 341.798C227.871 340.978 229.112 339.685 229.932 338.086C230.752 336.487 231.113 334.656 230.969 332.83V9.97536C230.971 7.65772 230.151 5.42935 228.681 3.75744C227.211 2.08552 225.205 1.09988 223.084 1.00718ZM214.543 312.203L121.241 217.679C120.508 216.876 119.638 216.239 118.68 215.805C117.721 215.37 116.694 215.146 115.656 215.146C114.618 215.146 113.591 215.37 112.632 215.805C111.674 216.239 110.804 216.876 110.071 217.679L17.4264 312.203V18.9435H214.543V312.203Z" fill="#FA6334"/>
<path d="M223.084 1.00718H9.54171C8.43582 0.958837 7.33238 1.15506 6.29768 1.58406C5.26298 2.01306 4.31835 2.66599 3.52055 3.50362C2.72274 4.34126 2.08822 5.34632 1.65508 6.45846C1.22194 7.57059 0.999117 8.76684 1 9.97536V332.83C1.01495 334.575 1.48686 336.28 2.36004 337.741C3.23322 339.203 4.47123 340.362 5.92791 341.081C7.39403 341.76 9.00716 341.969 10.5782 341.683C12.1492 341.397 13.6131 340.628 14.7981 339.466L115.984 236.512L217.499 339.466C219.051 340.939 221.029 341.765 223.084 341.798C224.166 342.067 225.288 342.067 226.37 341.798C227.871 340.978 229.112 339.685 229.932 338.086C230.752 336.487 231.113 334.656 230.969 332.83V9.97536C230.971 7.65772 230.151 5.42935 228.681 3.75744C227.211 2.08552 225.205 1.09988 223.084 1.00718ZM214.543 312.203L121.241 217.679C120.508 216.876 119.638 216.239 118.68 215.805C117.721 215.37 116.694 215.146 115.656 215.146C114.618 215.146 113.591 215.37 112.632 215.805C111.674 216.239 110.804 216.876 110.071 217.679L17.4264 312.203V18.9435H214.543V312.203Z" stroke="#FA6334" mask="url(#path-1-outside-1_847_103)"/>
</svg>
