<?xml version="1.0" encoding="utf-8"?>
<!-- Generator: Adobe Illustrator 26.3.1, SVG Export Plug-In . SVG Version: 6.00 Build 0)  -->
<svg version="1.1" id="Layer_1" xmlns="http://www.w3.org/2000/svg" xmlns:xlink="http://www.w3.org/1999/xlink" x="0px" y="0px"
	 viewBox="0 0 750 500" style="enable-background:new 0 0 750 500;" xml:space="preserve">
<g id="BACKGROUND">
	<g>
		<rect y="0" style="fill:#FFFFFF;" width="750" height="500"/>
	</g>
</g>
<g id="OBJECTS">
	<g>
		<path style="fill:#4C3007;" d="M282.3,478.9h-5.5c-5.3,0-9.6-4.3-9.6-9.6V34.4c0-5.3,4.3-9.6,9.6-9.6h5.5c5.3,0,9.6,4.3,9.6,9.6
			v434.9C291.8,474.6,287.6,478.9,282.3,478.9z"/>
		<g>
			<path style="fill:#4DD78A;" d="M189.1,82.8c-3.3,0-6.4,1.4-8.7,3.9l-32.9,35.1c-2.3,2.5-3.6,5.8-3.6,9.3l0,0
				c0,3.5,1.3,6.8,3.6,9.3l32.9,35.1c2.3,2.5,5.4,3.9,8.7,3.9h78.1v-13.2v-8.8V153v-22v-21.9v-4.4v-8.8V82.8H189.1L189.1,82.8z"/>
			<path style="fill:#35A265;" d="M267.2,104.7v-8.8V82.8h-78.1c-3.3,0-6.4,1.4-8.7,3.9l-32.9,35.1c-2.3,2.5-3.6,5.8-3.6,9.3h123.3
				v-21.9V104.7z"/>
			<path style="fill:#35A265;" d="M411.6,71.8l-32.9-35.1c-2.3-2.5-5.4-3.9-8.7-3.9h-78.1V46v13.2v21.9V103v4.4v8.8v13.2H370
				c3.3,0,6.4-1.4,8.7-3.9l32.9-35.1c2.3-2.5,3.6-5.8,3.6-9.3l0,0C415.2,77.6,413.9,74.3,411.6,71.8z"/>
			<path style="fill:#4DD78A;" d="M411.6,71.8l-32.9-35.1c-2.3-2.5-5.4-3.9-8.7-3.9h-78.1V46v13.2v21.9h123.3l0,0
				C415.2,77.6,413.9,74.3,411.6,71.8z"/>
			<path style="fill:#FFFEFE;" d="M190.1,158.9c-1.1,0-2.1-0.2-3-0.5c-0.8-0.3-1.5-0.7-1.9-1.2s-0.6-1-0.6-1.6
				c0-0.5,0.1-0.8,0.4-1.1c0.3-0.3,0.7-0.4,1.2-0.4c0,1.1,0.3,1.9,1,2.5s1.7,0.8,2.9,0.8s2.1-0.2,2.7-0.6c0.6-0.4,1-0.9,1-1.7
				c0-0.4-0.1-0.8-0.4-1.1c-0.2-0.3-0.6-0.5-1.2-0.7c-0.6-0.2-1.4-0.4-2.4-0.6c-1.2-0.3-2.2-0.5-3-0.9c-0.7-0.3-1.3-0.8-1.6-1.2
				c-0.3-0.5-0.5-1.1-0.5-1.8s0.2-1.3,0.6-1.9c0.4-0.5,1-1,1.8-1.3s1.7-0.4,2.7-0.4s1.9,0.1,2.6,0.4c0.8,0.3,1.4,0.6,1.8,1.1
				c0.4,0.5,0.7,1,0.7,1.6c0,0.4-0.1,0.7-0.4,0.9c-0.2,0.2-0.6,0.3-1.2,0.3c-0.1-1-0.5-1.7-1.1-2.1c-0.6-0.4-1.4-0.7-2.5-0.7
				s-1.9,0.2-2.4,0.5c-0.6,0.3-0.9,0.8-0.9,1.5c0,0.4,0.1,0.8,0.3,1.1s0.6,0.5,1.1,0.7s1.2,0.4,2.1,0.6c1.4,0.3,2.5,0.6,3.2,0.9
				c0.8,0.3,1.4,0.8,1.7,1.3c0.4,0.5,0.5,1.1,0.5,1.8c0,1.2-0.5,2.1-1.5,2.7C193.2,158.5,191.8,158.9,190.1,158.9z M202.1,158.9
				c-1,0-1.7-0.3-2.1-0.8c-0.5-0.5-0.7-1.2-0.7-2v-5.5h-1.9c0-0.4,0.1-0.8,0.3-1s0.5-0.3,0.8-0.3h0.8v-1.8c0-0.4,0.1-0.7,0.4-0.9
				c0.3-0.2,0.7-0.3,1.3-0.3v3h2.7c0,0.9-0.4,1.3-1.3,1.3H201v5.5c0,0.5,0.1,0.9,0.3,1.1c0.2,0.2,0.6,0.3,1.1,0.3s0.9-0.1,1.3-0.3
				c0.2,0.2,0.3,0.4,0.3,0.7s-0.2,0.6-0.5,0.8C203.2,158.7,202.7,158.9,202.1,158.9z M209.5,158.9c-0.8,0-1.6-0.1-2.3-0.4
				c-0.7-0.3-1.2-0.7-1.6-1.2c-0.4-0.5-0.5-1.1-0.5-1.7v-3.1c0-0.6,0.2-1.2,0.5-1.7c0.4-0.5,0.9-0.9,1.6-1.2
				c0.7-0.3,1.4-0.5,2.3-0.5s1.6,0.2,2.3,0.5s1.2,0.7,1.6,1.2c0.4,0.5,0.6,1.1,0.6,1.7v3.1c0,0.6-0.2,1.2-0.6,1.7
				c-0.4,0.5-0.9,0.9-1.6,1.2C211.1,158.7,210.3,158.9,209.5,158.9z M209.5,157.4c0.8,0,1.5-0.2,1.9-0.5c0.5-0.4,0.7-0.8,0.7-1.4v-3
				c0-0.6-0.2-1.1-0.7-1.5s-1.1-0.6-1.9-0.6c-0.8,0-1.4,0.2-1.9,0.6s-0.7,0.9-0.7,1.5v3c0,0.6,0.2,1.1,0.7,1.4
				C208,157.3,208.7,157.4,209.5,157.4z M220,158.9c-0.8,0-1.6-0.1-2.2-0.4c-0.6-0.3-1.2-0.7-1.5-1.2c-0.4-0.5-0.5-1.1-0.5-1.7v-3.1
				c0-0.7,0.2-1.3,0.5-1.8c0.4-0.5,0.9-0.9,1.5-1.2s1.4-0.4,2.2-0.4s1.5,0.1,2,0.3c0.6,0.2,1.1,0.5,1.4,0.9c0.3,0.4,0.5,0.8,0.5,1.3
				c0,0.3-0.1,0.6-0.4,0.8c-0.3,0.2-0.6,0.3-1,0.2c0-0.6-0.2-1.1-0.7-1.5s-1.1-0.6-1.8-0.6s-1.3,0.2-1.8,0.6
				c-0.5,0.4-0.7,0.8-0.7,1.4v3c0,0.6,0.2,1,0.7,1.4s1.1,0.5,1.8,0.5s1.3-0.2,1.8-0.6c0.5-0.4,0.7-0.9,0.7-1.5c0.4,0,0.8,0.1,1,0.2
				c0.3,0.2,0.4,0.4,0.4,0.8c0,0.5-0.2,0.9-0.5,1.3c-0.3,0.4-0.8,0.7-1.4,0.9C221.4,158.7,220.7,158.9,220,158.9z M234.7,158.4
				c-0.1,0.1-0.2,0.2-0.4,0.3s-0.3,0.1-0.5,0.1s-0.4,0-0.6-0.1c-0.2-0.1-0.3-0.2-0.4-0.4l-3.2-4.7l-1.5,1.3v2.8
				c0,0.8-0.6,1.2-1.7,1.2v-12.3c0-0.9,0.6-1.4,1.8-1.4v7.9l4.9-4.1c0.4,0.3,0.6,0.6,0.6,0.9c0,0.2,0,0.3-0.1,0.4
				c-0.1,0.1-0.2,0.3-0.5,0.5l-2.3,1.9L234.7,158.4z M239.9,158.9c-0.7,0-1.3-0.1-1.9-0.3c-0.6-0.2-1.1-0.5-1.5-0.9
				s-0.5-0.8-0.5-1.3c0-0.6,0.4-0.9,1.2-1c0.1,0.7,0.5,1.2,1,1.6c0.5,0.3,1.2,0.5,1.9,0.5s1.4-0.1,1.8-0.3s0.6-0.5,0.6-1
				c0-0.3-0.1-0.6-0.3-0.8s-0.5-0.4-0.9-0.5c-0.4-0.2-0.9-0.3-1.6-0.4c-0.9-0.2-1.6-0.4-2.1-0.6c-0.5-0.2-0.9-0.5-1.2-0.9
				s-0.4-0.8-0.4-1.4c0-0.5,0.2-0.9,0.5-1.3c0.3-0.4,0.8-0.7,1.3-0.9c0.6-0.2,1.2-0.3,2-0.3c0.7,0,1.3,0.1,1.9,0.3
				c0.6,0.2,1.1,0.4,1.5,0.8c0.4,0.3,0.6,0.7,0.6,1.1c0,0.3-0.1,0.5-0.4,0.7c-0.2,0.2-0.6,0.3-1,0.3c0-0.6-0.3-1-0.7-1.3
				s-1-0.5-1.8-0.5c-0.6,0-1.2,0.1-1.5,0.3c-0.4,0.2-0.6,0.5-0.6,0.9s0.2,0.7,0.5,0.9c0.4,0.2,1,0.4,1.8,0.6
				c1.4,0.3,2.5,0.6,3.1,1.1c0.7,0.5,1,1.1,1,2s-0.4,1.5-1.1,2C242.3,158.6,241.3,158.9,239.9,158.9z"/>
			<path style="fill:#FFFFFF;" d="M178.3,102h-6.6c0-1.8,0.9-2.7,2.6-2.7H188c0,0.9-0.2,1.5-0.7,2c-0.4,0.4-1.1,0.7-1.9,0.7h-3.9
				v12.9c0,0.7-0.3,1.3-0.8,1.7c-0.6,0.4-1.4,0.6-2.4,0.6L178.3,102L178.3,102z M193.9,106.6c-1,0-1.9,0.3-2.6,0.8
				c-0.7,0.5-1,1.2-1,2v6c0,0.6-0.3,1.1-0.8,1.4s-1.2,0.4-2.3,0.4v-10.8c0-1.5,1-2.3,2.9-2.3v1.5c-0.3,0.3-0.5,0.5-0.6,0.8l0.1,0.1
				c1.2-1.6,2.6-2.4,4.3-2.4c0.7,0,1.3,0.2,1.6,0.5c0.4,0.3,0.6,0.8,0.6,1.3c0,0.4-0.1,0.7-0.3,1
				C195.4,106.7,194.8,106.6,193.9,106.6z M202.1,117.2c-1,0-1.8-0.2-2.6-0.5s-1.4-0.8-1.8-1.5c-0.5-0.6-0.7-1.4-0.7-2.3
				s0.2-1.6,0.7-2.3c0.5-0.7,1.1-1.2,2-1.5c0.8-0.4,1.8-0.5,2.8-0.5c1.6,0,3,0.5,4.1,1.6l0.1-0.1c-0.3-0.3-0.6-0.5-0.8-0.7v-0.7
				c0-0.7-0.3-1.3-0.8-1.7c-0.5-0.4-1.3-0.7-2.3-0.7c-0.9,0-1.6,0.2-2.3,0.5c-0.6,0.3-1.2,0.8-1.6,1.4c-0.4-0.1-0.7-0.3-0.9-0.6
				c-0.2-0.3-0.4-0.5-0.4-0.8c0-0.5,0.2-0.9,0.7-1.4c0.5-0.4,1.1-0.8,1.9-1c0.8-0.3,1.7-0.4,2.7-0.4c1.8,0,3.3,0.4,4.3,1.2
				c1,0.8,1.5,1.9,1.5,3.3v6.6c0,0.7-0.2,1.2-0.7,1.5s-1.2,0.5-2.2,0.5V116c0.3-0.3,0.5-0.5,0.6-0.7l-0.1-0.1
				c-0.6,0.6-1.2,1.1-1.9,1.4C203.9,117.1,203,117.2,202.1,117.2z M202.8,115.1c1,0,1.8-0.2,2.3-0.6c0.6-0.4,0.9-0.9,0.9-1.6
				s-0.3-1.2-0.9-1.6c-0.6-0.4-1.3-0.6-2.3-0.6c-0.9,0-1.6,0.2-2.1,0.6s-0.8,0.9-0.8,1.6s0.3,1.2,0.8,1.6S201.9,115.1,202.8,115.1z
				 M217.1,117.2c-1,0-1.9-0.2-2.7-0.6s-1.4-0.9-1.8-1.6c-0.4-0.7-0.6-1.5-0.6-2.4v-4.1c0-0.9,0.2-1.7,0.7-2.3
				c0.5-0.7,1.1-1.2,1.9-1.6c0.8-0.4,1.8-0.6,2.8-0.6c0.7,0,1.4,0.1,2.2,0.4c0.7,0.3,1.3,0.6,1.8,1.1l0.1-0.1
				c-0.1-0.1-0.3-0.3-0.6-0.5v-4c0-0.6,0.3-1.1,0.8-1.5s1.3-0.5,2.3-0.5V115c0,0.6-0.2,1.1-0.7,1.5s-1.2,0.6-2.1,0.6v-1.4
				c0.2-0.3,0.4-0.5,0.5-0.7l-0.1-0.1c-0.6,0.7-1.2,1.2-1.9,1.6C219,117,218.1,117.2,217.1,117.2z M217.9,114.8
				c0.9,0,1.6-0.2,2.1-0.6c0.6-0.4,0.8-0.9,0.8-1.5v-4c0-0.6-0.3-1.1-0.8-1.5s-1.3-0.6-2.2-0.6c-1,0-1.7,0.2-2.2,0.6
				s-0.8,0.9-0.8,1.6v3.8c0,0.7,0.3,1.3,0.8,1.6C216.2,114.6,217,114.8,217.9,114.8z M229.4,102.7c-0.6,0-1.1-0.2-1.5-0.5
				c-0.4-0.4-0.6-0.8-0.6-1.3s0.2-1,0.6-1.3c0.4-0.3,0.9-0.5,1.5-0.5s1.1,0.2,1.5,0.5s0.6,0.8,0.6,1.3s-0.2,1-0.6,1.3
				C230.5,102.5,230,102.7,229.4,102.7z M227.9,105.9c0-0.6,0.3-1.1,0.8-1.4s1.3-0.4,2.3-0.4v11.3c0,0.6-0.3,1.1-0.8,1.4
				s-1.3,0.4-2.3,0.4V105.9z M234.9,106.4c0-1.5,1-2.3,2.9-2.3v1.5c-0.2,0.2-0.4,0.5-0.6,0.8l0.2,0.1c0.5-0.7,1.2-1.3,2.1-1.8
				c0.9-0.4,1.8-0.7,2.8-0.7c0.9,0,1.8,0.2,2.5,0.6s1.2,0.9,1.6,1.6c0.4,0.7,0.6,1.4,0.6,2.3v6.9c0,0.6-0.3,1.1-0.8,1.4
				s-1.3,0.4-2.3,0.4v-8.3c0-0.7-0.2-1.2-0.7-1.7c-0.4-0.4-1.1-0.7-1.9-0.7c-0.9,0-1.7,0.3-2.4,0.8c-0.6,0.5-1,1.2-1,2v6
				c0,0.6-0.3,1.1-0.8,1.4s-1.2,0.4-2.3,0.4L234.9,106.4L234.9,106.4z M255.6,122.3c-1,0-2-0.1-2.8-0.4s-1.5-0.6-1.9-1.1
				c-0.5-0.5-0.7-1-0.7-1.5c0-1,0.7-1.5,2.2-1.5c0.1,0.7,0.4,1.3,0.9,1.7c0.6,0.4,1.3,0.6,2.3,0.6c1.1,0,1.9-0.3,2.4-0.8
				s0.7-1.2,0.7-2.1v-1.1c0.3-0.2,0.5-0.4,0.6-0.5l-0.1-0.1c-0.5,0.5-1.1,0.8-1.9,1.1c-0.8,0.3-1.5,0.4-2.2,0.4
				c-1,0-1.9-0.2-2.7-0.6s-1.4-0.9-1.9-1.6s-0.7-1.4-0.7-2.3v-3.9c0-0.8,0.2-1.6,0.7-2.3c0.5-0.7,1.1-1.2,1.9-1.6
				c0.8-0.4,1.6-0.6,2.6-0.6c1.8,0,3.3,0.7,4.4,2.1l0.1-0.1c-0.2-0.3-0.4-0.5-0.5-0.6c0-0.9,0.9-1.4,2.8-1.4v12.6
				c0,1.1-0.3,2-0.8,2.9c-0.5,0.8-1.3,1.5-2.2,1.9C257.9,122.1,256.8,122.3,255.6,122.3z M255.7,114.5c0.8,0,1.6-0.2,2.1-0.6
				c0.6-0.4,0.9-0.9,0.9-1.5v-3.7c0-0.6-0.3-1.1-0.9-1.5s-1.3-0.6-2.1-0.6c-1,0-1.7,0.2-2.2,0.6s-0.8,0.9-0.8,1.7v3.5
				c0,0.7,0.3,1.2,0.8,1.6C254,114.3,254.8,114.5,255.7,114.5z"/>
			<path style="fill:#FFFFFF;" d="M315,100.7c0-0.4,0.2-0.7,0.5-1s0.7-0.4,1.2-0.4h7.6c1.3,0,2.4,0.2,3.4,0.7s1.7,1.1,2.3,2
				s0.8,1.9,0.8,3c0,1.2-0.3,2.2-0.8,3.1s-1.3,1.5-2.2,2c-1,0.5-2.1,0.7-3.4,0.7h-6v4.1c0,0.8-0.3,1.3-0.8,1.7
				c-0.5,0.4-1.3,0.6-2.4,0.6v-16.5H315z M324.3,108.1c1,0,1.8-0.3,2.3-0.8c0.6-0.6,0.8-1.3,0.8-2.3c0-0.9-0.3-1.7-0.8-2.2
				c-0.6-0.6-1.3-0.8-2.3-0.8h-6v6.2L324.3,108.1L324.3,108.1z M337.1,117.2c-1.2,0-2.2-0.2-3.1-0.6s-1.6-1-2.2-1.6
				c-0.5-0.7-0.8-1.5-0.8-2.4v-3.7c0-0.9,0.3-1.7,0.8-2.4c0.5-0.7,1.2-1.3,2.2-1.7c0.9-0.4,2-0.6,3.2-0.6s2.2,0.2,3.1,0.6
				s1.7,1,2.2,1.7s0.8,1.5,0.8,2.4v3.7c0,0.9-0.3,1.7-0.8,2.4c-0.5,0.7-1.3,1.2-2.2,1.6C339.3,117,338.2,117.2,337.1,117.2z
				 M337.1,114.8c1,0,1.7-0.2,2.3-0.6c0.6-0.4,0.8-1,0.8-1.7V109c0-0.7-0.3-1.3-0.8-1.8c-0.6-0.5-1.3-0.7-2.3-0.7s-1.7,0.2-2.3,0.7
				c-0.6,0.5-0.8,1.1-0.8,1.8v3.4c0,0.7,0.3,1.3,0.8,1.7C335.4,114.6,336.1,114.8,337.1,114.8z M350.6,117.2c-1.6,0-3-0.3-4.1-0.9
				c-1-0.6-1.6-1.4-1.6-2.4c0-0.9,0.7-1.4,2.1-1.4c0.2,0.8,0.6,1.4,1.2,1.8s1.4,0.6,2.3,0.6c1,0,1.7-0.1,2.3-0.4
				c0.5-0.3,0.8-0.6,0.8-1.1s-0.2-0.8-0.7-1.1c-0.5-0.3-1.3-0.6-2.6-0.9c-1.3-0.3-2.3-0.6-3-0.9s-1.3-0.7-1.7-1.2
				c-0.4-0.5-0.5-1.1-0.5-1.9c0-1,0.5-1.9,1.4-2.6c1-0.7,2.3-1,3.9-1s2.9,0.3,3.9,0.8c1.1,0.5,1.6,1.3,1.6,2.1c0,0.4-0.2,0.8-0.5,1
				s-0.9,0.3-1.6,0.4c-0.3-1.4-1.4-2.1-3.3-2.1c-0.7,0-1.4,0.1-1.9,0.4s-0.7,0.6-0.7,1s0.2,0.8,0.6,1c0.5,0.2,1.2,0.4,2.2,0.6
				c2,0.4,3.4,0.9,4.3,1.6s1.4,1.6,1.4,2.7s-0.5,2-1.6,2.7C353.8,116.9,352.4,117.2,350.6,117.2z M364,117.2c-1.4,0-2.5-0.4-3.1-1.1
				c-0.7-0.8-1-1.7-1-2.9v-6.7h-2.7c0-0.7,0.2-1.3,0.5-1.6c0.3-0.4,0.7-0.5,1.2-0.5h1v-2.2c0-0.6,0.2-1.1,0.7-1.4s1.3-0.4,2.2-0.4v4
				h3.6c0,0.8-0.2,1.3-0.5,1.6c-0.3,0.3-0.8,0.5-1.5,0.5h-1.5v6.6c0,0.6,0.1,1,0.4,1.3s0.7,0.4,1.3,0.4c0.6,0,1.3-0.2,1.9-0.5
				c0.2,0.1,0.3,0.3,0.4,0.5s0.1,0.4,0.1,0.6c0,0.5-0.3,0.9-0.8,1.3C365.6,117,364.9,117.2,364,117.2z"/>
			<path style="fill:#FFFEFE;" d="M317,63.6c-1.1,0-2.1-0.2-3-0.6c-0.9-0.4-1.6-1-2.1-1.7s-0.7-1.5-0.7-2.4v-4.2
				c0-0.9,0.2-1.7,0.7-2.4s1.2-1.3,2.1-1.7s1.9-0.6,3-0.6s2.1,0.2,3,0.5s1.6,0.8,2,1.4c0.5,0.6,0.8,1.3,0.8,2c0,0.4-0.1,0.7-0.4,0.9
				s-0.6,0.3-1.1,0.3c-0.1,0-0.2,0-0.4,0c0-0.2,0-0.4,0-0.7c0-0.5-0.2-1-0.5-1.5c-0.3-0.4-0.8-0.8-1.4-1s-1.3-0.4-2-0.4
				c-0.8,0-1.4,0.1-2,0.4c-0.6,0.3-1.1,0.6-1.4,1.1s-0.5,1-0.5,1.6v4.2c0,0.6,0.2,1.2,0.5,1.6c0.3,0.5,0.8,0.8,1.4,1.1
				s1.3,0.4,2.1,0.4c0.8,0,1.5-0.1,2.1-0.4c0.6-0.2,1.1-0.6,1.4-1s0.5-0.9,0.5-1.5c0-0.2,0-0.4,0-0.7c0.2,0,0.3,0,0.4,0
				c0.4,0,0.8,0.1,1.1,0.4c0.3,0.2,0.4,0.6,0.4,1c0,0.7-0.3,1.4-0.8,2s-1.2,1-2.1,1.4C319.2,63.4,318.1,63.6,317,63.6z M329.6,55.2
				c-0.8,0-1.4,0.2-1.9,0.6c-0.5,0.4-0.8,0.9-0.8,1.5v5c0,0.4-0.1,0.7-0.4,0.9s-0.7,0.3-1.3,0.3v-8.4c0-0.9,0.6-1.4,1.7-1.4v1.2
				c-0.2,0.2-0.4,0.4-0.4,0.6l0.1,0.1c0.9-1.2,1.9-1.8,3.2-1.8c0.5,0,0.9,0.1,1.1,0.3c0.3,0.2,0.4,0.5,0.4,0.8
				c0,0.2-0.1,0.4-0.2,0.6C330.7,55.3,330.2,55.2,329.6,55.2z M333.5,67.3c-0.8,0-1.3-0.5-1.3-1.4c0.4,0.1,0.7,0.1,0.9,0.1
				c0.6,0,1.1-0.2,1.4-0.5c0.4-0.3,0.7-0.9,1.1-1.7L336,63l-4-9.1c0.1,0,0.2-0.1,0.4-0.1c0.2,0,0.3,0,0.4,0c0.3,0,0.5,0.1,0.8,0.2
				c0.2,0.1,0.4,0.3,0.5,0.5l2.7,6.5l-0.3,0.8l0.1,0.1l3.1-7.3c0.1-0.2,0.3-0.4,0.5-0.5s0.5-0.2,0.8-0.2c0.1,0,0.3,0,0.4,0
				c0.2,0,0.3,0.1,0.4,0.1l-4.6,10.5c-0.4,1-0.9,1.8-1.5,2.3C335.1,67.1,334.4,67.3,333.5,67.3z M347.1,63.6c-1,0-1.7-0.3-2.1-0.8
				c-0.5-0.5-0.7-1.2-0.7-2v-5.5h-1.9c0-0.4,0.1-0.8,0.3-1c0.2-0.2,0.5-0.3,0.8-0.3h0.8v-1.8c0-0.4,0.1-0.7,0.4-0.9s0.7-0.3,1.3-0.3
				v3h2.7c0,0.9-0.4,1.3-1.3,1.3H346v5.5c0,0.5,0.1,0.9,0.3,1.1c0.2,0.2,0.6,0.3,1.1,0.3s0.9-0.1,1.3-0.3c0.2,0.2,0.3,0.4,0.3,0.7
				s-0.2,0.6-0.5,0.8C348.2,63.5,347.7,63.6,347.1,63.6z M351.2,55.1c0-0.4,0.1-0.7,0.4-1c0.3-0.2,0.7-0.4,1.3-0.4v1.1l-0.4,0.5
				l0.1,0.1c0.4-0.5,0.9-0.9,1.4-1.2s1.2-0.4,1.9-0.4c1.2,0,2.1,0.3,2.8,0.9c0.7,0.6,1.1,1.4,1.1,2.4v3.2c0,1-0.4,1.8-1.1,2.4
				c-0.7,0.6-1.7,0.9-2.9,0.9c-0.6,0-1.2-0.1-1.8-0.4c-0.5-0.3-1-0.6-1.4-1l-0.1,0.1c0.1,0.1,0.2,0.3,0.4,0.4V66
				c0,0.9-0.6,1.3-1.8,1.3V55.1H351.2z M355.5,62.1c0.8,0,1.4-0.2,1.9-0.5c0.4-0.3,0.7-0.8,0.7-1.4v-3.1c0-0.6-0.2-1.1-0.7-1.4
				s-1.1-0.5-1.9-0.5c-0.7,0-1.3,0.2-1.8,0.5S353,56.5,353,57v3.3c0,0.5,0.2,0.9,0.7,1.3C354.1,61.9,354.7,62.1,355.5,62.1z
				 M366,63.6c-0.8,0-1.6-0.1-2.3-0.4c-0.7-0.3-1.2-0.7-1.6-1.2s-0.5-1.1-0.5-1.7v-3.1c0-0.6,0.2-1.2,0.5-1.7
				c0.4-0.5,0.9-0.9,1.6-1.2s1.4-0.5,2.3-0.5c0.8,0,1.6,0.2,2.3,0.5c0.7,0.3,1.2,0.7,1.6,1.2s0.6,1.1,0.6,1.7v3.1
				c0,0.6-0.2,1.2-0.6,1.7s-0.9,0.9-1.6,1.2C367.5,63.4,366.8,63.6,366,63.6z M366,62.1c0.8,0,1.5-0.2,1.9-0.5
				c0.5-0.4,0.7-0.8,0.7-1.4v-3c0-0.6-0.2-1.1-0.7-1.5s-1.1-0.6-1.9-0.6s-1.4,0.2-1.9,0.6c-0.5,0.4-0.7,0.9-0.7,1.5v3
				c0,0.6,0.2,1.1,0.7,1.4C364.5,62,365.1,62.1,366,62.1z"/>
		</g>
	</g>
	<g>
		<path style="fill:#0A3D56;" d="M477.2,361.9c-0.1,2.6,12.2,7.8,12.8,4C490.5,362.1,477.6,355.2,477.2,361.9z"/>
		<g>
			<path style="fill:#FF8B66;" d="M487.8,364.2c0.2,1.2,1.3,9.6,0.8,11.1c0,0.1,0,0.1-0.1,0.2c-0.6,1.4-2.4,2.8-3,3.8
				s-1.7,1.2-2.7,2c-0.9,0.8-3.2,1-3.2,1s-3.6,2.6-3.7,1.2c-0.1-1.8,2-3.4,2-3.4l1.6-4c0,0-0.9-5.5-2-5.5s-0.7,2.3-1.2,4.1
				c-0.3,1.2-1.7,1-1.7,1l-0.1-3.3c0,0,0.2-4.7,0.8-5.6c0.6-0.9,3.6-4,3.6-4l1.3-6.7l9,0.5C489.3,356.4,487.5,363,487.8,364.2z"/>
			<path style="fill:#EF6E4B;" d="M488.5,375.4c-0.6,1.4-2.4,2.8-3,3.8s-1.7,1.2-2.7,2c-0.9,0.8-3.2,1-3.2,1
				c0.9-0.7,2.4-4.5,2.8-4.7s0.6,0.3,1.3,0.3c0.7,0,1-1.4,1.7-1.2s1.4,0.3,1.9-0.6C487.7,375.5,488.1,375.4,488.5,375.4z"/>
		</g>
		<path style="fill:#0A3D56;" d="M377.8,276.3c-2.2-2.5-11,7.9-7.5,11.7c3.5,3.8,10.2-3.8,10.2-3.8S380,278.9,377.8,276.3z"/>
		<g>
			<path style="fill:#FF8B66;" d="M361.3,276c1.2,0.2,4.5,1.9,4.5,1.9c2.4,1.9,3.7,2.9,5.4,3.2c1.7,0.3,4.1,4.3,4.1,4.3
				s3.2-2.9,4-7.1c0,0-1.8-1.6-2-2.3c-0.4-1.5,0.8-3.5-0.4-6.1c-1.2-2.6-1.5-6.4-1.5-6.4s-1.4-0.6-1.8,0.8c-0.3,1.5,0.5,3.6,0.2,4.2
				c-0.1,0.1-0.1,0.2-0.2,0.3l0,0c-0.3,0.4-0.8,0.6-1.2,0.6h-0.1c-1.7-0.2-4.3-2.9-5.4-4.2c-1.5-1.8-3.7-4.2-4.4-2.8
				c-0.7,1.3,1.1,1.5,3.7,6.1l-0.4,0.4c0.2,0.3-2.9-1.6-5.2-3.9c-1.6-1.6-2.2,0-1.9,0.8c0.2,0.8,2.1,2.1,3.2,3.3
				c0.8,0.8,1.6,1.5,2.1,2l-0.2,0.7c-4.3-1.5-4.8-3.2-5.8-2.4c-1,0.8,1.5,3,2.9,3.4c0.6,0.2,1.5,0.9,2.5,1.6
				c-3.5-0.5-4.2-1.7-4.9-0.9C357.6,274.5,360.1,275.8,361.3,276z"/>
			<path style="fill:#EF6E4B;" d="M372.8,274c-0.8-2.1,0.6-4.7,0.8-5c-0.3,0.4-0.8,0.6-1.2,0.6C371.1,272.3,372.8,274,372.8,274z"/>
		</g>
		<path style="fill:#0D527C;" d="M420.5,247.2l-24.1,44.1c0,0-1.1-2.5-2.3-1.5c-1.2,1-16.4-13.5-16.4-13.5s1.2,8.8-7.5,11.7
			c0,0,20,17.7,26.6,21.9c6.6,4.2,28.8-33.1,28.8-33.1L420.5,247.2z"/>
		<g>
			<path style="fill:#0E3944;" d="M382.7,490.9c0,1.1,0.1,1.9,0.1,1.9h31.5c0-0.6,0-1.2,0-1.9c-0.4-8.2-3-15.4-3-15.4l-7.9-3.4
				c-0.7,4.1-2.4,6.6-4.6,8.3c-0.6,0.5-1.2,0.8-1.8,1.2c-0.3,0.2-0.6,0.3-0.9,0.4c-0.7,0.3-1.3,0.5-2,0.7c-2.8,0.8-5.6,1-7.5,1.3
				C383.2,484.7,382.7,488.5,382.7,490.9z"/>
			<path style="fill:#ADBEC4;" d="M382.7,490.9c0,1.1,0.1,1.9,0.1,1.9h31.5c0-0.6,0-1.2,0-1.9H382.7z"/>
			<path style="fill:#ADBEC4;" d="M397,481.6l4.4,1.4l0.9-1.6l-3.5-1C398.2,480.9,397.6,481.3,397,481.6z"/>
			<path style="fill:#ADBEC4;" d="M394.1,482.8l2.9,2l1.8-0.7l-2.7-2C395.4,482.4,394.8,482.6,394.1,482.8z"/>
		</g>
		<g>
			<path style="fill:#0E3944;" d="M438.5,490.9c0.1,1.1,0.4,1.9,0.4,1.9h21c0.3-0.6,0.5-1.2,0.6-1.9c2.1-10-11.9-22.3-11.9-22.3
				l-4.4,5.9c0,0,0.5,9.4-3.2,11.4C438.7,487.1,438.4,489.3,438.5,490.9z"/>
			<path style="fill:#ADBEC4;" d="M460.4,490.9h-21.9c0.1,1.1,0.4,1.9,0.4,1.9h21C460.1,492.1,460.3,491.5,460.4,490.9z"/>
			<path style="fill:#ADBEC4;" d="M441.9,485.2c0,0,8.8-2,12.9,0.6v-1.5C454.7,484.3,447.3,480.7,441.9,485.2z"/>
			<path style="fill:#ADBEC4;" d="M443.6,482.9c0,0,5.6-2.6,11.1,0l-0.6-1.5C454.1,481.4,447.6,479,443.6,482.9z"/>
		</g>
		<path style="fill:#8BBDDB;" d="M473.5,328.8c0,19.9-2,40.2-2.5,45.4c-0.5,5.1-5.8,62.7-6.6,84.9c-0.4,11.4-4,25.2-4,25.2
			s-10.9-8.8-17-2.3l-1.5-8.9l2.9-7c0,0-3.1-5.8-0.6-10.3s3.3-100.7,3.3-100.7l-4.9-0.3l-23.3,111.3v6.3c0,0-5.1,8.1-5.1,13.2
			l-15.5-5.3l2.5-7.3l-1.7-10.4l5.6-13.6c0,0,16.1-106.4,14.8-118.3L473.5,328.8z"/>
		<path style="fill:#CFD8DC;" d="M473.4,333.8c0,0-8.4,11.8-33,7.9c-14-2.2-20.3-9-20.3-9s-4.5-79.1,0.5-85.6
			c3.6-4.7,10.6-6.7,19.8-7.1c3.5-0.2,7.2-0.1,11.3,0c3,0.1,5.8,0.6,8.4,1.3c10.3,2.9,17.5,9.6,18.6,14.9
			C480,263,473.4,333.8,473.4,333.8z"/>
		<path style="fill:#0A3D56;" d="M452.9,240.1c0,0,4.4,2.6,4.3,6.6c0,0,1.5-9.1-2-10.5C451.7,234.9,452.9,240.1,452.9,240.1z"/>
		<path style="fill:#105E99;" d="M475.2,342.6c0,0-10.6,7.1-23.7,5c0,0-4.4-83-3.2-90.8c0,0,4.2-4.6,7.7-7.3c3.1-2.3,4-7,4.1-8.2
			c10.3,2.9,17.8,5.2,18.9,10.5C480.3,258.5,475.2,342.6,475.2,342.6z"/>
		<path style="fill:#105E99;" d="M440.4,240c-1.4,2.2-4,7.2-4.8,14.4c-0.5,4.9-8.8,89.6-8.8,89.6c-7.5,0-9.2-4.3-9.2-4.3
			s-2-86.2,2.9-92.6C424.1,242.5,431.2,240.5,440.4,240z"/>
		<path style="fill:#0D527C;" d="M455.2,236.3c0,0,7.3,0.1,9.1,7.6c1.8,7.5-7.7,13.3-7.7,13.3s-1.6-4-3.7-4s-4.7,3.6-4.7,3.6
			s2-4.5,5-6.8C456.2,247.7,459,241.2,455.2,236.3z"/>
		<path style="fill:#0D527C;" d="M441.6,236.1c0,0-9.8,3.2-12.8,15.1c0,0,1.9-3.8,3.7-2.7c1.7,1.1,3.1,5.9,3.1,5.9
			s1.7-11.6,7.3-14.5L441.6,236.1z"/>
		<path style="fill:#0D527C;" d="M478,249.4c-7.1,3.7-9.6,19.2-8.8,25.4l10,30.5c0,0,0.2,3.5,1.5,4l-3.5,52.5c1-2,11.3-0.4,12.8,4
			c0,0,7-50.7,6-64.6C495.8,298.5,478,249.4,478,249.4z"/>
		<path style="fill:#EF6E4B;" d="M440.9,233.3l3.3,12.9c0,0,3.7,1.7,11.5-3.5c0,0-4.2-9.8-0.5-16.8c0,0-0.9,0.1-2.4,0.2
			C452.8,226.1,451.3,233.8,440.9,233.3z"/>
		<g>
			<path style="fill:#FF8B66;" d="M457.3,219.4c0.2,15.2-16.1,17.2-19.9,11.6c-1.2-1.8-2.3-5.1-3-8.7c-0.2-0.8-0.3-1.6-0.4-2.5
				c-0.7-5.6-0.2-11.3,3-12.8C447.9,201.8,457.2,204.2,457.3,219.4z"/>
			<path style="fill:#1A4850;" d="M445.1,216.7c0.1,0.8-0.2,1.6-0.7,1.6s-0.9-0.6-1-1.4c-0.1-0.8,0.2-1.6,0.7-1.6
				C444.5,215.2,445,215.8,445.1,216.7z"/>
			<path style="fill:#1A4850;" d="M437.4,218c0.1,0.8-0.2,1.6-0.7,1.6s-0.9-0.6-1-1.4c-0.1-0.8,0.2-1.6,0.7-1.6
				C436.9,216.5,437.3,217.2,437.4,218z"/>
			<path style="fill:#DB614D;" d="M448.6,219c0.3,0.6-0.2,1.4-1,1.8c-0.8,0.3-1.7,0.1-1.9-0.6c-0.3-0.6,0.2-1.4,1-1.8
				C447.4,218.1,448.3,218.4,448.6,219z"/>
			<path style="fill:#DB614D;" d="M436,221.4c-0.1,0.7-0.9,1.1-1.7,1c-0.2-0.8-0.3-1.6-0.4-2.5c0.2-0.1,0.5-0.1,0.8,0
				C435.6,220,436.2,220.7,436,221.4z"/>
			<path style="fill:none;stroke:#8B383E;stroke-linecap:round;stroke-linejoin:round;stroke-miterlimit:10;" d="M442.5,211.5
				c0,0,1.8-0.5,3,0.4"/>
			<path style="fill:none;stroke:#8B383E;stroke-linecap:round;stroke-linejoin:round;stroke-miterlimit:10;" d="M436.2,213
				c0,0-1.8,0.2-1.8,1.2"/>
			<path style="fill:none;stroke:#DB614D;stroke-width:0.75;stroke-miterlimit:10;" d="M438.6,215.5c0,0,0.1,3.9-2.1,7
				c0,0-0.1,1.6,2.9,1"/>
			<path style="fill:#8B383E;" d="M434.3,210.6c0,0,3-4,12.4-3c0,0,1.4,5.6,4.3,7.3c2.8,1.7,3.9,6.4,3.9,6.4s0.3-2.4,1.5-2.6
				c1.2-0.3-0.4,7.4-0.4,7.4s4.6-0.7,4.9-13.5c0.2-11.6-9.7-8.6-9.7-8.6s-2.4-4.8-13.4-2.3l0.8,0.4c0,0-5.1,0.8-6.9,5.1l0.9-0.1
				C432.7,207.1,431.7,209.3,434.3,210.6z"/>
			<path style="fill:#FF8B66;" d="M454.1,219.3c0,0,2.2-3.1,4.6-1.6c2.4,1.6-0.9,7.2-3.4,7.3C452.9,225,454.1,219.3,454.1,219.3z"/>
			<path style="fill:#8B383E;" d="M434.6,223.4c0,0,1.3,1.8,4.7,1.5c5.7-0.6,12.5-3.3,14.5-7.9l0.7,1.9c0,0,1.8,7.3,1,9.7l-0.5-0.2
				c0,0,0.2,3-4.1,5.3c-4.3,2.3-7.4,2.3-7.4,2.3l0.6,0.6c0,0-6.9,0.5-8.7-4.3l-0.1,1.1C435.3,233.4,432.6,227.3,434.6,223.4z"/>
			<path style="fill:#1A4850;" d="M437.7,225.8c0,0,0.3,0.5,3-0.1c2.6-0.6,4.3-1.4,4.3-1.4s0,5.4-4,5.7
				C437.7,230.3,437.7,225.8,437.7,225.8z"/>
		</g>
	</g>
	<g>
		<path style="fill:#EF6E4B;" d="M311.4,491c-1.5-1.5-6.5-7.9-6.6-11.2c-0.1-4.6,0-10.8,0.2-17.7h-7.2c0.3,7.5,0.3,16.8,0.2,19.6
			c-0.2,0.5-0.7,3.6-0.9,4.1c-0.4,0.7-0.1,5.9-0.1,5.9l14.6-0.6C311.5,491,311.4,491,311.4,491L311.4,491z"/>
		<path style="fill:#0D527C;" d="M304.8,470c0.3-19.3,4.2-48.5,4.7-53.4c0.3-3.1,3-11.3,6.6-23.2c8.3-27.7,8.9-47.7,6-65.7
			l-18.6,0.4c-3.2,14.3-21.5,29.8-9.1,46.4c0.5,6.2,4,27.2,2.5,36.4c-1.8,10.9-2.8,16.2-2.2,28.9c0.3,5.3,3.1,21.8,3.1,30.2H304.8z"
			/>
		<g>
			<path style="fill:#FF8B66;" d="M352.5,289.2c0,0,0,0-3.6,4.3c-3.6,4.2-2.7,4.6-2,7.5c0.6,2.7,5.7,2.1,7.8,1.3
				c1.7-0.7,6.3,0.4,7.6-0.6c0.5-0.4,0-0.6-1.5-0.7c-1.7-0.2-3.3-0.9-3.3-0.9c1.1-1.6,7.3-0.4,8.2-2.3c0.4-0.9-7,0.7-7.7-0.2
				c0,0,0.3-0.6,3.9-1.7c2.1-0.6,4.2-1.3,4.3-2c0.2-1.3-3.9,0.8-9.1,1.3c0,0,2.1-1.1,4.1-1.9c1.8-0.8,3.6-1.3,3.2-2.1
				c-0.3-0.6-3.2,0.7-5,1.4c-3.4,1.4-6.2,1.7-7.7,1.7c-0.7,0-1.1,0-1.1,0C354,289.6,352.5,289.2,352.5,289.2z"/>
			<path style="fill:#EF6E4B;" d="M350.7,294.2c0,0,0.3,2.4-1,3.8c0,0,2.7-0.8,2-3.7C351.1,294.3,350.7,294.2,350.7,294.2z"/>
		</g>
		<path style="fill:#0E3944;" d="M280.1,239.7c-4.6,5.9-8.4,56,0,74.1c0,0,16.4,2.6,29.4-1.8c0,0,3.1-65.2-4.7-73.3L280.1,239.7z"/>
		<path style="fill:#CE364C;" d="M306.4,274.9c12.1,2.9,14.3,3.8,21.1,37.7c0,0,17.6-20.2,21-18.7c0,0-1.1,1.8,1.3,6
			c1.4,2.5,3.9,2.6,3.9,2.6c0.5,4-17.3,31.2-23,33s-20.9-16.8-23.2-22.9C305.2,306.6,306.4,274.9,306.4,274.9z"/>
		<path style="fill:#B72E48;" d="M288.2,269.4c0.7-1.4,13.8,0.9,15,2c1.3,1.1-4.9,5.8-8.2,4.4C291.8,274.5,287.4,271.1,288.2,269.4z
			"/>
		<path style="fill:#FF8B66;" d="M292.9,463.5h-8.5c1,8.8,1.7,16.2,1.7,16.2l-0.9,13h9.3c-0.6-3.9-2.4-15.5-2-20.4
			C292.6,469.5,292.8,466.5,292.9,463.5z"/>
		<path style="fill:#105E99;" d="M279,391.2L279,391.2c0.7,6.2,2.1,10.3,2.7,15.5c0.8,7.6-3.8,18.5-0.8,30.7
			c1.4,5.8,3.5,24.8,4.5,35.3h7c0-0.1,0-0.2,0-0.3c1.8-25.6,1.4-55.1,2.8-66.7c0.6-4.9,4-12.8,5.3-19.1c0,0,4-18.4,6.8-19.9
			c11.3-6.3,14.8-38.9,14.8-38.9l-27.8,1.3c0,0-17.1,13.5-14.6,37.4c0,0,0,0.2-0.1,0.7C278.2,378.3,278.3,385.6,279,391.2z"/>
		<path style="fill:#CDCFD0;" d="M284.6,482.7c0,0,0.3-3.2,4.7-2.8c4.4,0.4,3.8,3.6,3.8,3.6s0.7-0.5,1.2,0s-0.3,4.9,0.8,5.9
			s0.5,3.4,0.5,3.4h-12.9c0,0-0.5-3.1,0.9-4.3C285,487.3,282.1,483.1,284.6,482.7z"/>
		<path style="fill:#F24052;" d="M280.6,360.3c5,11.4,51.5,7.9,49.9-2.5c-4.5-27.7-11.5-44.9-11.5-44.9c12.8-21.8-9.5-37.1-9.5-37.1
			s-20.8-7.6-32.3,2.2c-11.4,9.8,12.8,40.1,12.8,40.1C286.7,326.2,278.5,355.4,280.6,360.3z"/>
		<g>
			<path style="fill:#FF8B66;" d="M286.4,238.8c0,0,16.4-5.5,19.7,6.1c3.3,11.6,0.3,23.8-7.4,22.9
				C287.9,266.7,273.7,245.3,286.4,238.8z"/>
			<path style="fill:#DB614D;" d="M294.7,255c-0.1,0.7,0.6,1.3,1.4,1.4c0.9,0.1,1.6-0.4,1.7-1.1c0.1-0.7-0.6-1.3-1.4-1.4
				C295.5,253.9,294.8,254.3,294.7,255z"/>
			<g>
				<path style="fill:#1A4850;" d="M296,247.9c0.1,0,0.2-0.1,0.3-0.2c0.7-1.1,2-0.9,2-0.9c0.2,0,0.4-0.1,0.4-0.3s-0.1-0.4-0.3-0.4
					c-0.1,0-1.8-0.2-2.7,1.3c-0.1,0.2-0.1,0.4,0.1,0.5C295.8,247.9,295.9,247.9,296,247.9z"/>
			</g>
			<g>
				<path style="fill:#1A4850;" d="M303.5,246.2c0.1,0,0.1,0,0.2-0.1c1-0.8,2.2-0.3,2.2-0.3c0.2,0.1,0.4,0,0.4-0.2
					c0.1-0.2,0-0.4-0.2-0.4c-0.1,0-1.6-0.7-2.9,0.4c-0.1,0.1-0.2,0.3,0,0.5C303.3,246.2,303.4,246.2,303.5,246.2z"/>
			</g>
			<path style="fill:#1A4850;" d="M305.2,258.3c0,0-2.5,1.6-6.8,0.2c0,0,1.3,5.1,4.1,4.5C305.2,262.3,305.2,258.3,305.2,258.3z"/>
			<path style="fill:#0E3944;" d="M293,244.7c0,0-3.8,4.8-3.6,11c0,0-2.8-3.4-4.2-0.4c-1.4,2.9,4.3,7.2,4.3,7.2s-9.3,0.5-10.4-11.5
				C278.7,246,285.3,241.3,293,244.7z"/>
			<path style="fill:#EF6E4B;" d="M289.7,259.9c1.3,3.4,6.1,9.3,11.2,7.6c0,0-1.3,5.1,0.8,6.9c0,0,2.2,3.9-2.9,4.5
				c-6.4,0.7-10-4.5-10-4.5c2.8-6.2-1-13.9-1-13.9C289.3,261.5,289.7,259.9,289.7,259.9z"/>
			<path style="fill:#1A4850;" d="M300.1,251.5c0,0-2.2-1.1-3.8,0c0,0,1.9-0.4,3.4,0.4L300.1,251.5z"/>
			<path style="fill:#1A4850;" d="M306.4,250.6c0,0-1.4-0.5-1.9,0.8l0.3,0.4C304.8,251.9,304.9,250.8,306.4,250.6z"/>
			<g>
				<path style="fill:#DB614D;" d="M304.4,256.6l-0.3-0.7c0.1-0.1,1.2-0.6,0.8-1.6c-0.1-0.3-0.3-0.5-0.5-0.6
					c-0.4-0.1-0.9,0.1-0.9,0.1l-0.4-0.7c0,0,0.8-0.4,1.5-0.2c0.4,0.2,0.8,0.5,1,1C306.1,255.4,305,256.3,304.4,256.6z"/>
			</g>
			<path style="fill:#0E3944;" d="M285,235.9c-10.1,4.6-5.8,15.1-5.8,15.1c1-4,8.8-7,8.8-7c-0.6,3.1,2.3,6,2.3,6
				c0.8-1.1,1.7-2.1,2.7-2.8c0.2-0.5,0.4-1.1,0.6-1.7c0.1-0.5,0.3-1.1,0.3-1.6c0-0.3,0.1-0.5,0.1-0.7s0-0.5,0-0.7c0-0.4,0-0.8-0.1-1
				c0-0.2,0-0.4,0-0.4s0,0.1,0.1,0.4c0.1,0.2,0.1,0.6,0.2,1c0,0.2,0,0.4,0.1,0.7c0,0.2,0,0.5,0,0.8c0,0.5-0.1,1.1-0.1,1.7
				c0,0.3-0.1,0.6-0.2,0.9c0.4-0.2,0.7-0.5,1.1-0.7c0.1-0.2,0.3-0.5,0.4-0.7c0.5-0.9,0.8-1.8,0.9-2.5c0.1-0.4,0.1-0.7,0.1-0.9
				s0-0.3,0-0.3s0,0.1,0,0.3s0,0.5,0,0.9c0,0.8-0.2,1.8-0.6,2.7v0.1c1.1-0.5,2.2-0.9,3.3-1.1c0-0.3-0.1-0.6-0.1-0.9
				c-0.1-0.7-0.3-1.4-0.4-1.9c-0.2-0.5-0.3-0.8-0.3-0.8s0.2,0.3,0.5,0.8s0.5,1.2,0.8,1.9c0.1,0.3,0.2,0.6,0.3,0.9
				c0.7-0.1,1.4-0.2,2-0.3c-0.1-0.5-0.3-1.2-0.4-1.8c-0.2-0.7-0.5-1.4-0.7-2c-0.3-0.5-0.5-0.8-0.5-0.8s0.3,0.3,0.6,0.8
				c0.3,0.5,0.7,1.2,1.1,1.9c0.3,0.7,0.6,1.4,0.8,2c1.2,0,2.2,0,3,0.1c0-0.1,0-0.2,0-0.3c0-0.5,0-1.1-0.2-1.8
				c-0.1-0.6-0.3-1.3-0.5-1.7c-0.1-0.2-0.2-0.4-0.3-0.5c-0.1-0.1-0.1-0.2-0.1-0.2s0.1,0.1,0.1,0.2c0.1,0.1,0.2,0.3,0.4,0.5
				c0.3,0.4,0.6,1,0.9,1.6s0.4,1.3,0.5,1.8c0,0.2,0.1,0.3,0.1,0.5c0.6,0.1,1,0.2,1,0.2C308.2,234.3,295.1,231.3,285,235.9z"/>
		</g>
		<path style="fill:#CE364C;" d="M286,273.8c0.1,2.5,6.4,7,14,6.1s4.6-7.5,3.2-8.4c0,0-4.5,3.2-15-2c0,0-1.4,0.8-1.2,2.3
			C287.1,273.2,286,273.8,286,273.8z"/>
		<g>
			<path style="fill:#EF6E4B;" d="M283,379.7c0,0,0.4,1.9,0,3s-2.3,3.6-2,5s-1.2,2-1.1-1.9S279.9,378.9,283,379.7z"/>
			<path style="fill:#FF8B66;" d="M280.9,380.2l-1.1,5.6c0,0-0.8,3.9-1.5,3.8s-1.1-3.1-1.1-3.1s-1.9-1-2-1.6s-0.1-2.6-1.1-2.8
				s-0.7-7.2-0.7-7.2S280.1,378.3,280.9,380.2z"/>
		</g>
		<path style="fill:#CE364C;" d="M277.2,278c5.1-3.6,11.5,15.4,12.2,22.3c1.8,15.7-0.5,75.4-4.8,80.4c-4.2,5-9.2-1.2-12-3.4
			c-2.8-2.1,1.4-44.9,1.4-44.9S267.5,285,277.2,278z"/>
		<path style="fill:#BFC0C1;" d="M296,492.8c0,0-0.7-9.6,1.2-12.1c0,0,2.1,3.3,4.9,3.3c1.8,0,2.6-4.2,4.2-3.3c1.4,0.8,2.3,3.2,6,5.7
			s6.7,1.8,7,6.4H296z"/>
	</g>
	<g>
		<path style="fill:#C96F32;" d="M603.9,286.6c-2.9-1.5-7.3,11.4-2.7,13.6s8.1-7.3,8.1-7.3S607,288.2,603.9,286.6z"/>
		<g>
			<path style="fill:#A8604F;" d="M588.5,292.4c1.2-0.3,4.9,0.1,4.9,0.1c2.9,0.9,4.5,1.3,6.2,1s5.4,2.5,5.4,2.5s1.9-3.9,1.2-8.1
				c0,0-2.3-0.8-2.7-1.4c-0.9-1.2-0.5-3.6-2.6-5.5s-3.8-5.4-3.8-5.4s-1.6-0.1-1.3,1.4c0.2,1.5,1.8,3.2,1.7,3.8
				c0,0.1-0.1,0.3-0.1,0.4l0,0c-0.2,0.5-0.5,0.9-0.9,1h-0.1c-1.6,0.4-5.1-1.1-6.6-1.9c-2-1.1-4.9-2.5-5.1-1c-0.2,1.5,1.6,1,5.7,4.3
				l-0.2,0.5c0.3,0.3-3.3-0.5-6.3-1.8c-2.1-0.9-2,0.8-1.5,1.4s2.7,1.2,4.2,1.9c1,0.4,2,0.9,2.6,1.1v0.7c-4.5,0.2-5.6-1.2-6.3-0.1
				s2.5,2.2,3.9,2.2c0.6,0,1.8,0.2,2.9,0.5c-3.4,0.8-4.5,0-4.9,1C584.5,292.3,587.3,292.6,588.5,292.4z"/>
			<path style="fill:#874538;" d="M598.5,286.3c-1.6-1.7-1.2-4.6-1.1-4.9c-0.2,0.5-0.5,0.9-0.9,1
				C596.3,285.4,598.5,286.3,598.5,286.3z"/>
		</g>
		<path style="fill:#E28A42;" d="M648.4,245.3c-7.2,3.5-19.7,47.7-19.7,47.7s-1.9-1.9-2.7-0.5s-22-5.8-22-5.8s4.3,7.8-2.7,13.6
			c0,0,22.7,11.2,30.4,12.7s19.7-37.3,19.7-37.3L648.4,245.3z"/>
		<g>
			<path style="fill:#0E3944;" d="M608.8,490.9c0,1.1,0.1,1.9,0.1,1.9h31.5c0-0.6,0-1.2,0-1.9c-0.4-8.2-3-15.4-3-15.4l-7.9-3.4
				c-0.7,4.1-2.4,6.6-4.6,8.3c-0.6,0.5-1.2,0.8-1.8,1.2c-0.3,0.2-0.6,0.3-0.9,0.4c-0.7,0.3-1.3,0.5-2,0.7c-2.8,0.8-5.6,1-7.5,1.3
				C609.3,484.7,608.8,488.5,608.8,490.9z"/>
			<path style="fill:#ADBEC4;" d="M608.8,490.9c0,1.1,0.1,1.9,0.1,1.9h31.5c0-0.6,0-1.2,0-1.9H608.8z"/>
			<path style="fill:#ADBEC4;" d="M623.1,481.6l4.4,1.4l0.9-1.6l-3.5-1C624.3,480.9,623.7,481.3,623.1,481.6z"/>
			<path style="fill:#ADBEC4;" d="M620.2,482.8l2.9,2l1.8-0.7l-2.7-2C621.5,482.4,620.8,482.6,620.2,482.8z"/>
		</g>
		<g>
			<path style="fill:#0E3944;" d="M664.6,490.9c0.1,1.1,0.4,1.9,0.4,1.9h21c0.3-0.6,0.5-1.2,0.6-1.9c2.1-10-11.9-22.3-11.9-22.3
				l-4.4,5.9c0,0,0.5,9.4-3.2,11.4C664.7,487.1,664.4,489.3,664.6,490.9z"/>
			<path style="fill:#ADBEC4;" d="M686.5,490.9h-21.9c0.1,1.1,0.4,1.9,0.4,1.9h21C686.2,492.1,686.3,491.5,686.5,490.9z"/>
			<path style="fill:#ADBEC4;" d="M667.9,485.2c0,0,8.8-2,12.9,0.6v-1.5C680.8,484.3,673.4,480.7,667.9,485.2z"/>
			<path style="fill:#ADBEC4;" d="M669.7,482.9c0,0,5.6-2.6,11.1,0l-0.6-1.5C680.2,481.4,673.6,479,669.7,482.9z"/>
		</g>
		<path style="fill:#0D527C;" d="M699.6,328.8c0,19.9-2,40.2-2.5,45.4c-0.5,5.1-5.8,62.7-6.6,84.9c-0.4,11.4-4,25.2-4,25.2
			s-10.9-8.8-17-2.3l-1.5-8.9l2.9-7c0,0-3.1-5.8-0.6-10.3s3.3-100.7,3.3-100.7l-4.9-0.3l-23.3,111.3v6.3c0,0-5.1,8.1-5.1,13.2
			l-15.5-5.3l2.5-7.3l-1.7-10.4l5.6-13.6c0,0,16.1-106.4,14.8-118.3L699.6,328.8z"/>
		<path style="fill:#FFB878;" d="M644.3,272.4c0,1.3,0,2.7,0,4c0,2.5,0,5.1,0.1,7.7c0,1.3,0,2.7,0.1,4c0.1,3.2,0.1,6.4,0.2,9.6
			c0,1.4,0.1,2.7,0.1,4c0.1,3.7,0.3,7.2,0.4,10.5c0.1,1.4,0.1,2.8,0.2,4.1c0.1,3,0.2,5.7,0.4,8c0.1,1.6,0.1,3.1,0.2,4.3
			c0.1,2.5,0.2,4,0.2,4s6.3,6.8,20.3,9c24.6,3.9,33-7.9,33-7.9s0.1-0.9,0.3-2.6c0.1-1.1,0.3-2.5,0.4-4.2c0.2-2,0.4-4.4,0.7-7
			c0.1-1.3,0.3-2.6,0.4-4c0.3-3,0.6-6.1,0.9-9.5c0.1-1.3,0.2-2.6,0.3-4c0.2-2.7,0.5-5.4,0.7-8.2c0.1-1.3,0.2-2.7,0.3-4
			c0.2-3,0.5-5.9,0.6-8.8c0.1-1.4,0.2-2.7,0.3-4.1c0.2-3.2,0.4-6.2,0.5-9c0.1-1.4,0.1-2.8,0.1-4.1c0.1-3,0.1-5.6,0.1-7.8
			c0-1.7-0.1-3.1-0.3-4.3c-0.1-1.4-0.4-2.3-0.7-2.8c-2.4-3.5-7.7-5.1-18-8c-2.6-0.7-5.4-1.2-8.4-1.4c-4-0.2-7.8-0.2-11.3,0
			c-9,0.5-15.9,2.4-19.5,6.8c-0.1,0.1-0.2,0.2-0.3,0.4c-0.5,0.6-0.9,2-1.2,4s-0.6,4.7-0.8,7.8c-0.1,1.3-0.1,2.6-0.2,4
			C644.4,265.8,644.3,269,644.3,272.4z"/>
		<g>
			<path style="fill:#E28A42;" d="M645.4,251.1c21.5-4.1,46.1,1.4,59.7,5.4c0-1.7-0.1-3.1-0.3-4.3c-13.7-3.9-36.7-8.8-57.9-5.4
				c-0.1,0.1-0.2,0.2-0.3,0.4C646.1,247.8,645.7,249.2,645.4,251.1z"/>
			<path style="fill:#E28A42;" d="M644.5,262.9c18.3-2.6,43.8,1.8,60.4,5.5c0.1-1.4,0.1-2.8,0.1-4.1c-16.6-3.7-41.6-7.9-60.4-5.4
				C644.6,260.2,644.5,261.5,644.5,262.9z"/>
			<path style="fill:#E28A42;" d="M644.3,272.4c0,1.3,0,2.7,0,4c18.9-1.7,43.3,2,59.8,5.2c0.1-1.4,0.2-2.7,0.3-4.1
				C687.8,274.3,663.6,270.7,644.3,272.4z"/>
			<path style="fill:#E28A42;" d="M644.4,284.1c0,1.3,0,2.7,0.1,4c16.9,0.1,41.3,3.5,58.7,6.3c0.1-1.3,0.2-2.7,0.3-4
				C686,287.6,661.6,284.2,644.4,284.1z"/>
			<path style="fill:#E28A42;" d="M644.7,297.7c0,1.4,0.1,2.7,0.1,4c18.1,1.9,40.9,3.6,57.3,4.8c0.1-1.3,0.2-2.6,0.3-4
				C685.9,301.4,662.8,299.6,644.7,297.7z"/>
			<path style="fill:#E28A42;" d="M645.2,312.3c0.1,1.4,0.1,2.8,0.2,4.1c14.1,3,31.4,3.8,46,3.8c3.3,0,6.5,0,9.5-0.1
				c0.1-1.3,0.3-2.6,0.4-4C684.9,316.4,662.3,316,645.2,312.3z"/>
			<path style="fill:#E28A42;" d="M645.7,324.4c0.1,1.6,0.1,3.1,0.2,4.3c10.8,3.6,21.4,4.9,30.9,4.9c8.5,0,16.3-1,22.8-2.4
				c0.1-1.1,0.3-2.5,0.4-4.2C686.5,330,666.6,331.7,645.7,324.4z"/>
		</g>
		<path style="fill:#C96F32;" d="M680.3,239.9c1.1,0.2,3.5,1.7,3.6,2.8c0.2,3.6-6.6,6.5-12.9,6c-6.3-0.5-6.3-3.9-5.1-5.6
			C667.1,241.4,669.8,238.4,680.3,239.9z"/>
		<path style="fill:#874538;" d="M667.1,232.7l2.2,13.1c0,0,3.5,2,11.8-2.6c0,0-3.4-10.1,0.9-16.7c0,0-0.9,0-2.4,0
			C679.5,226.5,677.4,234,667.1,232.7z"/>
		<g>
			<path style="fill:#0E3944;" d="M662.4,209.5c0,0-3.8-3.1-0.4-4.1c0,0-1.4-3.8,0.2-4.4c1.7-0.6,3.3,0.9,4.3-0.7
				c0.9-1.6,2.9-4.2,6.5-1.7c3.5,2.5,5.5-1.6,7-0.3c1.5,1.4,0.6,3.5,3.1,3.9c2.5,0.3,4.8,0.9,4.2,3.4s2.2,2.6,2.3,4.2
				c0.1,1.5-1,2-1.1,3.2c-0.1,1.3,1.7,1.8,1.1,3.8c-0.7,1.9-2.5,1.7-2.4,3.1c0.1,1.4,1.4,4.5-0.4,4.9c-1.8,0.4-2.4,3.6-4.5,3.1
				C680.2,227.4,662.4,209.5,662.4,209.5z"/>
			<path style="fill:#A8604F;" d="M684.6,220.2C685,232.6,667.3,238,664,232c-1.1-1.9-2.1-7.2-2.5-10.8c-0.1-0.8-0.2-1.7-0.2-2.5
				c-0.3-5.7,0.8-11.3,4-12.5C676.6,201.9,684,205,684.6,220.2z"/>
			<path style="fill:#1A4850;" d="M672.6,216.5c0,0.8-0.4,1.5-0.8,1.5c-0.5,0-0.9-0.7-0.9-1.5s0.4-1.5,0.8-1.5
				C672.2,215,672.6,215.7,672.6,216.5z"/>
			<path style="fill:#1A4850;" d="M664.8,217.3c0,0.8-0.4,1.5-0.8,1.5c-0.5,0-0.9-0.7-0.9-1.5s0.4-1.5,0.8-1.5
				C664.4,215.7,664.8,216.4,664.8,217.3z"/>
			<path style="fill:#DB614D;" d="M675.9,219.1c0.2,0.7-0.3,1.4-1.1,1.7s-1.7,0-1.9-0.7s0.3-1.4,1.1-1.7S675.7,218.5,675.9,219.1z"
				/>
			<path style="fill:#DB614D;" d="M663.2,220.5c-0.2,0.7-0.9,1-1.8,0.8c-0.1-0.8-0.2-1.7-0.2-2.5c0.2,0,0.5,0,0.8,0
				C662.9,219.1,663.4,219.8,663.2,220.5z"/>
			<g>
				<path style="fill:#0E3944;" d="M673.4,212.2c0.2,0,0.3-0.1,0.4-0.2c0.2-0.2,0.1-0.5-0.1-0.7c-1.4-1.1-3.3-0.7-3.4-0.7
					c-0.3,0-0.5,0.3-0.4,0.6c0,0.3,0.3,0.5,0.6,0.4c0,0,1.6-0.3,2.6,0.5C673.2,212.2,673.3,212.2,673.4,212.2z"/>
			</g>
			<g>
				<path style="fill:#0E3944;" d="M662.1,213.7L662.1,213.7c0.3,0,0.5-0.2,0.5-0.5c0-0.4,0.9-0.6,1.4-0.6c0.3,0,0.5-0.2,0.5-0.5
					s-0.2-0.5-0.5-0.5c-0.8,0-2.3,0.4-2.4,1.5C661.6,213.5,661.8,213.7,662.1,213.7z"/>
			</g>
			<g>
				<path style="fill:#874538;" d="M665.2,223.3c0.4,0,0.8,0,1.3,0l-0.1-0.7c-1,0.1-1.8,0-2.2-0.3c-0.2-0.2-0.2-0.3-0.2-0.4
					c2.3-3,2.6-6.8,2.6-6.9h-0.7c0,0-0.3,3.8-2.5,6.6l-0.1,0.1v0.1c0,0.1-0.1,0.6,0.4,1.1C664,223.1,664.5,223.3,665.2,223.3z"/>
			</g>
			<path style="fill:#1A4850;" d="M664.5,225c0,0,0.3,0.5,3,0.2s4.4-1.1,4.4-1.1s-0.4,5.4-4.4,5.4C664.1,229.5,664.5,225,664.5,225z
				"/>
			<path style="fill:#0E3944;" d="M681,220.4c0,0,0.3-4.5-2.5-7.1c-2.7-2.6-0.4-6.4-0.4-6.4s-10.9-1.8-15.8,2.6c0,0-3.6-6.4,6.7-9
				c10.4-2.6,27.2,5.5,13.1,27.4l2.3-7.6L681,220.4z"/>
			<path style="fill:#A8604F;" d="M681.4,219.9c0,0,2.4-2.9,4.8-1.2c2.3,1.8-1.5,7.1-4,7C679.7,225.5,681.4,219.9,681.4,219.9z"/>
		</g>
		<path style="fill:#C96F32;" d="M685.8,299.3c-2.6,0-4.1,12.1,1,13.4C686.9,312.7,693.1,299.4,685.8,299.3z"/>
		<g>
			<path style="fill:#A8604F;" d="M686,310.3c-1.1,0.5-9.1,3.3-10.7,3.1c-0.1,0-0.1,0-0.2,0c-1.5-0.3-3.2-1.8-4.3-2.2
				c-1.1-0.4-1.5-1.5-2.5-2.2s-1.6-2.9-1.6-2.9s-3.3-3-1.9-3.4c1.7-0.5,3.7,1.2,3.7,1.2l4.3,0.7c0,0,5.1-2,4.9-3.1
				c-0.2-1-2.3-0.2-4.2-0.3c-1.2-0.1-1.3-1.4-1.3-1.4l3.2-0.8c0,0,4.6-0.8,5.6-0.3c1,0.4,4.7,2.7,4.7,2.7l6.9-0.2l1.3,9
				C693.8,310.1,687.1,309.8,686,310.3z"/>
			<path style="fill:#874538;" d="M675.1,313.3c-1.5-0.3-3.2-1.8-4.3-2.2c-1.1-0.4-1.5-1.5-2.5-2.2s-1.6-2.9-1.6-2.9
				c0.8,0.7,4.9,1.4,5.2,1.8c0.3,0.3-0.2,0.7,0,1.4c0.1,0.7,1.6,0.7,1.5,1.4c-0.1,0.7,0,1.4,1,1.8
				C674.8,312.5,675,312.9,675.1,313.3z"/>
		</g>
		<path style="fill:#E28A42;" d="M704.1,249.4c-7.1,3.7-9.6,19.2-8.8,25.4l7.8,20.6c0,0-1.5,2.8-0.3,3.3l-16.9,0.5
			c0,0,4.3,4.5,1,13.4c0,0,22.1,6.6,31.6,0c2.7-1.9,4.2-7.4,3.5-11.4C717.2,273,704.1,249.4,704.1,249.4z"/>
	</g>
	<g>
		<path style="fill:#A1B1B5;" d="M141.6,311.6c3.3,0.4-0.6,13.5-5.6,12.7c-5.1-0.8-2.5-10.6-2.5-10.6S138.2,311.2,141.6,311.6z"/>
		<g>
			<path style="fill:#FF8B66;" d="M150.9,325.2c-0.8-0.9-4.1-2.7-4.1-2.7c-2.9-1-4.5-1.5-5.7-2.7s-5.9-1-5.9-1s0.7-4.3,3.7-7.3
				c0,0,2.3,0.7,3,0.4c1.4-0.5,2.5-2.6,5.3-3s6.2-2.2,6.2-2.2s1.3,0.8,0.3,1.9s-3.3,1.5-3.6,2.2c-0.1,0.1-0.1,0.3-0.1,0.4l0,0
				c-0.1,0.5-0.1,1,0.2,1.4c0,0,0,0.1,0.1,0.1c1.1,1.3,4.8,2,6.5,2.2c2.3,0.3,5.5,0.8,4.8,2.1c-0.7,1.3-1.8-0.1-7.1,0.3l-0.1,0.5
				c-0.4,0,2.9,1.5,6.2,2.2c2.2,0.5,1.2,1.8,0.4,2c-0.7,0.2-2.9-0.6-4.5-0.9c-1.1-0.2-2.2-0.5-2.8-0.6l-0.4,0.6
				c3.6,2.8,5.3,2.2,5.2,3.5s-3.3,0.4-4.5-0.5c-0.5-0.4-1.6-0.8-2.6-1.2c2.3,2.6,3.7,2.6,3.4,3.6
				C154.2,327.4,151.7,326.1,150.9,325.2z"/>
			<path style="fill:#EF6E4B;" d="M146.2,314.5c2.2-0.5,3.6-3.1,3.7-3.4c-0.1,0.5-0.1,1,0.2,1.4C148.5,315,146.2,314.5,146.2,314.5z
				"/>
		</g>
		<path style="fill:#CFD8DC;" d="M103.3,247.2c7.7,10.1,14.4,55.4,14.4,55.4s2.7-0.5,2.5,1.1c-0.1,1.6,21.4,7.9,21.4,7.9
			s-8,3.9-5.6,12.7c0,0-25-3.9-32.1-7.1s-8.8-51.1-8.8-51.1L103.3,247.2z"/>
		<g>
			<path style="fill:#0E3944;" d="M111.2,490.9c0,1.1-0.1,1.9-0.1,1.9H79.6c0-0.6,0-1.2,0-1.9c0.4-8.2,3-15.4,3-15.4l7.9-3.4
				c0.7,4.1,2.4,6.6,4.6,8.3c0.6,0.5,1.2,0.8,1.8,1.2c0.3,0.2,0.6,0.3,0.9,0.4c0.7,0.3,1.3,0.5,2,0.7c2.8,0.8,5.6,1,7.5,1.3
				C110.7,484.7,111.2,488.5,111.2,490.9z"/>
			<path style="fill:#ADBEC4;" d="M111.2,490.9c0,1.1-0.1,1.9-0.1,1.9H79.6c0-0.6,0-1.2,0-1.9H111.2z"/>
			<path style="fill:#ADBEC4;" d="M96.9,481.6l-4.4,1.4l-0.9-1.6l3.5-1C95.6,480.9,96.2,481.3,96.9,481.6z"/>
			<path style="fill:#ADBEC4;" d="M99.7,482.8l-2.9,2l-1.8-0.7l2.7-2C98.4,482.4,99.1,482.6,99.7,482.8z"/>
		</g>
		<g>
			<path style="fill:#0E3944;" d="M61.3,490.9c-0.1,1.1-0.4,1.9-0.4,1.9H40c-0.3-0.6-0.5-1.2-0.6-1.9c-2.1-10,14.9-22.3,14.9-22.3
				l1.4,5.9c0,0-0.5,9.4,3.2,11.4C61.2,487.1,61.5,489.3,61.3,490.9z"/>
			<path style="fill:#ADBEC4;" d="M39.4,490.9h21.9c-0.1,1.1-0.4,1.9-0.4,1.9H40C39.8,492.1,39.6,491.5,39.4,490.9z"/>
			<path style="fill:#ADBEC4;" d="M58,485.2c0,0-8.8-2-12.9,0.6v-1.5C45.1,484.3,52.6,480.7,58,485.2z"/>
			<path style="fill:#ADBEC4;" d="M56.2,482.9c0,0-5.6-2.6-11.1,0l0.6-1.5C45.8,481.4,52.3,479,56.2,482.9z"/>
		</g>
		<path style="fill:#8B383E;" d="M50.4,328.8c0,19.9-6.4,91.8-7.1,97c-1.3,9.8-0.6,26.8-2.4,37.2c-2,11.2-1.4,21.3-1.4,21.3
			s10.9-8.8,17-2.3l2.5-8.9l-1.9-7l3.6-10.3c-2.5-4.5,15.7-100.7,15.7-100.7l1.8-0.3l-0.7,111.3v6.3c0,0,2.1,8.1,2.1,13.2l18.5-5.3
			l-2.5-7.3l1.7-9.4L96.7,451c0,0,5.9-108.4,7.2-120.3L50.4,328.8z"/>
		<path style="fill:#CFD8DC;" d="M49.5,333.8c0,0,5.1,4.4,30,3.9c19.2-0.4,24.3-5,24.3-5s4.5-79.1-0.5-85.6
			c-3.6-4.7-10.6-6.7-19.8-7.1c-3.5-0.2-7.2-0.1-11.3,0c-3,0.1-5.8,0.6-8.4,1.3c-10.3,2.9-17.5,9.6-18.6,14.9
			C43.8,263,49.5,333.8,49.5,333.8z"/>
		<path style="fill:#F24052;" d="M110,295.3c2.1,5.5,0.9,19.1-1,22.7c-2.2,4.1-12.5,2.2-12.5,2.2s0.2-34.3-1.4-51.7
			s-9.2-28.3-9.2-28.3s18.3,0.7,21.1,10.9c1.8,6.6,1.2,12,0.7,14.9c-0.3,1.6-0.7,2.4-0.7,2.4s0.1,0,0.2,0c0.6,0.1,2.6,1,4,8.3
			c1.7,8.6-2.2,16.7-2.2,16.7C109.3,293.9,109.7,294.5,110,295.3z"/>
		<path style="fill:#CE364C;" d="M92.9,256.5c0,0,3.1-10.5-0.6-15.5c-3.8-5-7.9-5.8-7.9-5.8s5.1,4.8,5.7,8
			C90.8,246.4,92.9,256.5,92.9,256.5z"/>
		<path style="fill:#B72E48;" d="M84.4,235.2c-5.4-1.6-18.4-4.1-25-1.4c0,0-0.5,5.6,1.8,7.6s24.7-9.5,31.3,13
			C92.5,254.4,94.4,238.2,84.4,235.2z"/>
		<path style="fill:#F24052;" d="M73.7,286.3c-0.2,28.8-3.6,37.1-3.6,37.1s-21.2,2.8-25.1-1.5s0-17.7,0-17.7s-0.8-2.1-1.8-5.2l0,0
			c-0.4-1.3-0.8-2.9-1.1-4.5s-0.6-3.4-0.8-5.2c-0.5-4.6,0.6-8.2,1.6-10.3c0.7-1.5,1.3-2.2,1.3-2.2s-4.1-16.7-2.3-24.1
			c0.4-1.7,1.1-3.1,2.1-4.3c5.4-6.9,17.9-6.9,17.9-6.9c3.5,1,8.9,10.2,10.9,28l0,0C73.4,274.4,73.7,280,73.7,286.3z"/>
		<path style="fill:#EF6E4B;" d="M83,233.3l-3.3,12.9c0,0-3.7,1.7-11.5-3.5c0,0,4.2-9.8,0.5-16.8c0,0,0.9,0.1,2.4,0.2
			C71.1,226.1,72.5,233.8,83,233.3z"/>
		<g>
			<path style="fill:#FF8B66;" d="M68.2,219.2C68,234.4,82.7,236.6,86.5,231c1.2-1.8,2.3-5.1,3-8.7c0.2-0.8,0.3-1.6,0.4-2.5
				c0.7-5.6,0.2-11.3-3-12.8C76,201.8,68.3,204,68.2,219.2z"/>
			<path style="fill:#1A4850;" d="M78.8,216.7c-0.1,0.8,0.2,1.6,0.7,1.6s0.9-0.6,1-1.4c0.1-0.8-0.2-1.6-0.7-1.6
				C79.3,215.2,78.9,215.8,78.8,216.7z"/>
			<path style="fill:#1A4850;" d="M86.5,218c-0.1,0.8,0.2,1.6,0.7,1.6s0.9-0.6,1-1.4c0.1-0.8-0.2-1.6-0.7-1.6
				C87,216.5,86.5,217.2,86.5,218z"/>
			<path style="fill:#DB614D;" d="M75.3,219c-0.3,0.6,0.2,1.4,1,1.8c0.8,0.3,1.7,0.1,1.9-0.6c0.3-0.6-0.2-1.4-1-1.8
				C76.4,218.1,75.6,218.4,75.3,219z"/>
			<path style="fill:#DB614D;" d="M87.8,221.4c0.1,0.7,0.9,1.1,1.7,1c0.2-0.8,0.3-1.6,0.4-2.5c-0.2-0.1-0.5-0.1-0.8,0
				C88.3,220,87.7,220.7,87.8,221.4z"/>
			<g>
				<path style="fill:#FFB878;" d="M78.3,212.3c0.1,0,0.2,0,0.3-0.1c1.1-0.7,2.6-0.3,2.6-0.3c0.3,0.1,0.5-0.1,0.6-0.4
					c0.1-0.3-0.1-0.5-0.4-0.6c-0.1,0-2-0.5-3.4,0.4c-0.2,0.2-0.3,0.5-0.1,0.7C78,212.3,78.1,212.3,78.3,212.3z"/>
			</g>
			<g>
				<path style="fill:#FFB878;" d="M89.5,214.7c0.3,0,0.5-0.2,0.5-0.5c0-1.2-1.4-1.6-2.2-1.7c-0.3,0-0.5,0.2-0.6,0.4
					c0,0.3,0.2,0.5,0.4,0.6c0.5,0.1,1.3,0.3,1.3,0.7C89,214.5,89.2,214.7,89.5,214.7L89.5,214.7z"/>
			</g>
			<path style="fill:none;stroke:#DB614D;stroke-width:0.75;stroke-miterlimit:10;" d="M85.2,215.5c0,0-0.1,3.9,2.1,7
				c0,0,0.1,1.6-2.9,1"/>
			<path style="fill:#1A4850;" d="M86.1,225.8c0,0-0.5-0.2-3.1-0.8s-4.1-0.7-4.1-0.7s0.1,3.3,4.1,3.7
				C86.3,228.3,86.1,225.8,86.1,225.8z"/>
			<path style="fill:#FFB878;" d="M89.3,209.9c0,0,3.5-0.5,4.8-3c0,0-1.3,0.2-2.4,0c0,0,1.7-1.2,1.1-4c0,0-3.5,0.5-4.8,0l1.9-1.4
				c0,0-2.7,0.2-6.4-0.7c-3.7-0.8-11.4-1.2-16,2.2s-7.6,19.3,2.4,26.2l-0.6-3.5c0,0-1.7-3.1-1-5.3s1.9-0.4,1.9-0.4s3.5-5.6,3.5-9.3
				s0-3.7,0-3.7S84.5,204.6,89.3,209.9z"/>
			<path style="fill:#FF8B66;" d="M69.8,219.3c0,0-2.2-3.1-4.6-1.6c-2.4,1.6,0.9,7.2,3.4,7.3C71,225,69.8,219.3,69.8,219.3z"/>
		</g>
		<path style="fill:#CE364C;" d="M69.9,254.4c0,0,3.4-10.9,2.4-14.4c-1-3.4-11.8-7.3-12.8-6.2s-2.1,4.1-1.1,7.8
			C58.4,241.7,65.1,242.7,69.9,254.4z"/>
		<path style="fill:#CE364C;" d="M72.8,269.4L72.8,269.4c-3.2,4.2-22.2,4.4-22.2,4.4s-12.5,18.3-3.5,24c8.8,5.6,24.6,1.6,25.2,1.5
			c-3.5,2.9-25.3,4.8-29.1-0.3l0,0c-0.2-0.2-0.3-0.5-0.4-0.7c-0.4-1-0.6-2.3-0.7-3.8c-0.4-4.8,0.3-11.5,0.8-15.4
			c0.7-1.5,1.3-2.2,1.3-2.2s-4.1-16.7-2.3-24.1c0.4-1.7,1.1-3.1,2.1-4.3c11.2,0.3,12.2,21,12.2,21C59.3,270.5,72.4,269.4,72.8,269.4
			L72.8,269.4z"/>
		<path style="fill:#A1B1B5;" d="M46.6,361.9c0.1,2.6-12.2,7.8-12.8,4C33.4,362.1,46.3,355.2,46.6,361.9z"/>
		<g>
			<path style="fill:#FF8B66;" d="M36.1,364.2c-0.2,1.2-1.3,9.6-0.8,11.1c0,0.1,0,0.1,0.1,0.2c0.6,1.4,2.4,2.8,3,3.8s1.7,1.2,2.7,2
				c0.9,0.8,3.2,1,3.2,1s3.6,2.6,3.7,1.2c0.1-1.8-2-3.4-2-3.4l-1.6-4c0,0,0.9-5.5,2-5.5s0.7,2.3,1.2,4.1c0.3,1.2,1.7,1,1.7,1
				l0.1-3.3c0,0-0.2-4.7-0.8-5.6s-3.6-4-3.6-4l-1.3-6.7l-9,0.5C34.6,356.4,36.3,363,36.1,364.2z"/>
			<path style="fill:#EF6E4B;" d="M35.3,375.4c0.6,1.4,2.4,2.8,3,3.8s1.7,1.2,2.7,2c0.9,0.8,3.2,1,3.2,1c-0.9-0.7-2.4-4.5-2.8-4.7
				c-0.4-0.2-0.6,0.3-1.3,0.3s-1-1.4-1.7-1.2s-1.4,0.3-1.9-0.6C36.2,375.5,35.8,375.4,35.3,375.4z"/>
		</g>
		<path style="fill:#CFD8DC;" d="M45.8,249.4c7.1,3.7,9.6,19.2,8.8,25.4l-10,30.5c0,0-0.2,3.5-1.5,4l3.5,52.5c-1-2-11.3-0.4-12.8,4
			c0,0-7-50.7-6-64.6C28.1,298.5,45.8,249.4,45.8,249.4z"/>
		<path style="fill:#CE364C;" d="M96.2,268.4c0,0,6.4-0.2,11.4-2.4c-0.3,1.6-0.7,2.4-0.7,2.4S100,269.3,96.2,268.4z"/>
		<path style="fill:#CE364C;" d="M110,295.3c-4.6,0.5-11.3-0.6-11.3-0.6s7.3,0.1,10.2-1.2C109.3,293.9,109.7,294.5,110,295.3z"/>
	</g>
	<g>
		<path style="fill:#C96F32;" d="M173.6,291.4c-0.8-1.5-7.3,6.4-5.4,11.2c1.8,4.8,5.4,4,5.4,4S175.9,295.7,173.6,291.4z"/>
		<g>
			<path style="fill:#FF8B66;" d="M165.5,279.7c0,0,0,0,3.6,4.3c3.6,4.2,2.7,4.6,2,7.5c-0.6,2.7-5.7,2.1-7.8,1.3
				c-1.7-0.7-6.3,0.4-7.6-0.6c-0.5-0.4,0-0.6,1.5-0.7c1.7-0.2,3.3-0.9,3.3-0.9c-1.1-1.6-7.3-0.4-8.2-2.3c-0.4-0.9,7,0.7,7.7-0.2
				c0,0-0.3-0.6-3.9-1.7c-2.1-0.6-4.2-1.3-4.3-2c-0.2-1.3,3.9,0.8,9.1,1.3c0,0-2.1-1.1-4.1-1.9c-1.8-0.8-3.6-1.3-3.2-2.1
				c0.3-0.6,3.2,0.7,5,1.4c3.4,1.4,6.2,1.7,7.7,1.7c0.7,0,1.1,0,1.1,0C164,280.1,165.5,279.7,165.5,279.7z"/>
			<path style="fill:#EF6E4B;" d="M167.3,284.7c0,0-0.3,2.4,1,3.8c0,0-2.7-0.8-2-3.7C166.9,284.8,167.3,284.7,167.3,284.7z"/>
		</g>
		<path style="fill:#FF8B66;" d="M171.7,288.2l3.5,8.4l-3.4,8c0,0-2.6-9.5-3.5-12.5S171.7,288.2,171.7,288.2z"/>
		<path style="fill:#F2A668;" d="M211,275.2c0,0-12,4.4-15.6,7.7l-9.8,30.2c0,0-0.3-2.1-1-1.3l-11-20.5c0,0-0.2,11.2-5.4,11.2
			c0,0,10.8,29.7,16.8,31.3c6,1.7,16.3-24.5,16.3-24.5L211,275.2z"/>
		<path style="fill:#C96F32;" d="M181.1,353.2c5-5.3,46.4-1.6,50.9,3.1c4.5,4.8-6.7-62.7-6.7-62.7s-20.4-1.9-21.6,3.5
			C197.7,325.1,181.1,353.2,181.1,353.2z"/>
		<path style="fill:#C96F32;" d="M217.4,271.6c0,0,7.7-3.4,14.5-0.9l1.2,9.8c0,0-16.3,5.9-21.6,4.2
			C206.3,282.9,204.9,278.7,217.4,271.6z"/>
		<path style="fill:#EF6E4B;" d="M161.3,492.7c1.9-1.5,6.7-8,7.7-11.2c1.4-4.6,3-10.9,4.7-17.8h7.2c-2.4,7.5-3.9,13.8-4.5,16.6
			c0,0.5,0.1,0.9,0.3,1.3c0.2,0.7,0.6,11.2,0.6,11.2h-16.1C161.2,492.7,161.2,492.7,161.3,492.7L161.3,492.7z"/>
		<path style="fill:#FF8B66;" d="M215.3,463.6h8.5c-1.6,8.8-2.8,16.2-2.8,16.2v12.9h-9.3c0.9-3.9,3.5-15.5,3.5-20.4
			C215.2,469.5,215.2,466.6,215.3,463.6z"/>
		<path style="fill:#EF6E4B;" d="M171.7,471.6c5.1-19.4,11.3-48.9,12.1-53.8c0.5-3.2,1-13.2,2.2-25.4c0.3-14,1.9-46,9.8-64.2
			l18.5,0.4c-0.7,14.4,13.2,30-3.8,46.7c-2.2,6.2-9.6,27.4-10.6,36.7c-1.3,11-3.3,15.9-9.7,28.1c-5.5,10.6-9.4,23-11.7,31.5
			L171.7,471.6L171.7,471.6z"/>
		<path style="fill:#FF8B66;" d="M234.5,391.5L234.5,391.5c-1.2,6.1-2.9,10.3-3.8,15.4c-1.3,7.5,2.5,18.4-1.4,30.6
			c-1.8,5.7-5.3,24.7-7.1,35.2h-7c0-0.1,0-0.2,0-0.3c0-25.5,3.5-55.9,3-67.5c-0.2-4.9-1.1-11.8-1.9-18.1c0,0-2.7-18.3-5.4-19.8
			c-10.9-6.3-15-38.8-15-38.8l27.7,1.3c0,0,16.1,13.4,11.9,37.3c0,0,0,0.2,0,0.7C236.2,378.7,235.5,385.9,234.5,391.5z"/>
		<path style="fill:#CE364C;" d="M178,492.8c0,0,0.7-9.6-1.2-12.1c0,0-2.1,3.3-4.9,3.3c-1.8,0-2.6-4.2-4.2-3.3
			c-1.4,0.8-2.3,3.2-6,5.7s-6.7,1.8-7,6.4H178z"/>
		<path style="fill:#CE364C;" d="M222.3,482.8c0,0-0.1-3.2-4.5-2.8c-4.4,0.4-4.1,3.6-4.1,3.6s-0.7-0.5-1.2,0
			c-0.6,0.5-0.1,4.9-1.2,5.9c-1.1,0.9-0.8,3.4-0.8,3.4h12.9c0,0,0.7-3.1-0.6-4.3C221.5,487.3,224.8,483.1,222.3,482.8z"/>
		<path style="fill:#CE364C;" d="M228,318.6c3.3,8.1,13.5,36.5,10.1,74.4c0,0-9.9,6.2-31.2,5.5c-23.1-0.8-28.7-8.1-28.7-8.1
			c9.1-35.4,20.8-77,20.8-77c-12.8-21.8,9.6-37.1,9.6-37.1s0.2-0.1,0.5-0.2c2.9-1,19.2-6,29.8,0.8c0.7,0.4,1.4,0.9,2,1.5
			C252.2,288.3,228,318.6,228,318.6z"/>
		<g>
			<path style="fill:#8B383E;" d="M234,242.9c0,0,4.9-5,9.6-0.7c4.7,4.3-0.2,13.2,0,14.9c0.2,1.6,4.1,2,3.1,4.1
				c-0.9,2.1-3.4,2.4-3.1,3.4c0.2,1,2.6,2.6,1.6,3.6s-3.2,0-3,1.7c0.2,1.8,1.3,4.1-0.8,4.3c0,0,1.7-2,0.2-2.7s-2.7,0.1-3.3-2
				c-0.7-2.1,2.4-2.9,1-4.1s-4.4-1.2-3-3s2-3.5-0.7-5C232.8,255.8,234,242.9,234,242.9z"/>
			<path style="fill:#8B383E;" d="M212.8,240.5c-5.5-0.1-5.9,11.9,0.7,18.3C220.1,265.2,221.8,240.7,212.8,240.5z"/>
			<path style="fill:#FF8B66;" d="M231.6,239.3c0,0-16.4-5.5-19.7,6.1c-3.3,11.6-0.3,23.8,7.4,22.9
				C230.1,267.2,244.3,245.8,231.6,239.3z"/>
			<path style="fill:#DB614D;" d="M223.3,255.5c0.1,0.7-0.6,1.3-1.4,1.4c-0.9,0.1-1.6-0.4-1.7-1.1c-0.1-0.7,0.6-1.3,1.4-1.4
				C222.5,254.4,223.2,254.9,223.3,255.5z"/>
			<g>
				<path style="fill:#8B383E;" d="M222,248.5c-0.1,0-0.2-0.1-0.3-0.2c-0.7-1.1-2-0.9-2-0.9c-0.2,0-0.4-0.1-0.4-0.3s0.1-0.4,0.3-0.4
					c0.1,0,1.8-0.2,2.7,1.3c0.1,0.2,0.1,0.4-0.1,0.5C222.2,248.4,222.1,248.5,222,248.5z"/>
			</g>
			<g>
				<path style="fill:#8B383E;" d="M214.5,246.7c-0.1,0-0.1,0-0.2-0.1c-1-0.8-2.2-0.3-2.2-0.3c-0.2,0.1-0.4,0-0.4-0.2
					c-0.1-0.2,0-0.4,0.2-0.4c0.1,0,1.6-0.7,2.9,0.4c0.1,0.1,0.2,0.3,0,0.5C214.7,246.7,214.6,246.7,214.5,246.7z"/>
			</g>
			<path style="fill:#1A4850;" d="M212.8,258.8c0,0,2.5,1.6,6.8,0.2c0,0-1.3,5.1-4.1,4.5C212.8,262.8,212.8,258.8,212.8,258.8z"/>
			<path style="fill:#8B383E;" d="M225,245.3c0,0,3.8,4.8,3.6,11c0,0,2.8-3.4,4.2-0.4c1.4,2.9-4.3,7.2-4.3,7.2s9.3,0.5,10.4-11.5
				C239.3,246.5,232.7,241.9,225,245.3z"/>
			<path style="fill:#EF6E4B;" d="M228.3,260.4c-1.3,3.4-6.1,9.3-11.2,7.6c0,0,1.3,5.1-0.8,6.9c0,0-2.2,3.9,2.9,4.5
				c6.4,0.7,10-4.5,10-4.5c-2.8-6.2,1-13.9,1-13.9C228.7,262,228.3,260.4,228.3,260.4z"/>
			<g>
				<path style="fill:#DB614D;" d="M213.6,257.1l0.3-0.7c-0.1-0.1-1.2-0.6-0.8-1.6c0.1-0.3,0.3-0.5,0.5-0.6c0.4-0.1,0.9,0.1,0.9,0.1
					l0.4-0.7c0,0-0.8-0.4-1.5-0.2c-0.4,0.2-0.8,0.5-1,1C211.9,255.9,213,256.8,213.6,257.1z"/>
			</g>
			<path style="fill:#1A4850;" d="M220.9,252.6c0,0.7-0.5,1.3-0.9,1.3c-0.5,0-0.8-0.7-0.8-1.4s0.5-1.3,0.9-1.3
				C220.6,251.2,220.9,251.9,220.9,252.6z"/>
			<path style="fill:#1A4850;" d="M221.3,252.4c0,0-0.4-1.7-1-1.7s-1.6,1.1-1.6,1.1l-1.1-0.8l1.1,0.4c0,0,0.9-1.3,1.8-1
				C221.3,250.6,221.3,252.4,221.3,252.4z"/>
			<path style="fill:#1A4850;" d="M214.1,251.5c0,0.7-0.5,1.3-0.9,1.3c-0.5,0-0.8-0.7-0.8-1.4s0.5-1.3,0.9-1.3
				C213.8,250.2,214.1,250.8,214.1,251.5z"/>
			<path style="fill:#1A4850;" d="M214.5,251.3c0,0-0.4-1.7-1-1.7s-1.6,1.1-1.6,1.1l-1.1-0.8l1.1,0.4c0,0,0.9-1.3,1.8-1
				C214.5,249.5,214.5,251.3,214.5,251.3z"/>
			<path style="fill:#8B383E;" d="M220.9,241.9c0,0-2.5,13,7.7,14.4c0,0,3.6-6.2,8.5-1.9c0,0,5.1-14.1-7-16.4c0,0-2.4-5.4-11.8-3.7
				c-13.2,2.4-16.8,18.3-9.5,34C208.8,268.4,202.4,240.1,220.9,241.9z"/>
		</g>
		<path style="fill:#EF6E4B;" d="M238.8,277c-1.4,0.8-3,1.6-5,2.4c-35.2,15.7-26.9,1-26.9,1c0-1.1,0.4-2.1,1-3
			c0.3-0.4,0.6-0.9,1.1-1.3c2.9-1,18.5-5.8,29.1,0.4C238.3,276.8,238.5,276.9,238.8,277z"/>
		<path style="fill:#FF8B66;" d="M238.8,277c-1.4,0.8-3,1.6-5,2.4c-35.2,15.7-26.9,1-26.9,1c0-1.1,0.4-2.1,1-3
			c1.3,0.6,3.9,1.8,4.8,2l0.6,2.2l3-1.9c0,0,10.6,0.3,21.9-3C238.3,276.8,238.5,276.9,238.8,277z"/>
		<path style="fill:#FFB878;" d="M232,273.5c0,0-10.2,7.1-16.2,21.2s10.7,73.2,10.7,73.2s10.8-2.8,19-8.1l-12.2-41.5
			c0,0,13.2-27.5,13.5-32C246.7,286.3,244.4,276.5,232,273.5z"/>
		<path style="fill:#F2A668;" d="M236.2,274.4c0,0,1.6,4.9,0.4,15.3c0,0-2.6-2-7.6-1.7c0,0-12.4,14.1-12.6,35.4
			c0,0-5.3-20.4-1.5-30.8s17-22,17-22L236.2,274.4z"/>
		<path style="fill:#FFB878;" d="M211,275.2c0,0-11,15.9-11.3,21.4s0,23.2,0,23.2l-18.5,38c0,0-3.6-8.5,14.2-37.1
			c0,0-2.2-18.4-1.2-24.1C195.2,290.8,200.2,279.5,211,275.2z"/>
		<path style="fill:#F2A668;" d="M199.7,319.8c0,0-0.2-22.8,3.5-32c3.6-9.2,14.2-16.2,14.2-16.2s-13.3,4.4-18.3,15.6
			c0,0,1.2-0.4,2.5-0.2C201.6,286.9,196.1,292.2,199.7,319.8z"/>
		<path style="fill:#F2A668;" d="M246.7,286.3c0,0,10.9,41.8,7.6,45.2c-3.3,3.5-7.3,9.9-13.3-3.5s-7-24.6-7-24.6
			S239.7,286.6,246.7,286.3z"/>
		<path style="fill:#C96F32;" d="M238.9,306.6c0,0,7.6-0.2,9.4-5.2C248.3,301.4,242.4,299.4,238.9,306.6z"/>
		<path style="fill:#FF8B66;" d="M239.4,294.7l2.7,11.1c0,0,4.6-1,5.6-4l-2-7.1H239.4z"/>
		<g>
			<path style="fill:#FF8B66;" d="M241.9,284.1c0,0,0,0-1.8,5.3s-0.8,5.2,0.9,7.7c1.6,2.3,6.1-0.1,7.7-1.6c1.4-1.3,6-2,6.9-3.3
				c0.3-0.5-0.2-0.6-1.6-0.1c-1.7,0.5-3.4,0.3-3.4,0.3c0.4-1.9,6.7-3,6.9-5.1c0.1-1-6.3,3.2-7.3,2.6c0,0,0.1-0.7,3-3
				c1.7-1.3,3.4-2.7,3.3-3.4c-0.3-1.2-3.3,2.2-8,4.5c0,0,1.6-1.8,3.1-3.3c1.4-1.4,2.9-2.6,2.2-3.1c-0.6-0.5-2.7,1.8-4.1,3.1
				c-2.7,2.6-5.2,3.9-6.5,4.4c-0.6,0.3-1,0.4-1,0.4C243.5,283.9,241.9,284.1,241.9,284.1z"/>
			<path style="fill:#EF6E4B;" d="M242.1,289.4c0,0,1.2,2.1,0.5,3.9c0,0,2.3-1.7,0.5-4.2C242.5,289.3,242.1,289.4,242.1,289.4z"/>
		</g>
	</g>
	<g>
		<path style="fill:#EF6E4B;" d="M598,492.7c-1.9-1.5-6.7-8-7.7-11.2c-1.4-4.6-3-10.9-4.7-17.8h-7.2c2.4,7.5,3.9,13.8,4.5,16.6
			c0,0.5-0.1,0.9-0.3,1.3c-0.2,0.7-0.6,11.2-0.6,11.2h16.1C598.2,492.7,598.1,492.7,598,492.7L598,492.7z"/>
		<path style="fill:#EF6E4B;" d="M587.6,471.6c-5.1-19.4-11.3-48.9-12.1-53.8c-0.5-3.2-1-13.2-2.2-25.4c-0.3-14-1.9-46-9.8-64.2
			l-18.5,0.4c0.7,14.4-13.2,30,3.8,46.7c2.2,6.2,9.6,27.4,10.6,36.7c1.3,11,3.3,15.9,9.7,28.1c5.5,10.6,9.4,23,11.7,31.5
			L587.6,471.6L587.6,471.6z"/>
		<path style="fill:#0E3944;" d="M581.3,492.8c0,0-0.7-9.6,1.2-12.1c0,0,2.1,3.3,4.9,3.3c1.8,0,2.6-4.2,4.2-3.3
			c1.4,0.8,2.3,3.2,6,5.7s6.7,1.8,7,6.4H581.3z"/>
		<path style="fill:#FF8B66;" d="M544,463.6h-8.5c1.6,8.8,2.8,16.2,2.8,16.2v12.9h9.3c-0.9-3.9-3.5-15.5-3.5-20.4
			C544.2,469.5,544.1,466.6,544,463.6z"/>
		<path style="fill:#FF8B66;" d="M524.9,391.5L524.9,391.5c1.2,6.1,2.9,10.3,3.8,15.4c1.3,7.5-2.5,18.4,1.4,30.6
			c1.8,5.7,5.3,24.7,7.1,35.2h7c0-0.1,0-0.2,0-0.3c0-25.5-3.5-55.9-3-67.5c0.2-4.9,1.1-11.8,1.9-18.1c0,0,2.7-18.3,5.4-19.8
			c10.9-6.3,15-38.8,15-38.8l-27.7,1.3c0,0-16.1,13.4-11.9,37.3c0,0,0,0.2,0,0.7C523.1,378.7,523.8,385.9,524.9,391.5z"/>
		<path style="fill:#0E3944;" d="M537,482.8c0,0,0.1-3.2,4.5-2.8c4.4,0.4,4.1,3.6,4.1,3.6s0.7-0.5,1.2,0c0.6,0.5,0.1,4.9,1.2,5.9
			c1.1,0.9,0.8,3.4,0.8,3.4H536c0,0-0.7-3.1,0.6-4.3C537.8,487.3,534.6,483.1,537,482.8z"/>
		<path style="fill:#8B383E;" d="M582.5,450.4c0,0-5,2.2-10.6,1.2v-1.5c0,0-12.9-24-14.1-40.5c0,0-2.8-7.3-5.8-16.3
			c-0.8-2.5-1.6-5.1-2.4-7.7c-2-6.6-3.6-13.4-4-18.3c-1.2-13.9,2.1-50.1,2.1-50.1l12.7-0.3h1c0,0,3.9,7.6,7.5,22.6
			c3.2,13.1,6.2,31.8,6.2,56L582.5,450.4z"/>
		<path style="fill:#8B383E;" d="M551.4,367.9c0,0-5,41.4-6.5,86.8c0,0-7.8,1.3-12.4,0v-3c0,0-8-27.5-6.2-44.4
			c0,0-9.1-24.7-2.8-60.3c1.5-8.8,4-18.4,7.9-28.3l5.3-0.5l17.6-1.6C554.3,316.5,568.3,340.4,551.4,367.9z"/>
		<path style="fill:#662C33;" d="M540,319.2c0,0-5.1,22.5-16.5,27.7c1.5-8.8,4-18.4,7.9-28.3l5.3-0.5
			C537.8,318.4,538.9,318.7,540,319.2z"/>
		<path style="fill:#662C33;" d="M568.8,339.4c-1-1-1.7-2.2-2.1-3.6c-1.3-4.7-5-15-6.4-18.9h1C561.2,316.8,565.2,324.4,568.8,339.4z
			"/>
		<path style="fill:#662C33;" d="M555.2,382.1c-1.8,2.8-2.8,6.9-3.3,11.1c-0.8-2.5-1.6-5.1-2.4-7.7c0.4-2,2.1-11.8,2.9-28.4
			c0.9-18.8-2.1-39.5-2.1-39.5l1.4-0.4c0,0,7.8,27.6,0.7,46.6c0.3-0.3,4.9-5.5,6.2-10C558.7,353.9,560.8,373.1,555.2,382.1z"/>
		<g>
			<path style="fill:#FF8B66;" d="M609.3,316.6c0,0,0,0-5.3,1.6s-4.8,2.4-5.8,5.2c-1,2.6,3.6,4.9,5.8,5.3c1.8,0.4,5.1,3.8,6.7,3.7
				c0.6,0,0.3-0.5-0.8-1.4c-1.4-1.1-2.2-2.6-2.2-2.6c1.8-0.8,6.3,3.7,8.1,2.6c0.9-0.5-6.3-3.2-6.3-4.4c0,0,0.6-0.3,4.2,0.7
				c2.1,0.6,4.2,1.2,4.7,0.7c0.9-0.9-3.7-1.4-8.3-3.9c0,0,2.3,0.2,4.5,0.6c2,0.3,3.8,0.9,3.8,0c0.1-0.7-3-1.2-5-1.6
				c-3.6-0.7-6.1-2-7.4-2.7c-0.6-0.4-0.9-0.6-0.9-0.6C610.4,317.8,609.3,316.6,609.3,316.6z"/>
			<path style="fill:#EF6E4B;" d="M605.1,319.9c0,0-1,2.2-2.9,2.6c0,0,2.7,0.8,3.8-2C605.4,320.1,605.1,319.9,605.1,319.9z"/>
		</g>
		<path style="fill:#FF8B66;" d="M550.4,276.2c8.9,2.4,10.4,7.6,19.6,37.1c0,0,5.2,0.1,10.5,2.3s21.7,4.8,21.7,4.8l-1.5,4.1
			c0,0-29.7,0.2-33.8-1.9S553.2,296,553.2,296L550.4,276.2z"/>
		<path style="fill:#8BBDDB;" d="M531.3,318.6c21.5,4.9,29.9-1.8,29.9-1.8c12.8-21.8-10.4-40.4-10.4-40.4s-0.2-0.1-0.5-0.2
			c-2.9-1-19.2-6-29.8,0.8c-0.7,0.4-1.4,0.9-2,1.5C507.1,288.3,531.3,318.6,531.3,318.6z"/>
		<g>
			<path style="fill:#FFB878;" d="M550.5,268.4c0,0-15.1-4.2-27.4,2c0,0-13.9-34,10.2-33.6C557.5,237.1,552.7,262.3,550.5,268.4z"/>
			<path style="fill:#FF8B66;" d="M527.8,239.3c0,0,16.4-5.5,19.7,6.1c3.3,11.6,0.3,23.8-7.4,22.9
				C529.2,267.2,515,245.8,527.8,239.3z"/>
			<path style="fill:#DB614D;" d="M536,255.5c-0.1,0.7,0.6,1.3,1.4,1.4c0.9,0.1,1.6-0.4,1.7-1.1c0.1-0.7-0.6-1.3-1.4-1.4
				C536.9,254.4,536.1,254.9,536,255.5z"/>
			<g>
				<path style="fill:#FFB878;" d="M537.3,248.5c0.1,0,0.2-0.1,0.3-0.2c0.7-1.1,2-0.9,2-0.9c0.2,0,0.4-0.1,0.4-0.3s-0.1-0.4-0.3-0.4
					c-0.1,0-1.8-0.2-2.7,1.3c-0.1,0.2-0.1,0.4,0.1,0.5C537.2,248.4,537.2,248.5,537.3,248.5z"/>
			</g>
			<g>
				<path style="fill:#FFB878;" d="M544.9,246.7c0.1,0,0.1,0,0.2-0.1c1-0.8,2.2-0.3,2.2-0.3c0.2,0.1,0.4,0,0.4-0.2
					c0.1-0.2,0-0.4-0.2-0.4c-0.1,0-1.6-0.7-2.9,0.4c-0.1,0.1-0.2,0.3,0,0.5C544.7,246.7,544.8,246.7,544.9,246.7z"/>
			</g>
			<path style="fill:#1A4850;" d="M546.5,258.8c0,0-2.5,1.6-6.8,0.2c0,0,1.3,5.1,4.1,4.5C546.5,262.8,546.5,258.8,546.5,258.8z"/>
			<path style="fill:#FFB878;" d="M534.3,245.3c0,0-3.8,4.8-3.6,11c0,0-2.8-3.4-4.2-0.4c-1.4,2.9,4.3,7.2,4.3,7.2
				s-9.3,0.5-10.4-11.5C520,246.5,526.6,241.9,534.3,245.3z"/>
			<path style="fill:#EF6E4B;" d="M531.1,260.4c1.3,3.4,6.1,9.3,11.2,7.6c0,0-1.3,5.1,0.8,6.9c0,0,2.2,3.9-2.9,4.5
				c-6.4,0.7-10-4.5-10-4.5c2.8-6.2-1-13.9-1-13.9C530.6,262,531.1,260.4,531.1,260.4z"/>
			<g>
				<path style="fill:#DB614D;" d="M545.7,257.1l-0.3-0.7c0.1-0.1,1.2-0.6,0.8-1.6c-0.1-0.3-0.3-0.5-0.5-0.6
					c-0.4-0.1-0.9,0.1-0.9,0.1l-0.4-0.7c0,0,0.8-0.4,1.5-0.2c0.4,0.2,0.8,0.5,1,1C547.5,255.9,546.4,256.8,545.7,257.1z"/>
			</g>
			<path style="fill:#1A4850;" d="M538.4,252.6c0,0.7,0.5,1.3,0.9,1.3c0.5,0,0.8-0.7,0.8-1.4s-0.5-1.3-0.9-1.3
				C538.7,251.2,538.4,251.9,538.4,252.6z"/>
			<path style="fill:#1A4850;" d="M538,252.4c0,0,0.4-1.7,1-1.7s1.6,1.1,1.6,1.1l1.1-0.8l-1.1,0.4c0,0-0.9-1.3-1.8-1
				C538,250.6,538,252.4,538,252.4z"/>
			<path style="fill:#1A4850;" d="M545.3,251.5c0,0.7,0.5,1.3,0.9,1.3c0.5,0,0.8-0.7,0.8-1.4s-0.5-1.3-0.9-1.3
				C545.6,250.2,545.2,250.8,545.3,251.5z"/>
			<path style="fill:#1A4850;" d="M544.8,251.3c0,0,0.4-1.7,1-1.7s1.6,1.1,1.6,1.1l1.1-0.8l-1.1,0.4c0,0-0.9-1.3-1.8-1
				C544.9,249.5,544.8,251.3,544.8,251.3z"/>
			<path style="fill:#FFB878;" d="M538.5,241.9c0,0,2.5,13-7.7,14.4c0,0-3.6-6.2-8.5-1.9c0,0-5.1-14.1,7-16.4c0,0,2.4-5.4,11.8-3.7
				c13.2,2.4,16.8,18.3,9.5,34C550.5,268.4,557,240.1,538.5,241.9z"/>
		</g>
		<path style="fill:#EF6E4B;" d="M520.6,277c1.4,0.8,3,1.6,5,2.4c35.2,15.7,26.9,1,26.9,1c0-1.1-0.4-2.1-1-3
			c-0.3-0.4-0.6-0.9-1.1-1.3c-2.9-1-18.5-5.8-29.1,0.4C521,276.8,520.8,276.9,520.6,277z"/>
		<path style="fill:#FF8B66;" d="M520.6,277c1.4,0.8,3,1.6,5,2.4c35.2,15.7,26.9,1,26.9,1c0-1.1-0.4-2.1-1-3c-1.3,0.6-3.9,1.8-4.8,2
			l-0.6,2.2l-3-1.9c0,0-10.6,0.3-21.9-3C521,276.8,520.8,276.9,520.6,277z"/>
		<path style="fill:#FF8B66;" d="M553.5,305.4c0,0,0,0-5.3,1.6s-4.8,2.4-5.8,5.2c-1,2.6,3.6,4.9,5.8,5.3c1.8,0.4,5.1,3.8,6.7,3.7
			c0.6,0,0.3-0.5-0.8-1.4c-1.4-1.1-2.2-2.6-2.2-2.6c1.8-0.8,6.3,3.7,8.1,2.6c0.9-0.5-6.3-3.2-6.3-4.4c0,0,0.6-0.3,4.2,0.7
			c2.1,0.6,4.2,1.2,4.7,0.7c0.9-0.9-3.7-1.4-8.3-3.9c0,0,2.3,0.2,4.5,0.6c2,0.3,3.8,0.9,3.8,0c0.1-0.7-3-1.2-5-1.6
			c-3.6-0.7-6.1-2-7.4-2.7c-0.6-0.4-0.9-0.6-0.9-0.6C554.6,306.6,553.5,305.4,553.5,305.4z"/>
		<path style="fill:#FF8B66;" d="M517.6,279.5c5.5-3.6,9.7,7.8,9,15.2c-0.3,3.4-9,27.9-9,27.9l26-13.4l1.6,4.1
			c0,0-12.2,8.6-19.6,14.9s-15.2,6.3-17.8,4.2c-2.7-2,1.7-20.7,3.2-28.4C512.5,296.4,514.4,281.6,517.6,279.5z"/>
	</g>
	<g id="btc">
		<ellipse style="fill:#105E99;" cx="384.5" cy="170.4" rx="42.7" ry="28.8"/>
		<path style="fill:#105E99;" d="M410.1,187l-17.8,2.6c0,0,7.4,15.7,27.6,22.2C419.9,211.8,408.3,200.4,410.1,187z"/>
		<g>
			<path style="fill:#FFFFFF;" d="M379.6,187.1h-1.8l0.8-3.7h-5.5l5.3-25.2h5.5l0.7-3.2h1.8l-0.7,3.3c0.5,0.1,0.9,0.2,1.3,0.3
				c0.8,0.3,1.4,0.7,2,1.2s0.9,1.1,1.2,1.7s0.4,1.4,0.4,2.1c0,0.8-0.1,1.5-0.3,2.3s-0.6,1.4-1,2s-1.1,1.1-1.8,1.5s-1.6,0.7-2.6,0.9
				v0.1c0.7,0.1,1.4,0.3,1.9,0.6s1,0.7,1.4,1.1s0.6,0.9,0.8,1.5s0.3,1.2,0.3,1.8c0,1.3-0.2,2.4-0.7,3.4s-1.1,1.8-2,2.5
				s-1.8,1.2-3,1.5c-1,0.3-2,0.5-3.2,0.5L379.6,187.1z M378.6,171.6l-1.9,9.1h2.5l1.9-9.1H381H378.6z M379.2,169h2.3h0.1l1.7-8.1
				h-2.5L379.2,169z M386.2,175.6c0-1.2-0.4-2.2-1.3-2.9c-0.5-0.4-1.2-0.7-2-0.9l-1.9,8.8c0.6-0.1,1.2-0.2,1.7-0.3
				c0.8-0.2,1.5-0.6,2-1s0.9-1,1.2-1.6S386.2,176.4,386.2,175.6z M387.5,164.2c0-0.4-0.1-0.9-0.2-1.3s-0.4-0.8-0.7-1.1
				s-0.7-0.6-1.2-0.7c-0.1,0-0.2-0.1-0.3-0.1l-1.7,7.8c0.2,0,0.4-0.1,0.6-0.2c0.8-0.2,1.4-0.6,1.9-1s0.9-0.9,1.1-1.5
				S387.5,164.9,387.5,164.2L387.5,164.2z"/>
		</g>
	</g>
	<g id="nvda">
		<ellipse style="fill:#F24052;" cx="348.2" cy="222.1" rx="34.4" ry="23.1"/>
		<path style="fill:#F24052;" d="M327.5,235.3l14.2,2.1c0,0-5.9,12.6-22.1,17.8C319.6,255.2,328.9,246.1,327.5,235.3z"/>
		<g>
			<path style="fill:#FFFFFF;" d="M325.3,220.7c0,0.2-0.1,0.6-0.1,1c-0.1,0.8-0.1,1.3-0.1,1.6c0,0,0,0,0.1,0.1l0.1,0.1
				c0.3,0.2,0.5,0.3,0.6,0.4c0.1,0,0.2,0.1,0.4,0.2c0.3,0.1,0.5,0.3,0.6,0.5s0.2,0.5,0.2,0.9c0,0.8-0.8,1.4-2.3,1.9
				c0,0.1,0,0.6-0.1,1.3s-0.1,1.1-0.1,1.2c0,0.1,0,0.3,0.1,0.6s0.1,0.5,0.1,0.6s-0.1,0.1-0.2,0.2s-0.2,0.1-0.4,0.1
				c-0.4,0-0.7-0.3-0.7-0.8v-0.2c0-0.2,0-0.5,0.1-1.1s0.1-1,0.1-1.3c-0.1,0-0.3,0.1-0.5,0.1c-0.3,0-0.8,0.1-1.3,0.3
				c-0.6,0.1-0.9,0.2-1,0.2c-0.2,0-0.4,0-0.6-0.1s-0.3-0.2-0.3-0.3c0-0.2,0.1-0.5,0.4-0.7c0.2-0.2,0.8-0.3,1.5-0.4l0.9-0.1
				c0.2,0,0.5-0.1,1-0.3c0.2-1.3,0.3-2.2,0.3-2.8c-0.1-0.1-0.4-0.2-1-0.4s-1-0.4-1.4-0.7s-0.5-0.7-0.5-1.1c0-0.4,0.4-0.7,1.2-1.1
				c0.8-0.3,1.5-0.5,2-0.6c0-0.2,0-0.4,0-0.6v-1.7c0-0.2,0.1-0.3,0.3-0.4c0.2-0.1,0.3-0.1,0.5-0.1c0.3,0,0.5,0.3,0.5,0.9
				c0,0.2,0,0.5-0.1,0.9s-0.1,0.7-0.1,0.8c0.2,0,0.5,0,0.9,0c0.2,0,0.3,0,0.5-0.1c0.2,0,0.3-0.1,0.4-0.1c0.3,0,0.5,0.2,0.5,0.6
				c0,0.3-0.1,0.5-0.3,0.5c-0.2,0.1-0.7,0.1-1.5,0.1h-0.5C325.4,220.7,325.3,220.7,325.3,220.7z M324.2,220.9
				c-1.1,0.2-1.7,0.5-1.8,0.8c0.1,0.2,0.6,0.6,1.7,1L324.2,220.9z M324.9,224.2c-0.1,0.9-0.2,1.6-0.2,2.1c0.8-0.5,1.3-0.8,1.3-0.9
				c0-0.2-0.1-0.4-0.4-0.6C325.3,224.5,325.1,224.3,324.9,224.2z"/>
			<path style="fill:#FFFFFF;" d="M337.6,227.3c0.3-1.2,0.6-2.8,0.9-4.6s0.5-3.1,0.5-3.8c0-0.4,0-0.6,0.1-0.8
				c0.1-0.1,0.2-0.3,0.4-0.4c0.2-0.1,0.4-0.1,0.6-0.1c0.1,0,0.3,0.1,0.4,0.3s0.2,0.5,0.2,0.7s-0.1,0.6-0.2,1.2
				c-0.3,1.3-0.7,2.8-1,4.6s-0.5,2.8-0.5,3.1c0,0.6,0,0.9,0,1.1c0,0.3-0.1,0.5-0.3,0.6s-0.5,0.2-0.8,0.2c-0.2,0-0.3,0-0.4-0.1
				c-0.1,0-0.2-0.2-0.4-0.4c-0.2-0.2-0.3-0.5-0.4-0.7c0-0.2-0.2-0.5-0.5-0.8c-1.5-1.9-2.8-4-4-6.3c-0.3,1.2-0.7,2.9-0.9,5l-0.2,1.3
				c0,0.1,0,0.4,0,0.8c0,0.4,0,0.7-0.1,0.8c0,0.1-0.1,0.3-0.3,0.5c-0.2,0.2-0.3,0.3-0.5,0.3c-0.3,0-0.6-0.1-0.6-0.4
				s-0.1-0.5-0.1-0.7c0-0.4,0.1-1,0.3-1.9c0.2-0.9,0.5-2.2,0.8-3.9c0.3-1.8,0.5-2.9,0.5-3.4v-0.4c0-0.2,0-0.3,0.1-0.4
				s0.2-0.2,0.3-0.3c0.2-0.1,0.3-0.1,0.5-0.1c0.1,0,0.3,0,0.4,0.1s0.2,0.2,0.3,0.3c0.1,0.1,0.1,0.4,0.2,0.7c0.2,1,0.9,2.4,1.9,4.1
				C335.9,225.2,336.8,226.4,337.6,227.3z"/>
			<path style="fill:#FFFFFF;" d="M342.2,219.2c0-0.3,0.1-0.6,0.3-0.8c0.2-0.2,0.3-0.3,0.5-0.3c0.4,0,0.7,0.5,0.9,1.5
				c0.2,1,1.1,3.6,3,7.8c0.2-0.3,0.4-0.7,0.6-1c1-1.6,1.8-2.9,2.2-3.7c1.8-3.4,3-5.1,3.6-5.1c0.4,0,0.6,0.2,0.6,0.7
				c0,0.1,0,0.1-0.1,0.2c0,0.1-0.2,0.3-0.5,0.8c-1,1.5-2,3-2.9,4.6c-0.7,1.3-1.4,2.3-1.8,3c-0.5,0.8-0.9,1.4-1,1.8
				c-0.1,0.2-0.2,0.4-0.5,0.5c-0.2,0.1-0.5,0.2-0.9,0.2c-0.1,0-0.5-0.7-0.9-2c-0.2-0.6-1-2.5-2.2-5.6
				C342.5,220.1,342.2,219.3,342.2,219.2z"/>
			<path style="fill:#FFFFFF;" d="M355.4,219.9c0-0.2-0.1-0.3-0.4-0.4c-0.4-0.1-0.6-0.3-0.6-0.5s0.1-0.4,0.3-0.6
				c0.2-0.2,0.4-0.3,0.5-0.3h1.1c0.5,0,1.2,0,2-0.1s1.4-0.1,1.9-0.1c1.4,0,2.6,0.4,3.5,1.2s1.3,1.9,1.3,3.2c0,1.5-0.6,2.8-1.9,4
				c-1.2,1.2-3,2.1-5.3,2.6c-0.9,0.2-1.5,0.4-1.9,0.7s-0.8,0.4-1.1,0.4c-0.2,0-0.4-0.1-0.5-0.3c-0.2-0.2-0.2-0.4-0.2-0.5
				s0.1-0.2,0.2-0.4s0.2-0.5,0.2-0.7s0.1-0.7,0.1-1.3s0.1-1.6,0.3-3c0.2-1.4,0.3-2.3,0.4-2.9C355.3,220.4,355.4,220.1,355.4,219.9z
				 M356.8,219.4c-0.6,3.7-0.9,6.4-0.9,7.9c0,0.3,0,0.6,0.1,0.8c0,0,0.1,0.1,0.2,0.1c0.3,0,1.2-0.2,2.6-0.7c1.4-0.4,2.6-1.1,3.4-2
				c0.9-0.9,1.3-1.9,1.3-3.1c0-1-0.3-1.7-1-2.3s-1.6-0.9-2.7-0.9c-0.7,0-1.5,0.1-2.4,0.2C357.2,219.3,357,219.4,356.8,219.4z"/>
			<path style="fill:#FFFFFF;" d="M372.4,218.2c0,0,0.1,0.2,0.1,0.4s0,0.4-0.1,0.5l0.1,0.3c0.2,0.6,0.3,1.1,0.5,1.5
				c0.2,0.5,0.4,1.1,0.6,1.7c0.5,1.4,0.9,2.6,1.4,3.6s1,1.7,1.4,2.1c0.3,0.3,0.4,0.4,0.5,0.5s0.1,0.2,0.1,0.3c0,0.2-0.1,0.4-0.2,0.6
				c-0.2,0.2-0.3,0.2-0.6,0.2c-0.7,0-1.5-1-2.4-3.1c-0.4-0.8-0.6-1.2-0.7-1.2c-0.2,0-0.8,0.1-1.6,0.2c-0.8,0.2-1.6,0.3-2.3,0.5
				c-0.4,0.1-0.6,0.2-0.7,0.2s-0.3-0.1-0.4-0.2H368c-0.1,0-0.4,0.3-0.7,1c-0.6,1.1-1,1.8-1.2,2s-0.3,0.3-0.5,0.3
				c-0.1,0-0.3-0.1-0.5-0.2c-0.2-0.2-0.3-0.3-0.3-0.5s0.1-0.4,0.3-0.7c0.2-0.3,0.6-0.9,1.1-1.7c1-1.5,1.9-3,2.6-4.3
				c1.1-2.1,1.8-3.4,2.1-3.8c0.3-0.4,0.5-0.6,0.7-0.6C372,217.9,372.3,218,372.4,218.2z M372.9,224.4c-0.2-0.4-0.5-1.2-0.8-2.3
				c-0.4-1.2-0.6-1.9-0.7-2.2c-0.3,0.6-0.7,1.5-1.3,2.6l-1.4,2.7c0.1-0.1,0.4-0.2,0.9-0.2c0.4,0,0.7-0.1,0.9-0.1
				C371.9,224.5,372.7,224.4,372.9,224.4z"/>
		</g>
	</g>
	<g id="tsla">
		<ellipse style="fill:#FFB878;" cx="171" cy="230.5" rx="35.7" ry="25.7"/>
		<path style="fill:#FFB878;" d="M191.4,245.2l-15.8,2.3c0,0,6.6,14,24.6,19.8C200.2,267.4,189.8,257.2,191.4,245.2z"/>
		<g>
			<path style="fill:#FFFFFF;" d="M149.2,228.3c0,0.3-0.1,0.7-0.1,1.1c-0.1,0.9-0.2,1.5-0.2,1.8c0,0,0,0,0.1,0.1s0.1,0.1,0.1,0.1
				c0.3,0.2,0.5,0.3,0.7,0.4c0.1,0.1,0.2,0.1,0.4,0.2c0.3,0.1,0.6,0.3,0.7,0.5s0.2,0.5,0.2,1c0,0.9-0.9,1.6-2.6,2.1
				c0,0.2,0,0.6-0.1,1.5c-0.1,0.8-0.1,1.2-0.1,1.4s0,0.4,0.1,0.6c0.1,0.3,0.1,0.5,0.1,0.7c0,0.1-0.1,0.2-0.2,0.2s-0.3,0.1-0.4,0.1
				c-0.5,0-0.8-0.3-0.8-0.9v-0.3c0-0.2,0-0.6,0.1-1.2c0.1-0.7,0.1-1.1,0.1-1.4c-0.1,0-0.3,0.1-0.6,0.1c-0.4,0-0.9,0.1-1.5,0.3
				s-1,0.2-1.2,0.2s-0.4,0-0.6-0.1s-0.3-0.2-0.3-0.3c0-0.3,0.1-0.5,0.4-0.8s0.8-0.4,1.7-0.4l1-0.1c0.2,0,0.6-0.1,1.1-0.3
				c0.2-1.4,0.3-2.5,0.3-3.1c-0.1-0.1-0.5-0.3-1.1-0.5s-1.1-0.5-1.5-0.8s-0.6-0.8-0.6-1.3c0-0.4,0.5-0.8,1.4-1.2s1.7-0.6,2.3-0.6
				c0-0.2,0.1-0.4,0.1-0.7v-1.9c0-0.2,0.1-0.3,0.3-0.4s0.4-0.1,0.5-0.1c0.4,0,0.6,0.3,0.6,1c0,0.2,0,0.5-0.1,1s-0.1,0.8-0.1,0.9
				c0.2,0,0.5,0,1,0c0.2,0,0.4,0,0.6-0.1c0.2,0,0.3-0.1,0.5-0.1c0.4,0,0.6,0.2,0.6,0.7c0,0.3-0.1,0.5-0.3,0.6s-0.8,0.1-1.7,0.1h-0.5
				C149.3,228.3,149.2,228.3,149.2,228.3z M148,228.5c-1.2,0.2-1.9,0.6-2.1,0.9c0.1,0.3,0.7,0.7,1.9,1.2L148,228.5z M148.8,232.2
				c-0.1,1-0.2,1.8-0.2,2.3c0.9-0.5,1.4-0.9,1.4-1c0-0.2-0.2-0.4-0.5-0.7S149,232.3,148.8,232.2z"/>
			<path style="fill:#FFFFFF;" d="M153.1,227.3c-0.1-0.1-0.1-0.3-0.1-0.4c0-0.3,0.1-0.4,0.3-0.5s0.8-0.1,1.7-0.2
				c1.2,0,2.2,0,3.1-0.1s2.4-0.3,4.3-0.5c0.7-0.1,1.4-0.1,2.1-0.1c0.3,0,0.7,0,1,0.1s0.5,0.1,0.6,0.1s0.2,0.1,0.3,0.3
				s0.1,0.3,0.1,0.4c0,0.4-0.1,0.6-0.4,0.6c-0.2,0-0.5,0-0.8-0.1c-0.3,0-0.8,0-1.4,0c-0.6,0-1.3,0-2.2,0.1s-1.3,0.2-1.4,0.4
				s-0.2,1.3-0.5,3.4s-0.3,3.7-0.3,4.7c0,0.5,0.1,1,0.2,1.6c0,0.1,0,0.2,0,0.2c0,0.3-0.1,0.5-0.2,0.7s-0.3,0.3-0.5,0.3
				c-0.3,0-0.6-0.1-0.8-0.4s-0.3-1.1-0.3-2.5c0-1.3,0.2-3.8,0.7-7.5c0-0.2,0-0.3,0-0.3c0-0.2-0.1-0.3-0.3-0.3c-0.4,0-1,0-2,0.1
				s-1.7,0.1-2.1,0.1C153.7,227.6,153.2,227.5,153.1,227.3z"/>
			<path style="fill:#FFFFFF;" d="M174.6,228.2c0-0.8-0.2-1.3-0.6-1.4s-0.9-0.3-1.5-0.3c-1.2,0-2.4,0.2-3.4,0.7s-1.5,1.1-1.5,1.8
				c0,0.5,0.2,0.9,0.7,1.3s1.4,0.8,2.9,1.2s2.5,0.9,3.1,1.3s0.9,1,0.9,1.6s-0.4,1.3-1.3,2.1s-1.9,1.3-3.1,1.7s-2.2,0.6-3.1,0.6
				c-0.7,0-1.2-0.1-1.6-0.3s-0.5-0.4-0.5-0.6c0-0.2,0.1-0.4,0.2-0.6s0.2-0.4,0.3-0.4s0.2,0,0.4,0.1c0.6,0.2,1.2,0.4,1.9,0.4
				c1.1,0,2.3-0.3,3.5-1s1.9-1.3,1.9-1.8c0-0.2-0.2-0.5-0.6-0.7s-1.3-0.6-2.9-1.1c-1.9-0.6-3.1-1.2-3.5-1.8s-0.7-1.2-0.7-1.8
				c0-1.2,0.7-2.2,2.1-2.9s2.9-1.1,4.4-1.1c1,0,1.8,0.2,2.3,0.5s0.8,0.7,0.8,1.1c0,0.2-0.1,0.5-0.2,0.9S175.1,228.2,174.6,228.2z"/>
			<path style="fill:#FFFFFF;" d="M178,235.5c0-0.1,0.1-0.8,0.3-2.1s0.3-2.8,0.5-4.6s0.3-2.7,0.3-2.9s0.1-0.4,0.3-0.5
				s0.4-0.2,0.7-0.2c0.2,0,0.4,0.1,0.5,0.2s0.2,0.3,0.2,0.5c0,0.3-0.1,0.7-0.2,1.2c-0.2,0.8-0.4,2.4-0.7,4.7s-0.4,3.7-0.4,4.1
				c0,0.2,0,0.3,0.1,0.4s0.2,0.1,0.3,0.1c0.3,0,0.9-0.1,2-0.3c0.6-0.1,1.8-0.2,3.6-0.3c0.3,0,0.7-0.1,1.2-0.2c0.1,0,0.2,0,0.2,0
				c0.2,0,0.4,0.1,0.5,0.2s0.2,0.3,0.2,0.5c0,0.3-0.1,0.6-0.4,0.8s-0.5,0.3-0.9,0.3c-0.1,0-0.4,0-0.7-0.1c-0.4,0-0.6,0-0.8,0
				c-1.9,0-3.8,0.3-5.5,0.9c-0.3,0.1-0.6,0.1-0.8,0.1c-0.3,0-0.5-0.1-0.6-0.3s-0.2-0.5-0.2-0.7c0-0.1,0.1-0.4,0.2-0.8
				C177.9,236.1,177.9,235.8,178,235.5z"/>
			<path style="fill:#FFFFFF;" d="M196.8,225.4c0.1,0,0.1,0.2,0.1,0.4c0,0.3,0,0.4-0.1,0.6l0.1,0.4c0.2,0.7,0.4,1.3,0.6,1.7
				c0.2,0.6,0.5,1.2,0.7,1.9c0.5,1.6,1.1,2.9,1.6,4s1.1,1.9,1.6,2.4c0.3,0.3,0.5,0.5,0.5,0.6s0.1,0.2,0.1,0.4c0,0.3-0.1,0.5-0.3,0.7
				s-0.4,0.3-0.6,0.3c-0.8,0-1.7-1.2-2.7-3.5c-0.4-0.9-0.7-1.4-0.8-1.4c-0.3,0-0.9,0.1-1.8,0.3s-1.8,0.4-2.5,0.6
				c-0.4,0.1-0.7,0.2-0.8,0.2s-0.3-0.1-0.5-0.2h-0.1c-0.1,0-0.4,0.4-0.8,1.1c-0.7,1.3-1.1,2-1.3,2.3s-0.4,0.4-0.6,0.4
				c-0.2,0-0.3-0.1-0.6-0.3s-0.3-0.4-0.3-0.6c0-0.2,0.1-0.4,0.3-0.8s0.6-1,1.3-1.9c1.2-1.7,2.1-3.3,2.9-4.8c1.3-2.4,2.1-3.8,2.4-4.2
				s0.6-0.6,0.8-0.6C196.4,225.1,196.6,225.2,196.8,225.4z M197.4,232.4c-0.2-0.5-0.5-1.3-0.9-2.6s-0.7-2.1-0.8-2.4
				c-0.3,0.7-0.8,1.6-1.5,2.9l-1.6,3c0.1-0.1,0.4-0.2,1-0.2c0.4,0,0.8-0.1,1.1-0.2C196.2,232.6,197.1,232.4,197.4,232.4z"/>
		</g>
	</g>
	<g id="fb">
		<ellipse style="fill:#8B383E;" cx="133.3" cy="180.7" rx="38.4" ry="28.8"/>
		<path style="fill:#8B383E;" d="M112,197.3l17.8,2.6c0,0-7.4,15.7-27.6,22.2C102.1,222.1,113.8,210.7,112,197.3z"/>
		<g>
			<path style="fill:#FFFFFF;" d="M119.6,174c0,0.4-0.1,0.9-0.2,1.5c-0.1,1.2-0.2,2-0.2,2.4c0,0,0,0.1,0.1,0.1s0.1,0.1,0.1,0.1
				c0.4,0.2,0.7,0.4,0.9,0.6c0.1,0.1,0.3,0.2,0.6,0.3c0.5,0.2,0.8,0.4,1,0.7s0.3,0.7,0.3,1.4c0,1.2-1.2,2.2-3.5,2.8
				c0,0.2-0.1,0.9-0.2,1.9s-0.2,1.6-0.2,1.8s0,0.5,0.1,0.8c0.1,0.4,0.1,0.7,0.1,0.9c0,0.1-0.1,0.2-0.3,0.3s-0.4,0.1-0.5,0.1
				c-0.7,0-1-0.4-1-1.2v-0.4c0-0.3,0-0.8,0.1-1.6c0.1-0.9,0.1-1.5,0.1-1.9c-0.2,0.1-0.4,0.1-0.8,0.2c-0.5,0.1-1.1,0.2-1.9,0.4
				s-1.3,0.3-1.6,0.3c-0.3,0-0.6-0.1-0.8-0.2s-0.4-0.3-0.4-0.4c0-0.4,0.2-0.7,0.5-1s1.1-0.5,2.3-0.6l1.4-0.1c0.3,0,0.8-0.2,1.5-0.4
				c0.3-1.9,0.4-3.3,0.4-4.1c-0.2-0.1-0.7-0.3-1.5-0.7c-0.8-0.2-1.5-0.6-2-1.1s-0.8-1-0.8-1.7c0-0.5,0.6-1.1,1.8-1.6s2.2-0.8,3-0.8
				c0-0.3,0.1-0.6,0.1-0.9v-2.6c0-0.2,0.1-0.4,0.4-0.6s0.5-0.2,0.7-0.2c0.5,0,0.8,0.4,0.8,1.3c0,0.3-0.1,0.7-0.2,1.3s-0.2,1-0.2,1.3
				c0.2,0,0.7-0.1,1.3-0.1c0.2,0,0.5,0,0.8-0.1c0.2-0.1,0.4-0.1,0.6-0.1c0.5,0,0.8,0.3,0.8,0.9c0,0.4-0.1,0.7-0.4,0.8
				s-1,0.1-2.2,0.1H120C119.8,174,119.7,174,119.6,174z M118,174.3c-1.6,0.3-2.5,0.7-2.8,1.2c0.1,0.4,0.9,0.9,2.5,1.5L118,174.3z
				 M119.1,179.3c-0.2,1.4-0.3,2.4-0.3,3.1c1.3-0.7,1.9-1.2,1.9-1.4s-0.2-0.5-0.6-0.9S119.4,179.4,119.1,179.3z"/>
			<path style="fill:#FFFFFF;" d="M130.3,172.7c-0.1,0.3-0.4,1.1-0.6,2.6s-0.4,2.7-0.4,3.6c0.5-0.1,1.1-0.2,1.7-0.2l2.5-0.3
				c0.4-0.1,0.9-0.2,1.6-0.4c0.7-0.2,1.2-0.3,1.5-0.3c0.9,0,1.4,0.4,1.4,1.1c0,0.1-0.1,0.3-0.4,0.6s-0.6,0.4-1,0.5s-1.5,0.2-3.1,0.4
				c-2,0.2-3.2,0.4-3.6,0.5s-0.6,0.2-0.7,0.4s-0.1,0.7-0.2,1.7s-0.1,1.8-0.1,2.5v1.5c0,0.8-0.3,1.2-0.9,1.2c-0.4,0-0.7-0.1-1-0.4
				s-0.5-0.6-0.5-1.1c0-1.8,0.4-5.6,1.3-11.5c0.2-1.4,0.3-2.1,0.3-2.2c0-0.1,0-0.4-0.1-0.7c-0.1-0.4-0.2-0.6-0.2-0.8
				s0.1-0.4,0.4-0.7c0.2-0.2,0.5-0.4,0.7-0.4l1.5,0.2c0.5,0,1.4-0.1,2.7-0.2c2.2-0.3,3.7-0.4,4.5-0.4c0.7,0,1.2,0.1,1.5,0.3
				s0.5,0.4,0.5,0.6c0,0.4-0.1,0.7-0.4,1s-0.5,0.4-0.8,0.4c-0.1,0-0.3,0-0.4,0c-0.9-0.1-1.5-0.2-1.9-0.2c-0.8,0-1.9,0.1-3.3,0.2
				S130.5,172.5,130.3,172.7z"/>
			<path style="fill:#FFFFFF;" d="M151.3,177.4c0,0.1,0.1,0.2,0.2,0.2c0.8,0.2,1.6,0.7,2.2,1.4s1,1.5,1,2.5c0,1.5-0.9,3-2.8,4.6
				s-3.9,2.3-6,2.3c-0.6,0-1-0.1-1.4-0.2s-0.5-0.3-0.5-0.5c0-1,0.7-1.5,2.1-1.5c0.2,0,0.5,0,0.9,0s0.9-0.1,1.4-0.3s1.1-0.5,1.6-0.8
				s0.9-0.7,1.3-1.1s0.7-0.7,0.9-1.2s0.3-0.8,0.3-1.2c0-0.7-0.3-1.3-0.9-1.8s-1.4-0.8-2.3-0.8c-0.2,0-0.5,0.1-1.1,0.4
				c-0.6,0.3-1,0.4-1.1,0.4c-0.6,0-1-0.1-1.1-0.2s-0.2-0.4-0.2-0.8c0-0.2,0.7-0.6,2-1.2c1.1-0.4,2.2-1.2,3.2-2.1s1.6-1.8,1.6-2.5
				c0-0.5-0.2-0.9-0.6-1.1s-0.9-0.4-1.6-0.4c-1.2,0-2.3,0.1-3.5,0.4s-1.8,0.6-1.9,0.8s-0.4,2.1-1,5.7s-0.8,5.6-0.8,6.1s0,1.1,0,1.5
				s-0.1,0.9-0.3,1.2s-0.5,0.5-1,0.5c-0.4,0-0.7-0.2-1-0.5s-0.3-0.8-0.3-1.3c0-0.1,0-0.3,0.1-0.6c0.4-1.7,0.8-3.8,1.1-6.4
				s0.5-4.1,0.5-4.5c0-0.3,0-0.6-0.1-0.7s-0.3-0.2-0.6-0.2c-0.1,0-0.2,0-0.4,0s-0.2-0.1-0.4-0.2s-0.2-0.3-0.2-0.6
				c0-0.7,1.1-1.4,3.3-2s4.5-1,6.7-1c1.2,0,2.1,0.3,2.9,0.9s1.1,1.4,1.1,2.2c0,0.6-0.3,1.4-1,2.2S152.4,176.6,151.3,177.4z"/>
		</g>
	</g>
	<g id="doge">
		<ellipse style="fill:#E28A42;" cx="620.2" cy="159.5" rx="32.8" ry="28.8"/>
		<path style="fill:#E28A42;" d="M635.9,176.1l-17.8,2.6c0,0,7.4,15.7,27.6,22.2C645.7,200.9,634.1,189.5,635.9,176.1z"/>
		<g>
			<path style="fill:#FFFFFF;" d="M630.2,157.9c0,1.3-0.1,2.6-0.4,3.8s-0.7,2.5-1.2,3.6s-1.2,2.2-2.1,3.1c-0.8,1-1.9,1.8-3,2.5
				c-1.2,0.7-2.5,1.2-4,1.6c-1.5,0.4-3.2,0.6-5.1,0.6h-8.1l2.5-11.7h-3l0.5-2.7h3l2.4-11.4h7.1c1.7,0,3.3,0.2,4.7,0.8
				c1.4,0.5,2.6,1.2,3.6,2.1c1,0.9,1.8,2,2.3,3.4C629.9,154.8,630.2,156.2,630.2,157.9z M627,158.1c0-1.3-0.2-2.4-0.6-3.4
				c-0.4-1-0.9-1.9-1.7-2.6c-0.7-0.7-1.7-1.2-2.8-1.6c-1.1-0.4-2.4-0.6-3.8-0.6h-4l-1.9,8.7h6.2l-0.6,2.7h-6.2l-1.9,9h4.6
				c2.2,0,4-0.3,5.6-0.9c1.6-0.6,2.9-1.5,3.9-2.6s1.8-2.4,2.3-3.9C626.8,161.5,627,159.9,627,158.1z"/>
		</g>
	</g>
	<g id="ether">
		<ellipse style="fill:#8BBDDB;" cx="585.9" cy="217.6" rx="38.9" ry="27.6"/>
		<path style="fill:#8BBDDB;" d="M573.8,237.6l17,2.5c0,0-7.1,15-26.5,21.3C564.3,261.4,575.5,250.4,573.8,237.6z"/>
		<g>
			<path style="fill:#FFFFFF;" d="M574.2,229.7l0.6-3.3h17.6l-0.6,3.3H574.2z M577.7,218.8l0.6-3.3h14.4l-0.6,3.3H577.7z M578,208
				l0.6-3.3h17.6l-0.6,3.3H578z"/>
		</g>
	</g>
	<rect x="22.9" y="24.9" style="fill:#FFFFFF;" width="40.2" height="40.2"/>
	<rect x="266.3" y="82.7" style="fill:#11146F;" width="1.9" height="96.5"/>
	<rect x="290.8" y="32.9" style="fill:#11146F;" width="2.1" height="96.5"/>
</g>
</svg>
