<svg width="714" height="714" viewBox="0 0 714 714" fill="none" xmlns="http://www.w3.org/2000/svg">
<g filter="url(#filter0_d_2197_202)">
<path d="M4 162.3C4 151.254 12.9543 142.3 24 142.3H690C701.046 142.3 710 151.254 710 162.3V267.3C710 278.346 701.046 287.3 690 287.3H24C12.9543 287.3 4 278.346 4 267.3V162.3Z" fill="#11146F"/>
<path d="M4 270.755C4 246.068 24.0129 226.055 48.7 226.055H665.3C689.987 226.055 710 246.068 710 270.755V297.437C710 322.125 689.987 342.137 665.3 342.137H48.7C24.0129 342.137 4 322.125 4 297.437V270.755Z" fill="#11146F"/>
<path d="M4 661.875H710V706H4V661.875Z" fill="#11146F"/>
<path d="M26.0625 319.059H687.938V706.001H26.0625V319.059Z" fill="#11146F"/>
<g style="mix-blend-mode:screen">
<path d="M4 661.875H710V706H4V661.875Z" fill="#D0D0D0"/>
<path d="M26.0625 353H687.938V661.875H26.0625V353Z" fill="#62727A"/>
<path d="M70.1875 386.094H224.625V661.875H70.1875V386.094Z" fill="#D6EEF0"/>
<path d="M26.0625 297.844H687.938V364.031H26.0625V297.844Z" fill="#3E4347"/>
<path d="M4 297.844C4 322.113 23.8562 341.969 48.125 341.969C72.3938 341.969 92.25 322.113 92.25 297.844H4Z" fill="#11146F"/>
<path d="M92.25 297.844C92.25 322.113 112.106 341.969 136.375 341.969C160.644 341.969 180.5 322.113 180.5 297.844H92.25Z" fill="#35A265"/>
<path d="M180.5 297.844C180.5 322.113 200.356 341.969 224.625 341.969C248.894 341.969 268.75 322.113 268.75 297.844H180.5Z" fill="#11146F"/>
<path d="M180.5 198.562H268.75V297.844H180.5V198.562Z" fill="#11146F" fill-opacity="0.7"/>
<path d="M268.75 297.844C268.75 322.113 288.606 341.969 312.875 341.969C337.144 341.969 357 322.113 357 297.844H268.75Z" fill="#35A265"/>
<path d="M268.75 198.562H357V297.844H268.75V198.562Z" fill="#35A265" fill-opacity="0.7"/>
<path d="M4 198.562H92.25V297.844H4V198.562Z" fill="#11146F" fill-opacity="0.7"/>
<path d="M92.25 198.562H180.5V297.844H92.25V198.562Z" fill="#35A265" fill-opacity="0.7"/>
<path d="M533.5 198.562H621.75V297.844H533.5V198.562Z" fill="#11146F" fill-opacity="0.7"/>
<path d="M621.75 198.562H710V297.844H621.75V198.562Z" fill="#35A265" fill-opacity="0.7"/>
<path d="M357 297.844C357 322.113 376.856 341.969 401.125 341.969C425.394 341.969 445.25 322.113 445.25 297.844H357Z" fill="#11146F"/>
<path d="M357 198.562H445.25V297.844H357V198.562Z" fill="#11146F" fill-opacity="0.7"/>
<path d="M445.25 297.844C445.25 322.113 465.106 341.969 489.375 341.969C513.644 341.969 533.5 322.113 533.5 297.844H445.25Z" fill="#35A265"/>
<path d="M445.25 198.562H533.5V297.844H445.25V198.562Z" fill="#35A265" fill-opacity="0.7"/>
<path d="M533.5 297.844C533.5 322.113 553.356 341.969 577.625 341.969C601.894 341.969 621.75 322.113 621.75 297.844H533.5Z" fill="#11146F"/>
<path d="M621.75 297.844C621.75 322.113 641.606 341.969 665.875 341.969C690.144 341.969 710 322.113 710 297.844H621.75Z" fill="#35A265"/>
<path d="M70.1875 386.094H92.25V661.875H70.1875V386.094ZM202.562 386.094H224.625V661.875H202.562V386.094Z" fill="white"/>
<path d="M92.25 386.094H202.562V408.156H92.25V386.094Z" fill="#B4D7EE"/>
<path d="M301.844 364.031H632.781V584.656H301.844V364.031Z" fill="white"/>
<path d="M654.844 617.75C654.844 623.266 649.328 628.781 643.812 628.781H290.812C285.297 628.781 279.781 623.266 279.781 617.75V595.688C279.781 590.172 285.297 584.656 290.812 584.656H643.812C649.328 584.656 654.844 590.172 654.844 595.688V617.75Z" fill="#3E4347"/>
<path d="M323.906 386.094H610.719V562.594H323.906V386.094Z" fill="#D6EEF0"/>
<path d="M323.906 386.094H610.719V408.156H323.906V386.094Z" fill="#B4D7EE"/>
<path d="M710 202.496H4V161.681C4.0002 153 11.5 142.5 23.5 142.295H689.671C701.203 142.295 709.5 151.199 710 161.324V202.496Z" fill="#3E4347"/>
<path d="M334.938 425.807H610.719H334.938ZM334.938 424.506H610.719V427.102H334.981L334.938 424.506ZM334.938 464.198H610.719H334.938ZM334.938 462.9H610.719V465.496H334.981L334.938 462.9ZM334.938 502.671H610.719H334.938ZM334.938 501.379H610.719V503.975H334.981L334.938 501.379ZM334.938 541.072H610.719H334.938ZM334.938 539.761H610.719V542.357H334.981L334.938 539.761ZM379.12 562.308V397.146Z" fill="#939598"/>
<path d="M376.945 397.125H381.279V562.313H376.945V397.125ZM443.219 562.313V397.151V562.313ZM441.034 397.125H445.368V562.313H441.034V397.125ZM507.442 562.313V397.151V562.313ZM505.283 397.125H509.618V562.313H505.283V397.125ZM571.526 562.313V397.151V562.313ZM569.342 397.125H573.676V562.313H569.342V397.125Z" fill="#939598"/>
<path d="M334.938 507.34L379.956 468.191C379.459 467.376 379 466.538 378.58 465.681C376.708 465.102 374.826 464.728 373.004 464.001L334.938 496.927V507.363" fill="#EE4036"/>
<path d="M500.298 478.176L545.317 434.355C544.82 433.443 544.361 432.505 543.941 431.545C542.069 430.897 540.187 430.479 538.364 429.665L500.298 466.521V478.203" fill="#EE4036"/>
<path d="M406 507.843C411.08 508.365 410.538 507.903 413.723 504.798L378.573 464.383C377.884 463.592 376.909 463.106 375.863 463.034C374.817 462.961 373.785 463.307 372.994 463.996C372.202 464.684 371.717 465.659 371.645 466.705C371.572 467.751 371.918 468.784 372.607 469.575L405.909 507.856C405.94 507.846 405.964 507.838 406 507.843ZM500.323 466.223L480.196 443.082C479.855 442.691 479.441 442.371 478.976 442.14C478.512 441.909 478.007 441.772 477.49 441.736C476.972 441.7 476.453 441.767 475.961 441.932C475.47 442.097 475.015 442.357 474.624 442.698C474.232 443.037 473.91 443.451 473.677 443.916C473.445 444.38 473.306 444.886 473.269 445.404C473.233 445.922 473.299 446.442 473.463 446.935C473.628 447.427 473.889 447.882 474.23 448.274L500.32 478.266V466.223" fill="#EE4036"/>
<path d="M413.158 505.346C411.133 507.109 408.334 507.2 406.901 505.544C405.471 503.9 405.946 501.141 407.966 499.381L473.205 442.628C475.222 440.873 478.028 440.782 479.464 442.425C480.894 444.069 480.417 446.839 478.394 448.594L413.155 505.346" fill="#EE4036"/>
<rect x="70.1875" y="364.031" width="154.438" height="22.0625" fill="#FFFEFE"/>
<path d="M179.894 546.164C179.894 527.396 166.668 522.015 152.359 518.986L144.775 517.45C133.56 515.245 132.695 511.992 132.695 507.638C132.695 501.987 137.787 498.61 146.317 498.61C156.419 498.61 159.007 503.684 160.081 507.496L160.183 507.813C161.454 511.137 164.406 513.119 168.09 513.119C169.044 513.119 169.901 512.974 170.542 512.844C174.496 512.057 177.249 508.91 177.249 505.183C177.249 504.259 177.082 503.342 176.746 502.451C174.72 495.937 169.028 485.684 153.256 483.344V472.172C153.256 462.867 138.682 462.867 138.682 472.172V483.41C121.74 486.062 115.501 497.587 115.501 507.634C115.501 525.913 128.23 531.009 140.664 533.574L148.868 535.317C160.551 537.693 162.61 540.739 162.61 546.258C162.61 553.002 156.908 557.022 147.35 557.022C134.941 557.022 132.412 551.435 130.72 545.162C129.731 541.691 126.594 539.455 122.725 539.455C121.881 539.455 121.205 539.567 120.389 539.707L120.143 539.754C116.142 540.704 113.458 543.855 113.458 547.59C113.458 548.3 113.583 548.903 113.686 549.391L113.812 549.95C115.611 556.033 119.584 569.319 139.4 572.283V583.976C139.4 588.631 143.062 591.068 146.685 591.068C150.308 591.068 153.974 588.631 153.974 583.976V572.487C169.708 570.438 179.91 560.386 179.91 546.166" fill="#35A265"/>
</g>
</g>
<defs>
<filter id="filter0_d_2197_202" x="0" y="0" width="714" height="714.001" filterUnits="userSpaceOnUse" color-interpolation-filters="sRGB">
<feFlood flood-opacity="0" result="BackgroundImageFix"/>
<feColorMatrix in="SourceAlpha" type="matrix" values="0 0 0 0 0 0 0 0 0 0 0 0 0 0 0 0 0 0 127 0" result="hardAlpha"/>
<feOffset dy="4"/>
<feGaussianBlur stdDeviation="2"/>
<feComposite in2="hardAlpha" operator="out"/>
<feColorMatrix type="matrix" values="0 0 0 0 0 0 0 0 0 0 0 0 0 0 0 0 0 0 0.25 0"/>
<feBlend mode="normal" in2="BackgroundImageFix" result="effect1_dropShadow_2197_202"/>
<feBlend mode="normal" in="SourceGraphic" in2="effect1_dropShadow_2197_202" result="shape"/>
</filter>
</defs>
</svg>
