<svg width="159" height="159" viewBox="0 0 159 159" fill="none" xmlns="http://www.w3.org/2000/svg">
<path d="M159 79.4205C159 35.5762 123.384 0 79.5 0C35.616 0 0 35.5762 0 79.4205C0 103.569 10.971 125.332 28.143 139.94C28.302 140.099 28.461 140.099 28.461 140.258C29.892 141.371 31.323 142.484 32.913 143.597C33.708 144.074 34.344 144.7 35.139 145.336C48.277 154.244 63.7859 159.004 79.659 159C95.5321 159.004 111.041 154.244 124.179 145.336C124.974 144.859 125.61 144.233 126.405 143.746C127.836 142.643 129.426 141.53 130.857 140.417C131.016 140.258 131.175 140.258 131.175 140.099C148.029 125.322 159 103.569 159 79.4205ZM79.5 148.993C64.554 148.993 50.88 144.223 39.591 136.283C39.75 135.011 40.068 133.749 40.386 132.477C41.3334 129.03 42.723 125.719 44.52 122.629C46.269 119.608 48.336 116.905 50.88 114.52C53.265 112.135 56.127 109.919 58.989 108.17C62.01 106.421 65.19 105.149 68.688 104.195C72.2132 103.244 75.849 102.767 79.5 102.774C90.3383 102.697 100.778 106.854 108.597 114.361C112.254 118.018 115.116 122.311 117.183 127.23C118.296 130.092 119.091 133.113 119.568 136.283C107.834 144.533 93.8441 148.97 79.5 148.993ZM55.173 75.4554C53.772 72.2478 53.0675 68.7794 53.106 65.2794C53.106 61.7914 53.742 58.2934 55.173 55.1134C56.604 51.9334 58.512 49.0813 60.897 46.6963C63.282 44.3113 66.144 42.4132 69.324 40.9822C72.504 39.5512 76.002 38.9152 79.5 38.9152C83.157 38.9152 86.496 39.5512 89.676 40.9822C92.856 42.4132 95.718 44.3212 98.103 46.6963C100.488 49.0813 102.396 51.9433 103.827 55.1134C105.258 58.2934 105.894 61.7914 105.894 65.2794C105.894 68.9364 105.258 72.2754 103.827 75.4455C102.446 78.5784 100.506 81.434 98.103 83.8725C95.6636 86.2723 92.8082 88.2085 89.676 89.5866C83.1056 92.2867 75.7354 92.2867 69.165 89.5866C66.0328 88.2085 63.1774 86.2723 60.738 83.8725C58.3313 81.4695 56.438 78.6025 55.173 75.4455V75.4554ZM128.949 128.184C128.949 127.866 128.79 127.707 128.79 127.389C127.226 122.414 124.921 117.704 121.953 113.417C118.982 109.098 115.331 105.289 111.141 102.138C107.941 99.7305 104.473 97.703 100.806 96.0956C102.474 94.995 104.02 93.719 105.417 92.2896C107.787 89.9493 109.869 87.3337 111.618 84.4986C115.139 78.713 116.958 72.0517 116.865 65.2794C116.914 60.2661 115.94 55.2954 114.003 50.6713C112.09 46.2157 109.337 42.1703 105.894 38.7563C102.456 35.3778 98.4099 32.6804 93.969 30.8062C89.3372 28.8723 84.3601 27.9019 79.341 27.9542C74.3213 27.9051 69.3441 28.8789 64.713 30.8162C60.2337 32.6863 56.1778 35.4409 52.788 38.9152C49.4097 42.3495 46.7122 46.3924 44.838 50.8303C42.9007 55.4544 41.9268 60.4251 41.976 65.4384C41.976 68.9364 42.453 72.2754 43.407 75.4455C44.361 78.7845 45.633 81.8055 47.382 84.6576C48.972 87.5196 51.198 90.0636 53.583 92.4486C55.014 93.8796 56.604 95.1416 58.353 96.2546C54.6745 97.9049 51.2051 99.9865 48.018 102.456C43.884 105.636 40.227 109.442 37.206 113.576C34.2074 117.845 31.9002 122.56 30.369 127.548C30.21 127.866 30.21 128.184 30.21 128.343C17.649 115.633 9.858 98.4806 9.858 79.4205C9.858 41.1412 41.181 9.84806 79.5 9.84806C117.819 9.84806 149.142 41.1412 149.142 79.4205C149.121 97.7051 141.861 115.237 128.949 128.184Z" fill="black"/>
</svg>
