<svg width="86" height="87" viewBox="0 0 86 87" fill="none" xmlns="http://www.w3.org/2000/svg">
<path d="M19.3003 35.8715C18.9552 29.4118 20.5108 23.0029 23.7705 17.4555C27.0302 11.908 31.8476 7.47109 37.6134 4.70573C43.3793 1.94038 49.8346 0.970824 56.1632 1.91967C62.4917 2.86851 68.4092 5.69314 73.1674 10.0364C77.9255 14.3796 81.3106 20.0463 82.8946 26.32C84.4786 32.5937 84.1903 39.1925 82.0661 45.282C79.942 51.3715 76.0775 56.6782 70.9613 60.531C65.845 64.3838 59.7069 66.6097 53.323 66.9272C44.7625 67.353 36.3687 64.3202 29.9882 58.4961C23.6077 52.672 19.7632 44.5337 19.3003 35.8715ZM78.4757 32.9285C78.1881 27.5454 76.3293 22.3617 73.1346 18.0328C69.9399 13.7039 65.5526 10.4242 60.5276 8.60865C55.5025 6.79306 50.0655 6.52303 44.9039 7.83271C39.7423 9.14239 35.0881 11.973 31.5298 15.9665C27.9714 19.96 25.6688 24.9371 24.913 30.2684C24.1573 35.5997 24.9824 41.0457 27.2839 45.9178C29.5855 50.7899 33.2602 54.8692 37.8434 57.6399C42.4265 60.4106 47.7122 61.7483 53.0321 61.4837C60.1659 61.1289 66.8542 57.9211 71.6258 52.566C76.3974 47.2109 78.8614 40.1471 78.4757 32.9285Z" fill="#FA6334" fill-opacity="0.7"/>
<path d="M23.5548 17.3283C20.2702 22.9181 18.7029 29.3755 19.0506 35.8839C19.517 44.6114 23.3905 52.8116 29.82 58.6804C36.2496 64.5493 44.7086 67.6059 53.3363 67.1769C59.7703 66.8569 65.9563 64.6135 71.1122 60.7309C76.268 56.8482 80.1621 51.5008 82.3023 45.3651C84.4425 39.2294 84.733 32.5807 83.137 26.2597C81.5411 19.9386 78.1304 14.2287 73.3356 9.85207C68.5409 5.47544 62.5775 2.62875 56.1994 1.67248C49.8213 0.716209 43.3154 1.69339 37.5046 4.4803C31.6938 7.26721 26.8394 11.7385 23.5548 17.3283ZM72.9336 18.1807C76.0991 22.4699 77.941 27.6066 78.226 32.9409C78.6082 40.0942 76.1665 47.0936 71.4388 52.3994C66.7113 57.7051 60.0853 60.8826 53.0188 61.2341C47.7489 61.4962 42.5127 60.1711 37.9722 57.4262C33.4316 54.6812 29.7906 50.6395 27.51 45.8117C25.2293 40.984 24.4117 35.5873 25.1606 30.3043C25.9095 25.0214 28.1912 20.0898 31.7168 16.1331C35.2423 12.1765 39.8532 9.37237 44.9663 8.07499C50.0793 6.77762 55.4653 7.04508 60.4433 8.84368C65.4214 10.6423 69.7681 13.8914 72.9336 18.1807Z" stroke="#FA6334" stroke-opacity="0.7" stroke-width="0.5"/>
<path d="M28.0744 60.3702L24.0648 56.7103L0.999945 82.5958L5.00955 86.2558L28.0744 60.3702Z" fill="#FA6334" fill-opacity="0.7"/>
<path d="M28.2591 60.5387L28.4254 60.3521L28.2407 60.1835L24.2311 56.5236L24.0465 56.3551L23.8802 56.5417L0.815301 82.4273L0.648987 82.6139L0.833631 82.7825L4.84324 86.4424L5.02788 86.611L5.1942 86.4243L28.2591 60.5387Z" stroke="#FA6334" stroke-opacity="0.7" stroke-width="0.5"/>
</svg>
