<svg width="128" height="128" viewBox="0 0 128 128" fill="none" xmlns="http://www.w3.org/2000/svg">
<path d="M64 8C33.075 8 8 33.075 8 64C8 94.925 33.075 120 64 120C94.925 120 120 94.925 120 64C120 33.075 94.925 8 64 8ZM64 110.5C38.325 110.5 17.5 89.675 17.5 64C17.5 38.325 38.325 17.5 64 17.5C89.675 17.5 110.5 38.325 110.5 64C110.5 89.675 89.675 110.5 64 110.5Z" fill="black"/>
<path d="M58 42C58 43.5913 58.6321 45.1174 59.7574 46.2426C60.8826 47.3679 62.4087 48 64 48C65.5913 48 67.1174 47.3679 68.2426 46.2426C69.3679 45.1174 70 43.5913 70 42C70 40.4087 69.3679 38.8826 68.2426 37.7574C67.1174 36.6321 65.5913 36 64 36C62.4087 36 60.8826 36.6321 59.7574 37.7574C58.6321 38.8826 58 40.4087 58 42V42ZM67 56H61C60.45 56 60 56.45 60 57V91C60 91.55 60.45 92 61 92H67C67.55 92 68 91.55 68 91V57C68 56.45 67.55 56 67 56Z" fill="black"/>
</svg>
