<svg viewBox="0 0 140 123" fill="none" xmlns="http://www.w3.org/2000/svg">
<path d="M126.875 0H13.125C5.87617 0 0 5.90016 0 13.1786V109.821C0 117.1 5.87617 123 13.125 123H126.875C134.124 123 140 117.1 140 109.821V13.1786C140 5.90016 134.124 0 126.875 0ZM125.234 109.821H14.7656C14.3305 109.821 13.9132 109.648 13.6055 109.339C13.2979 109.03 13.125 108.611 13.125 108.174V14.8259C13.125 14.389 13.2979 13.97 13.6055 13.6611C13.9132 13.3521 14.3305 13.1786 14.7656 13.1786H125.234C125.669 13.1786 126.087 13.3521 126.394 13.6611C126.702 13.97 126.875 14.389 126.875 14.8259V108.174C126.875 108.611 126.702 109.03 126.394 109.339C126.087 109.648 125.669 109.821 125.234 109.821ZM113.75 84.5625V91.1518C113.75 92.9713 112.281 94.4464 110.469 94.4464H55.7812C53.9692 94.4464 52.5 92.9713 52.5 91.1518V84.5625C52.5 82.743 53.9692 81.2679 55.7812 81.2679H110.469C112.281 81.2679 113.75 82.743 113.75 84.5625ZM113.75 58.2054V64.7946C113.75 66.6141 112.281 68.0893 110.469 68.0893H55.7812C53.9692 68.0893 52.5 66.6141 52.5 64.7946V58.2054C52.5 56.3859 53.9692 54.9107 55.7812 54.9107H110.469C112.281 54.9107 113.75 56.3859 113.75 58.2054ZM113.75 31.8482V38.4375C113.75 40.257 112.281 41.7321 110.469 41.7321H55.7812C53.9692 41.7321 52.5 40.257 52.5 38.4375V31.8482C52.5 30.0287 53.9692 28.5536 55.7812 28.5536H110.469C112.281 28.5536 113.75 30.0287 113.75 31.8482ZM44.8438 35.1429C44.8438 40.6015 40.4365 45.0268 35 45.0268C29.5635 45.0268 25.1562 40.6015 25.1562 35.1429C25.1562 29.6842 29.5635 25.2589 35 25.2589C40.4365 25.2589 44.8438 29.6842 44.8438 35.1429ZM44.8438 61.5C44.8438 66.9587 40.4365 71.3839 35 71.3839C29.5635 71.3839 25.1562 66.9587 25.1562 61.5C25.1562 56.0413 29.5635 51.6161 35 51.6161C40.4365 51.6161 44.8438 56.0413 44.8438 61.5ZM44.8438 87.8571C44.8438 93.3158 40.4365 97.7411 35 97.7411C29.5635 97.7411 25.1562 93.3158 25.1562 87.8571C25.1562 82.3985 29.5635 77.9732 35 77.9732C40.4365 77.9732 44.8438 82.3985 44.8438 87.8571Z" fill="black"/>
</svg>
