<?xml version="1.0" encoding="utf-8"?>
<!-- Generator: Adobe Illustrator 26.3.1, SVG Export Plug-In . SVG Version: 6.00 Build 0)  -->
<svg version="1.1" id="Layer_1" xmlns="http://www.w3.org/2000/svg" xmlns:xlink="http://www.w3.org/1999/xlink" x="0px" y="0px"
	 viewBox="0 0 128 128" style="enable-background:new 0 0 128 128;" xml:space="preserve">
<path style="display:none;fill:#282869;" d="M20,0h88c11,0,20,9,20,20v88c0,11-9,20-20,20H20c-11,0-20-9-20-20V20C0,9,9,0,20,0z"/>
<path style="fill:#282869;" d="M33.2,43.4H14c0-5,2.3-7.4,6.9-7.4h39.9c0,2.4-0.6,4.3-1.7,5.5c-1.2,1.3-2.9,1.9-5.1,1.9H41.7v41.9
	c0,2.2-0.7,3.8-2.2,5C38,91.5,36,92,33.2,92V43.4z"/>
<path style="fill:#35A265;" d="M68.7,39.9c0-1.2,0.4-2.1,1.2-2.8c0.8-0.7,1.9-1.1,3.2-1.1h22.7c3.6,0,6.7,0.7,9.5,2.2
	c2.8,1.4,5,3.5,6.5,6.2c1.5,2.6,2.3,5.7,2.3,9.2c0,3.5-0.8,6.6-2.3,9.3c-1.5,2.7-3.6,4.8-6.4,6.2c-2.7,1.4-5.9,2.1-9.6,2.1H77.2
	v14.1c0,2.2-0.7,3.8-2.2,5c-1.5,1.2-3.6,1.7-6.3,1.7V39.9z M95.7,63.8c3.1,0,5.5-0.9,7.2-2.7c1.7-1.8,2.6-4.4,2.6-7.6
	c0-3.1-0.9-5.6-2.7-7.4c-1.7-1.8-4.1-2.8-7.1-2.8H77.2v20.4H95.7z"/>
<g>
</g>
<g>
</g>
<g>
</g>
<g>
</g>
<g>
</g>
<g>
</g>
</svg>
