<svg width="647" height="730" viewBox="0 0 647 730" fill="none" xmlns="http://www.w3.org/2000/svg">
<path d="M107.036 172.911C99.2934 172.911 91.8677 176.42 86.3963 182.664L8.55082 271.456C3.07689 277.699 0 286.164 0 294.995C0 294.999 0 295.002 0 295.006C0.00250868 303.838 3.08065 312.309 8.55709 318.552L86.4025 407.28C91.8752 413.519 99.2934 417.023 107.03 417.024L291.919 417.08V383.783V361.562V350.486V294.995V239.504V228.431V206.207V172.909H107.036V172.911Z" fill="#4DD78A"/>
<path d="M291.918 228.431V206.207V172.909H107.036C99.2934 172.909 91.8677 176.419 86.3963 182.662L8.55082 271.456C3.07689 277.699 0 286.164 0 294.995H291.918V239.504V228.431Z" fill="#35A265"/>
<path d="M633.664 145.188L555.819 56.4597C550.346 50.2203 542.928 46.7165 535.191 46.715L350.302 46.6621V79.9595V113.257V168.748V224.238V235.311V257.536V290.833H535.184C542.927 290.833 550.352 287.324 555.824 281.08L633.669 192.287C639.142 186.045 642.219 177.577 642.219 168.749C642.219 168.745 642.219 168.742 642.219 168.738C642.219 159.903 639.141 151.433 633.664 145.188Z" fill="#35A265"/>
<path d="M633.664 145.188L555.819 56.4597C550.346 50.2203 542.928 46.7165 535.191 46.715L350.302 46.6621V79.9595V113.257V168.748H642.221C642.221 168.743 642.221 168.74 642.221 168.736C642.219 159.903 639.141 151.433 633.664 145.188Z" fill="#4DD78A"/>
<path d="M109.518 365.432C106.83 365.432 104.494 365.048 102.51 364.28C100.558 363.512 99.0703 362.488 98.0463 361.208C97.0223 359.928 96.5103 358.552 96.5103 357.08C96.5103 355.864 96.8303 354.936 97.4703 354.296C98.1103 353.624 99.0863 353.288 100.398 353.288C100.398 356.008 101.214 358.088 102.846 359.528C104.478 360.936 106.766 361.64 109.71 361.64C112.526 361.64 114.686 361.176 116.19 360.248C117.694 359.288 118.446 357.88 118.446 356.024C118.446 354.904 118.158 353.992 117.582 353.288C117.038 352.552 116.094 351.928 114.75 351.416C113.438 350.872 111.534 350.328 109.038 349.784C106.094 349.144 103.758 348.408 102.03 347.576C100.302 346.712 99.0383 345.672 98.2383 344.456C97.4383 343.24 97.0383 341.736 97.0383 339.944C97.0383 338.152 97.5343 336.584 98.5263 335.24C99.5503 333.864 100.99 332.808 102.846 332.072C104.702 331.336 106.862 330.968 109.326 330.968C111.662 330.968 113.742 331.304 115.566 331.976C117.422 332.616 118.862 333.544 119.886 334.76C120.942 335.944 121.47 337.288 121.47 338.792C121.47 339.72 121.166 340.456 120.558 341C119.982 341.512 119.07 341.768 117.822 341.768C117.47 339.336 116.606 337.56 115.23 336.44C113.886 335.32 111.918 334.76 109.326 334.76C106.83 334.76 104.91 335.208 103.566 336.104C102.222 336.968 101.55 338.2 101.55 339.8C101.55 340.92 101.79 341.848 102.27 342.584C102.782 343.288 103.63 343.896 104.814 344.408C106.03 344.92 107.726 345.416 109.902 345.896C113.166 346.6 115.726 347.384 117.582 348.248C119.47 349.112 120.83 350.168 121.662 351.416C122.494 352.664 122.91 354.2 122.91 356.024C122.91 358.936 121.694 361.24 119.262 362.936C116.83 364.6 113.582 365.432 109.518 365.432ZM137.961 365.432C135.689 365.432 133.993 364.792 132.873 363.512C131.753 362.2 131.193 360.488 131.193 358.376V344.36H126.729C126.729 343.272 126.969 342.44 127.449 341.864C127.929 341.288 128.585 341 129.417 341H131.241V336.44C131.241 335.384 131.577 334.616 132.249 334.136C132.953 333.624 133.993 333.368 135.369 333.368V341H141.753C141.753 343.24 140.745 344.36 138.729 344.36H135.417V358.232C135.417 359.512 135.641 360.424 136.089 360.968C136.569 361.48 137.417 361.736 138.633 361.736C139.753 361.736 140.809 361.448 141.801 360.872C142.217 361.288 142.425 361.848 142.425 362.552C142.425 363.32 142.025 363.992 141.225 364.568C140.425 365.144 139.337 365.432 137.961 365.432ZM155.388 365.432C153.436 365.432 151.66 365.064 150.06 364.328C148.492 363.592 147.26 362.6 146.364 361.352C145.5 360.072 145.068 358.648 145.068 357.08V349.208C145.068 347.608 145.5 346.152 146.364 344.84C147.26 343.528 148.492 342.488 150.06 341.72C151.628 340.952 153.404 340.568 155.388 340.568C157.372 340.568 159.148 340.952 160.716 341.72C162.316 342.488 163.548 343.528 164.412 344.84C165.308 346.152 165.756 347.608 165.756 349.208V357.08C165.756 358.648 165.308 360.072 164.412 361.352C163.516 362.6 162.284 363.592 160.716 364.328C159.148 365.064 157.372 365.432 155.388 365.432ZM155.388 361.832C157.308 361.832 158.828 361.384 159.948 360.488C161.1 359.56 161.676 358.36 161.676 356.888V349.352C161.676 347.816 161.1 346.568 159.948 345.608C158.828 344.648 157.308 344.168 155.388 344.168C153.5 344.168 151.98 344.648 150.828 345.608C149.676 346.568 149.1 347.816 149.1 349.352V356.888C149.1 358.36 149.66 359.56 150.78 360.488C151.932 361.384 153.468 361.832 155.388 361.832ZM180.196 365.432C178.244 365.432 176.5 365.08 174.964 364.376C173.428 363.672 172.228 362.68 171.364 361.4C170.532 360.12 170.116 358.664 170.116 357.032V349.256C170.116 347.56 170.532 346.056 171.364 344.744C172.228 343.432 173.412 342.408 174.916 341.672C176.42 340.936 178.148 340.568 180.1 340.568C181.924 340.568 183.54 340.84 184.948 341.384C186.388 341.896 187.508 342.632 188.308 343.592C189.108 344.552 189.508 345.64 189.508 346.856C189.508 347.656 189.188 348.312 188.548 348.824C187.94 349.304 187.14 349.512 186.148 349.448C186.148 347.912 185.588 346.664 184.468 345.704C183.38 344.744 181.956 344.264 180.196 344.264C178.436 344.264 177.012 344.744 175.924 345.704C174.836 346.632 174.292 347.848 174.292 349.352V356.84C174.292 358.28 174.852 359.464 175.972 360.392C177.092 361.288 178.532 361.736 180.292 361.736C182.052 361.736 183.476 361.256 184.564 360.296C185.684 359.336 186.244 358.104 186.244 356.6C187.268 356.536 188.084 356.744 188.692 357.224C189.332 357.672 189.652 358.312 189.652 359.144C189.652 360.36 189.252 361.448 188.452 362.408C187.652 363.368 186.532 364.12 185.092 364.664C183.652 365.176 182.02 365.432 180.196 365.432ZM215.127 364.376C214.871 364.696 214.551 364.952 214.167 365.144C213.783 365.336 213.351 365.432 212.871 365.432C212.359 365.432 211.911 365.336 211.527 365.144C211.143 364.952 210.791 364.6 210.471 364.088L202.839 352.136L199.287 355.304V362.408C199.287 364.424 197.911 365.432 195.159 365.432V334.424C195.159 332.12 196.551 330.968 199.335 330.968L199.287 351.032L210.903 340.616C211.831 341.48 212.295 342.216 212.295 342.824C212.295 343.272 212.183 343.64 211.959 343.928C211.767 344.184 211.383 344.568 210.807 345.08L205.431 349.832L215.127 364.376ZM227.425 365.432C225.793 365.432 224.257 365.192 222.817 364.712C221.377 364.2 220.209 363.48 219.313 362.552C218.449 361.624 218.017 360.536 218.017 359.288C218.017 357.752 218.945 356.92 220.801 356.792C221.121 358.584 221.873 359.912 223.057 360.776C224.273 361.608 225.809 362.024 227.665 362.024C229.521 362.024 230.961 361.752 231.985 361.208C233.009 360.664 233.521 359.832 233.521 358.712C233.521 357.912 233.313 357.272 232.897 356.792C232.481 356.28 231.809 355.848 230.881 355.496C229.985 355.112 228.689 354.744 226.993 354.392C224.881 353.912 223.201 353.4 221.953 352.856C220.705 352.312 219.745 351.592 219.073 350.696C218.433 349.8 218.113 348.616 218.113 347.144C218.113 345.896 218.497 344.776 219.265 343.784C220.033 342.76 221.089 341.976 222.433 341.432C223.809 340.856 225.361 340.568 227.089 340.568C228.689 340.568 230.193 340.792 231.601 341.24C233.041 341.688 234.193 342.328 235.057 343.16C235.953 343.992 236.401 344.952 236.401 346.04C236.401 346.776 236.113 347.368 235.537 347.816C234.961 348.232 234.161 348.472 233.137 348.536C233.041 347.128 232.465 346.024 231.409 345.224C230.385 344.392 228.945 343.976 227.089 343.976C225.553 343.976 224.337 344.264 223.441 344.84C222.545 345.416 222.097 346.184 222.097 347.144C222.097 348.168 222.513 348.936 223.345 349.448C224.209 349.928 225.665 350.392 227.713 350.84C231.073 351.512 233.537 352.44 235.105 353.624C236.705 354.776 237.505 356.424 237.505 358.568C237.505 360.744 236.625 362.44 234.865 363.656C233.105 364.84 230.625 365.432 227.425 365.432Z" fill="#FFFEFE"/>
<path d="M81.5381 221.453H65.9861C65.9861 216.973 68.0554 214.733 72.1941 214.733H104.706C104.706 216.952 104.173 218.637 103.106 219.789C102.082 220.899 100.546 221.453 98.4981 221.453H89.2181V254.221C89.2181 256.099 88.5568 257.549 87.2341 258.573C85.9115 259.597 84.0128 260.109 81.5381 260.109V221.453ZM118.589 233.165C116.114 233.165 114.088 233.869 112.509 235.277C110.93 236.643 110.141 238.328 110.141 240.333V255.501C110.141 257.123 109.544 258.296 108.349 259.021C107.197 259.747 105.405 260.109 102.973 260.109V232.653C102.973 228.856 105.256 226.957 109.821 226.957V230.797C109.224 231.48 108.733 232.163 108.349 232.845L108.669 233.101C111.442 229.005 114.834 226.957 118.845 226.957C120.552 226.957 121.853 227.405 122.749 228.301C123.645 229.155 124.093 230.243 124.093 231.565C124.093 232.547 123.837 233.421 123.325 234.189C122.088 233.507 120.509 233.165 118.589 233.165ZM137.785 260.109C135.523 260.109 133.475 259.683 131.641 258.829C129.806 257.976 128.355 256.739 127.289 255.117C126.222 253.496 125.689 251.597 125.689 249.421C125.689 247.203 126.243 245.283 127.353 243.661C128.505 241.997 130.062 240.739 132.025 239.885C133.987 238.989 136.185 238.541 138.617 238.541C142.499 238.541 145.763 239.864 148.409 242.509L148.729 242.189C147.961 241.421 147.342 240.867 146.873 240.525V238.733C146.873 236.856 146.233 235.384 144.953 234.317C143.673 233.208 141.881 232.653 139.577 232.653C137.529 232.653 135.737 233.059 134.201 233.869C132.665 234.637 131.427 235.789 130.489 237.325C129.635 237.027 128.91 236.557 128.313 235.917C127.758 235.277 127.481 234.595 127.481 233.869C127.481 232.632 128.057 231.48 129.209 230.413C130.361 229.347 131.897 228.515 133.817 227.917C135.779 227.277 137.891 226.957 140.153 226.957C144.505 226.957 147.875 228.003 150.265 230.093C152.697 232.141 153.913 234.957 153.913 238.541V255.117C153.913 256.867 153.379 258.147 152.313 258.957C151.246 259.725 149.539 260.109 147.193 260.109V257.357C147.961 256.589 148.473 256.035 148.729 255.693L148.409 255.437C147.043 256.973 145.507 258.147 143.801 258.957C142.137 259.725 140.131 260.109 137.785 260.109ZM139.449 254.733C141.795 254.733 143.63 254.264 144.953 253.325C146.318 252.387 147.001 251.064 147.001 249.357C147.001 247.651 146.318 246.328 144.953 245.389C143.63 244.408 141.817 243.917 139.513 243.917C137.422 243.917 135.758 244.408 134.521 245.389C133.326 246.328 132.729 247.651 132.729 249.357C132.729 251.107 133.326 252.451 134.521 253.389C135.715 254.285 137.358 254.733 139.449 254.733ZM173.373 260.109C171.026 260.109 168.914 259.64 167.037 258.701C165.202 257.72 163.751 256.376 162.685 254.669C161.661 252.92 161.149 250.936 161.149 248.717V238.285C161.149 236.067 161.703 234.104 162.813 232.397C163.922 230.691 165.437 229.368 167.357 228.429C169.319 227.448 171.538 226.957 174.013 226.957C175.719 226.957 177.426 227.32 179.133 228.045C180.839 228.728 182.29 229.688 183.485 230.925L183.677 230.605C183.421 230.264 182.973 229.816 182.333 229.261V219.213C182.333 217.592 182.93 216.355 184.125 215.501C185.319 214.605 187.133 214.157 189.565 214.157V254.925C189.565 256.461 189.031 257.72 187.965 258.701C186.898 259.64 185.213 260.109 182.909 260.109V256.589C183.463 255.907 183.869 255.331 184.125 254.861L183.869 254.605C182.503 256.397 181.01 257.763 179.389 258.701C177.81 259.64 175.805 260.109 173.373 260.109ZM175.357 253.837C177.405 253.837 179.09 253.347 180.413 252.365C181.735 251.341 182.397 250.083 182.397 248.589V238.413C182.397 236.92 181.757 235.683 180.477 234.701C179.197 233.677 177.49 233.165 175.357 233.165C173.095 233.165 171.346 233.656 170.109 234.637C168.914 235.619 168.317 236.984 168.317 238.733V248.269C168.317 250.061 168.914 251.448 170.109 252.429C171.346 253.368 173.095 253.837 175.357 253.837ZM202.526 223.309C201.118 223.309 199.945 222.883 199.006 222.029C198.067 221.133 197.598 220.024 197.598 218.701C197.598 217.379 198.067 216.291 199.006 215.437C199.945 214.584 201.118 214.157 202.526 214.157C203.934 214.157 205.107 214.584 206.046 215.437C206.985 216.291 207.454 217.379 207.454 218.701C207.454 220.024 206.985 221.133 206.046 222.029C205.107 222.883 203.934 223.309 202.526 223.309ZM198.942 231.565C198.942 229.944 199.539 228.771 200.734 228.045C201.929 227.32 203.721 226.957 206.11 226.957V255.501C206.11 257.123 205.513 258.296 204.318 259.021C203.123 259.747 201.331 260.109 198.942 260.109V231.565ZM215.536 232.653C215.536 228.856 217.818 226.957 222.384 226.957V230.861C221.872 231.416 221.381 232.077 220.912 232.845L221.296 233.101C222.533 231.224 224.154 229.731 226.16 228.621C228.208 227.512 230.448 226.957 232.88 226.957C235.098 226.957 237.04 227.448 238.704 228.429C240.368 229.368 241.648 230.691 242.544 232.397C243.482 234.104 243.952 236.003 243.952 238.093V255.501C243.952 257.123 243.354 258.296 242.16 259.021C240.965 259.747 239.173 260.109 236.784 260.109V239.053C236.784 237.304 236.25 235.896 235.184 234.829C234.16 233.72 232.645 233.165 230.64 233.165C228.421 233.165 226.544 233.869 225.008 235.277C223.472 236.643 222.704 238.328 222.704 240.333V255.501C222.704 257.123 222.106 258.296 220.912 259.021C219.76 259.747 217.968 260.109 215.536 260.109V232.653ZM264.529 272.909C262.097 272.909 259.9 272.547 257.937 271.821C256.017 271.139 254.502 270.179 253.393 268.941C252.284 267.747 251.729 266.445 251.729 265.037C251.729 262.563 253.457 261.325 256.913 261.325C257.041 263.16 257.745 264.589 259.025 265.613C260.348 266.637 262.182 267.149 264.529 267.149C267.132 267.149 268.988 266.509 270.097 265.229C271.249 263.949 271.825 262.157 271.825 259.853V257.165C272.465 256.696 272.934 256.248 273.233 255.821L272.977 255.501C271.825 256.653 270.31 257.613 268.433 258.381C266.556 259.107 264.785 259.469 263.121 259.469C260.732 259.469 258.598 259 256.721 258.061C254.844 257.08 253.35 255.736 252.241 254.029C251.174 252.323 250.641 250.36 250.641 248.141V238.349C250.641 236.216 251.196 234.275 252.305 232.525C253.457 230.776 254.972 229.411 256.849 228.429C258.726 227.448 260.753 226.957 262.929 226.957C267.196 226.957 270.673 228.771 273.361 232.397L273.681 232.141C273.169 231.459 272.742 230.925 272.401 230.541C272.401 228.152 274.641 226.957 279.121 226.957V258.893C279.121 261.624 278.502 264.056 277.265 266.189C276.028 268.323 274.3 269.965 272.081 271.117C269.862 272.312 267.345 272.909 264.529 272.909ZM264.849 253.261C266.854 253.261 268.54 252.749 269.905 251.725C271.27 250.659 271.953 249.4 271.953 247.949V238.477C271.953 236.984 271.27 235.725 269.905 234.701C268.582 233.635 266.918 233.101 264.913 233.101C262.652 233.101 260.902 233.592 259.665 234.573C258.428 235.555 257.809 236.963 257.809 238.797V247.693C257.809 249.443 258.406 250.808 259.601 251.789C260.838 252.771 262.588 253.261 264.849 253.261Z" fill="#11146F"/>
<path d="M405.099 218.253C405.099 217.272 405.462 216.44 406.187 215.757C406.955 215.075 407.894 214.733 409.003 214.733H427.051C430.038 214.733 432.683 215.352 434.987 216.589C437.291 217.784 439.083 219.469 440.363 221.645C441.643 223.821 442.283 226.339 442.283 229.197C442.283 232.141 441.665 234.723 440.427 236.941C439.19 239.117 437.419 240.803 435.115 241.997C432.811 243.192 430.123 243.789 427.051 243.789H412.779V254.221C412.779 256.141 412.118 257.613 410.795 258.637C409.515 259.619 407.617 260.109 405.099 260.109V218.253ZM427.051 237.069C429.441 237.069 431.275 236.387 432.555 235.021C433.878 233.613 434.539 231.672 434.539 229.197C434.539 226.808 433.878 224.931 432.555 223.565C431.233 222.157 429.398 221.453 427.051 221.453H412.779V237.069H427.051ZM457.341 260.109C454.611 260.109 452.136 259.619 449.917 258.637C447.741 257.613 446.013 256.227 444.733 254.477C443.496 252.728 442.877 250.744 442.877 248.525V239.053C442.877 236.792 443.496 234.744 444.733 232.909C445.971 231.075 447.677 229.624 449.853 228.557C452.072 227.491 454.568 226.957 457.341 226.957C460.115 226.957 462.589 227.491 464.765 228.557C466.984 229.624 468.712 231.075 469.949 232.909C471.187 234.744 471.805 236.792 471.805 239.053V248.525C471.805 250.744 471.165 252.728 469.885 254.477C468.648 256.227 466.92 257.613 464.701 258.637C462.525 259.619 460.072 260.109 457.341 260.109ZM457.341 253.901C459.603 253.901 461.395 253.389 462.717 252.365C464.04 251.299 464.701 249.869 464.701 248.077V239.373C464.701 237.496 464.04 235.981 462.717 234.829C461.395 233.677 459.603 233.101 457.341 233.101C455.08 233.101 453.288 233.677 451.965 234.829C450.643 235.981 449.981 237.496 449.981 239.373V248.077C449.981 249.869 450.643 251.299 451.965 252.365C453.288 253.389 455.08 253.901 457.341 253.901ZM489.331 260.109C485.448 260.109 482.248 259.363 479.731 257.869C477.256 256.376 476.019 254.392 476.019 251.917C476.019 249.613 477.64 248.397 480.883 248.269C481.267 250.317 482.205 251.875 483.699 252.941C485.192 253.965 487.005 254.477 489.139 254.477C491.443 254.477 493.235 254.179 494.515 253.581C495.795 252.941 496.435 252.003 496.435 250.765C496.435 249.571 495.88 248.632 494.771 247.949C493.704 247.224 491.635 246.499 488.563 245.773C485.533 245.091 483.144 244.365 481.395 243.597C479.645 242.829 478.323 241.848 477.427 240.653C476.573 239.459 476.147 237.88 476.147 235.917C476.147 233.272 477.277 231.117 479.539 229.453C481.843 227.789 484.915 226.957 488.755 226.957C492.467 226.957 495.581 227.64 498.099 229.005C500.616 230.371 501.875 232.184 501.875 234.445C501.875 235.555 501.448 236.387 500.595 236.941C499.784 237.496 498.525 237.795 496.819 237.837C496.136 234.211 493.555 232.397 489.075 232.397C487.325 232.397 485.853 232.717 484.659 233.357C483.507 233.997 482.931 234.829 482.931 235.853C482.931 236.92 483.443 237.752 484.467 238.349C485.533 238.904 487.304 239.437 489.779 239.949C494.472 240.931 497.885 242.253 500.019 243.917C502.152 245.581 503.219 247.864 503.219 250.765C503.219 253.624 501.981 255.907 499.507 257.613C497.032 259.277 493.64 260.109 489.331 260.109ZM521.062 260.109C517.734 260.109 515.259 259.149 513.638 257.229C512.059 255.309 511.27 252.835 511.27 249.805V232.973H504.87C504.87 231.139 505.232 229.773 505.958 228.877C506.683 227.981 507.664 227.533 508.902 227.533H511.334V221.965C511.334 220.344 511.91 219.171 513.062 218.445C514.256 217.72 516.027 217.357 518.374 217.357V227.533H526.886C526.886 229.453 526.502 230.84 525.734 231.693C524.966 232.547 523.75 232.973 522.086 232.973H518.438V249.549C518.438 251.085 518.736 252.195 519.334 252.877C519.931 253.517 520.976 253.837 522.47 253.837C523.963 253.837 525.435 253.432 526.886 252.621C527.27 252.963 527.547 253.389 527.718 253.901C527.931 254.413 528.038 254.947 528.038 255.501C528.038 256.696 527.419 257.763 526.182 258.701C524.944 259.64 523.238 260.109 521.062 260.109Z" fill="#11146F"/>
<path d="M409.827 124.311C407.139 124.311 404.739 123.815 402.627 122.823C400.515 121.799 398.867 120.391 397.683 118.599C396.531 116.775 395.955 114.711 395.955 112.407V101.655C395.955 99.3509 396.531 97.3029 397.683 95.5109C398.867 93.7189 400.499 92.3269 402.579 91.3349C404.659 90.3429 407.043 89.8469 409.731 89.8469C412.419 89.8469 414.803 90.2789 416.883 91.1429C418.963 91.9749 420.579 93.1429 421.731 94.6469C422.915 96.1509 423.507 97.8789 423.507 99.8309C423.507 100.791 423.187 101.543 422.547 102.087C421.907 102.631 421.059 102.903 420.003 102.903C419.779 102.903 419.443 102.871 418.995 102.807C419.059 102.423 419.091 101.815 419.091 100.983C419.091 99.6069 418.691 98.3749 417.891 97.2869C417.123 96.1989 416.019 95.3509 414.579 94.7429C413.171 94.1349 411.555 93.8309 409.731 93.8309C407.939 93.8309 406.339 94.1669 404.931 94.8389C403.523 95.4789 402.419 96.4069 401.619 97.6229C400.851 98.8069 400.467 100.151 400.467 101.655V112.407C400.467 113.943 400.851 115.319 401.619 116.535C402.419 117.719 403.523 118.647 404.931 119.319C406.371 119.991 408.003 120.327 409.827 120.327C411.683 120.327 413.331 120.023 414.771 119.415C416.211 118.807 417.331 117.975 418.131 116.919C418.931 115.831 419.331 114.583 419.331 113.175C419.331 112.663 419.299 112.055 419.235 111.351C419.683 111.287 420.003 111.255 420.195 111.255C421.251 111.255 422.099 111.559 422.739 112.167C423.411 112.775 423.747 113.591 423.747 114.615C423.747 116.503 423.155 118.183 421.971 119.655C420.787 121.127 419.139 122.279 417.027 123.111C414.947 123.911 412.547 124.311 409.827 124.311ZM439.664 103.143C437.872 103.143 436.384 103.687 435.2 104.775C434.016 105.831 433.424 107.127 433.424 108.663V121.239C433.424 122.295 433.072 123.079 432.368 123.591C431.696 124.071 430.656 124.311 429.248 124.311V102.999C429.248 100.631 430.592 99.4469 433.28 99.4469V102.375C432.768 102.919 432.416 103.399 432.224 103.815L432.416 104.007C434.464 100.967 437.024 99.4469 440.096 99.4469C441.248 99.4469 442.128 99.7349 442.736 100.311C443.344 100.855 443.648 101.527 443.648 102.327C443.648 102.903 443.504 103.415 443.216 103.863C442.32 103.383 441.136 103.143 439.664 103.143ZM448.896 133.863C446.912 133.863 445.872 132.711 445.776 130.407C446.736 130.535 447.424 130.599 447.84 130.599C449.248 130.599 450.368 130.183 451.2 129.351C452.064 128.519 452.944 127.079 453.84 125.031L454.8 122.871L445.344 99.7829C445.568 99.6869 445.856 99.6069 446.208 99.5429C446.592 99.4789 446.912 99.4469 447.168 99.4469C447.84 99.4789 448.448 99.6709 448.992 100.023C449.536 100.343 449.92 100.775 450.144 101.319L456.576 117.735L455.904 119.655L456.192 119.799L463.488 101.319C463.712 100.743 464.08 100.295 464.592 99.9749C465.136 99.6229 465.744 99.4469 466.416 99.4469C466.704 99.4469 467.024 99.4789 467.376 99.5429C467.76 99.6069 468.048 99.6869 468.24 99.7829L457.44 126.231C456.384 128.791 455.2 130.695 453.888 131.943C452.576 133.223 450.912 133.863 448.896 133.863ZM481.175 124.311C478.903 124.311 477.207 123.671 476.087 122.391C474.967 121.079 474.407 119.367 474.407 117.255V103.239H469.943C469.943 102.151 470.183 101.319 470.663 100.743C471.143 100.167 471.799 99.8789 472.631 99.8789H474.455V95.3189C474.455 94.2629 474.791 93.4949 475.463 93.0149C476.167 92.5029 477.207 92.2469 478.583 92.2469V99.8789H484.967C484.967 102.119 483.959 103.239 481.943 103.239H478.631V117.111C478.631 118.391 478.855 119.303 479.303 119.847C479.783 120.359 480.631 120.615 481.847 120.615C482.967 120.615 484.023 120.327 485.015 119.751C485.431 120.167 485.639 120.727 485.639 121.431C485.639 122.199 485.239 122.871 484.439 123.447C483.639 124.023 482.551 124.311 481.175 124.311ZM490.701 102.855C490.701 101.799 491.021 100.967 491.661 100.359C492.333 99.7509 493.341 99.4469 494.685 99.4469V102.135L493.725 103.383L493.869 103.575C494.861 102.295 495.997 101.287 497.277 100.551C498.557 99.8149 500.077 99.4469 501.837 99.4469C504.589 99.4469 506.813 100.215 508.509 101.751C510.205 103.255 511.053 105.271 511.053 107.799V116.007C511.053 118.535 510.173 120.551 508.413 122.055C506.653 123.559 504.365 124.311 501.549 124.311C500.045 124.311 498.653 124.007 497.373 123.399C496.125 122.759 495.021 121.927 494.061 120.903L493.917 121.143C494.141 121.463 494.477 121.815 494.925 122.199V130.647C494.925 132.823 493.517 133.911 490.701 133.911V102.855ZM500.925 120.615C502.813 120.615 504.285 120.199 505.341 119.367C506.397 118.503 506.925 117.319 506.925 115.815V107.991C506.925 106.423 506.397 105.223 505.341 104.391C504.285 103.559 502.797 103.143 500.877 103.143C499.181 103.143 497.757 103.591 496.605 104.487C495.453 105.351 494.877 106.439 494.877 107.751V116.055C494.877 117.335 495.421 118.423 496.509 119.319C497.597 120.183 499.069 120.615 500.925 120.615ZM525.696 124.311C523.744 124.311 521.968 123.943 520.368 123.207C518.8 122.471 517.568 121.479 516.672 120.231C515.808 118.951 515.376 117.527 515.376 115.959V108.087C515.376 106.487 515.808 105.031 516.672 103.719C517.568 102.407 518.8 101.367 520.368 100.599C521.936 99.8309 523.712 99.4469 525.696 99.4469C527.68 99.4469 529.456 99.8309 531.024 100.599C532.624 101.367 533.856 102.407 534.72 103.719C535.616 105.031 536.064 106.487 536.064 108.087V115.959C536.064 117.527 535.616 118.951 534.72 120.231C533.824 121.479 532.592 122.471 531.024 123.207C529.456 123.943 527.68 124.311 525.696 124.311ZM525.696 120.711C527.616 120.711 529.136 120.263 530.256 119.367C531.408 118.439 531.984 117.239 531.984 115.767V108.231C531.984 106.695 531.408 105.447 530.256 104.487C529.136 103.527 527.616 103.047 525.696 103.047C523.808 103.047 522.288 103.527 521.136 104.487C519.984 105.447 519.408 106.695 519.408 108.231V115.767C519.408 117.239 519.968 118.439 521.088 119.367C522.24 120.263 523.776 120.711 525.696 120.711Z" fill="#FFFEFE"/>
<mask id="mask0_2198_238" style="mask-type:alpha" maskUnits="userSpaceOnUse" x="291" y="2" width="60" height="701">
<path d="M350.365 246.439V225.177V214.584V108.411V76.5571V44.7023V34.0931C350.365 16.5006 337.084 2.23828 320.702 2.23828C304.319 2.23828 291.038 16.5006 291.038 34.0931V76.5489V193.324V225.178V246.441V257.033V363.207V373.804V395.062V426.917V543.695V671.114C291.038 688.706 304.319 702.968 320.702 702.968C337.084 702.968 350.365 688.706 350.365 671.114V575.55V543.693V511.838V405.663V395.067V373.809V341.954V278.29V246.439Z" fill="#5C2F0A"/>
</mask>
<g mask="url(#mask0_2198_238)">
<path d="M0 365.685V1.53613H323.5H647V365.685V729.834H323.5H0V365.685Z" fill="#794F1F"/>
<path d="M8.49148 714.568C10.6129 538.869 24.7165 363.086 13.2839 187.444C11.1651 125.491 9.09956 63.8001 8.58122 1.80579C23.5259 51.4265 13.7933 104.29 18.7618 155.405C19.526 290.565 30.0918 426.056 17.7732 560.926C14.8143 613.16 12.9182 665.487 12.936 717.839C9.56713 730.61 6.35777 720.618 8.49141 714.575L8.49148 714.568ZM52.8869 678.802C48.8689 500.047 41.4964 320.921 53.328 142.35C53.4443 95.4129 51.5598 48.3875 54.8902 1.5356C55.3961 166.327 59.0314 312.488 51.3229 468.775C59.7165 562.59 51.7004 613.6 61.8743 690.051C63.3828 721.648 46.0537 717.767 52.9076 689.228L52.9771 684.011L52.8869 678.802ZM66.1556 725.02C60.1797 472.984 61.1605 251.296 65.9217 19.3827C84.6114 13.7829 67.2861 66.3939 72.5734 82.1833C56.6366 304.583 79.7862 512.719 74.8035 719.091C73.6184 722.797 70.0984 726.974 66.1557 725.024L66.1556 725.02ZM81.377 715.421C87.1987 659.405 84.2765 603.019 78.6722 547.203C70.8296 420.026 70.2595 292.408 76.334 165.132C78.1869 116.485 76.3024 66.2102 83.3601 18.7141C90.0185 45.3554 82.1164 78.2168 82.2946 107.348C80.3355 142.64 78.8176 178.044 80.3431 213.397C87.1051 146.346 82.6119 78.3448 92.3757 11.6037C90.4722 107.193 81.4427 202.49 81.717 298.196C80.025 403.036 86.8976 507.768 97.6425 611.808C99.2598 642.93 98.2632 697.411 94.4976 713.973C92.014 664.03 98.9188 613.674 90.0347 564.157C73.2523 45.1535 74.7791 328.361 90.4657 653.378C89.9219 668.876 93.9786 717.454 81.377 715.416V715.421ZM73.9502 368.817C70.0419 371.399 78.0545 371.827 73.9502 368.817V368.817ZM116.785 726.029C122.378 615.434 120.293 504.569 124.897 393.916C95.9615 308.534 107.054 215.658 111.354 126.792C122.376 94.2977 100.817 20.7661 126.777 14.2502C132.504 71.1377 117.489 130.312 136.155 185.668C151.29 221.871 153.566 261.603 152.323 301.074C146.163 381.319 156.99 482.361 166.581 572.379C170.557 612.261 169.791 652.331 173.106 692.217C174.526 711.793 158.062 728.01 161.662 698.028C159.223 656.048 165.324 612.955 157.769 571.652C131.703 568.481 143.977 623.678 137.129 645.446C132.37 672.264 136.212 708.548 121.86 728.874L118.967 727.871L116.788 726.039L116.785 726.029ZM133.11 716.132C141.426 690.588 133.801 621.014 154.519 621.979C158.69 648.473 160.247 698.526 153.524 711.116C151.829 694.374 164.616 640.485 144.365 648.627C141.661 668.849 145.166 695.012 133.11 716.132H133.11ZM173.81 720.042C182.632 611.266 168.182 502.691 158.058 394.741C153.747 333.429 153.958 271.805 156.845 210.411C155.234 186.686 114.078 151.972 152.668 151.431C164.688 118.618 150.627 82.0735 154.167 47.6278C164.016 -7.29866 143.473 95.6786 166.795 80.4538C168.02 63.6277 174.935 1.06034 171.474 48.602C156.33 202.471 149.551 359.199 174.645 512.244C179.269 567.719 179.283 623.496 182.408 679.082C172.52 689.671 184.314 711.491 173.811 720.051L173.81 720.042ZM180.928 721.82C190.933 686.072 181.136 647.663 193.602 613.186C197.513 593.329 182.579 535.378 191.462 536.287C199.352 596.886 196.848 659.059 185.719 718.669C185.133 721.456 182.854 721.217 180.928 721.815L180.928 721.82ZM193.688 725.731C203.39 688.612 199.321 649.139 208.053 612.529C201.868 486.952 176.519 361.318 178.616 243.754C182.68 201.84 167.716 158.161 183.989 117.727C187.712 85.8179 178.261 45.6696 190.776 20.3651C209.964 -15.2652 195.705 53.2053 194.882 66.196C184.242 166.902 192.526 233.774 190.624 369.953C213.348 463.668 218.331 559.659 214.227 649.307C210.994 667.128 208.177 731.644 193.687 725.725L193.688 725.731ZM242.047 716.487C249.473 599.045 252.494 480.649 240.251 363.469C236.583 393.844 216.317 390.887 219.541 361.326C208.748 297.788 197.611 231.544 213.935 167.824C222.199 125.558 234.937 84.0388 236.923 40.5117C231.612 52.2581 218.377 106.311 226.415 66.1846C222.065 49.734 246.611 -8.17609 244.468 35.169C241.794 48.3953 232.477 100.475 241.985 91.6897C245.292 63.5253 241.061 -7.53046 282.46 13.2177C286.447 63.9349 288.267 114.889 299.95 164.243C299.544 198.899 302.617 246.25 283.91 272.325C273.494 247.174 285.287 207.474 267.472 189.306C243.855 235.405 262.022 259.282 258.402 340.473C240.116 475.968 288.772 593.518 266.045 719.87C261.085 691.612 263.824 734.78 257.877 707.532C253.895 668.036 263.751 627.912 252.019 589.043C249.583 631.423 261.585 676.344 247.918 717.478C240.712 728.483 241.875 727.377 242.047 716.477L242.047 716.487ZM244.583 720.072C240.674 722.655 248.687 723.083 244.583 720.072V720.072ZM253.468 459.319C253.852 401.841 247.737 328.44 243.739 262.915C235.723 274.856 234.437 333.469 222.584 292.376C206.052 246.398 224.825 198.023 237.29 153.974C243.454 136.088 228.124 120 229.718 146.634C219.487 194.155 208.461 243.468 216.028 292.568C208.405 323.267 242.518 340.566 242.878 309.575C251.167 340.101 246.377 373.968 250.477 405.814C252.155 442.208 252.992 478.685 251.776 515.116C253.784 496.596 252.746 477.905 253.468 459.313L253.468 459.319ZM229.089 330.689C225.537 319.85 233.906 336.563 229.089 330.689V330.689ZM271.397 716.13C261.973 699.256 288 662.326 284.426 700.12C286.692 710.882 277.724 745.928 271.397 716.13ZM288.031 727.862C292.237 676.538 278.04 626.752 270.207 576.993C262.502 471.374 256.674 364.492 270.368 259.144C278.826 266.405 276.754 328.988 288.862 300.421C287.24 272.29 317.104 268.871 307.583 300.922C314.659 425.079 311.393 549.601 316.438 673.848C308.285 549.413 313.604 424.301 303.109 300.011C285.1 290.495 291.131 362.855 275.226 324.219C259.286 379.473 266.725 438.549 266.862 495.524C271.211 571.449 293.097 645.937 288.883 722.36L288.031 727.862ZM320.344 690.177C315.011 596.937 313.043 402.618 313.992 258.362C322.865 173.608 327.631 87.8824 321.226 2.67127C336.731 14.3218 323.829 82.3377 327.981 32.5606C326.115 8.08941 332.885 6.30043 331.194 31.398C329.718 119.007 333.818 206.783 326.233 294.17C323.641 332.046 330.446 369.362 324.725 407.141C323.132 511.719 331.217 616.215 330.352 720.824C315.227 737.921 322.773 697.146 320.344 690.175L320.344 690.177ZM327.977 678.8C325.79 658.206 327.992 630.969 323.78 614.492C325.053 635.91 321.523 658.069 327.977 678.8ZM344.786 725.729C339.171 614.65 342.329 500.685 344.175 363.795C350.892 265.034 358.691 165.585 347.283 66.8499C343.723 50.6054 348.902 -16.0675 352.207 29.3339C355.237 85.3426 357.342 141.457 358.419 197.566C358.642 232.667 358.168 267.766 357.776 302.863C373.461 264.561 362.229 220.499 365.534 179.861C361.792 130.214 361.005 80.3852 356.118 30.9693C367.898 -9.05238 370.332 55.5102 370.172 69.4907C381.812 307.291 353.379 511.019 364.769 725.725C336.872 589.364 365.169 438.322 362.452 309.595C345.657 359.318 357.628 403.526 347.929 484.099C346.492 541.076 347.508 598.167 351.897 654.962C337.339 680.423 369.424 701.933 344.787 725.746L344.786 725.729ZM396.842 726.44C394.464 666.305 381.223 607.063 384.431 546.589C381.179 372.683 396.013 199.203 396.677 25.3535C409.047 6.27483 398.815 68.7668 399.747 80.6611C396.763 230.008 384.331 413.4 389.827 580.736C385.699 622.054 407.667 649.235 403.341 689.937C402.357 701.894 412.693 721.781 396.842 726.449L396.842 726.44ZM410.006 722.885C416.697 659.959 403.733 597.719 394.634 536.137C387.312 453.279 393.16 370.024 394.899 287.031C402.702 333.563 394.772 381.228 397.557 428.268C397.399 483.54 406.398 538.018 414.158 592.262C417.165 636.216 416.932 680.527 412.299 724.328L410.786 724.498L410.006 722.885ZM419.971 727.479C423.641 637.926 422.254 547.443 405.83 459.502C399.425 330.305 401.213 200.398 415.569 71.913C414.665 55.8506 412.4 2.17269 433.775 17.9976C432.197 80.7157 419.896 142.239 414.162 204.447C408.968 418.996 411.192 411.602 425.873 476.733C429.038 528.057 433.293 579.918 433.344 631.1C431.467 663.724 443.164 707.062 421.08 726.256L420.686 727.45L419.971 727.496L419.971 727.479ZM440.181 629.384C442.18 455.15 419.668 280.348 440.264 106.683C440.277 83.3053 438.655 21.2087 445.311 22.6379C439.491 180.973 431.892 339.677 442.197 497.983C444.522 574.633 446.284 651.326 445.446 728.033C431.457 696.945 445.031 662.043 440.181 629.375V629.384ZM487.285 722.885C487.177 670.944 490.086 619.025 495.236 567.423C532.112 584.304 500.206 637.218 507.26 670.162C506.681 685.533 513.482 734.269 487.285 722.891V722.885ZM515.991 722.885C518.83 704.791 522.436 644.551 522.396 692.579C522.2 703.003 520.877 713.811 515.991 722.885ZM555.87 718.619C553.509 535.896 582.206 353.002 561.033 170.606C552.894 115.955 554.223 60.6587 556.142 5.516C569.937 71.6201 557.564 143.162 567.648 162.329C577.929 308.804 570.964 455.79 569.083 602.449C562.171 641.023 566.151 692.669 556.727 723.936L555.87 718.619ZM565.327 711.509C570.53 663.986 583.935 617.054 575.494 568.902C573.205 453.471 575.517 338.013 575.931 222.583C577.695 380.093 577.657 538.057 578.944 695.311C579.147 705.49 562.202 742.243 565.327 711.52L565.327 711.509ZM575.723 532.355C571.815 534.938 579.827 535.365 575.723 532.355V532.355ZM596.714 696.62C603.469 685.371 590.057 660.334 591.702 687.182C596.819 590.648 605.968 493.153 591.149 397.12C587.216 312.978 594.401 228.759 592.934 144.487C595.825 99.2986 587.731 50.4643 599.206 7.49753C629.93 -17.6875 659.213 26.0941 641.775 57.3472C648.545 259.695 646.492 462.228 644.916 664.676C649.989 693.308 636.372 732.588 608.385 728.021C597.624 722.997 593.277 708.338 596.715 696.612L596.714 696.62ZM627.226 328.613C630.988 237.86 628.375 146.885 621.742 56.3697C605.953 91.3131 618.69 133.408 612.825 171.125C613.251 227.331 617.922 283.417 625.171 339.001C626.41 335.645 627.033 332.229 627.226 328.607V328.613ZM621.812 315.222C620.166 306.857 624.694 317.857 621.812 315.222V315.222ZM643.962 178.258C640.054 180.841 648.067 181.269 643.962 178.258V178.258ZM643.962 172.57C640.054 175.153 648.067 175.58 643.962 172.57V172.57ZM404.411 720.512C402.765 712.148 407.293 723.148 404.411 720.512V720.512ZM270.043 697.263C263.47 681.633 276.513 696.815 270.043 697.263V697.263ZM467.127 675.334C450.661 679.402 474.197 645.502 455.654 657.897C452.835 518.189 445.806 378.472 447.455 238.709C448.825 202.25 452.92 165.431 452.15 129.269C471.89 102.209 464.913 162.413 469.517 177.803C471.246 213.728 476.353 249.071 483.422 284.009C501.278 365.246 507.69 201.209 512.304 173.49C518.458 145.235 510.614 104.385 529.151 84.1192C539.33 114.828 537.296 149.724 543.312 181.99C555.531 290.324 559.7 402.014 540.389 509.254C522.352 468.746 522.089 419.092 510.907 375.062C518.773 403.7 497.623 350.273 497.312 386.366C490.221 443.952 483.576 501.666 476.473 559.291C472.019 597.779 470.791 637.139 468.403 675.456L467.128 675.33L467.127 675.334ZM460.704 552.27C456.796 554.853 464.809 555.281 460.704 552.27V552.27ZM477.091 357.615C470.926 312.058 467.283 266.075 459.611 220.778C446.79 267.111 453.874 316.797 453.934 364.537C455.737 405.709 454.407 447.191 460.147 488.038C486.546 506.997 477.858 369.547 477.092 357.613L477.091 357.615ZM540.913 428.937C553.873 334.394 545.936 237.966 530.634 144.407C505.076 184.157 519.442 235.265 512.719 280.236C515.077 330.936 520.352 382.974 540.912 428.929L540.913 428.937ZM191.968 674.275C189.992 663.377 196.529 678.513 191.968 674.275V674.275ZM435.426 654.636C437.05 635.564 437.727 664.403 435.426 654.636V654.636ZM547.555 620.849C544.389 600.411 553.001 593.976 550.302 619.819C550.751 637.683 545.414 650.169 547.555 620.849ZM521.709 644.054C515.736 626.701 524.619 587.817 523.233 628.599C523.293 633.783 523.19 639.081 521.709 644.054ZM148.99 633.744C147.401 625.097 153.022 637.806 148.99 633.744V633.744ZM352.722 626.548C352.578 615.643 354.496 632.489 352.722 626.548V626.548ZM352.82 615.883C353.775 604.326 353.775 627.439 352.82 615.883V615.883ZM169.311 613.868C167.665 605.503 172.193 616.504 169.311 613.868V613.868ZM352.769 604.511C353.464 594.712 353.464 614.309 352.769 604.511V604.511ZM7.76827 555.449C19.6475 385.851 6.26912 409.629 9.82 550.145C9.4259 562.673 7.19191 580.776 7.76827 555.449ZM292.556 566.645C292.767 539.811 277.204 470.511 293.185 468.473C299.996 500.356 305.84 532.429 292.556 566.645ZM55.0138 542.299C51.5651 507.879 59.9195 526.881 56.0142 550.018L55.0138 542.299ZM60.0885 508.287C51.4541 502.443 62.9654 498.808 60.0885 508.287V508.287ZM179.318 486.643C169.212 413.827 169.508 339.728 167.851 266.206C166.773 188.92 161.763 171.173 179.962 20.7974C187.837 38.8024 170.794 93.9252 172.777 125.433C169.691 202.898 171.065 280.582 172.209 358.057C189.783 396.327 147.083 462.793 179.318 486.629L179.318 486.643ZM51.6619 391.677C17.115 616.792 34.3878 504.233 51.6619 391.677V391.677ZM239.216 370.701C230.265 362.825 242.679 360.379 239.216 370.701V370.701ZM356.363 328.037C354.717 319.672 359.245 330.673 356.363 328.037V328.037ZM357.627 306.706C355.981 298.341 360.509 309.341 357.627 306.706V306.706ZM298.222 299.595C296.576 291.231 301.104 302.231 298.222 299.595V299.595ZM552.17 279.487C556.984 274.367 551.217 289.323 552.17 279.487V279.487ZM396.227 233.355C397.521 159.97 400.271 86.4251 409.622 13.714C419.851 53.2607 400.771 92.4561 402.601 132.411C400.228 173.27 401.226 214.413 396.127 255.043C395.65 247.817 396.27 240.586 396.227 233.356L396.227 233.355ZM645.789 221.385C644.143 213.021 648.671 224.021 645.789 221.385V221.385ZM574.471 219.486C572.386 164.364 562.338 134.345 564.789 16.2281C581.766 21.5848 568.304 72.7147 573.223 95.2362C574.39 136.62 578.705 178.152 574.471 219.492V219.486ZM571.881 85.8433C567.972 88.4263 575.985 88.8539 571.881 85.8433V85.8433ZM646.048 209.19C647.004 197.634 647.004 220.747 646.048 209.19V209.19ZM270.915 196.249C266.802 177.656 275.848 203.239 270.915 196.249V196.249ZM308.239 193.675C301.401 136.173 295.182 78.5755 289.242 20.9484C303.577 48.5226 296.365 86.5207 301.476 118.118C300.175 137.271 318.395 159.263 318.911 126.79C323.123 99.0128 314.282 42.1224 319.041 31.8877C321.041 85.3039 324.543 139.873 312.399 192.199C315.564 178.372 310.907 193.61 308.239 193.677L308.239 193.675ZM430.419 192.596C431.286 162.421 435.197 96.2774 438.22 89.332C437.515 123.896 434.367 158.331 430.419 192.596ZM202.394 184.604C203.196 167.083 215.14 127.41 209.034 168.192C208.23 174.165 206.504 180.392 202.394 184.604ZM644.439 164.397C646.058 152.308 646.372 178.233 644.439 164.397V164.397ZM309.676 149.593C305.989 142.883 316.696 152.321 309.676 149.593V149.593ZM644.755 134.533C645.116 121.228 646.009 143.229 644.755 134.533V134.533ZM138.869 125.359C130.818 66.7635 143.116 -26.3203 148.095 79.0802C146.414 94.5268 145.997 111.583 138.869 125.359ZM490.973 106.487C492.073 79.7016 472.52 12.4727 502.007 15.4207C509.629 46.4747 492.958 75.9942 490.973 106.487ZM533.307 106.21C531.661 97.8453 536.189 108.846 533.307 106.21V106.21ZM288.826 98.9801C291.382 92.7863 289.824 109.295 288.826 98.9801V98.9801ZM147.822 79.189C146.176 70.8243 150.705 81.8247 147.822 79.189V79.189ZM414.511 42.2149C412.865 33.8502 417.393 44.8506 414.511 42.2149V42.2149Z" fill="#70441D"/>
</g>
</svg>
