<svg width="92" height="93" viewBox="0 0 92 93" fill="none" xmlns="http://www.w3.org/2000/svg">
<path d="M91.7516 57.3813L91.8482 57.6665L91.954 58.1265L92 58.5866V88.5617C91.9997 89.3968 91.6964 90.2034 91.1466 90.832C90.5967 91.4605 89.8375 91.8683 89.0098 91.9796L88.5498 92.0118H3.45017C2.61644 92.0118 1.81092 91.7099 1.18258 91.1619C0.554239 90.6139 0.145589 89.8569 0.0322015 89.0309L0 88.5617V58.6602L0.00920089 58.421L0.0552031 58.0253C0.101893 57.7837 0.174378 57.5477 0.271414 57.3215L12.968 29.6327C13.2075 29.1093 13.5742 28.6541 14.0346 28.3086C14.495 27.9631 15.0345 27.7383 15.604 27.6546L16.1008 27.6224L27.7854 27.6178L24.1512 33.9201L23.843 34.5182H18.3089L8.82324 55.21H83.1262L73.8015 35.2174L77.7669 28.3308C78.0751 28.5609 78.3419 28.8507 78.5581 29.1773L78.8019 29.6143L91.7516 57.3813ZM52.2816 0.264846L52.7048 0.471857L76.5708 14.2863C78.0797 15.1604 78.6777 17.0051 78.0383 18.5784L77.8313 19.0016L64.9184 41.4093H70.1535C71.0339 41.4004 71.8844 41.7283 72.5308 42.326C73.1773 42.9237 73.5708 43.7459 73.6307 44.6243C73.6907 45.5027 73.4126 46.3707 72.8534 47.0508C72.2942 47.7308 71.4961 48.1713 70.6227 48.2821L70.1535 48.3143L60.9438 48.3097V48.3235H42.1795L42.1657 48.3097H21.8511C20.9824 48.3015 20.1488 47.966 19.5167 47.37C18.8846 46.7741 18.5005 45.9617 18.4413 45.0949C18.382 44.2282 18.6519 43.3711 19.197 42.6947C19.7421 42.0183 20.5224 41.5724 21.3819 41.4461L21.8511 41.4139L30.2373 41.4093L29.4001 40.9263C28.6803 40.5069 28.1361 39.8419 27.8674 39.0534C27.5986 38.2649 27.6234 37.4059 27.9372 36.6343L28.1396 36.211L47.9988 1.72772C48.8728 0.214244 50.7129 -0.388387 52.2816 0.255645V0.264846ZM52.2356 8.17724L35.8312 36.6711L44.0104 41.4093H56.9692L70.1489 18.5324L52.2448 8.16804L52.2356 8.17724Z" fill="#22DDAA"/>
</svg>
