<?xml version="1.0" encoding="utf-8"?>
<!-- Generator: Adobe Illustrator 26.0.2, SVG Export Plug-In . SVG Version: 6.00 Build 0)  -->
<svg version="1.0" id="Layer_1" xmlns="http://www.w3.org/2000/svg" xmlns:xlink="http://www.w3.org/1999/xlink" x="0px" y="0px"
	 viewBox="0 0 2043.7 2043.8" style="enable-background:new 0 0 2043.7 2043.8;" xml:space="preserve">
<style type="text/css">
	.st0{fill-rule:evenodd;clip-rule:evenodd;fill:#010101;stroke:#010101;stroke-width:3.3511;stroke-miterlimit:11.3386;}
</style>
<g id="layer1">
	<path id="path2996" class="st0" d="M1010.5,1.7C459.1,7.5,9.9,452.2,1.7,1006.8v32.1c9.2,550.9,454.1,995,1005,1003.2
		c563.4,8.4,1026.9-441.6,1035.3-1005S1600.3,10.2,1036.9,1.8C1028.1,1.7,1019.3,1.6,1010.5,1.7L1010.5,1.7z M925,412.9h193.7
		c5.9,0,10.7,4.8,10.7,10.7v490.7h490.7c5.9,0,10.7,4.8,10.7,10.7v193.7c0,5.9-4.8,10.8-10.7,10.8h-490.7v490.7
		c0,5.9-4.8,10.7-10.7,10.7H925c-5.9,0-10.7-4.8-10.7-10.7v-490.7H423.6c-5.9,0-10.7-4.9-10.7-10.8V925c0-5.9,4.8-10.7,10.7-10.7
		h490.7V423.6C914.3,417.7,919,412.9,925,412.9L925,412.9z"/>
</g>
</svg>
