<svg width="1244" height="301" viewBox="0 0 1244 301" fill="none" xmlns="http://www.w3.org/2000/svg">
<path opacity="0.5" d="M1084.31 205.739C1068.04 205.043 1055.75 222.261 1058.35 234H1244C1244 234 1233.61 217.913 1220.63 217.913C1207.65 217.913 1202.02 226.609 1186.88 222.261C1171.73 217.913 1171.73 194 1151.82 194C1131.92 194 1129.75 210.957 1115.9 213.565C1102.06 216.174 1104.65 206.609 1084.31 205.739Z" fill="#2C7CDB"/>
<path opacity="0.5" d="M93.5 20.5C80.8188 16.9131 85.5 0 60 0C34.5 0 47 30.5 2 37H148C148 37 148 13.5 129 13.5C110 13.5 106.181 24.0869 93.5 20.5Z" fill="#2C7CDB"/>
<path opacity="0.5" d="M63.5 287C49 282.5 49.5 265.5 31.5 265.5C13.5 265.5 0.389829 289.615 0 301H107C107 301 105.37 287 94.5 287C83.6304 287 78 291.5 63.5 287Z" fill="#2C7CDB"/>
</svg>
