<svg width="179" height="54" viewBox="0 0 179 54" fill="none" xmlns="http://www.w3.org/2000/svg">
<g clip-path="url(#clip0_342_13797)">
<path d="M172.08 53.5H6.91983C3.37505 53.5 0.5 50.6527 0.5 47.135V6.86501C0.5 3.35852 3.37561 0.5 6.91983 0.5H172.08C175.624 0.5 178.5 3.35852 178.5 6.86501V47.1468C178.5 50.6527 175.637 53.5 172.08 53.5Z" stroke="white"/>
<path d="M16.2649 22.0695C13.3638 27.0708 15.2067 34.6554 18.4169 39.2556C20.0221 41.5558 21.6391 43.62 23.8624 43.62C23.91 43.62 23.9457 43.62 23.9932 43.62C25.0395 43.5846 25.7886 43.2543 26.5257 42.9476C27.3461 42.6056 28.1903 42.2399 29.522 42.2399C30.7823 42.2399 31.5908 42.582 32.3755 42.924C33.1483 43.2543 33.933 43.5964 35.1101 43.5728C37.6189 43.5256 39.1526 41.2963 40.5081 39.3382C41.9229 37.2858 42.6363 35.2923 42.8741 34.5374L42.886 34.502C42.9336 34.3723 42.8622 34.2189 42.7314 34.16C42.7314 34.16 42.7196 34.1482 42.7077 34.1482C42.2677 33.9712 38.4036 32.2727 38.356 27.6252C38.3204 23.8507 41.2571 21.8572 41.8516 21.5033L41.8754 21.4915C41.9348 21.4562 41.9824 21.3854 41.9943 21.3146C42.0062 21.2438 41.9943 21.1613 41.9467 21.1023C39.9136 18.1534 36.8104 17.717 35.5619 17.658C35.3836 17.6344 35.1934 17.6344 35.0031 17.6344C33.5288 17.6344 32.1258 18.1888 30.9963 18.6252C30.2116 18.9319 29.5457 19.1914 29.0701 19.1914C28.547 19.1914 27.8693 18.9201 27.0846 18.6134C26.0383 18.2006 24.8374 17.7288 23.5771 17.7288C23.5414 17.7288 23.5176 17.7288 23.4939 17.7288C20.569 17.7642 17.7987 19.4273 16.2649 22.0695Z" fill="white"/>
<path d="M35.5623 9.54264C33.7907 9.61342 31.6625 10.6986 30.3903 12.173C29.3083 13.4116 28.2501 15.4876 28.5355 17.5754C28.5473 17.7052 28.6662 17.8113 28.797 17.8231C28.9159 17.8349 29.0348 17.8349 29.1656 17.8349C30.9015 17.8349 32.7682 16.8795 34.0523 15.346C35.3958 13.7301 36.0736 11.6422 35.8714 9.79035C35.8476 9.63701 35.7169 9.53085 35.5623 9.54264Z" fill="white"/>
<path d="M55.9893 12.3146H59.3541C60.2339 12.3146 61.0186 12.4915 61.7082 12.8572C62.3978 13.2228 62.921 13.7182 63.3014 14.3552C63.6819 14.9922 63.8722 15.7235 63.8722 16.5256C63.8722 17.3395 63.6819 18.059 63.3014 18.696C62.921 19.3329 62.3859 19.8401 61.7082 20.194C61.0186 20.5597 60.2339 20.7366 59.3541 20.7366H55.9893V12.3146ZM59.3065 20.2058C60.0912 20.2058 60.7808 20.0525 61.3872 19.7458C61.9817 19.4391 62.4454 19.0026 62.7783 18.4483C63.0993 17.8939 63.2658 17.2569 63.2658 16.5492C63.2658 15.8296 63.0993 15.2045 62.7783 14.6501C62.4573 14.0957 61.9936 13.6593 61.3872 13.3526C60.7927 13.0459 60.0912 12.8926 59.3065 12.8926H56.6075V20.2176H59.3065V20.2058Z" fill="white"/>
<path d="M66.6904 20.3946C66.2029 20.1233 65.8343 19.7458 65.549 19.2504C65.2755 18.7668 65.1328 18.2124 65.1328 17.599C65.1328 16.9856 65.2755 16.443 65.549 15.9476C65.8224 15.464 66.2029 15.0866 66.6904 14.8035C67.1779 14.5322 67.7129 14.3906 68.3074 14.3906C68.9019 14.3906 69.4488 14.5322 69.9244 14.8035C70.4119 15.0748 70.7804 15.4522 71.0658 15.9476C71.3393 16.4313 71.4819 16.9856 71.4819 17.599C71.4819 18.2124 71.3393 18.755 71.0658 19.2504C70.7923 19.734 70.4119 20.1115 69.9244 20.3946C69.4369 20.6659 68.9019 20.8074 68.3074 20.8074C67.7129 20.8074 67.1779 20.6659 66.6904 20.3946ZM69.6271 19.9227C70.0076 19.6986 70.3167 19.3801 70.5426 18.9791C70.7685 18.578 70.8756 18.118 70.8756 17.599C70.8756 17.08 70.7685 16.6318 70.5426 16.2189C70.3167 15.8179 70.0195 15.4994 69.6271 15.2753C69.2467 15.0512 68.8067 14.9332 68.3193 14.9332C67.8318 14.9332 67.3919 15.0512 67.0114 15.2753C66.6309 15.4994 66.3218 15.8179 66.0959 16.2189C65.87 16.62 65.763 17.08 65.763 17.599C65.763 18.118 65.87 18.5662 66.0959 18.9791C66.3218 19.3801 66.619 19.6986 67.0114 19.9227C67.3919 20.1468 67.8318 20.2648 68.3193 20.2648C68.8067 20.2648 69.2348 20.1468 69.6271 19.9227Z" fill="white"/>
<path d="M82.2537 14.4614L79.852 20.7602H79.2813L77.1412 15.2989L74.9891 20.7602H74.4303L72.0286 14.4614H72.6112L74.7275 20.0761L76.8915 14.4614H77.4146L79.5667 20.0643L81.7068 14.4614H82.2537Z" fill="white"/>
<path d="M88.6503 15.1101C89.114 15.5701 89.3399 16.2307 89.3399 17.0917V20.7601H88.7336V17.1271C88.7336 16.4194 88.5552 15.8768 88.1985 15.5111C87.8418 15.1455 87.3306 14.9567 86.6885 14.9567C85.9395 14.9567 85.3569 15.1808 84.9288 15.6173C84.5008 16.0537 84.2868 16.6553 84.2868 17.3984V20.7601H83.6804V14.4613H84.263V15.8178C84.477 15.3814 84.8099 15.0275 85.238 14.7798C85.666 14.5321 86.1892 14.4023 86.7718 14.4023C87.5565 14.4141 88.1866 14.6501 88.6503 15.1101Z" fill="white"/>
<path d="M91.8359 11.8191H92.4423V20.7601H91.8359V11.8191Z" fill="white"/>
<path d="M95.8671 20.3946C95.3796 20.1233 95.0111 19.7458 94.7257 19.2504C94.4522 18.7668 94.3096 18.2124 94.3096 17.599C94.3096 16.9856 94.4522 16.443 94.7257 15.9476C94.9992 15.464 95.3796 15.0866 95.8671 14.8035C96.3546 14.5322 96.8896 14.3906 97.4841 14.3906C98.0786 14.3906 98.6255 14.5322 99.1011 14.8035C99.5886 15.0748 99.9572 15.4522 100.243 15.9476C100.516 16.4313 100.659 16.9856 100.659 17.599C100.659 18.2124 100.516 18.755 100.243 19.2504C99.9691 19.734 99.5886 20.1115 99.1011 20.3946C98.6137 20.6659 98.0786 20.8074 97.4841 20.8074C96.8896 20.8074 96.3546 20.6659 95.8671 20.3946ZM98.8039 19.9227C99.1844 19.6986 99.4935 19.3801 99.7194 18.9791C99.9453 18.578 100.052 18.118 100.052 17.599C100.052 17.08 99.9453 16.6318 99.7194 16.2189C99.4935 15.8179 99.1963 15.4994 98.8039 15.2753C98.4234 15.0512 97.9835 14.9332 97.496 14.9332C97.0085 14.9332 96.5686 15.0512 96.1881 15.2753C95.8077 15.4994 95.4985 15.8179 95.2726 16.2189C95.0467 16.62 94.9397 17.08 94.9397 17.599C94.9397 18.118 95.0467 18.5662 95.2726 18.9791C95.4985 19.3801 95.7958 19.6986 96.1881 19.9227C96.5686 20.1468 97.0085 20.2648 97.496 20.2648C97.9835 20.2648 98.4115 20.1468 98.8039 19.9227Z" fill="white"/>
<path d="M106.474 15.0158C106.89 15.4168 107.104 15.9948 107.104 16.7733V20.7602H106.521V19.6396C106.319 20.0053 106.022 20.3002 105.629 20.5007C105.237 20.7012 104.773 20.8074 104.226 20.8074C103.525 20.8074 102.966 20.6422 102.55 20.312C102.146 19.9817 101.932 19.5452 101.932 19.0144C101.932 18.4954 102.122 18.0708 102.502 17.7405C102.883 17.4103 103.477 17.2569 104.31 17.2569H106.485V16.7497C106.485 16.1599 106.331 15.7117 106.01 15.4168C105.689 15.1101 105.225 14.9568 104.607 14.9568C104.191 14.9568 103.786 15.0276 103.394 15.1691C103.014 15.3106 102.681 15.5112 102.419 15.7471L102.11 15.3106C102.431 15.0276 102.811 14.8152 103.251 14.6501C103.691 14.4968 104.167 14.4142 104.654 14.4142C105.451 14.4142 106.057 14.6147 106.474 15.0158ZM105.665 19.9463C106.034 19.7104 106.307 19.3565 106.497 18.8965V17.7169H104.333C103.715 17.7169 103.263 17.8349 102.978 18.059C102.693 18.2831 102.562 18.5898 102.562 18.9909C102.562 19.4037 102.716 19.7222 103.025 19.9581C103.335 20.194 103.763 20.312 104.321 20.312C104.845 20.312 105.296 20.194 105.665 19.9463Z" fill="white"/>
<path d="M115.26 11.8192V20.7602H114.666V19.274C114.416 19.7694 114.059 20.1468 113.607 20.4063C113.156 20.6658 112.644 20.8074 112.062 20.8074C111.467 20.8074 110.932 20.6658 110.457 20.3945C109.981 20.1232 109.601 19.7458 109.327 19.2622C109.054 18.7785 108.923 18.2241 108.923 17.6108C108.923 16.9974 109.054 16.443 109.327 15.9476C109.601 15.464 109.969 15.0865 110.457 14.8152C110.932 14.5439 111.467 14.4142 112.062 14.4142C112.632 14.4142 113.132 14.5439 113.584 14.8152C114.035 15.0747 114.392 15.4522 114.642 15.924V11.8074H115.26V11.8192ZM113.405 19.9227C113.786 19.6986 114.095 19.3801 114.321 18.9791C114.547 18.578 114.654 18.118 114.654 17.599C114.654 17.08 114.547 16.6318 114.321 16.2189C114.095 15.8179 113.798 15.4994 113.405 15.2753C113.025 15.0511 112.585 14.9332 112.097 14.9332C111.61 14.9332 111.17 15.0511 110.79 15.2753C110.409 15.4994 110.1 15.8179 109.874 16.2189C109.648 16.62 109.541 17.08 109.541 17.599C109.541 18.118 109.648 18.5662 109.874 18.9791C110.1 19.3801 110.397 19.6986 110.79 19.9227C111.17 20.1468 111.61 20.2648 112.097 20.2648C112.585 20.2648 113.025 20.1468 113.405 19.9227Z" fill="white"/>
<path d="M121.8 20.3946C121.312 20.1233 120.944 19.7458 120.658 19.2504C120.385 18.7668 120.242 18.2124 120.242 17.599C120.242 16.9856 120.385 16.443 120.658 15.9476C120.932 15.464 121.312 15.0866 121.8 14.8035C122.287 14.5322 122.822 14.3906 123.417 14.3906C124.011 14.3906 124.558 14.5322 125.034 14.8035C125.521 15.0748 125.89 15.4522 126.175 15.9476C126.449 16.4313 126.591 16.9856 126.591 17.599C126.591 18.2124 126.449 18.755 126.175 19.2504C125.902 19.734 125.521 20.1115 125.034 20.3946C124.546 20.6659 124.011 20.8074 123.417 20.8074C122.822 20.8074 122.287 20.6659 121.8 20.3946ZM124.737 19.9227C125.117 19.6986 125.426 19.3801 125.652 18.9791C125.878 18.578 125.985 18.118 125.985 17.599C125.985 17.08 125.878 16.6318 125.652 16.2189C125.426 15.8179 125.129 15.4994 124.737 15.2753C124.356 15.0512 123.916 14.9332 123.429 14.9332C122.941 14.9332 122.501 15.0512 122.121 15.2753C121.74 15.4994 121.431 15.8179 121.205 16.2189C120.979 16.62 120.872 17.08 120.872 17.599C120.872 18.118 120.979 18.5662 121.205 18.9791C121.431 19.3801 121.728 19.6986 122.121 19.9227C122.501 20.1468 122.941 20.2648 123.429 20.2648C123.916 20.2648 124.344 20.1468 124.737 19.9227Z" fill="white"/>
<path d="M133.463 15.1101C133.927 15.5701 134.153 16.2307 134.153 17.0917V20.7601H133.546V17.1271C133.546 16.4194 133.368 15.8768 133.011 15.5111C132.655 15.1455 132.143 14.9567 131.501 14.9567C130.752 14.9567 130.17 15.1808 129.742 15.6173C129.314 16.0537 129.1 16.6553 129.1 17.3984V20.7601H128.493V14.4613H129.076V15.8178C129.29 15.3814 129.623 15.0275 130.051 14.7798C130.479 14.5321 131.002 14.4023 131.584 14.4023C132.369 14.4141 132.999 14.6501 133.463 15.1101Z" fill="white"/>
<path d="M142.927 20.3592C142.772 20.5007 142.582 20.6187 142.344 20.6895C142.118 20.7602 141.868 20.8074 141.619 20.8074C141.072 20.8074 140.644 20.6541 140.346 20.3592C140.049 20.0525 139.895 19.6397 139.895 19.0971V14.9804H138.729V14.4614H139.895V13.0931H140.501V14.4732H142.522V14.9922H140.501V19.0381C140.501 19.4509 140.596 19.7576 140.798 19.9699C141 20.1823 141.286 20.2884 141.678 20.2884C142.07 20.2884 142.403 20.1705 142.665 19.9346L142.927 20.3592Z" fill="white"/>
<path d="M149.597 15.1102C150.061 15.5702 150.286 16.2307 150.286 17.0918V20.7602H149.68V17.1272C149.68 16.4195 149.502 15.8769 149.145 15.5112C148.788 15.1456 148.277 14.9568 147.635 14.9568C146.886 14.9568 146.303 15.1809 145.875 15.6174C145.447 16.0538 145.233 16.6554 145.233 17.3985V20.7602H144.627V11.8192H145.233V15.7825C145.447 15.3461 145.78 15.0158 146.208 14.7799C146.636 14.544 147.148 14.426 147.73 14.426C148.515 14.4142 149.145 14.6501 149.597 15.1102Z" fill="white"/>
<path d="M158.169 17.7524H152.712C152.723 18.2478 152.854 18.6842 153.092 19.0617C153.33 19.4391 153.651 19.734 154.043 19.9463C154.447 20.1586 154.899 20.2648 155.399 20.2648C155.815 20.2648 156.195 20.194 156.552 20.0407C156.909 19.8873 157.194 19.675 157.432 19.3801L157.788 19.7812C157.515 20.1115 157.17 20.3592 156.754 20.5361C156.338 20.713 155.886 20.7956 155.399 20.7956C154.768 20.7956 154.198 20.6541 153.71 20.3828C153.211 20.1115 152.83 19.734 152.545 19.2504C152.26 18.7668 152.129 18.2124 152.129 17.599C152.129 16.9856 152.26 16.443 152.521 15.9476C152.783 15.464 153.151 15.0866 153.603 14.8035C154.067 14.5322 154.578 14.3906 155.161 14.3906C155.731 14.3906 156.255 14.5204 156.706 14.7917C157.158 15.063 157.527 15.4404 157.788 15.924C158.05 16.4077 158.181 16.9503 158.181 17.5636L158.169 17.7524ZM153.948 15.2399C153.591 15.4404 153.306 15.7117 153.092 16.0774C152.878 16.4313 152.759 16.8441 152.723 17.2923H157.586C157.563 16.8441 157.444 16.443 157.218 16.0892C157.004 15.7353 156.706 15.464 156.35 15.2517C155.993 15.0512 155.589 14.945 155.149 14.945C154.709 14.945 154.305 15.0512 153.948 15.2399Z" fill="white"/>
<path d="M64.9894 39.4207H57.7248L56.2861 42.7588H53.5039L60.0433 28.3329H62.7066L69.2697 42.7588H66.4399L64.9894 39.4207ZM64.0977 37.3093L61.3511 31.0105L58.6284 37.3093H64.0977Z" fill="white"/>
<path d="M79.9114 32.3316C80.7674 32.8035 81.4333 33.4522 81.9207 34.3133C82.4082 35.1626 82.646 36.1416 82.646 37.2622C82.646 38.371 82.4082 39.3618 81.9207 40.2229C81.4333 41.0839 80.7674 41.7445 79.9114 42.2163C79.0553 42.6881 78.0922 42.9122 77.0103 42.9122C75.5122 42.9122 74.3351 42.4168 73.4552 41.426V46.7576H70.8633V31.7537H73.3363V33.1927C73.7644 32.6737 74.2994 32.2845 74.9296 32.0132C75.5597 31.7537 76.2493 31.6239 77.0222 31.6239C78.0922 31.6239 79.0553 31.8598 79.9114 32.3316ZM79.0791 39.751C79.6974 39.1141 80.0065 38.2884 80.0065 37.2622C80.0065 36.236 79.6974 35.3985 79.0791 34.7733C78.4608 34.1364 77.6761 33.8297 76.7249 33.8297C76.1067 33.8297 75.5359 33.9712 75.0485 34.2543C74.5491 34.5374 74.1567 34.9384 73.8595 35.4575C73.5741 35.9765 73.4196 36.578 73.4196 37.274C73.4196 37.9581 73.5623 38.5597 73.8595 39.0905C74.1449 39.6095 74.5491 40.0105 75.0485 40.2936C75.5478 40.5767 76.1067 40.7183 76.7249 40.7183C77.6761 40.6947 78.4608 40.3762 79.0791 39.751Z" fill="white"/>
<path d="M94.1545 32.3316C95.0106 32.8035 95.6764 33.4522 96.1639 34.3133C96.6514 35.1626 96.8892 36.1416 96.8892 37.2622C96.8892 38.371 96.6514 39.3618 96.1639 40.2229C95.6764 41.0839 95.0106 41.7445 94.1545 42.2163C93.2985 42.6881 92.3354 42.9122 91.2534 42.9122C89.7553 42.9122 88.5782 42.4168 87.6984 41.426V46.7576H85.1064V31.7537H87.5795V33.1927C88.0075 32.6737 88.5426 32.2845 89.1727 32.0132C89.8029 31.7537 90.4925 31.6239 91.2653 31.6239C92.3354 31.6239 93.3104 31.8598 94.1545 32.3316ZM93.3223 39.751C93.9405 39.1141 94.2497 38.2884 94.2497 37.2622C94.2497 36.236 93.9405 35.3985 93.3223 34.7733C92.704 34.1364 91.9193 33.8297 90.9681 33.8297C90.3498 33.8297 89.7791 33.9712 89.2916 34.2543C88.7923 34.5374 88.3999 34.9384 88.1027 35.4575C87.8173 35.9765 87.6627 36.578 87.6627 37.274C87.6627 37.9581 87.8054 38.5597 88.1027 39.0905C88.388 39.6095 88.7923 40.0105 89.2916 40.2936C89.791 40.5767 90.3498 40.7183 90.9681 40.7183C91.9193 40.6947 92.704 40.3762 93.3223 39.751Z" fill="white"/>
<path d="M106.592 42.4875C105.545 42.1691 104.725 41.7562 104.107 41.2254L105.046 39.1494C105.64 39.6212 106.366 39.9987 107.234 40.2936C108.102 40.5885 108.97 40.7418 109.838 40.7418C110.92 40.7418 111.728 40.5649 112.251 40.2228C112.786 39.8807 113.048 39.4207 113.048 38.8663C113.048 38.4535 112.893 38.1114 112.596 37.8519C112.299 37.5806 111.918 37.3801 111.466 37.2267C111.015 37.0734 110.384 36.9083 109.6 36.7077C108.494 36.4482 107.59 36.1887 106.913 35.9292C106.223 35.6697 105.64 35.2569 105.153 34.7025C104.666 34.1481 104.416 33.3932 104.416 32.4495C104.416 31.6474 104.63 30.9279 105.07 30.2792C105.51 29.6304 106.164 29.1114 107.043 28.7221C107.923 28.3329 108.993 28.1442 110.277 28.1442C111.169 28.1442 112.037 28.2503 112.893 28.4744C113.749 28.6986 114.486 29.0052 115.117 29.4181L114.261 31.4941C113.618 31.1284 112.965 30.8453 112.263 30.6448C111.573 30.4561 110.896 30.3617 110.254 30.3617C109.184 30.3617 108.399 30.5387 107.876 30.8925C107.353 31.2464 107.103 31.7182 107.103 32.3198C107.103 32.7326 107.246 33.0629 107.555 33.3342C107.852 33.5937 108.232 33.806 108.684 33.9476C109.136 34.1009 109.766 34.2661 110.551 34.4666C111.633 34.7143 112.513 34.9738 113.214 35.2333C113.904 35.5046 114.498 35.9056 114.986 36.46C115.473 37.0144 115.723 37.7457 115.723 38.6894C115.723 39.4915 115.509 40.211 115.069 40.848C114.629 41.4967 113.975 42.0039 113.083 42.3932C112.192 42.7824 111.122 42.9712 109.849 42.9712C108.72 42.9594 107.638 42.806 106.592 42.4875Z" fill="white"/>
<path d="M124.818 42.1573C124.509 42.405 124.141 42.5937 123.713 42.7117C123.273 42.8296 122.821 42.9004 122.333 42.9004C121.121 42.9004 120.169 42.5819 119.504 41.9568C118.838 41.3198 118.505 40.3997 118.505 39.1966V33.9004H116.674V31.8362H118.505V29.3237H121.097V31.8362H124.069V33.9004H121.097V39.1376C121.097 39.6684 121.228 40.0813 121.489 40.3644C121.751 40.6475 122.131 40.789 122.631 40.789C123.213 40.789 123.701 40.6357 124.081 40.3408L124.818 42.1573Z" fill="white"/>
<path d="M128.54 42.1809C127.636 41.6973 126.935 41.0249 126.436 40.1756C125.924 39.3146 125.675 38.3473 125.675 37.2621C125.675 36.177 125.924 35.2097 126.436 34.3604C126.935 33.5112 127.648 32.8388 128.54 32.367C129.444 31.8834 130.454 31.6475 131.572 31.6475C132.701 31.6475 133.724 31.8834 134.628 32.367C135.531 32.8506 136.233 33.5112 136.732 34.3604C137.231 35.2097 137.493 36.177 137.493 37.2621C137.493 38.3473 137.243 39.3146 136.732 40.1756C136.221 41.0367 135.519 41.7091 134.628 42.1809C133.724 42.6645 132.713 42.9004 131.572 42.9004C130.442 42.9004 129.432 42.6527 128.54 42.1809ZM133.938 39.751C134.556 39.114 134.877 38.2884 134.877 37.2621C134.877 36.2359 134.568 35.3984 133.938 34.7733C133.32 34.1363 132.523 33.8296 131.572 33.8296C130.621 33.8296 129.836 34.1481 129.218 34.7733C128.599 35.4102 128.29 36.2359 128.29 37.2621C128.29 38.2884 128.599 39.1258 129.218 39.751C129.836 40.388 130.621 40.6946 131.572 40.6946C132.523 40.6946 133.308 40.3762 133.938 39.751Z" fill="white"/>
<path d="M146.398 31.6238V34.0773C146.172 34.0419 145.97 34.0183 145.792 34.0183C144.781 34.0183 143.996 34.3132 143.426 34.8911C142.855 35.4809 142.569 36.3184 142.569 37.4154V42.747H139.978V31.7417H142.451V33.3459C143.2 32.2018 144.519 31.6238 146.398 31.6238Z" fill="white"/>
<path d="M158.883 38.076H150.179C150.334 38.8899 150.726 39.5268 151.368 39.9987C152.01 40.4705 152.807 40.7064 153.77 40.7064C154.983 40.7064 155.994 40.3053 156.778 39.515L158.169 41.0956C157.67 41.6854 157.04 42.1337 156.279 42.4403C155.518 42.747 154.662 42.8886 153.699 42.8886C152.486 42.8886 151.404 42.6527 150.477 42.169C149.549 41.6854 148.836 41.0131 148.325 40.1638C147.813 39.3027 147.564 38.3355 147.564 37.2503C147.564 36.1769 147.813 35.2097 148.301 34.3604C148.788 33.4993 149.478 32.827 150.346 32.3551C151.214 31.8715 152.201 31.6356 153.295 31.6356C154.377 31.6356 155.34 31.8715 156.196 32.3434C157.052 32.8152 157.718 33.4875 158.193 34.3368C158.669 35.1979 158.907 36.1887 158.907 37.3093C158.918 37.498 158.907 37.7457 158.883 38.076ZM151.202 34.4194C150.631 34.903 150.275 35.5517 150.156 36.3656H156.445C156.338 35.5635 155.994 34.9266 155.423 34.4312C154.852 33.9357 154.151 33.688 153.306 33.688C152.486 33.688 151.785 33.9357 151.202 34.4194Z" fill="white"/>
</g>
<rect x="0.5" y="0.5" width="178" height="53" rx="6.5" stroke="white"/>
<defs>
<clipPath id="clip0_342_13797">
<rect width="179" height="54" rx="7" fill="white"/>
</clipPath>
</defs>
</svg>
