<svg width="56" height="66" viewBox="0 0 56 66" fill="none" xmlns="http://www.w3.org/2000/svg">
<path d="M51.125 65.375H23.375C22.1484 65.375 20.972 64.8877 20.1046 64.0204C19.2373 63.153 18.75 61.9766 18.75 60.75V53.8125H23.375V60.75H51.125V5.25H23.375V12.1875H18.75V5.25C18.75 4.02337 19.2373 2.84699 20.1046 1.97963C20.972 1.11228 22.1484 0.625 23.375 0.625H51.125C52.3516 0.625 53.528 1.11228 54.3954 1.97963C55.2627 2.84699 55.75 4.02337 55.75 5.25V60.75C55.75 61.9766 55.2627 63.153 54.3954 64.0204C53.528 64.8877 52.3516 65.375 51.125 65.375Z" fill="black"/>
<path d="M24.7394 43.6144L33.0181 35.3125H0.25V30.6875H33.0181L24.7394 22.3856L28 19.125L41.875 33L28 46.875L24.7394 43.6144Z" fill="black"/>
</svg>
