<svg width="325" height="50" viewBox="0 0 325 50" fill="none" xmlns="http://www.w3.org/2000/svg">
<path d="M0.5 8C0.5 3.85787 3.85786 0.5 8 0.5H317C321.142 0.5 324.5 3.85786 324.5 8V42C324.5 46.1421 321.142 49.5 317 49.5H8.00001C3.85787 49.5 0.5 46.1421 0.5 42V8Z" stroke="white"/>
<path d="M134.319 30.2096H136.63V35.4084C135.959 35.9435 135.166 36.3476 134.263 36.6425C133.361 36.9265 132.436 37.0685 131.478 37.0685C130.135 37.0685 128.924 36.7845 127.856 36.2056C126.777 35.6268 125.93 34.8295 125.324 33.8138C124.708 32.798 124.399 31.6403 124.399 30.3625C124.399 29.0846 124.708 27.9378 125.324 26.9112C125.941 25.8955 126.788 25.0982 127.867 24.5193C128.946 23.9405 130.168 23.6565 131.522 23.6565C132.623 23.6565 133.625 23.8422 134.528 24.2026C135.43 24.563 136.19 25.0872 136.807 25.7862L135.265 27.2825C134.263 26.2886 133.053 25.7862 131.643 25.7862C130.719 25.7862 129.893 25.9828 129.177 26.3651C128.462 26.7474 127.889 27.2935 127.482 27.9924C127.075 28.6914 126.876 29.4887 126.876 30.3734C126.876 31.2471 127.075 32.0226 127.482 32.7216C127.889 33.4206 128.451 33.9667 129.177 34.3599C129.893 34.753 130.719 34.9606 131.632 34.9606C132.656 34.9606 133.559 34.7421 134.341 34.2943V30.2096H134.319Z" fill="white"/>
<path d="M141.386 36.3586C140.572 35.9217 139.933 35.321 139.482 34.5456C139.019 33.7701 138.799 32.8854 138.799 31.9025C138.799 30.9195 139.03 30.0458 139.482 29.2703C139.944 28.4949 140.572 27.8942 141.386 27.4573C142.201 27.0204 143.115 26.802 144.128 26.802C145.151 26.802 146.076 27.0204 146.891 27.4573C147.705 27.8942 148.344 28.4949 148.795 29.2703C149.258 30.0458 149.478 30.9195 149.478 31.9025C149.478 32.8854 149.247 33.7592 148.795 34.5456C148.333 35.321 147.705 35.9326 146.891 36.3586C146.076 36.7955 145.151 37.0139 144.128 37.0139C143.115 37.0139 142.201 36.7955 141.386 36.3586ZM146.274 34.1633C146.836 33.5954 147.122 32.8418 147.122 31.9025C147.122 30.9741 146.836 30.2205 146.274 29.6417C145.713 29.0737 144.997 28.7788 144.128 28.7788C143.258 28.7788 142.553 29.0628 141.992 29.6417C141.43 30.2096 141.155 30.9632 141.155 31.9025C141.155 32.8308 141.43 33.5844 141.992 34.1633C142.553 34.7312 143.258 35.0261 144.128 35.0261C144.997 35.0152 145.702 34.7312 146.274 34.1633Z" fill="white"/>
<path d="M153.507 36.3586C152.693 35.9217 152.054 35.321 151.603 34.5456C151.14 33.7701 150.92 32.8854 150.92 31.9025C150.92 30.9195 151.151 30.0458 151.603 29.2703C152.065 28.4949 152.693 27.8942 153.507 27.4573C154.322 27.0204 155.236 26.802 156.248 26.802C157.272 26.802 158.197 27.0204 159.012 27.4573C159.826 27.8942 160.465 28.4949 160.916 29.2703C161.379 30.0458 161.599 30.9195 161.599 31.9025C161.599 32.8854 161.368 33.7592 160.916 34.5456C160.454 35.321 159.826 35.9326 159.012 36.3586C158.197 36.7955 157.272 37.0139 156.248 37.0139C155.236 37.0139 154.322 36.7955 153.507 36.3586ZM158.395 34.1633C158.957 33.5954 159.243 32.8418 159.243 31.9025C159.243 30.9741 158.957 30.2205 158.395 29.6417C157.834 29.0737 157.118 28.7788 156.248 28.7788C155.379 28.7788 154.674 29.0628 154.113 29.6417C153.551 30.2096 153.276 30.9632 153.276 31.9025C153.276 32.8308 153.551 33.5844 154.113 34.1633C154.674 34.7312 155.379 35.0261 156.248 35.0261C157.118 35.0152 157.823 34.7312 158.395 34.1633Z" fill="white"/>
<path d="M173.819 26.9221V35.3647C173.819 38.8706 172.013 40.6181 168.402 40.6181C167.434 40.6181 166.52 40.4979 165.661 40.2577C164.791 40.0174 164.087 39.6679 163.514 39.2092L164.571 37.4617C165.012 37.8221 165.562 38.1061 166.234 38.3245C166.905 38.5429 167.588 38.6522 168.27 38.6522C169.371 38.6522 170.186 38.401 170.692 37.9095C171.21 37.4071 171.463 36.6535 171.463 35.6377V35.1135C171.067 35.5504 170.571 35.878 169.999 36.0965C169.426 36.3149 168.788 36.435 168.105 36.435C167.158 36.435 166.289 36.2384 165.518 35.8343C164.747 35.4302 164.142 34.8623 163.691 34.1305C163.25 33.3988 163.019 32.5578 163.019 31.6185C163.019 30.6792 163.239 29.8383 163.691 29.1065C164.131 28.3747 164.747 27.8177 165.518 27.4246C166.289 27.0314 167.147 26.8239 168.105 26.8239C168.832 26.8239 169.492 26.944 170.087 27.1733C170.681 27.4136 171.177 27.774 171.584 28.2546V26.9331H173.819V26.9221ZM170.648 33.6609C171.221 33.1367 171.507 32.4486 171.507 31.5967C171.507 30.7666 171.221 30.0895 170.648 29.5652C170.076 29.041 169.349 28.7789 168.457 28.7789C167.555 28.7789 166.817 29.041 166.245 29.5652C165.672 30.0895 165.386 30.7666 165.386 31.5967C165.386 32.4377 165.672 33.1257 166.245 33.6609C166.817 34.1851 167.555 34.4582 168.457 34.4582C169.349 34.4582 170.087 34.1961 170.648 33.6609Z" fill="white"/>
<path d="M176.901 23.0449H179.246V36.8828H176.901V23.0449Z" fill="white"/>
<path d="M191.731 32.6452H183.859C184.002 33.377 184.355 33.9558 184.938 34.3927C185.521 34.8187 186.248 35.0371 187.107 35.0371C188.208 35.0371 189.121 34.6767 189.837 33.9558L191.092 35.3866C190.641 35.9218 190.068 36.3259 189.386 36.5989C188.692 36.872 187.921 37.0139 187.052 37.0139C185.951 37.0139 184.982 36.7955 184.134 36.3586C183.298 35.9218 182.648 35.3211 182.186 34.5456C181.723 33.7702 181.503 32.8855 181.503 31.9025C181.503 30.9305 181.723 30.0568 182.175 29.2813C182.615 28.5059 183.232 27.8942 184.024 27.4683C184.817 27.0314 185.698 26.813 186.688 26.813C187.668 26.813 188.538 27.0314 189.309 27.4574C190.079 27.8833 190.685 28.484 191.114 29.2704C191.543 30.0458 191.764 30.9414 191.764 31.9681C191.764 32.121 191.753 32.3503 191.731 32.6452ZM184.784 29.3359C184.266 29.7728 183.947 30.3626 183.837 31.0943H189.529C189.43 30.3735 189.121 29.7946 188.604 29.3468C188.087 28.8991 187.448 28.6806 186.688 28.6806C185.94 28.6806 185.301 28.8991 184.784 29.3359Z" fill="white"/>
<path d="M207.826 24.3883C208.673 24.7597 209.323 25.2948 209.774 25.9938C210.226 26.6928 210.446 27.5119 210.446 28.4731C210.446 29.4123 210.226 30.2424 209.774 30.9414C209.323 31.6404 208.673 32.1865 207.826 32.5578C206.978 32.9292 205.987 33.1148 204.842 33.1148H201.87V36.8829H199.426V23.8313H204.842C205.987 23.8313 206.978 24.017 207.826 24.3883ZM207.154 30.3953C207.705 29.9475 207.98 29.3031 207.98 28.4731C207.98 27.643 207.705 26.9986 207.154 26.5508C206.604 26.103 205.8 25.8846 204.732 25.8846H201.881V31.0725H204.732C205.8 31.0615 206.604 30.8431 207.154 30.3953Z" fill="white"/>
<path d="M212.846 23.0449H215.191V36.8828H212.846V23.0449Z" fill="white"/>
<path d="M225.506 27.8615C226.288 28.5605 226.684 29.6199 226.684 31.0397V36.872H224.471V35.6596C224.185 36.0965 223.778 36.4242 223.238 36.6535C222.71 36.8829 222.06 37.003 221.312 37.003C220.563 37.003 219.903 36.872 219.341 36.6208C218.78 36.3696 218.339 36.0091 218.031 35.5613C217.723 35.1026 217.569 34.6002 217.569 34.0214C217.569 33.1258 217.899 32.4049 218.571 31.8698C219.242 31.3237 220.299 31.0616 221.741 31.0616H224.339V30.9087C224.339 30.2097 224.13 29.6745 223.712 29.3032C223.293 28.9318 222.666 28.7461 221.84 28.7461C221.279 28.7461 220.717 28.8335 220.178 29.0083C219.627 29.183 219.176 29.4233 218.802 29.74L217.877 28.0472C218.405 27.654 219.033 27.3482 219.771 27.1297C220.508 26.9222 221.29 26.813 222.115 26.813C223.591 26.813 224.725 27.1625 225.506 27.8615ZM223.359 34.917C223.822 34.6548 224.141 34.2726 224.328 33.7702V32.6125H221.906C220.552 32.6125 219.881 33.0493 219.881 33.934C219.881 34.36 220.046 34.6876 220.387 34.9388C220.728 35.19 221.191 35.3101 221.796 35.3101C222.38 35.3101 222.908 35.1791 223.359 34.917Z" fill="white"/>
<path d="M238.893 26.9221L234.192 37.6801C233.752 38.7614 233.224 39.5259 232.596 39.9627C231.969 40.3996 231.209 40.629 230.317 40.629C229.811 40.629 229.326 40.5525 228.831 40.3887C228.347 40.2249 227.939 40.0064 227.631 39.7225L228.567 38.0077C228.787 38.2153 229.062 38.39 229.37 38.5101C229.679 38.6303 229.987 38.6958 230.295 38.6958C230.714 38.6958 231.055 38.5866 231.319 38.3791C231.583 38.1716 231.836 37.8112 232.057 37.3197L232.222 36.9265L227.84 26.933H230.284L233.444 34.2943L236.614 26.933H238.893V26.9221Z" fill="white"/>
<path d="M119.886 24.3665L113.567 20.7513L108.371 25.7317L113.116 30.2861L119.875 26.4088C120.25 26.2013 120.47 25.8081 120.47 25.3822C120.481 24.9562 120.25 24.574 119.886 24.3665Z" fill="#FFD109"/>
<path d="M112.499 20.1397L105.541 16.1532L90.3154 8.40967L107.522 24.9125L112.499 20.1397Z" fill="#06EF79"/>
<path d="M90.5685 42.8024L105.574 34.6001L112.047 30.8977L107.522 26.5508L90.5685 42.8024Z" fill="#F93646"/>
<path d="M89.303 9.07593L89.2809 42.3983L106.664 25.7317L89.303 9.07593Z" fill="#05D5FB"/>
<path d="M128.605 16.5791C128.076 16.5791 127.581 16.4699 127.119 16.2406C126.656 16.0112 126.26 15.7054 125.919 15.3122C125.577 14.9299 125.313 14.4931 125.126 14.0016C124.939 13.521 124.84 13.0186 124.84 12.4944C124.84 11.9483 124.939 11.435 125.126 10.9544C125.313 10.4738 125.577 10.037 125.919 9.66563C126.26 9.29429 126.656 8.9994 127.108 8.78097C127.57 8.56253 128.065 8.46423 128.605 8.46423C129.386 8.46423 130.025 8.62806 130.542 8.94479C131.049 9.27245 131.434 9.68747 131.687 10.2117L130.906 10.7578C130.675 10.2882 130.344 9.9496 129.937 9.72024C129.53 9.49088 129.078 9.38166 128.583 9.38166C128.175 9.38166 127.801 9.46904 127.471 9.64379C127.141 9.81854 126.854 10.0479 126.612 10.3537C126.37 10.6486 126.194 10.9872 126.062 11.3585C125.941 11.7299 125.875 12.123 125.875 12.5271C125.875 12.9531 125.941 13.3572 126.084 13.7395C126.227 14.1217 126.425 14.4494 126.678 14.7443C126.931 15.0392 127.24 15.2576 127.581 15.4214C127.922 15.5852 128.286 15.6726 128.682 15.6726C129.144 15.6726 129.585 15.5525 130.003 15.3231C130.421 15.0938 130.818 14.7333 131.181 14.2528V15.3013C130.454 16.1532 129.596 16.5791 128.605 16.5791ZM131.06 13.3026H129.32V12.5381H131.919V16.5354H131.06V13.3026Z" fill="white"/>
<path d="M138.953 15.6291V16.5356H133.471V8.51904H138.843V9.42555H134.494V12.014H138.281V12.855H134.494V15.6182H138.953V15.6291Z" fill="white"/>
<path d="M146.175 9.42555H143.39V16.5356H142.366V9.42555H139.58V8.51904H146.175V9.42555Z" fill="white"/>
<path d="M149.874 16.5247V8.51904H150.898V16.5247H149.874Z" fill="white"/>
<path d="M153.848 10.3976V16.5356H152.825V8.51904H153.683L158.615 14.7772V8.52996H159.639V16.5247H158.714L153.848 10.3976Z" fill="white"/>
<path d="M167.731 16.5793C167.158 16.5793 166.652 16.4701 166.19 16.2407C165.727 16.0114 165.331 15.7056 164.99 15.3233C164.648 14.941 164.395 14.5042 164.208 14.0127C164.021 13.5321 163.933 13.0297 163.933 12.5164C163.933 11.9812 164.032 11.4679 164.219 10.9873C164.417 10.5068 164.681 10.0699 165.023 9.68765C165.364 9.30539 165.771 9.0105 166.234 8.78115C166.696 8.56271 167.202 8.45349 167.742 8.45349C168.314 8.45349 168.821 8.57363 169.283 8.80299C169.745 9.03235 170.142 9.34908 170.472 9.74226C170.802 10.1354 171.067 10.5723 171.243 11.0529C171.43 11.5334 171.518 12.0249 171.518 12.5273C171.518 13.0625 171.419 13.5758 171.232 14.0564C171.045 14.5369 170.78 14.9738 170.428 15.3561C170.087 15.7383 169.679 16.0332 169.217 16.2517C168.777 16.481 168.27 16.5793 167.731 16.5793ZM164.968 12.5273C164.968 12.9314 165.034 13.3246 165.166 13.7069C165.298 14.0891 165.485 14.4277 165.727 14.7117C165.969 15.0066 166.267 15.2359 166.608 15.4107C166.949 15.5854 167.324 15.6728 167.742 15.6728C168.171 15.6728 168.557 15.5854 168.898 15.3998C169.239 15.2141 169.525 14.9738 169.768 14.6789C170.01 14.3731 170.186 14.0345 170.318 13.6632C170.439 13.2918 170.505 12.9096 170.505 12.5273C170.505 12.1232 170.439 11.73 170.307 11.3587C170.175 10.9873 169.988 10.6488 169.734 10.3539C169.492 10.059 169.195 9.81872 168.854 9.65489C168.512 9.49106 168.138 9.40369 167.731 9.40369C167.301 9.40369 166.916 9.49106 166.575 9.66581C166.234 9.84056 165.947 10.0808 165.705 10.3866C165.463 10.6925 165.287 11.0201 165.155 11.3915C165.034 11.7519 164.968 12.1341 164.968 12.5273Z" fill="white"/>
<path d="M173.984 10.3976V16.5356H172.96V8.51904H173.819L178.751 14.7772V8.52996H179.774V16.5247H178.839L173.984 10.3976Z" fill="white"/>
</svg>
