<svg width="231" height="20" viewBox="0 0 231 20" fill="none" xmlns="http://www.w3.org/2000/svg">
<path opacity="0.5" d="M210.809 12.8478C205.33 11.3261 204.861 6.00001 197.661 6C189.666 5.99999 177.168 15.17 177 20H231C231 20 227.713 11.3261 223.017 11.3261C218.322 11.3261 216.287 14.3695 210.809 12.8478Z" fill="#2C7CDB"/>
<path opacity="0.5" d="M10.8508 7.60869C2.52448 7.26087 0.14763 15.7246 0 20H95C95 20 90.3496 7.60869 83.7063 7.60869C77.0629 7.60869 74.1842 11.9565 66.4336 9.78259C58.683 7.60869 58.0186 1.8607e-05 47.8322 0C37.6457 -1.8607e-05 37.8671 10.6522 30.7809 11.9565C23.6946 13.2609 21.2587 8.04348 10.8508 7.60869Z" fill="#2C7CDB"/>
</svg>
