<svg width="325" height="50" viewBox="0 0 325 50" fill="none" xmlns="http://www.w3.org/2000/svg">
<path d="M0.5 8C0.5 3.85787 3.85786 0.5 8 0.5H317C321.142 0.5 324.5 3.85786 324.5 8V42C324.5 46.1421 321.142 49.5 317 49.5H8.00001C3.85787 49.5 0.5 46.1421 0.5 42V8Z" stroke="white"/>
<path d="M95.0601 20.4347C92.3739 25.0656 94.0803 32.0883 97.0527 36.3478C98.5389 38.4775 100.036 40.3888 102.095 40.3888C102.139 40.3888 102.172 40.3888 102.216 40.3888C103.185 40.3561 103.878 40.0503 104.561 39.7663C105.32 39.4496 106.102 39.111 107.335 39.111C108.502 39.111 109.251 39.4277 109.977 39.7445C110.693 40.0503 111.419 40.367 112.509 40.3452C114.832 40.3015 116.252 38.2373 117.507 36.4242C118.818 34.5238 119.478 32.6781 119.698 31.9791L119.709 31.9463C119.753 31.8262 119.687 31.6842 119.566 31.6296C119.566 31.6296 119.555 31.6186 119.544 31.6186C119.137 31.4548 115.559 29.8821 115.515 25.5789C115.482 22.0839 118.201 20.2381 118.751 19.9105L118.773 19.8996C118.829 19.8668 118.873 19.8013 118.884 19.7357C118.895 19.6702 118.884 19.5937 118.84 19.5391C116.957 16.8087 114.084 16.4046 112.928 16.35C112.763 16.3281 112.586 16.3281 112.41 16.3281C111.045 16.3281 109.746 16.8414 108.7 17.2456C107.974 17.5295 107.357 17.7698 106.917 17.7698C106.432 17.7698 105.805 17.5186 105.078 17.2346C104.109 16.8524 102.998 16.4155 101.831 16.4155C101.798 16.4155 101.776 16.4155 101.754 16.4155C99.0453 16.4483 96.4802 17.9882 95.0601 20.4347Z" fill="white"/>
<path d="M112.928 8.83579C111.288 8.90132 109.317 9.90612 108.139 11.2713C107.137 12.4181 106.158 14.3404 106.422 16.2735C106.433 16.3937 106.543 16.492 106.664 16.5029C106.774 16.5138 106.884 16.5138 107.005 16.5138C108.613 16.5138 110.341 15.6291 111.53 14.2093C112.774 12.713 113.401 10.7799 113.214 9.06515C113.192 8.92316 113.071 8.82487 112.928 8.83579Z" fill="white"/>
<path d="M131.842 11.4023H134.957C135.772 11.4023 136.499 11.5662 137.137 11.9047C137.776 12.2433 138.26 12.702 138.612 13.2918C138.965 13.8816 139.141 14.5587 139.141 15.3014C139.141 16.055 138.965 16.7213 138.612 17.311C138.26 17.9008 137.765 18.3705 137.137 18.6981C136.499 19.0367 135.772 19.2005 134.957 19.2005H131.842V11.4023ZM134.913 18.709C135.64 18.709 136.278 18.567 136.84 18.2831C137.39 17.9991 137.82 17.595 138.128 17.0817C138.425 16.5684 138.579 15.9786 138.579 15.3233C138.579 14.657 138.425 14.0782 138.128 13.5649C137.831 13.0515 137.401 12.6474 136.84 12.3635C136.289 12.0795 135.64 11.9375 134.913 11.9375H132.414V18.7199H134.913V18.709Z" fill="white"/>
<path d="M141.75 18.8838C141.299 18.6326 140.958 18.2831 140.693 17.8244C140.44 17.3766 140.308 16.8632 140.308 16.2953C140.308 15.7274 140.44 15.225 140.693 14.7663C140.947 14.3185 141.299 13.969 141.75 13.7068C142.202 13.4556 142.697 13.3246 143.247 13.3246C143.798 13.3246 144.304 13.4556 144.745 13.7068C145.196 13.958 145.537 14.3075 145.802 14.7663C146.055 15.2141 146.187 15.7274 146.187 16.2953C146.187 16.8632 146.055 17.3657 145.802 17.8244C145.548 18.2722 145.196 18.6217 144.745 18.8838C144.293 19.135 143.798 19.266 143.247 19.266C142.697 19.266 142.202 19.135 141.75 18.8838ZM144.469 18.4469C144.822 18.2394 145.108 17.9445 145.317 17.5732C145.526 17.2018 145.625 16.7759 145.625 16.2953C145.625 15.8148 145.526 15.3997 145.317 15.0175C145.108 14.6461 144.833 14.3512 144.469 14.1437C144.117 13.9362 143.71 13.827 143.258 13.827C142.807 13.827 142.4 13.9362 142.047 14.1437C141.695 14.3512 141.409 14.6461 141.2 15.0175C140.991 15.3888 140.892 15.8148 140.892 16.2953C140.892 16.7759 140.991 17.1909 141.2 17.5732C141.409 17.9445 141.684 18.2394 142.047 18.4469C142.4 18.6544 142.807 18.7636 143.258 18.7636C143.71 18.7636 144.106 18.6544 144.469 18.4469Z" fill="white"/>
<path d="M156.161 13.3901L153.937 19.2224H153.408L151.427 14.1656L149.434 19.2224H148.917L146.693 13.3901H147.232L149.192 18.5889L151.196 13.3901H151.68L153.673 18.578L155.654 13.3901H156.161Z" fill="white"/>
<path d="M162.084 13.9909C162.513 14.4168 162.722 15.0284 162.722 15.8257V19.2224H162.161V15.8585C162.161 15.2032 161.996 14.7008 161.665 14.3622C161.335 14.0236 160.862 13.8489 160.267 13.8489C159.574 13.8489 159.034 14.0564 158.638 14.4605C158.241 14.8646 158.043 15.4216 158.043 16.1097V19.2224H157.482V13.3902H158.021V14.6462C158.219 14.2421 158.528 13.9144 158.924 13.6851C159.32 13.4557 159.805 13.3356 160.344 13.3356C161.071 13.3465 161.654 13.5649 162.084 13.9909Z" fill="white"/>
<path d="M165.033 10.9436H165.595V19.2223H165.033V10.9436Z" fill="white"/>
<path d="M168.766 18.8838C168.314 18.6326 167.973 18.2831 167.709 17.8244C167.456 17.3766 167.324 16.8632 167.324 16.2953C167.324 15.7274 167.456 15.225 167.709 14.7663C167.962 14.3185 168.314 13.969 168.766 13.7068C169.217 13.4556 169.713 13.3246 170.263 13.3246C170.813 13.3246 171.32 13.4556 171.76 13.7068C172.212 13.958 172.553 14.3075 172.817 14.7663C173.07 15.2141 173.202 15.7274 173.202 16.2953C173.202 16.8632 173.07 17.3657 172.817 17.8244C172.564 18.2722 172.212 18.6217 171.76 18.8838C171.309 19.135 170.813 19.266 170.263 19.266C169.713 19.266 169.217 19.135 168.766 18.8838ZM171.485 18.4469C171.837 18.2394 172.123 17.9445 172.333 17.5732C172.542 17.2018 172.641 16.7759 172.641 16.2953C172.641 15.8148 172.542 15.3997 172.333 15.0175C172.123 14.6461 171.848 14.3512 171.485 14.1437C171.133 13.9362 170.725 13.827 170.274 13.827C169.823 13.827 169.415 13.9362 169.063 14.1437C168.711 14.3512 168.424 14.6461 168.215 15.0175C168.006 15.3888 167.907 15.8148 167.907 16.2953C167.907 16.7759 168.006 17.1909 168.215 17.5732C168.424 17.9445 168.7 18.2394 169.063 18.4469C169.415 18.6544 169.823 18.7636 170.274 18.7636C170.725 18.7636 171.122 18.6544 171.485 18.4469Z" fill="white"/>
<path d="M178.586 13.9034C178.972 14.2748 179.17 14.81 179.17 15.5308V19.2224H178.631V18.1848C178.443 18.5234 178.168 18.7964 177.805 18.9821C177.442 19.1678 177.012 19.2661 176.506 19.2661C175.856 19.2661 175.339 19.1131 174.954 18.8073C174.579 18.5015 174.381 18.0974 174.381 17.6059C174.381 17.1254 174.557 16.7322 174.909 16.4264C175.262 16.1206 175.812 15.9786 176.583 15.9786H178.597V15.509C178.597 14.9629 178.454 14.5478 178.157 14.2748C177.86 13.9908 177.431 13.8488 176.858 13.8488C176.473 13.8488 176.098 13.9144 175.735 14.0454C175.383 14.1765 175.075 14.3622 174.832 14.5806L174.546 14.1765C174.843 13.9144 175.196 13.7178 175.603 13.5649C176.01 13.4229 176.451 13.3464 176.902 13.3464C177.64 13.3464 178.201 13.5321 178.586 13.9034ZM177.838 18.4688C178.179 18.2503 178.432 17.9227 178.609 17.4967V16.4045H176.605C176.032 16.4045 175.614 16.5138 175.35 16.7213C175.086 16.9288 174.965 17.2128 174.965 17.5841C174.965 17.9664 175.108 18.2612 175.394 18.4797C175.68 18.6981 176.076 18.8073 176.594 18.8073C177.078 18.8073 177.497 18.6981 177.838 18.4688Z" fill="white"/>
<path d="M186.722 10.9437V19.2224H186.172V17.8462C185.941 18.305 185.61 18.6545 185.192 18.8947C184.774 19.135 184.3 19.2661 183.761 19.2661C183.21 19.2661 182.715 19.135 182.275 18.8838C181.834 18.6326 181.482 18.2831 181.229 17.8353C180.975 17.3875 180.854 16.8742 180.854 16.3063C180.854 15.7383 180.975 15.225 181.229 14.7663C181.482 14.3185 181.823 13.969 182.275 13.7178C182.715 13.4666 183.21 13.3465 183.761 13.3465C184.289 13.3465 184.752 13.4666 185.17 13.7178C185.588 13.9581 185.919 14.3076 186.15 14.7444V10.9327H186.722V10.9437ZM185.005 18.4469C185.357 18.2394 185.643 17.9445 185.852 17.5732C186.062 17.2019 186.161 16.7759 186.161 16.2953C186.161 15.8148 186.062 15.3998 185.852 15.0175C185.643 14.6462 185.368 14.3513 185.005 14.1437C184.652 13.9362 184.245 13.827 183.794 13.827C183.342 13.827 182.935 13.9362 182.583 14.1437C182.23 14.3513 181.944 14.6462 181.735 15.0175C181.526 15.3888 181.427 15.8148 181.427 16.2953C181.427 16.7759 181.526 17.1909 181.735 17.5732C181.944 17.9445 182.219 18.2394 182.583 18.4469C182.935 18.6545 183.342 18.7637 183.794 18.7637C184.245 18.7637 184.652 18.6545 185.005 18.4469Z" fill="white"/>
<path d="M192.777 18.8838C192.326 18.6326 191.985 18.2831 191.721 17.8244C191.467 17.3766 191.335 16.8632 191.335 16.2953C191.335 15.7274 191.467 15.225 191.721 14.7663C191.974 14.3185 192.326 13.969 192.777 13.7068C193.229 13.4556 193.724 13.3246 194.275 13.3246C194.825 13.3246 195.332 13.4556 195.772 13.7068C196.223 13.958 196.565 14.3075 196.829 14.7663C197.082 15.2141 197.214 15.7274 197.214 16.2953C197.214 16.8632 197.082 17.3657 196.829 17.8244C196.576 18.2722 196.223 18.6217 195.772 18.8838C195.321 19.135 194.825 19.266 194.275 19.266C193.724 19.266 193.229 19.135 192.777 18.8838ZM195.497 18.4469C195.849 18.2394 196.135 17.9445 196.344 17.5732C196.554 17.2018 196.653 16.7759 196.653 16.2953C196.653 15.8148 196.554 15.3997 196.344 15.0175C196.135 14.6461 195.86 14.3512 195.497 14.1437C195.144 13.9362 194.737 13.827 194.286 13.827C193.834 13.827 193.427 13.9362 193.075 14.1437C192.722 14.3512 192.436 14.6461 192.227 15.0175C192.018 15.3888 191.919 15.8148 191.919 16.2953C191.919 16.7759 192.018 17.1909 192.227 17.5732C192.436 17.9445 192.711 18.2394 193.075 18.4469C193.427 18.6544 193.834 18.7636 194.286 18.7636C194.737 18.7636 195.133 18.6544 195.497 18.4469Z" fill="white"/>
<path d="M203.577 13.9908C204.006 14.4167 204.215 15.0283 204.215 15.8256V19.2223H203.654V15.8584C203.654 15.2031 203.489 14.7007 203.158 14.3621C202.828 14.0235 202.355 13.8488 201.76 13.8488C201.067 13.8488 200.527 14.0563 200.131 14.4604C199.735 14.8645 199.537 15.4215 199.537 16.1096V19.2223H198.975V13.3901H199.514V14.6461C199.713 14.242 200.021 13.9143 200.417 13.6849C200.814 13.4556 201.298 13.3354 201.837 13.3354C202.564 13.3464 203.147 13.5648 203.577 13.9908Z" fill="white"/>
<path d="M212.339 18.8511C212.196 18.9822 212.02 19.0914 211.8 19.1569C211.591 19.2225 211.359 19.2661 211.128 19.2661C210.622 19.2661 210.226 19.1242 209.95 18.8511C209.675 18.5672 209.532 18.1849 209.532 17.6825V13.8708H208.453V13.3902H209.532V12.1233H210.093V13.4011H211.965V13.8817H210.093V17.6279C210.093 18.0101 210.182 18.2941 210.369 18.4907C210.556 18.6873 210.82 18.7856 211.183 18.7856C211.547 18.7856 211.855 18.6764 212.097 18.4579L212.339 18.8511Z" fill="white"/>
<path d="M218.516 13.9909C218.945 14.4169 219.154 15.0285 219.154 15.8258V19.2225H218.593V15.8585C218.593 15.2032 218.427 14.7008 218.097 14.3622C217.767 14.0237 217.294 13.8489 216.699 13.8489C216.005 13.8489 215.466 14.0564 215.07 14.4605C214.673 14.8647 214.475 15.4217 214.475 16.1097V19.2225H213.914V10.9437H214.475V14.6135C214.673 14.2093 214.982 13.9035 215.378 13.6851C215.774 13.4667 216.248 13.3574 216.787 13.3574C217.514 13.3465 218.097 13.565 218.516 13.9909Z" fill="white"/>
<path d="M226.453 16.4373H221.399C221.41 16.896 221.532 17.3001 221.752 17.6496C221.972 17.9991 222.269 18.2722 222.632 18.4688C223.007 18.6653 223.425 18.7636 223.887 18.7636C224.273 18.7636 224.625 18.6981 224.955 18.5561C225.286 18.4141 225.55 18.2176 225.77 17.9445L226.1 18.3158C225.847 18.6217 225.528 18.851 225.142 19.0148C224.757 19.1787 224.339 19.2551 223.887 19.2551C223.304 19.2551 222.776 19.1241 222.324 18.8729C221.862 18.6217 221.51 18.2722 221.245 17.8244C220.981 17.3766 220.86 16.8632 220.86 16.2953C220.86 15.7274 220.981 15.225 221.223 14.7663C221.465 14.3185 221.807 13.969 222.225 13.7068C222.654 13.4556 223.128 13.3246 223.667 13.3246C224.196 13.3246 224.68 13.4447 225.098 13.6959C225.517 13.9471 225.858 14.2966 226.1 14.7444C226.342 15.1922 226.464 15.6946 226.464 16.2625L226.453 16.4373ZM222.544 14.111C222.214 14.2966 221.95 14.5478 221.752 14.8864C221.554 15.2141 221.443 15.5963 221.41 16.0113H225.913C225.891 15.5963 225.781 15.225 225.572 14.8973C225.374 14.5697 225.098 14.3185 224.768 14.1219C224.438 13.9362 224.064 13.8379 223.656 13.8379C223.249 13.8379 222.875 13.9362 222.544 14.111Z" fill="white"/>
<path d="M140.175 36.5007H133.449L132.117 39.5916H129.541L135.595 26.2343H138.062L144.138 39.5916H141.518L140.175 36.5007ZM139.35 34.5457L136.806 28.7135L134.285 34.5457H139.35Z" fill="white"/>
<path d="M153.992 29.9367C154.785 30.3736 155.401 30.9742 155.852 31.7715C156.304 32.5579 156.524 33.4644 156.524 34.502C156.524 35.5286 156.304 36.4461 155.852 37.2434C155.401 38.0407 154.785 38.6523 153.992 39.0891C153.199 39.526 152.307 39.7335 151.306 39.7335C149.919 39.7335 148.829 39.2748 148.014 38.3574V43.294H145.614V29.4015H147.904V30.734C148.3 30.2534 148.796 29.893 149.379 29.6418C149.963 29.4015 150.601 29.2814 151.317 29.2814C152.307 29.2814 153.199 29.4998 153.992 29.9367ZM153.221 36.8065C153.794 36.2167 154.08 35.4522 154.08 34.502C154.08 33.5518 153.794 32.7763 153.221 32.1975C152.649 31.6077 151.922 31.3237 151.041 31.3237C150.469 31.3237 149.941 31.4548 149.489 31.7169C149.027 31.9791 148.664 32.3504 148.388 32.831C148.124 33.3115 147.981 33.8685 147.981 34.5129C147.981 35.1464 148.113 35.7034 148.388 36.1949C148.653 36.6754 149.027 37.0468 149.489 37.3089C149.952 37.571 150.469 37.7021 151.041 37.7021C151.922 37.6802 152.649 37.3853 153.221 36.8065Z" fill="white"/>
<path d="M167.18 29.9367C167.973 30.3736 168.589 30.9742 169.041 31.7715C169.492 32.5579 169.712 33.4644 169.712 34.502C169.712 35.5286 169.492 36.4461 169.041 37.2434C168.589 38.0407 167.973 38.6523 167.18 39.0891C166.387 39.526 165.496 39.7335 164.494 39.7335C163.107 39.7335 162.017 39.2748 161.202 38.3574V43.294H158.802V29.4015H161.092V30.734C161.488 30.2534 161.984 29.893 162.567 29.6418C163.151 29.4015 163.789 29.2814 164.505 29.2814C165.496 29.2814 166.398 29.4998 167.18 29.9367ZM166.409 36.8065C166.982 36.2167 167.268 35.4522 167.268 34.502C167.268 33.5518 166.982 32.7763 166.409 32.1975C165.837 31.6077 165.11 31.3237 164.23 31.3237C163.657 31.3237 163.129 31.4548 162.677 31.7169C162.215 31.9791 161.852 32.3504 161.576 32.831C161.312 33.3115 161.169 33.8685 161.169 34.5129C161.169 35.1464 161.301 35.7034 161.576 36.1949C161.841 36.6754 162.215 37.0468 162.677 37.3089C163.14 37.571 163.657 37.7021 164.23 37.7021C165.11 37.6802 165.837 37.3853 166.409 36.8065Z" fill="white"/>
<path d="M178.696 39.3404C177.727 39.0455 176.967 38.6632 176.395 38.1717L177.265 36.2495C177.815 36.6864 178.487 37.0359 179.29 37.3089C180.094 37.5819 180.898 37.7239 181.701 37.7239C182.703 37.7239 183.452 37.5601 183.936 37.2434C184.431 36.9266 184.674 36.5007 184.674 35.9874C184.674 35.6051 184.531 35.2884 184.255 35.0481C183.98 34.7969 183.628 34.6112 183.209 34.4692C182.791 34.3273 182.208 34.1743 181.481 33.9887C180.457 33.7484 179.621 33.5081 178.993 33.2678C178.355 33.0276 177.815 32.6453 177.364 32.132C176.912 31.6186 176.681 30.9196 176.681 30.0459C176.681 29.3032 176.879 28.637 177.287 28.0363C177.694 27.4356 178.299 26.955 179.114 26.5946C179.929 26.2342 180.92 26.0594 182.109 26.0594C182.934 26.0594 183.738 26.1577 184.531 26.3653C185.323 26.5728 186.006 26.8567 186.589 27.239L185.797 29.1612C185.202 28.8227 184.597 28.5605 183.947 28.3749C183.309 28.2001 182.681 28.1127 182.087 28.1127C181.096 28.1127 180.369 28.2766 179.885 28.6042C179.4 28.9319 179.169 29.3688 179.169 29.9258C179.169 30.308 179.301 30.6138 179.588 30.865C179.863 31.1053 180.215 31.3019 180.633 31.433C181.052 31.575 181.635 31.7279 182.362 31.9135C183.364 32.1429 184.178 32.3832 184.828 32.6235C185.466 32.8747 186.017 33.246 186.468 33.7593C186.92 34.2726 187.151 34.9498 187.151 35.8235C187.151 36.5662 186.953 37.2324 186.545 37.8222C186.138 38.4229 185.532 38.8926 184.707 39.253C183.881 39.6134 182.89 39.7881 181.712 39.7881C180.666 39.7772 179.665 39.6352 178.696 39.3404Z" fill="white"/>
<path d="M195.572 39.0345C195.286 39.2639 194.945 39.4386 194.549 39.5479C194.141 39.6571 193.723 39.7226 193.271 39.7226C192.149 39.7226 191.268 39.4277 190.651 38.8489C190.035 38.2591 189.727 37.4072 189.727 36.2932V31.3893H188.031V29.478H189.727V27.1516H192.127V29.478H194.879V31.3893H192.127V36.2385C192.127 36.73 192.248 37.1123 192.49 37.3744C192.732 37.6365 193.084 37.7676 193.547 37.7676C194.086 37.7676 194.538 37.6256 194.89 37.3526L195.572 39.0345Z" fill="white"/>
<path d="M199.018 39.0564C198.182 38.6086 197.532 37.9861 197.07 37.1997C196.596 36.4024 196.365 35.5068 196.365 34.502C196.365 33.4972 196.596 32.6016 197.07 31.8152C197.532 31.0289 198.193 30.4063 199.018 29.9695C199.855 29.5217 200.791 29.3032 201.826 29.3032C202.872 29.3032 203.818 29.5217 204.655 29.9695C205.492 30.4172 206.141 31.0289 206.604 31.8152C207.066 32.6016 207.308 33.4972 207.308 34.502C207.308 35.5068 207.077 36.4024 206.604 37.1997C206.13 37.997 205.481 38.6195 204.655 39.0564C203.818 39.5042 202.883 39.7226 201.826 39.7226C200.78 39.7226 199.844 39.4933 199.018 39.0564ZM204.017 36.8065C204.589 36.2167 204.886 35.4522 204.886 34.502C204.886 33.5518 204.6 32.7764 204.017 32.1975C203.444 31.6077 202.706 31.3238 201.826 31.3238C200.945 31.3238 200.218 31.6186 199.646 32.1975C199.073 32.7873 198.787 33.5518 198.787 34.502C198.787 35.4522 199.073 36.2276 199.646 36.8065C200.218 37.3963 200.945 37.6802 201.826 37.6802C202.706 37.6802 203.433 37.3854 204.017 36.8065Z" fill="white"/>
<path d="M215.554 29.2814V31.5531C215.344 31.5203 215.157 31.4985 214.992 31.4985C214.056 31.4985 213.33 31.7715 212.801 32.3067C212.273 32.8528 212.009 33.6282 212.009 34.644V39.5806H209.609V29.3906H211.899V30.876C212.592 29.8165 213.814 29.2814 215.554 29.2814Z" fill="white"/>
<path d="M227.113 35.2557H219.055C219.198 36.0093 219.561 36.599 220.156 37.0359C220.75 37.4728 221.488 37.6912 222.38 37.6912C223.503 37.6912 224.438 37.3199 225.165 36.5881L226.453 38.0516C225.991 38.5977 225.407 39.0128 224.702 39.2967C223.998 39.5807 223.205 39.7118 222.314 39.7118C221.191 39.7118 220.189 39.4933 219.33 39.0455C218.471 38.5977 217.811 37.9752 217.337 37.1888C216.864 36.3915 216.633 35.4959 216.633 34.4911C216.633 33.4972 216.864 32.6017 217.315 31.8153C217.767 31.018 218.405 30.3955 219.209 29.9586C220.013 29.5108 220.926 29.2924 221.939 29.2924C222.941 29.2924 223.833 29.5108 224.625 29.9477C225.418 30.3845 226.035 31.0071 226.475 31.7935C226.915 32.5907 227.135 33.5082 227.135 34.5457C227.146 34.7205 227.135 34.9498 227.113 35.2557ZM220.002 31.8699C219.473 32.3177 219.143 32.9184 219.033 33.672H224.857C224.758 32.9293 224.438 32.3395 223.91 31.8808C223.381 31.4221 222.732 31.1928 221.95 31.1928C221.191 31.1928 220.541 31.4221 220.002 31.8699Z" fill="white"/>
</svg>
