<svg width="179" height="54" viewBox="0 0 179 54" fill="none" xmlns="http://www.w3.org/2000/svg">
<g clip-path="url(#clip0_342_13830)">
<path d="M172.08 53.5H6.91983C3.37505 53.5 0.5 50.6527 0.5 47.135V6.86501C0.5 3.35852 3.37561 0.5 6.91983 0.5H172.08C175.624 0.5 178.5 3.35852 178.5 6.86501V47.1468C178.5 50.6527 175.637 53.5 172.08 53.5Z" stroke="white"/>
<path d="M58.6639 32.6264H61.1608V38.2411C60.4355 38.8191 59.5795 39.2555 58.6045 39.574C57.6295 39.8807 56.6308 40.034 55.5964 40.034C54.1458 40.034 52.838 39.7273 51.6847 39.1022C50.5195 38.477 49.604 37.6159 48.95 36.5189C48.2842 35.4219 47.9513 34.1716 47.9513 32.7915C47.9513 31.4115 48.2842 30.1729 48.95 29.0641C49.6159 27.9672 50.5314 27.1061 51.6966 26.4809C52.8618 25.8558 54.1815 25.5491 55.644 25.5491C56.8329 25.5491 57.9149 25.7496 58.8899 26.1388C59.8648 26.5281 60.6852 27.0943 61.351 27.8492L59.6865 29.4652C58.6045 28.3918 57.2966 27.8492 55.7747 27.8492C54.776 27.8492 53.8843 28.0615 53.1114 28.4744C52.3386 28.8872 51.7203 29.477 51.2804 30.2319C50.8405 30.9868 50.6265 31.8479 50.6265 32.8033C50.6265 33.747 50.8405 34.5845 51.2804 35.3394C51.7203 36.0943 52.3267 36.6841 53.1114 37.1087C53.8843 37.5333 54.776 37.7575 55.7629 37.7575C56.8686 37.7575 57.8436 37.5215 58.6877 37.0379V32.6264H58.6639Z" fill="white"/>
<path d="M66.2971 39.2673C65.4173 38.7954 64.7277 38.1467 64.2402 37.3092C63.7408 36.4717 63.5031 35.5163 63.5031 34.4547C63.5031 33.3931 63.7527 32.4494 64.2402 31.612C64.7396 30.7745 65.4173 30.1257 66.2971 29.6539C67.177 29.1821 68.1638 28.9462 69.2577 28.9462C70.3634 28.9462 71.3622 29.1821 72.242 29.6539C73.1219 30.1257 73.8115 30.7745 74.2989 31.612C74.7983 32.4494 75.0361 33.3931 75.0361 34.4547C75.0361 35.5163 74.7864 36.4599 74.2989 37.3092C73.7996 38.1467 73.1219 38.8072 72.242 39.2673C71.3622 39.7391 70.3634 39.975 69.2577 39.975C68.1638 39.975 67.177 39.7391 66.2971 39.2673ZM71.5762 36.8964C72.1826 36.283 72.4917 35.4691 72.4917 34.4547C72.4917 33.4521 72.1826 32.6382 71.5762 32.013C70.9698 31.3996 70.197 31.0812 69.2577 31.0812C68.3184 31.0812 67.5575 31.3878 66.9511 32.013C66.3447 32.6264 66.0475 33.4403 66.0475 34.4547C66.0475 35.4573 66.3447 36.2712 66.9511 36.8964C67.5575 37.5097 68.3184 37.8282 69.2577 37.8282C70.197 37.8164 70.9579 37.5097 71.5762 36.8964Z" fill="white"/>
<path d="M79.3877 39.2673C78.5079 38.7954 77.8183 38.1467 77.3308 37.3092C76.8314 36.4717 76.5936 35.5163 76.5936 34.4547C76.5936 33.3931 76.8433 32.4494 77.3308 31.612C77.8302 30.7745 78.5079 30.1257 79.3877 29.6539C80.2676 29.1821 81.2544 28.9462 82.3483 28.9462C83.454 28.9462 84.4527 29.1821 85.3326 29.6539C86.2124 30.1257 86.902 30.7745 87.3895 31.612C87.8889 32.4494 88.1267 33.3931 88.1267 34.4547C88.1267 35.5163 87.877 36.4599 87.3895 37.3092C86.8901 38.1467 86.2124 38.8072 85.3326 39.2673C84.4527 39.7391 83.454 39.975 82.3483 39.975C81.2544 39.975 80.2676 39.7391 79.3877 39.2673ZM84.6668 36.8964C85.2731 36.283 85.5823 35.4691 85.5823 34.4547C85.5823 33.4521 85.2731 32.6382 84.6668 32.013C84.0604 31.3996 83.2875 31.0812 82.3483 31.0812C81.409 31.0812 80.648 31.3878 80.0417 32.013C79.4353 32.6264 79.138 33.4403 79.138 34.4547C79.138 35.4573 79.4353 36.2712 80.0417 36.8964C80.648 37.5097 81.409 37.8282 82.3483 37.8282C83.2875 37.8164 84.0485 37.5097 84.6668 36.8964Z" fill="white"/>
<path d="M101.324 29.076V38.194C101.324 41.9803 99.3744 43.8676 95.4746 43.8676C94.4283 43.8676 93.4415 43.7379 92.5141 43.4784C91.5748 43.2189 90.8138 42.8414 90.1956 42.346L91.337 40.4587C91.8126 40.848 92.4071 41.1546 93.1323 41.3906C93.8576 41.6265 94.5948 41.7444 95.3319 41.7444C96.5209 41.7444 97.4007 41.4731 97.9477 40.9423C98.5065 40.3997 98.78 39.5858 98.78 38.4889V37.9227C98.3519 38.3945 97.8169 38.7484 97.1986 38.9843C96.5804 39.2202 95.8907 39.3499 95.1536 39.3499C94.1311 39.3499 93.1918 39.1376 92.3595 38.7012C91.5272 38.2647 90.8733 37.6514 90.3858 36.8611C89.9102 36.0708 89.6605 35.1625 89.6605 34.1481C89.6605 33.1337 89.8983 32.2254 90.3858 31.4351C90.8614 30.6448 91.5272 30.0432 92.3595 29.6186C93.1918 29.194 94.1192 28.9698 95.1536 28.9698C95.9383 28.9698 96.6517 29.0996 97.2937 29.3473C97.9358 29.6068 98.4708 29.9961 98.9107 30.5151V29.0878H101.324V29.076ZM97.9001 36.3539C98.5184 35.7877 98.8275 35.0446 98.8275 34.1245C98.8275 33.228 98.5184 32.4967 97.9001 31.9305C97.2818 31.3643 96.4971 31.0813 95.5341 31.0813C94.5591 31.0813 93.7625 31.3643 93.1442 31.9305C92.526 32.4967 92.2168 33.228 92.2168 34.1245C92.2168 35.0328 92.526 35.7759 93.1442 36.3539C93.7625 36.92 94.5591 37.2149 95.5341 37.2149C96.4971 37.2149 97.2937 36.9318 97.9001 36.3539Z" fill="white"/>
<path d="M104.653 24.8885H107.186V39.8335H104.653V24.8885Z" fill="white"/>
<path d="M120.669 35.2568H112.168C112.322 36.0471 112.703 36.6723 113.333 37.1441C113.963 37.6041 114.748 37.8401 115.675 37.8401C116.864 37.8401 117.851 37.4508 118.624 36.6723L119.979 38.2175C119.492 38.7955 118.874 39.2319 118.136 39.5268C117.387 39.8217 116.555 39.975 115.616 39.975C114.427 39.975 113.381 39.7391 112.465 39.2673C111.561 38.7955 110.86 38.1467 110.361 37.3093C109.861 36.4718 109.623 35.5163 109.623 34.4547C109.623 33.4049 109.861 32.4613 110.349 31.6238C110.824 30.7863 111.49 30.1258 112.346 29.6657C113.202 29.1939 114.153 28.958 115.223 28.958C116.282 28.958 117.221 29.1939 118.053 29.6539C118.886 30.114 119.539 30.7627 120.003 31.612C120.467 32.4495 120.705 33.4167 120.705 34.5255C120.705 34.6906 120.693 34.9383 120.669 35.2568ZM113.167 31.6828C112.608 32.1546 112.263 32.7916 112.144 33.5819H118.291C118.184 32.8034 117.851 32.1782 117.292 31.6946C116.733 31.211 116.044 30.975 115.223 30.975C114.415 30.975 113.725 31.211 113.167 31.6828Z" fill="white"/>
<path d="M138.052 26.3394C138.967 26.7404 139.669 27.3184 140.156 28.0733C140.644 28.8282 140.881 29.7129 140.881 30.7509C140.881 31.7653 140.644 32.6618 140.156 33.4167C139.669 34.1716 138.967 34.7614 138.052 35.1624C137.136 35.5635 136.066 35.764 134.83 35.764H131.619V39.8335H128.98V25.7378H134.83C136.066 25.7378 137.136 25.9383 138.052 26.3394ZM137.326 32.8269C137.921 32.3433 138.218 31.6474 138.218 30.7509C138.218 29.8544 137.921 29.1585 137.326 28.6749C136.732 28.1913 135.864 27.9554 134.711 27.9554H131.631V33.5582H134.711C135.864 33.5464 136.732 33.3105 137.326 32.8269Z" fill="white"/>
<path d="M143.474 24.8885H146.006V39.8335H143.474V24.8885Z" fill="white"/>
<path d="M157.147 30.0904C157.991 30.8453 158.419 31.9895 158.419 33.5229V39.8217H156.029V38.5124C155.72 38.9842 155.28 39.3381 154.697 39.5858C154.127 39.8335 153.425 39.9632 152.617 39.9632C151.808 39.9632 151.095 39.8217 150.488 39.5504C149.882 39.2791 149.406 38.8899 149.073 38.4062C148.741 37.9108 148.574 37.3682 148.574 36.7431C148.574 35.7758 148.931 34.9973 149.656 34.4193C150.381 33.8296 151.523 33.5465 153.08 33.5465H155.886V33.3813C155.886 32.6264 155.66 32.0484 155.209 31.6474C154.757 31.2463 154.079 31.0458 153.187 31.0458C152.581 31.0458 151.975 31.1402 151.392 31.3289C150.797 31.5176 150.31 31.7771 149.906 32.1192L148.907 30.2909C149.478 29.8663 150.155 29.536 150.952 29.3001C151.749 29.076 152.593 28.958 153.485 28.958C155.078 28.958 156.302 29.3355 157.147 30.0904ZM154.828 37.7103C155.327 37.4272 155.672 37.0144 155.874 36.4718V35.2214H153.259C151.796 35.2214 151.071 35.6933 151.071 36.6487C151.071 37.1087 151.249 37.4626 151.618 37.7339C151.986 38.0052 152.486 38.1349 153.14 38.1349C153.77 38.1349 154.341 37.9934 154.828 37.7103Z" fill="white"/>
<path d="M171.605 29.0759L166.528 40.6945C166.052 41.8623 165.481 42.688 164.804 43.1598C164.126 43.6316 163.306 43.8793 162.343 43.8793C161.796 43.8793 161.272 43.7968 160.737 43.6198C160.214 43.4429 159.774 43.207 159.441 42.9003L160.452 41.0484C160.69 41.2725 160.987 41.4613 161.32 41.591C161.653 41.7208 161.986 41.7915 162.319 41.7915C162.771 41.7915 163.139 41.6736 163.424 41.4495C163.71 41.2253 163.983 40.8361 164.221 40.3053L164.399 39.8806L159.667 29.0877H162.307L165.719 37.0379L169.143 29.0877H171.605V29.0759Z" fill="white"/>
<path d="M43.0773 26.3158L36.2526 22.4115L30.6406 27.7903L35.7651 32.709L43.0654 28.5216C43.4697 28.2975 43.7074 27.8728 43.7074 27.4128C43.7193 26.9528 43.4696 26.5399 43.0773 26.3158Z" fill="#FFD109"/>
<path d="M35.0984 21.7509L27.5841 17.4456L11.1406 9.08252L29.7243 26.9056L35.0984 21.7509Z" fill="#06EF79"/>
<path d="M11.4141 46.2267L27.6198 37.3682L34.6109 33.3696L29.7243 28.6749L11.4141 46.2267Z" fill="#F93646"/>
<path d="M10.0472 9.802L10.0234 45.7902L28.7973 27.7902L10.0472 9.802Z" fill="#05D5FB"/>
<path d="M52.4932 17.9054C51.9225 17.9054 51.3874 17.7875 50.8881 17.5398C50.3887 17.2921 49.9607 16.9618 49.5921 16.5372C49.2235 16.1243 48.9381 15.6525 48.736 15.1217C48.5339 14.6027 48.4269 14.0601 48.4269 13.4939C48.4269 12.9041 48.5339 12.3497 48.736 11.8307C48.9381 11.3117 49.2235 10.8399 49.5921 10.4389C49.9607 10.0378 50.3887 9.71934 50.8762 9.48343C51.3755 9.24752 51.9106 9.14136 52.4932 9.14136C53.3373 9.14136 54.0269 9.31829 54.5858 9.66036C55.1327 10.0142 55.5488 10.4625 55.8223 11.0286L54.9781 11.6184C54.7284 11.1112 54.3718 10.7456 53.9318 10.4978C53.4919 10.2501 53.0044 10.1322 52.4694 10.1322C52.0295 10.1322 51.6252 10.2265 51.2685 10.4153C50.9118 10.604 50.6027 10.8517 50.3411 11.182C50.0796 11.5005 49.8893 11.8661 49.7466 12.2672C49.6159 12.6682 49.5445 13.0929 49.5445 13.5293C49.5445 13.9893 49.6159 14.4258 49.7704 14.8386C49.925 15.2514 50.139 15.6053 50.4125 15.9238C50.6859 16.2423 51.0188 16.4782 51.3874 16.6551C51.756 16.8321 52.1484 16.9264 52.5764 16.9264C53.0758 16.9264 53.5514 16.7967 54.0032 16.549C54.455 16.3013 54.883 15.912 55.2754 15.393V16.5254C54.4906 17.4454 53.5632 17.9054 52.4932 17.9054ZM55.1446 14.3668H53.266V13.5411H56.072V17.8583H55.1446V14.3668Z" fill="white"/>
<path d="M63.6693 16.8795V17.8585H57.7482V9.20056H63.5504V10.1796H58.8539V12.9751H62.944V13.8834H58.8539V16.8677H63.6693V16.8795Z" fill="white"/>
<path d="M71.4688 10.1796H68.4606V17.8585H67.3549V10.1796H64.3468V9.20056H71.4688V10.1796Z" fill="white"/>
<path d="M75.4641 17.8467V9.20056H76.5699V17.8467H75.4641Z" fill="white"/>
<path d="M79.7564 11.2294V17.8585H78.6506V9.20056H79.578L84.9046 15.9594V9.21236H86.0104V17.8467H85.0116L79.7564 11.2294Z" fill="white"/>
<path d="M94.7493 17.9056C94.131 17.9056 93.5841 17.7877 93.0847 17.54C92.5854 17.2923 92.1573 16.962 91.7888 16.5492C91.4202 16.1363 91.1467 15.6645 90.9446 15.1337C90.7425 14.6147 90.6473 14.0721 90.6473 13.5177C90.6473 12.9397 90.7543 12.3853 90.9565 11.8663C91.1705 11.3473 91.4558 10.8755 91.8244 10.4627C92.193 10.0498 92.6329 9.73133 93.1323 9.48363C93.6317 9.24772 94.1786 9.12976 94.7612 9.12976C95.3795 9.12976 95.9264 9.25951 96.4257 9.50722C96.9251 9.75492 97.3531 10.097 97.7098 10.5216C98.0665 10.9463 98.3519 11.4181 98.5421 11.9371C98.7442 12.4561 98.8394 12.9869 98.8394 13.5295C98.8394 14.1075 98.7324 14.6619 98.5302 15.1809C98.3281 15.6999 98.0428 16.1717 97.6623 16.5845C97.2937 16.9974 96.8538 17.3159 96.3544 17.5518C95.8788 17.7995 95.3319 17.9056 94.7493 17.9056ZM91.765 13.5295C91.765 13.9659 91.8363 14.3906 91.979 14.8034C92.1217 15.2163 92.3238 15.5819 92.5854 15.8886C92.8469 16.2071 93.168 16.4548 93.5365 16.6435C93.9051 16.8323 94.3094 16.9266 94.7612 16.9266C95.2249 16.9266 95.641 16.8323 96.0096 16.6317C96.3782 16.4312 96.6873 16.1717 96.9489 15.8532C97.2105 15.5229 97.4007 15.1573 97.5434 14.7562C97.6742 14.3552 97.7455 13.9423 97.7455 13.5295C97.7455 13.0931 97.6742 12.6684 97.5315 12.2674C97.3888 11.8663 97.1867 11.5007 96.9132 11.1822C96.6516 10.8637 96.3306 10.6042 95.962 10.4273C95.5935 10.2503 95.1892 10.156 94.7493 10.156C94.2856 10.156 93.8695 10.2503 93.5009 10.4391C93.1323 10.6278 92.8232 10.8873 92.5616 11.2176C92.3 11.5478 92.1098 11.9017 91.9671 12.3028C91.8363 12.692 91.765 13.1049 91.765 13.5295Z" fill="white"/>
<path d="M101.502 11.2294V17.8585H100.397V9.20056H101.324L106.651 15.9594V9.21236H107.756V17.8467H106.746L101.502 11.2294Z" fill="white"/>
</g>
<defs>
<clipPath id="clip0_342_13830">
<rect width="179" height="54" fill="white"/>
</clipPath>
</defs>
</svg>
