<svg width="12" height="14" viewBox="0 0 12 14" fill="none" xmlns="http://www.w3.org/2000/svg">
<path d="M10.3713 2.99385C10.279 2.94498 10.1892 2.89141 10.1022 2.83333C9.84929 2.66207 9.61741 2.46028 9.41153 2.23232C8.89582 1.6282 8.70326 1.01537 8.63279 0.586701H8.63522C8.5763 0.230201 8.6006 0 8.60485 0H6.2571V9.29699C6.2571 9.42143 6.2571 9.54524 6.25224 9.66718C6.25224 9.68211 6.25041 9.6958 6.24981 9.7126C6.24981 9.71882 6.24981 9.72629 6.24798 9.73313V9.73873C6.22333 10.0722 6.11903 10.3944 5.94425 10.6769C5.76948 10.9594 5.5296 11.1936 5.24571 11.3588C4.94954 11.5314 4.61455 11.6219 4.2738 11.6214C3.18041 11.6214 2.29355 10.7081 2.29355 9.58008C2.29355 8.45147 3.18041 7.53814 4.2738 7.53814C4.48094 7.53814 4.68686 7.57173 4.88367 7.63768L4.88671 5.18885C4.289 5.10986 3.68179 5.15865 3.10341 5.33213C2.52503 5.50561 1.98805 5.80001 1.52635 6.19675C1.12171 6.5567 0.781499 6.98621 0.521037 7.46597C0.422025 7.64079 0.0478416 8.34446 0.00289101 9.48551C-0.0256587 10.1326 0.16447 10.8045 0.254979 11.0814V11.0876C0.311471 11.2506 0.532579 11.808 0.892183 12.2778C1.18217 12.6548 1.5248 12.986 1.90904 13.2608V13.2546L1.91451 13.2608C3.05042 14.0509 4.31086 13.9993 4.31086 13.9993C4.52893 13.99 5.25968 13.9993 6.08944 13.5968C7.00971 13.1501 7.53333 12.485 7.53333 12.485C7.86809 12.0875 8.13432 11.6345 8.32057 11.1454C8.53317 10.5731 8.60364 9.88743 8.60364 9.61368V4.68054C8.63219 4.69796 9.01184 4.95491 9.01184 4.95491C9.01184 4.95491 9.55853 5.3139 10.4108 5.54721C11.0219 5.71333 11.8462 5.74879 11.8462 5.74879V3.36155C11.5576 3.3939 10.9714 3.30058 10.3707 2.99447L10.3713 2.99385Z" fill="#FFFEFE"/>
</svg>
