<svg width="47" height="38" viewBox="0 0 47 38" fill="none" xmlns="http://www.w3.org/2000/svg">
<path d="M45 3.30273H2V35.2317H45V3.30273Z" fill="#37459F"/>
<path d="M13.6488 24.2369C13.6488 22.1796 12.348 21.5993 10.9026 21.2828L10.1317 21.1245C9.02355 20.8608 8.92719 20.5443 8.92719 20.0695C8.92719 19.4365 9.40899 19.0672 10.2762 19.0672C11.288 19.0672 11.5289 19.5947 11.6253 20.0167V20.0695C11.7698 20.4388 12.0589 20.6498 12.3961 20.6498C12.4925 20.6498 12.5889 20.6498 12.637 20.597C13.0225 20.4915 13.3116 20.175 13.3116 19.753C13.3116 19.6475 13.3116 19.542 13.2634 19.4365C13.0707 18.7507 12.4925 17.5901 10.9507 17.3791V16.1658C10.9507 15.1635 9.50535 15.1635 9.50535 16.1658V17.3791C7.81906 17.6429 7.19272 18.9089 7.19272 20.0167C7.19272 22.0213 8.4454 22.5489 9.69807 22.8126L10.5171 23.0236C11.6734 23.2874 11.8662 23.6039 11.8662 24.2369C11.8662 24.9755 11.288 25.3975 10.3726 25.3975C9.11991 25.3975 8.87901 24.7645 8.73448 24.1314C8.63812 23.7622 8.30086 23.4984 7.9636 23.4984C7.86724 23.4984 7.81906 23.4984 7.7227 23.5512H7.67452C7.28908 23.6567 7 23.9732 7 24.3952C7 24.448 7 24.5535 7 24.6062V24.659C7.19272 25.3447 7.57816 26.7691 9.55353 27.0856V28.3516C9.55353 28.8792 9.93897 29.1429 10.2762 29.1429C10.6135 29.1429 10.9989 28.8792 10.9989 28.3516V27.0856C12.637 26.8746 13.6488 25.7668 13.6488 24.2369Z" fill="white"/>
<path d="M40 16.0176H20V29.2296H40V16.0176Z" stroke="white" stroke-miterlimit="10"/>
<path fill-rule="evenodd" clip-rule="evenodd" d="M36.6736 18.5069C37.0818 18.9165 37.1112 19.6128 36.7392 20.0623L33.821 23.5882H27.1279L24.7606 26.6415C24.402 27.104 23.7708 27.1589 23.3508 26.7641C22.9307 26.3693 22.8809 25.6744 23.2394 25.2119L26.2055 21.3862H32.9377L35.2609 18.5792C35.6328 18.1297 36.2653 18.0974 36.6736 18.5069Z" fill="#93E2B6"/>
<path d="M47 34.1309H0V37.4339H47V34.1309Z" fill="#87A9FF"/>
<path d="M2 1.16797V5.64692C2 8.87593 4.42588 11.5321 7.37499 11.5321C10.3241 11.5321 12.75 8.87593 12.75 5.64692V1.16797H2Z" fill="#EC5328"/>
<path d="M23.5 1.16797V5.64692C23.5 8.87593 25.9259 11.5321 28.875 11.5321C31.8241 11.5321 34.25 8.87593 34.25 5.64692V1.16797H23.5Z" fill="#EC5328"/>
<path d="M34.25 1.16797V5.64692C34.25 8.87593 36.6759 11.5321 39.625 11.5321C42.5741 11.5321 45 8.87593 45 5.64692V1.16797H34.25Z" fill="#93E2B6"/>
<path d="M12.75 1.16797V5.64692C12.75 8.87593 15.1759 11.5321 18.125 11.5321C21.0741 11.5321 23.5 8.87593 23.5 5.64692V1.16797H12.75Z" fill="#93E2B6"/>
<path d="M47 0H0V3.303H47V0Z" fill="#87A9FF"/>
</svg>
