<svg width="60" height="60" viewBox="0 0 60 60" fill="none" xmlns="http://www.w3.org/2000/svg">
<circle cx="30" cy="30" r="29" stroke="white" stroke-width="2"/>
<path d="M41 37L43.2273 39L46.5 35" stroke="white" stroke-width="2"/>
<path d="M34 19V16C34 14.3431 32.6569 13 31 13H29C27.3431 13 26 14.3431 26 16V19" stroke="white" stroke-width="2"/>
<circle cx="43.5" cy="38.5" r="6.5" stroke="white" stroke-width="2"/>
<path fill-rule="evenodd" clip-rule="evenodd" d="M15.8711 18.3871C14.2142 18.3871 12.8711 19.7302 12.8711 21.3871V39.7419C12.8711 41.3988 14.2142 42.7419 15.8711 42.7419H38.8598C38.3518 42.1587 37.9478 41.4824 37.6771 40.7419H15.8711C15.3188 40.7419 14.8711 40.2942 14.8711 39.7419V21.3871C14.8711 20.8348 15.3188 20.3871 15.8711 20.3871H43.8066C44.3589 20.3871 44.8066 20.8348 44.8066 21.3871V32.2608C45.5215 32.3883 46.1952 32.6347 46.8066 32.9789V21.3871C46.8066 19.7302 45.4634 18.3871 43.8066 18.3871H15.8711ZM39.8774 40.7419C39.9015 40.7836 39.9263 40.8249 39.9517 40.8657V40.7419H39.8774Z" fill="white"/>
<path d="M46 26L30 31L14 26" stroke="white" stroke-width="2"/>
<line x1="29" y1="26" x2="31" y2="26" stroke="white" stroke-width="2" stroke-linecap="round"/>
</svg>
