<?xml version="1.0" encoding="utf-8"?>
<!-- Generator: Adobe Illustrator 26.3.1, SVG Export Plug-In . SVG Version: 6.00 Build 0)  -->
<svg version="1.1" id="Layer_1" xmlns="http://www.w3.org/2000/svg" xmlns:xlink="http://www.w3.org/1999/xlink" x="0px" y="0px"
	 width="367px" height="254px" viewBox="0 0 367 254" enable-background="new 0 0 367 254" xml:space="preserve">
<path fill="#11146F" d="M0,171.2c0-1.4,4.5-2.6,10-2.6h347c5.5,0,10,1.1,10,2.6v60.1c0,1.4-4.5,2.6-10,2.6H10c-5.5,0-10-1.1-10-2.6
	V171.2z"/>
<g>
	<path fill="#D0D0D0" d="M126,140.5h104v6.5H126V140.5z"/>
	<path fill="#62727A" d="M129.2,95h97.5v45.5h-97.5V95z"/>
	<path fill="#D6EEF0" d="M135.8,99.9h22.8v40.6h-22.8V99.9z"/>
	<path fill="#3E4347" d="M129.2,86.9h97.5v9.8h-97.5V86.9z"/>
	<path fill="#11146F" d="M126,86.9c0,3.6,2.9,6.5,6.5,6.5s6.5-2.9,6.5-6.5H126z"/>
	<path fill="#35A265" d="M139,86.9c0,3.6,2.9,6.5,6.5,6.5s6.5-2.9,6.5-6.5H139z"/>
	<path fill="#11146F" d="M152,86.9c0,3.6,2.9,6.5,6.5,6.5s6.5-2.9,6.5-6.5H152z"/>
	<path fill="#11146F" fill-opacity="0.7" d="M152,72.2h13v14.6h-13V72.2z"/>
	<path fill="#35A265" d="M165,86.9c0,3.6,2.9,6.5,6.5,6.5s6.5-2.9,6.5-6.5H165z"/>
	<path fill="#35A265" fill-opacity="0.7" d="M165,72.2h13v14.6h-13V72.2z"/>
	<path fill="#11146F" fill-opacity="0.7" d="M126,72.2h13v14.6h-13V72.2z"/>
	<path fill="#35A265" fill-opacity="0.7" d="M139,72.2h13v14.6h-13V72.2z"/>
	<path fill="#11146F" fill-opacity="0.7" d="M204,72.2h13v14.6h-13V72.2z"/>
	<path fill="#35A265" fill-opacity="0.7" d="M217,72.2h13v14.6h-13V72.2z"/>
	<path fill="#11146F" d="M178,86.9c0,3.6,2.9,6.5,6.5,6.5s6.5-2.9,6.5-6.5H178z"/>
	<path fill="#11146F" fill-opacity="0.7" d="M178,72.2h13v14.6h-13V72.2z"/>
	<path fill="#35A265" d="M191,86.9c0,3.6,2.9,6.5,6.5,6.5s6.5-2.9,6.5-6.5H191z"/>
	<path fill="#35A265" fill-opacity="0.7" d="M191,72.2h13v14.6h-13V72.2z"/>
	<path fill="#11146F" d="M204,86.9c0,3.6,2.9,6.5,6.5,6.5s6.5-2.9,6.5-6.5H204z"/>
	<path fill="#35A265" d="M217,86.9c0,3.6,2.9,6.5,6.5,6.5s6.5-2.9,6.5-6.5H217z"/>
	<path fill="#FFFFFF" d="M135.8,99.9h3.2v40.6h-3.2V99.9z M155.2,99.9h3.2v40.6h-3.2V99.9z"/>
	<path fill="#B4D7EE" d="M139,99.9h16.2v3.2H139V99.9z"/>
	<path fill="#FFFFFF" d="M169.9,96.6h48.8v32.5h-48.8V96.6z"/>
	<path fill="#3E4347" d="M221.9,134c0,0.8-0.8,1.6-1.6,1.6h-52c-0.8,0-1.6-0.8-1.6-1.6v-3.2c0-0.8,0.8-1.6,1.6-1.6h52
		c0.8,0,1.6,0.8,1.6,1.6V134z"/>
	<path fill="#D6EEF0" d="M173.1,99.9h42.2v26h-42.2V99.9z"/>
	<path fill="#B4D7EE" d="M173.1,99.9h42.2v3.2h-42.2V99.9z"/>
	<path fill="#3E4347" d="M230,72.8H126v-7.9c0-0.5,1.5-1,3.2-1h97.5c1.8,0,3.2,0.4,3.2,1V72.8z"/>
	<path fill="#939598" d="M174.8,105.7h40.6H174.8z M174.8,105.5h40.6v0.4h-40.6L174.8,105.5z M174.8,111.4h40.6H174.8z M174.8,111.2
		h40.6v0.4h-40.6L174.8,111.2z M174.8,117h40.6H174.8z M174.8,116.9h40.6v0.4h-40.6L174.8,116.9z M174.8,122.7h40.6H174.8z
		 M174.8,122.5h40.6v0.4h-40.6L174.8,122.5z M181.3,125.8v-24.3V125.8z"/>
	<path fill="#939598" d="M180.9,101.5h0.6v24.3h-0.6V101.5z M190.7,125.8v-24.3V125.8z M190.4,101.5h0.6v24.3h-0.6V101.5z
		 M200.2,125.8v-24.3V125.8z M199.8,101.5h0.6v24.3h-0.6V101.5z M209.6,125.8v-24.3V125.8z M209.3,101.5h0.6v24.3h-0.6V101.5z"/>
	<path fill="#EE4036" d="M174.8,117.7l6.6-5.8c-0.1-0.1-0.1-0.2-0.2-0.4c-0.3-0.1-0.6-0.1-0.8-0.2l-5.6,4.8V117.7"/>
	<path fill="#EE4036" d="M199.1,113.4l6.6-6.5c-0.1-0.1-0.1-0.3-0.2-0.4c-0.3-0.1-0.6-0.2-0.8-0.3l-5.6,5.4V113.4"/>
	<path fill="#EE4036" d="M185.2,117.8c0.7,0.1,0.7,0,1.1-0.4l-5.2-6c-0.1-0.1-0.2-0.2-0.4-0.2c-0.2,0-0.3,0-0.4,0.1
		c-0.1,0.1-0.2,0.2-0.2,0.4s0,0.3,0.1,0.4L185.2,117.8C185.2,117.8,185.2,117.8,185.2,117.8z M199.1,111.7l-3-3.4
		c-0.1-0.1-0.1-0.1-0.2-0.1c-0.1,0-0.1-0.1-0.2-0.1c-0.1,0-0.2,0-0.2,0c-0.1,0-0.1,0.1-0.2,0.1c-0.1,0.1-0.1,0.1-0.1,0.2
		c0,0.1-0.1,0.1-0.1,0.2c0,0.1,0,0.2,0,0.2c0,0.1,0.1,0.1,0.1,0.2l3.8,4.4L199.1,111.7"/>
	<path fill="#EE4036" d="M186.3,117.4c-0.3,0.3-0.7,0.3-0.9,0c-0.2-0.2-0.1-0.6,0.2-0.9l9.6-8.4c0.3-0.3,0.7-0.3,0.9,0
		c0.2,0.2,0.1,0.7-0.2,0.9L186.3,117.4"/>
	<rect x="135.8" y="96.6" fill="#FFFEFE" width="22.8" height="3.2"/>
	<path fill="#35A265" d="M151.9,123.5c0-2.8-1.9-3.6-4.1-4l-1.1-0.2c-1.7-0.3-1.8-0.8-1.8-1.4c0-0.8,0.8-1.3,2-1.3
		c1.5,0,1.9,0.7,2,1.3l0,0c0.2,0.5,0.6,0.8,1.2,0.8c0.1,0,0.3,0,0.4,0c0.6-0.1,1-0.6,1-1.1c0-0.1,0-0.3-0.1-0.4
		c-0.3-1-1.1-2.5-3.5-2.8v-1.6c0-1.4-2.1-1.4-2.1,0v1.7c-2.5,0.4-3.4,2.1-3.4,3.6c0,2.7,1.9,3.4,3.7,3.8l1.2,0.3
		c1.7,0.3,2,0.8,2,1.6c0,1-0.8,1.6-2.2,1.6c-1.8,0-2.2-0.8-2.4-1.7c-0.1-0.5-0.6-0.8-1.2-0.8c-0.1,0-0.2,0-0.3,0l0,0
		c-0.6,0.1-1,0.6-1,1.2c0,0.1,0,0.2,0,0.3l0,0.1c0.3,0.9,0.9,2.9,3.8,3.3v1.7c0,0.7,0.5,1,1.1,1c0.5,0,1.1-0.4,1.1-1v-1.7
		C150.4,127,151.9,125.6,151.9,123.5"/>
</g>
<path fill="#FFFEFE" d="M65.7,185.2H54c0-3,1.4-4.5,4.2-4.5h24.2c0,1.5-0.4,2.6-1.1,3.4c-0.7,0.8-1.7,1.2-3.1,1.2h-7.4v25.4
	c0,1.3-0.4,2.3-1.3,3c-0.9,0.7-2.1,1.1-3.8,1.1V185.2z M92.5,194c-1.8,0-3.3,0.5-4.5,1.6c-1.2,1.1-1.8,2.4-1.8,3.9v12
	c0,1.2-0.4,2-1.2,2.5c-0.8,0.5-2,0.8-3.6,0.8v-21c0-2.6,1.5-3.9,4.6-3.9v2.9c-0.4,0.5-0.8,1-1.1,1.5l0.2,0.2c2-3,4.6-4.6,7.6-4.6
	c1.2,0,2.1,0.3,2.8,0.9c0.7,0.6,1,1.4,1,2.3c0,0.7-0.2,1.2-0.5,1.7C95.1,194.3,94,194,92.5,194z M107.1,214.7
	c-2.7,0-4.8-0.7-6.5-2.2c-1.7-1.5-2.5-3.4-2.5-5.9c0-2.5,0.9-4.4,2.7-5.9c1.8-1.5,4.1-2.2,7-2.2c3,0,5.5,1,7.4,3.1l0.2-0.2
	c-0.4-0.4-0.8-0.9-1.3-1.2v-1.6c0-1.5-0.5-2.7-1.5-3.6c-1-0.9-2.4-1.3-4.2-1.3c-3.2,0-5.6,1.2-7,3.7c-0.6-0.3-1.1-0.6-1.5-1.1
	c-0.4-0.5-0.5-1-0.5-1.4c0-0.9,0.4-1.7,1.3-2.5c0.9-0.8,2-1.4,3.5-1.9c1.4-0.5,3-0.7,4.6-0.7c3.1,0,5.6,0.8,7.4,2.3
	c1.8,1.5,2.7,3.6,2.7,6.3v12.8c0,1.2-0.4,2.1-1.1,2.7c-0.7,0.5-1.9,0.8-3.4,0.8v-2.2c0.7-0.7,1-1.2,1.1-1.2l-0.2-0.2
	c-1.1,1.2-2.2,2.1-3.6,2.7C110.3,214.4,108.8,214.7,107.1,214.7z M108.1,211.1c1.9,0,3.4-0.4,4.4-1.2c1.1-0.8,1.6-1.8,1.6-3.2
	s-0.5-2.5-1.6-3.3c-1.1-0.8-2.5-1.2-4.3-1.2c-1.7,0-3,0.4-4,1.2c-1,0.8-1.5,1.9-1.5,3.3s0.5,2.4,1.4,3.2
	C105.1,210.7,106.4,211.1,108.1,211.1z M133.7,214.7c-1.8,0-3.4-0.4-4.8-1.1c-1.4-0.7-2.5-1.7-3.3-3c-0.8-1.3-1.2-2.8-1.2-4.4v-8
	c0-1.6,0.4-3.1,1.2-4.4s1.9-2.3,3.4-3c1.5-0.7,3.1-1.1,4.9-1.1c1.4,0,2.7,0.3,4,0.9c1.3,0.6,2.4,1.3,3.4,2.3l0.1-0.2
	c-0.2-0.3-0.5-0.6-1-1v-8c0-1.1,0.4-2,1.2-2.6s2-0.9,3.6-0.9v30.8c0,1.1-0.4,2-1.1,2.6c-0.7,0.7-1.8,1-3.4,1V212
	c0.4-0.6,0.8-1,0.9-1.2l-0.2-0.2c-1,1.3-2.1,2.3-3.4,3.1C137,214.4,135.4,214.7,133.7,214.7z M134.9,210.5c1.6,0,2.9-0.4,4-1.2
	c1.1-0.8,1.6-1.9,1.6-3.1v-7.9c0-1.2-0.5-2.2-1.6-3c-1-0.8-2.4-1.2-4.1-1.2c-1.8,0-3.2,0.4-4.2,1.2c-1,0.8-1.4,1.9-1.4,3.3v7.5
	c0,1.5,0.5,2.6,1.4,3.4C131.7,210.2,133.1,210.5,134.9,210.5z M155.1,186.7c-1,0-1.8-0.3-2.4-0.9c-0.7-0.6-1-1.4-1-2.3
	c0-0.9,0.3-1.7,1-2.3c0.7-0.6,1.5-0.9,2.4-0.9c1,0,1.8,0.3,2.4,0.9c0.7,0.6,1,1.4,1,2.3c0,0.9-0.3,1.7-1,2.3
	C156.8,186.4,156,186.7,155.1,186.7z M152.7,193.1c0-1.2,0.4-2,1.2-2.5c0.8-0.5,2-0.8,3.6-0.8v21.6c0,1.1-0.4,2-1.2,2.5
	c-0.8,0.5-2,0.8-3.6,0.8V193.1z M164.8,193.7c0-2.6,1.5-3.9,4.6-3.9v3c-0.3,0.3-0.7,0.8-1.1,1.3l0.2,0.2c1-1.4,2.2-2.5,3.7-3.3
	c1.5-0.8,3.2-1.2,5-1.2c2.6,0,4.6,0.8,6.1,2.4c1.5,1.5,2.3,3.5,2.3,6v13.3c0,1.1-0.4,2-1.2,2.5c-0.8,0.5-2,0.8-3.6,0.8v-16
	c0-1.4-0.4-2.5-1.2-3.4c-0.8-0.9-2-1.3-3.6-1.3c-1.1,0-2.2,0.3-3.2,0.8c-1,0.5-1.8,1.1-2.4,2c-0.6,0.8-0.9,1.7-0.9,2.7v12
	c0,1.2-0.4,2-1.2,2.5c-0.8,0.5-2,0.8-3.6,0.8V193.7z M201.3,224.3c-1.8,0-3.4-0.3-4.8-0.8c-1.4-0.5-2.6-1.2-3.4-2.2
	c-0.8-0.9-1.2-1.9-1.2-3c0-1.7,1.2-2.6,3.5-2.6c0.1,1.4,0.6,2.6,1.6,3.4c1.1,0.8,2.5,1.2,4.3,1.2c3.9,0,5.8-1.9,5.8-5.7v-2.4
	c0.4-0.4,0.8-0.7,1-1.1L208,211c-0.9,0.9-2,1.7-3.5,2.3c-1.4,0.6-2.7,0.9-4.1,0.9c-1.8,0-3.4-0.4-4.8-1.1c-1.4-0.7-2.5-1.7-3.3-2.9
	c-0.8-1.3-1.2-2.8-1.2-4.4v-7.5c0-1.6,0.4-3.1,1.2-4.4s2-2.3,3.4-3c1.4-0.7,3-1.1,4.7-1.1c1.7,0,3.2,0.4,4.5,1.1
	c1.3,0.7,2.4,1.7,3.4,3l0.2-0.2c-0.3-0.4-0.6-0.9-1-1.2c0-1.8,1.5-2.7,4.5-2.7v24.3c0,2-0.5,3.7-1.4,5.3c-0.9,1.6-2.2,2.8-3.8,3.6
	C205.2,223.9,203.4,224.3,201.3,224.3z M201.4,210.1c1.6,0,3-0.4,4.1-1.2c1.1-0.9,1.7-1.9,1.7-3.1v-7.5c0-1.2-0.5-2.2-1.6-3.1
	s-2.4-1.2-4-1.2c-1.8,0-3.2,0.4-4.2,1.2c-1,0.8-1.4,1.9-1.4,3.4v7c0,1.4,0.5,2.5,1.4,3.4C198.3,209.7,199.7,210.1,201.4,210.1z"/>
<path fill="#35A265" d="M218.2,183.1c0-0.7,0.2-1.3,0.7-1.7c0.5-0.4,1.2-0.7,1.9-0.7h13.8c2.2,0,4.1,0.4,5.8,1.3
	c1.7,0.9,3,2.1,3.9,3.7c0.9,1.6,1.4,3.5,1.4,5.6c0,2.1-0.5,4-1.4,5.7c-0.9,1.6-2.2,2.9-3.9,3.8c-1.7,0.9-3.6,1.3-5.8,1.3h-11.2v8.5
	c0,1.3-0.4,2.3-1.3,3c-0.9,0.7-2.2,1.1-3.8,1.1V183.1z M234.6,197.6c1.9,0,3.3-0.5,4.4-1.6c1.1-1.1,1.6-2.7,1.6-4.6
	c0-1.9-0.5-3.4-1.6-4.5c-1.1-1.1-2.5-1.7-4.3-1.7h-11.2v12.4H234.6z M256.8,214.7c-2,0-3.8-0.4-5.4-1.1c-1.6-0.7-2.9-1.7-3.8-3
	c-0.9-1.3-1.3-2.8-1.3-4.4v-7.5c0-1.6,0.4-3.1,1.3-4.5c0.9-1.3,2.1-2.4,3.7-3.2c1.6-0.8,3.4-1.2,5.5-1.2c2,0,3.9,0.4,5.5,1.2
	c1.6,0.8,2.8,1.8,3.7,3.2c0.9,1.3,1.4,2.8,1.4,4.5v7.5c0,1.6-0.5,3.1-1.4,4.4c-0.9,1.3-2.2,2.3-3.8,3
	C260.7,214.3,258.9,214.7,256.8,214.7z M256.8,210.6c1.8,0,3.3-0.4,4.3-1.2c1.1-0.9,1.6-2,1.6-3.4v-7.1c0-1.5-0.5-2.7-1.6-3.6
	c-1.1-0.9-2.5-1.3-4.3-1.3s-3.2,0.4-4.3,1.3c-1.1,0.9-1.6,2.1-1.6,3.6v7.1c0,1.4,0.5,2.5,1.6,3.4C253.6,210.2,255,210.6,256.8,210.6
	z M280.5,214.7c-1.8,0-3.4-0.2-4.9-0.7c-1.5-0.5-2.6-1.2-3.5-2.2c-0.9-1-1.3-2-1.3-3.3c0-1.6,1.1-2.5,3.2-2.6c0.3,1.7,1,2.9,2.2,3.7
	c1.2,0.8,2.6,1.2,4.4,1.2c1.8,0,3.2-0.3,4.2-0.8c1-0.5,1.5-1.3,1.5-2.3c0-1-0.4-1.8-1.3-2.4c-0.9-0.6-2.5-1.1-4.9-1.6
	c-2.2-0.5-4-1-5.2-1.6c-1.3-0.5-2.2-1.3-2.9-2.2c-0.6-0.9-1-2.1-1-3.6c0-1.3,0.4-2.4,1.2-3.4c0.8-1,1.8-1.8,3.2-2.4
	c1.4-0.6,3-0.9,4.8-0.9c1.7,0,3.3,0.2,4.8,0.7c1.5,0.4,2.6,1.1,3.5,2c0.9,0.8,1.3,1.8,1.3,2.9c0,1.6-1.2,2.4-3.6,2.5
	c-0.2-1.3-0.8-2.4-1.8-3.2c-1-0.8-2.4-1.2-4.1-1.2c-1.4,0-2.6,0.3-3.5,0.8c-0.9,0.5-1.3,1.2-1.3,2.1c0,0.9,0.4,1.6,1.2,2.1
	c0.8,0.4,2.2,0.9,4.2,1.3c3.4,0.7,5.9,1.7,7.5,2.9c1.6,1.2,2.4,2.9,2.4,5c0,2.2-0.9,3.9-2.7,5.1
	C286.3,214.1,283.7,214.7,280.5,214.7z M303.9,214.7c-2.4,0-4.2-0.7-5.3-2c-1.2-1.4-1.7-3.2-1.7-5.4V194h-4.6c0-1.2,0.3-2.2,0.8-2.8
	c0.5-0.6,1.2-1,2.1-1h1.9v-4.4c0-1.2,0.4-2,1.2-2.5c0.8-0.5,1.9-0.8,3.5-0.8v7.6h6.4c0,1.3-0.3,2.2-0.8,2.8
	c-0.5,0.6-1.3,0.9-2.4,0.9h-3v13.1c0,1.2,0.2,2.1,0.7,2.6c0.4,0.5,1.2,0.8,2.4,0.8c1.1,0,2.2-0.3,3.3-0.9c0.5,0.5,0.8,1.2,0.8,1.9
	c0,0.8-0.4,1.6-1.3,2.2C306.6,214.4,305.4,214.7,303.9,214.7z"/>
</svg>
