<svg width="101" height="120" viewBox="0 0 101 120" fill="none" xmlns="http://www.w3.org/2000/svg">
<path d="M5.94118 0.235291V107.176H0V119.059H23.7647V107.176H17.8235V77.4706H95.0588C96.6345 77.4706 98.1457 76.8446 99.2599 75.7304C100.374 74.6163 101 73.1051 101 71.5294V12.1176C101 10.5419 100.374 9.03078 99.2599 7.9166C98.1457 6.80241 96.6345 6.17647 95.0588 6.17647H17.8235V0.235291H5.94118ZM29.7059 18.0588V29.9412H41.5882V18.0588H53.4706V29.9412H65.3529V18.0588H77.2353V29.9412H89.1176V41.8235H77.2353V53.7059H89.1176V65.5882H77.2353V53.7059H65.3529V65.5882H53.4706V53.7059H41.5882V65.5882H29.7059V53.7059H17.8235V41.8235H29.7059V29.9412H17.8235V18.0588H29.7059Z" fill="black"/>
<path d="M29.7056 41.8232H41.5879V53.7056H29.7056V41.8232ZM53.4703 41.8232H65.3526V53.7056H53.4703V41.8232ZM41.5879 29.9409H53.4703V41.8232H41.5879V29.9409ZM65.3526 29.9409H77.235V41.8232H65.3526V29.9409Z" fill="black"/>
</svg>
