<svg width="164" height="192" viewBox="0 0 164 192" fill="none" xmlns="http://www.w3.org/2000/svg">
<path d="M150.333 0.858227H68.3333C64.7098 0.861829 61.2357 2.29662 58.6735 4.84775C56.1113 7.39887 54.6703 10.8579 54.6667 14.4657L54.6667 34.877H68.3333L68.3333 14.4657H150.333L150.333 177.756H68.3333V157.345H54.6667V177.756C54.6703 181.364 56.1113 184.823 58.6735 187.374C61.2357 189.925 64.7098 191.36 68.3333 191.363H150.333C153.957 191.36 157.431 189.925 159.993 187.374C162.555 184.823 163.996 181.364 164 177.756L164 14.4657C163.996 10.8579 162.555 7.39887 159.993 4.84775C157.431 2.29662 153.957 0.861829 150.333 0.858227Z" fill="black"/>
<path d="M50.6623 64.9087L26.158 89.307L123 89.307V102.914L26.158 102.914L50.6623 127.313L41 136.933L-2.86102e-06 96.1107L41 55.2882L50.6623 64.9087Z" fill="black"/>
</svg>
